<svg xmlns="http://www.w3.org/2000/svg" viewBox="0 0 162.54 87.64"><defs><style>.cls-1{fill:#fff;}</style></defs><title>logo-full-white</title><g id="Layer_2" data-name="Layer 2"><g id="Layer_1-2" data-name="Layer 1"><g id="CSC-logo"><path class="cls-1" d="M2.66,49.47a8.74,8.74,0,0,0,6.16,2.35c4.34,0,6.31-4.66,1.5-6l-4-1c-3.41-.9-5.76-3.22-5.76-6.5-.09-3.75,3.85-6.88,8.26-6.78a13.12,13.12,0,0,1,8,2.62l-2.47,3.51a8.49,8.49,0,0,0-5.53-1.85c-3.66,0-5.51,3.72-1.38,4.91l3.75,1c3.6.9,6.51,3.22,6.51,7,.09,4.07-4,7.41-8.88,7.32A13.4,13.4,0,0,1,.16,53Z"/><path class="cls-1" d="M33.39,42.69a5.21,5.21,0,0,0-3.75-1.56,5.33,5.33,0,0,0,0,10.66,5.22,5.22,0,0,0,3.75-1.57l3.06,3a9.83,9.83,0,0,1-16.72-6.78,9.61,9.61,0,0,1,9.91-9.57,9.51,9.51,0,0,1,6.81,2.82Z"/><path class="cls-1" d="M65.46,48.41H51.05A5.18,5.18,0,0,0,56,52a6,6,0,0,0,5-2.53l3.37,2.19A10.15,10.15,0,0,1,56,56a9.58,9.58,0,1,1,9.72-9.6A9.32,9.32,0,0,1,65.46,48.41ZM61,44.73a5.21,5.21,0,0,0-9.91,0Z"/><path class="cls-1" d="M100.9,42.69a5.19,5.19,0,0,0-3.75-1.56,5.33,5.33,0,0,0,0,10.66,5.2,5.2,0,0,0,3.75-1.57l3.07,3a9.69,9.69,0,1,1-6.82-16.35A9.53,9.53,0,0,1,104,39.69Z"/><path class="cls-1" d="M124.46,48.41H110.05A5.19,5.19,0,0,0,115,52a6,6,0,0,0,5-2.53l3.38,2.19A10.17,10.17,0,0,1,115,56a9.58,9.58,0,1,1,9.72-9.6A8.74,8.74,0,0,1,124.46,48.41ZM120,44.73a5.21,5.21,0,0,0-9.91,0Z"/><rect class="cls-1" x="38.77" y="37.36" width="4.3" height="18.12"/><path class="cls-1" d="M43.64,32.75A2.63,2.63,0,1,1,41,30.13,2.62,2.62,0,0,1,43.64,32.75Z"/><path class="cls-1" d="M76.44,36.85c-5,0-8.19,3.65-8.19,8.34V55.48h4.3V45.16a3.75,3.75,0,0,1,3.9-4.06,4,4,0,0,1,4.09,4.16V55.48h4.3V45.19A8,8,0,0,0,76.44,36.85Z"/><path class="cls-1" d="M24.33,9.72V.3l-3.2,3.2A12.25,12.25,0,0,0,12.57,0a12.26,12.26,0,1,0,0,24.51A12.25,12.25,0,0,0,23,18.79l-3.63-2.25a8,8,0,1,1-1.2-10l-3.2,3.2Z"/><path class="cls-1" d="M35.17,24.43a9.58,9.58,0,1,1,0-19.16,9.59,9.59,0,1,1,0,19.16Zm0-14.91a5.33,5.33,0,1,0,5.35,5.31A5.33,5.33,0,0,0,35.17,9.52Z"/><path class="cls-1" d="M150.26,16.78H135.85a5.19,5.19,0,0,0,4.94,3.6,5.94,5.94,0,0,0,5-2.54L149.2,20a10.15,10.15,0,0,1-8.41,4.32,9.59,9.59,0,1,1,9.72-9.6A8.81,8.81,0,0,1,150.26,16.78Zm-4.5-3.69a5.21,5.21,0,0,0-9.91,0Z"/><path class="cls-1" d="M153,23.84V13.6c0-4.51,2.56-7.94,8.09-7.94.45,0,.93,0,1.43.08V10a7.15,7.15,0,0,0-1-.07c-2.8,0-4.21,1.53-4.21,4.6v9.33Z"/><path class="cls-1" d="M76.85,15.41v14h4.3V22.22a7.12,7.12,0,0,0,5.41,2.34A9.38,9.38,0,0,0,96.12,15a9.33,9.33,0,0,0-7.83-9.42A9.92,9.92,0,0,0,76.85,15.41Zm9.55,4.77a5.33,5.33,0,1,1,5.35-5.35A5.33,5.33,0,0,1,86.4,20.18Z"/><path class="cls-1" d="M111.25,5.72V16a3.72,3.72,0,0,1-3.89,4.06,4,4,0,0,1-4.09-4.16V5.72H99V16a8.05,8.05,0,0,0,8.4,8.35c5,0,8.18-3.68,8.18-8.35V5.72Z"/><path class="cls-1" d="M52,23.84V12.77a3,3,0,0,1,3.14-3.31,3.2,3.2,0,0,1,3.31,3.38v11h4.29V12.77A3.06,3.06,0,0,1,65.9,9.46a3.17,3.17,0,0,1,3.27,3.38v11h4.3V12.58a7.06,7.06,0,0,0-7.36-7.37,6.53,6.53,0,0,0-5.55,2.66,6.8,6.8,0,0,0-5.68-2.66c-4.47,0-7.2,3.28-7.2,7.37V23.84Z"/><path class="cls-1" d="M129.37,9.72v-4h-4.6V.5h-4.3V5.72h-3.08v4h3.08v7.93q0,6.21,7.41,6.21c.48,0,1,0,1.49,0V19.57c-.27,0-.52,0-.77,0-2.55,0-3.83-.63-3.83-3V9.72Z"/><path class="cls-1" d="M43.61,80.05H29.2a5.18,5.18,0,0,0,4.94,3.59,5.94,5.94,0,0,0,5-2.53l3.38,2.19a10.17,10.17,0,0,1-8.41,4.31,9.58,9.58,0,1,1,0-19.16A9.62,9.62,0,0,1,43.86,78,8.88,8.88,0,0,1,43.61,80.05Zm-4.5-3.69a5.21,5.21,0,0,0-9.91,0Z"/><path class="cls-1" d="M97.74,80.05H83.33a5.18,5.18,0,0,0,4.94,3.59,6,6,0,0,0,5-2.53l3.38,2.19a10.18,10.18,0,0,1-8.41,4.31A9.58,9.58,0,1,1,98,78,8.88,8.88,0,0,1,97.74,80.05Zm-4.5-3.69a5.21,5.21,0,0,0-9.91,0Z"/><path class="cls-1" d="M100.5,87.11V76.87c0-4.51,2.56-7.94,8.09-7.94.45,0,.93,0,1.43.08v4.24a7.12,7.12,0,0,0-1-.07q-4.22,0-4.22,4.6v9.33Z"/><path class="cls-1" d="M19.32,71.14a8,8,0,1,0,0,8.53L23,81.92a12.25,12.25,0,0,1-10.38,5.72,12.26,12.26,0,1,1,0-24.51A12.33,12.33,0,0,1,23,68.86Z"/><circle class="cls-1" cx="12.57" cy="75.39" r="3.74"/><path class="cls-1" d="M54.63,68.48c-5,0-8.18,3.66-8.18,8.35V87.11h4.3V76.8a3.75,3.75,0,0,1,3.89-4.07,4,4,0,0,1,4.09,4.17V87.11H63V76.83A8.05,8.05,0,0,0,54.63,68.48Z"/><path class="cls-1" d="M76.85,73V69h-4.6V63.77H68V69H64.87v4H68v7.94q0,6.21,7.41,6.21c.48,0,1,0,1.49,0V82.84l-.77,0c-2.55,0-3.83-.63-3.83-3V73Z"/></g></g></g></svg>