<svg xmlns="http://www.w3.org/2000/svg" viewBox="0 0 510.2 652"><style>.st0{fill:#fffef9}.st1{fill:#444345}.st2{fill:none}.st3{fill:#434345}.st4{fill:#ff9e18}.st5{fill:#00af9a}</style><g id="_x33_275_C"><path class="st0" d="M491.7 410h-15.4v.2l-17.7-.1-43.3-.1-142.3.1h-16.1c-3.1 0-5.7 2.5-5.7 5.7v27c0 3.1 2.5 5.7 5.7 5.7h13.7c.2-.1.5-.1.7-.1h204.9v.1h14.1c3.1 0 5.7-2.5 5.7-5.7v-27.3c.1-2.6-1.8-4.9-4.3-5.5z"/><path class="st1" d="M490.4 450.6h-16.1v-.1h-203-.2l-.2.1H257c-4.2 0-7.7-3.4-7.7-7.7v-27c0-4.2 3.4-7.7 7.7-7.7h16.1l142.1-.1 59.1.2v-.3h17.6l.2.1c3.5.8 6 3.9 6 7.5v27.3c0 4.2-3.5 7.7-7.7 7.7zm-12.2-4h12.1c2 0 3.7-1.7 3.7-3.7v-27.3c0-1.7-1.1-3.1-2.7-3.5h-13.2v.1h-2L415 412l-140 .1h-18.1c-2 0-3.7 1.7-3.7 3.7v27c0 2 1.7 3.7 3.7 3.7h13.5c.3-.1.6-.1 1-.1h206.9v.2z"/><path class="st2" d="M68.1 81c-.1.6-.3 1.1-.4 1.7v.1c.1-.6.2-1.2.4-1.8zM67.2 89.5c0-.1 0-.1 0 0 0-.1 0-.1 0 0 0 .5 0 1 .1 1.5v0c-.1-.5-.1-1-.1-1.5zM69.3 76.9c0 .1 0 .1 0 0-.2.4-.3.7-.4 1.1.2-.3.3-.6.4-1.1 0 .1 0 .1 0 0zM67.5 83.8c0 .3-.1.6-.1.9v0c0-.3.1-.6.1-.9zM102 47.8l31.9-4.9-31.8 4.9-2.7.5-1.7.2zM84.9 58.8l.1.5-.1-.5-.6-3.7zM83.9 52.3c-.2 0-.3.1-.5.1.2-.1.3-.1.5-.1zM68.9 75.6v.1c.1.2.2.5.3.7-.1-.2-.2-.5-.3-.7v-.1zM68.3 73.6v0zM71.2 110c-.9-2-1.5-4-2-6 .5 2 1.1 4 2 6 .1.2.2.5.3.7-.1-.3-.2-.5-.3-.7zM91.7 63.6l.1.4-.1-.4M89 64.6l1.9-.3-1.9.3-.4-2.4c-.2-1.5 0-2.9.6-4.2.2-.4.4-.7.6-1.1-.2.3-.5.7-.6 1.1-.6 1.3-.8 2.8-.6 4.2l.4 2.4zM99.8 597.6H89.6v6.4h8.7c.5 0 1 .3 1.3.7.1.1.9 1.5 2.6 3.3 1.1-.5 2.5-.9 4-1.2l.5 2.8c-.8.1-1.4.3-2.1.5.5.4 1.1.8 1.7 1.1.8-.4 1.7-.7 2.7-1.1v-4.8c0-.8.6-1.4 1.4-1.4h.3v-6.4H99.8zM127.5 49l.2 1.3zM74.2 115.1c1.1 1.5 2.4 3 3.8 4.3-1.5-1.3-2.7-2.8-3.8-4.3zM97.9 56.4c-.4 0-.8.1-1.2.1.4-.1.8-.1 1.2-.1zM131 57.6l-8.4 1.3zM121.4 59.1v.3-.3zM121.8 61.9l9.6-1.4-.1-.3.1.3zM79.5 107.8c.4 0 .9 0 1.3-.1l.5-.1-.5.1c-.4 0-.8.1-1.3.1zM71.1 100.6c-.1-.5-.1-1-.1-1.4 0 .4 0 .9.1 1.4.3 2.3 1.6 4.2 3.4 5.6.7.5 1.4.9 2.2 1.1-.8-.3-1.5-.6-2.2-1.1-1.9-1.4-3.1-3.4-3.4-5.6zM403.9 198.6l-.9.6.9-.6zM76 91.5c-.8.3-1.5.8-2.1 1.4.6-.6 1.3-1.1 2.1-1.4zM83.6 89.3l1.6.4zM76.1 90.8c.2-.9.6-1.4.9-1.8.7-.6 1.7-.8 2.3-.8-.7 0-1.6.1-2.3.8-.4.4-.8 1-.9 1.8zM141.3 54c-.3.1-.7.1-1.2.2h-.3c.7 0 1.2-.1 1.5-.2.1 0 .1 0 0 0zM79.9 121c-.1 0-.1 0 0 0-.1 0-.1 0 0 0zM84.9 58.2c0-1.9.5-3.7 1.5-5.1-1 1.4-1.6 3.2-1.5 5.1zM138 54.5c-.5.1-1 .2-1.6.3-2 .3-4.1.6-5.6.9 1.6-.2 3.6-.6 5.6-.9.6-.1 1.1-.2 1.6-.3zM134 43.7v-.1c0-.1 0-.3-.1-.4 0 .1 0 .3.1.4v.1zM142.7 53.8h-.1c-.1 0-.2 0-.4.1.2 0 .3 0 .4-.1h.1zM129.6 55.9c.1 0 .1 0 0 0 .5-.5.9-1 1.3-1.5l.1-.1c.2-.2.3-.5.5-.7l.1-.1c.1-.2.3-.4.4-.7l.1-.1c-.6 1.1-1.4 2.2-2.5 3.2zM87.4 73.9c0-.1 0-.1 0 0 .5 2.9.7 5.3.6 7.4.1-2.1-.1-4.6-.6-7.4zM134.1 45.2c0 .4 0 .8-.1 1.2.1-.4.1-.8.1-1.2 0 0 0-.1 0 0 0-.1 0 0 0 0zM141 63.9c-.1.1-.1.3-.2.4-.3.4-.5.8-.8 1.3.3-.4.6-.8.8-1.2 0-.3.1-.4.2-.5.1-.2.2-.4.3-.7 0-.1.1-.1.1-.2 0 .1-.1.1-.1.2-.1.2-.2.4-.3.7zM142.8 54.7c0-.1 0-.1 0 0 0-.1 0-.1 0 0v-.4.4c0-.1 0-.1 0 0zM128.9 72.4l-.8.1.8-.1 1.5-.3-1.5.3zM142.8 58c0 .3-.1.7-.1 1 0 .1 0 .3-.1.4-.1.4-.2.9-.3 1.3-.1.2-.1.3-.2.5s-.2.5-.3.8c-.1.2-.1.3-.2.5.1-.2.1-.3.2-.5.1-.3.2-.5.3-.8.1-.2.1-.3.2-.5.1-.4.2-.9.3-1.3 0-.1 0-.3.1-.4 0-.3.1-.7.1-1v-.5-.5 1zM305.2 410.2v-.1h-8.6v.1zM459.1 448.5h6.5c.5 0 1 0 1.5.1-.5-.1-1-.1-1.5-.1h-6.5zM364.3 371.6c.1.2.2.3.3.5l10.1.1v-12.8l-9.9 9.9c-.7.5-.9 1.4-.5 2.3z"/><path class="st3" d="M476.2 410h16.1v-87.3H436.7l-16.4-110.6c-1-6.4-5.1-11.5-10.5-14.1-2.5-1.1-3.7-1.3-3.7-1.3-.7.6-1.5 1.2-2.2 1.8-.3.2-.6.5-.9.6 7.2.6 13.3 6 14.4 13.4l16.4 110.2h-32.1l-12.3-83.2-1.4.2-1.4.2 8.1 55.3-71.9-5.3 5.1-63.2-1.4-.1-1.4-.1-.2 2.3-44.2-27.3c-6.8-4.2-11.5-11-12.9-18.8l-7.4-39.7c-.1-3.4 2.3-6.3 5.5-7 1.2 3.9 13.2 4.1 15.7 4.1 2.6 0 15.8-.2 15.8-4.8v-.7c1.4.2 2.8.8 3.9 1.8 1.4 1.3 2.2 3 2.2 4.8l.6 15.1c.4 10.4 6 19.8 14.8 25.2l22.7 13.9c-2.9.5-5.6 1.8-7.9 3.7l.9 1.1.9 1.1c2.5-2.1 5.7-3.3 9-3.3h13.7l1.3 3.4c1.1 3.5 4.3 5.7 7.8 5.7.8 0 1.6-.1 2.4-.4 2.1-.6 3.8-2.1 4.8-4 .8-1.5 1.1-3.1.9-4.8h1.3c-.6-.5-1.1-1-1.6-1.6l-1.9-5c1.6-.5 3.1-1.2 4.5-2 4.3-2.3 7.9-5.6 10.6-9.6 2.4-.3 4.4-2 5-4.4.2-1 .2-2.1-.1-3-.6-1.9-2.1-3.4-4.2-3.9l-2.7-.6-.3 1.4-.3 1.4.3.1 2.4.5c1.6.4 2.5 1.9 2.2 3.5-.4 1.6-1.9 2.5-3.5 2.2l-.7-.2-.3 1.4v-.1c-2.5 3.7-5.7 6.7-9.7 8.8-1.9 1-4 1.8-6.2 2.4l.5 1.9.2.8.5 2.5 1 2.7c.4 1.4.3 2.8-.4 4-.7 1.3-1.8 2.2-3.1 2.6-2.8.9-5.8-.7-6.7-3.6l-2.7-7.2c.6 0 1.2.1 1.8.1h1.7l-.3-2.8c-3.4.1-7-.2-10.5-1.1-8.8-2-16.2-6.6-20.7-12.9-1.9-2.6-3.2-5.5-4.1-8.6-1.3-.7-2.5-1.7-3.5-2.9l-.1-.1c.7 4.8 2.4 9.3 5.3 13.3 4.9 6.8 12.8 11.8 22.3 14 1.6.4 3.3.7 4.9.9l.8 2.1h-10.5l-26.3-16.1c-8-4.9-13.1-13.5-13.5-22.9l-.6-15.1c-.2-5-4.1-8.9-8.9-9.3V122c0-1.8-2.1-2.9-4.7-3.6 0-2.8 0-6.5.2-10.2.3-6-1.6-11.8-5.2-16.4h36.2V11H215v80.7h24.7l.2.3c.2.4 5.3 8.5 21.5 8.5 1.1 0 2.2 0 3.3-.1 1.5.4 2.8.8 3.9 1.1.5.3 2.5 1.6 2.7 4.2.1 1.8.2 6.3.2 12.4-3 .7-5.5 1.9-5.5 3.8V133c-4.8.8-8.4 5.1-8.2 10.1l7.5 40c1.6 8.6 6.8 16.2 14.2 20.7l45.4 28-4.8 59-60.3 60.3c-6.5 6.5-10 15.1-10 24.2 0 9.2 3.6 17.8 10 24.2 5.4 5.4 12.4 8.8 19.8 9.7v39h8.6v-38.4h17.2l98.5-.1 30 .1 16.8.1V448.2h8.6v-38.4.2h8.6v38.5h8.6V410zM294.3 122s-.1 0 0 0c-.1 0-.1.1-.2.1s-.1.1-.2.1-.1 0-.2.1c-.1 0-.1.1-.2.1s-.1.1-.2.1-.2.1-.3.1c-.1 0-.1 0-.2.1h-.1v-1.3c.7.2 1.2.4 1.6.6zm-9.7-108.2h36.2v75h-36.2v-75zm-66.7 75v-75H281.8v75h-13.9c-2.2-.3-4.4-.7-6.4-1.3-.6-.2-2-1.3-3.2-2.3-1.2-1-2.5-2.1-3.7-2.8-2.7-1.6-6.7-.8-8.2 1.6-1.1 1.7-.8 3.4.6 4.8h-29.1zm25.4 2.9h6.1c1.6 1.9 3.4 4.1 5.7 5.5-6.6-1.2-10.2-3.9-11.8-5.5zm26.4 7.2l-.2-.1c-2.7-.8-6.9-2-11.3-3.4-2.6-.8-4.7-3.4-6.6-5.7-.9-1.1-1.7-2.1-2.5-2.8-.7-.6-.6-.9-.3-1.4.7-1.1 3-1.5 4.3-.6 1 .6 2.2 1.6 3.4 2.5 1.6 1.3 3 2.5 4.1 2.8 3.1.9 6.3 1.4 9.4 1.8 2 .3 3.9.5 5.5.9h9.4c3.5 4.2 5.3 9.5 5 15-.2 4.7-.2 9.4-.2 12.3 0 1 .1 2 .1 3.1-2.1.4-4.9.6-8.3.6-2.9 0-5.4-.2-7.4-.5 0-8.8 0-15.5-.1-17.9-.2-4.5-4.1-6.5-4.3-6.6zm1.7 22.2v1.8c-.1 0-.3-.1-.4-.1-.1 0-.2 0-.2-.1-.1 0-.2-.1-.3-.1-.1 0-.2-.1-.2-.1-.1 0-.2-.1-.3-.1-.1 0-.1-.1-.2-.1s-.2-.1-.2-.1c-.1 0-.1-.1-.2-.1s-.1-.1-.2-.1c0 0-.1 0-.1-.1.3-.2 1.1-.5 2.3-.8zm-2.7 3.9c4 1.7 11.1 1.8 12.9 1.8 1.9 0 8.9-.1 12.9-1.8v10.1c-.8.8-5.2 2.1-12.9 2.1s-12.1-1.4-12.9-2.1V125zm105.9 247.1l-10.1-.1c-.1-.1-.2-.3-.3-.5-.4-.9-.2-1.8.5-2.4l9.9-9.9v12.9zm0-16.9l-11.9 11.9c-1.5 1.5-1.9 3.6-1.1 5.6.8 1.9 2.6 3.1 4.7 3.1h.1l8.2-.1v31.2l-59.7-.3c-7.5 0-14.3-2.9-20.9-8.9-5.8-5.3-9.2-12.7-9.4-20.8-.2-8.8 3.2-17.3 9.4-23.6l42-42h1.5c1.6 0 3.4-.1 5.6-.4l-.1-.9-.1-.5-.2-1.4c-9.1 1.3-11.5-1-11.6-1l-1.1 1 1.1-.9-1.5 1.3-.6.5c.3.3 1.2 1.2 3.5 1.8L292 351.3c-6.8 6.8-10.5 16.1-10.3 25.7.2 8.9 3.9 17.1 10.3 22.9 3.3 3 6.7 5.2 10.2 6.8l-13.6-.1h-.2c-10 1.5-19.7-1.8-26.8-8.9-12.3-12.3-12.3-32.2 0-44.4l60.6-60.6 18.3 1.3 36.1 2.7 18.6 1.4 3.6 24.6h-24.2v32.5zm72.5 52h-69.6v-81.6h69.6v81.6zm2.8 0v-81.6h39.5v81.6h-39.5z"/><path class="st3" d="M296.6 410.2v38.4h8.6v-38.4zM243.3 303.1c1.3 1 2.9 1.4 4.8 1.4 5.4 0 12.6-3.5 17.8-6.3h1.6v-.9l.6-.3 1.2-.6c7.4-4 7-8.8 5.3-12.2-2.4-4.8-5-7.1-7.1-8.8v-57.5H185.1l-1.3-3.8c2.7-2.8 4.2-5.9 3.9-8.6 0-.3-.1-.6-.2-.9 0-.2 0-.5-.1-.7l-23.8-51.5v-.1c-4.1-7.6-9.9-12.4-16.3-13.9-3.3-1.1-16.9-1.9-38.5-2.4l1.8-6.2c15.4-3.9 26-18.2 25.2-34-.2.5-.5.9-.8 1.3-.6.8-1.3 1.5-2.1 2.1-.9 14.1-11.4 26.2-25.9 28.5-3.4.5-6.7.5-9.9-.1l-.1.3-1 2.7c3.5.6 7.2.7 11 .1l.4-.1h.1L105 139c-2.7 6.5-9.7 9.8-16.5 7.9-6.7-2-10.8-8.5-9.6-15.3h-.1l3.1-11.2c-.3-.2-.5-.5-.8-.7l-1.1-1.1-.3 2.6h-.1c-.2-.2-.4-.4-.7-.5-.4-.3-.8-.7-1.2-1-1.4-1.3-2.7-2.8-3.8-4.3-.8-1.2-1.6-2.4-2.2-3.6-.1-.3-.3-.5-.4-.8-.1-.2-.2-.5-.3-.7-.9-2-1.5-4-2-6-.1-.5-.2-1.1-.3-1.6l-1.4-8.9c-.1-.7-.2-1.3-.2-2v-.5-.1c0-.5-.1-1-.1-1.5v-.1-.4-1.6-.9c0-.5.1-1 .1-1.5V85v-.1c0-.3.1-.6.1-.9 0-.3.1-.6.1-.9v-.2c.1-.6.2-1.1.4-1.7.2-1 .5-2 .9-3 .1-.3.2-.7.4-1v-.1s0-.1.1-.2c0-.1-.1-.2-.1-.3v-.1c-.1-.2-.2-.5-.3-.7v-.1c0-.1-.1-.2-.1-.2-.1-.2-.1-.4-.2-.6 0-.1-.1-.2-.1-.3-.1-.2-.1-.5-.1-.7v-.1-.1c-.1-.5-.1-1.1-.2-1.6v-.6-.6-.5-.8c0-.3.1-.7.1-1 0-.3.1-.5.1-.8.1-.3.1-.7.2-1 .1-.2.1-.5.2-.7.1-.3.2-.7.3-1 .1-.2.1-.5.2-.7.1-.3.3-.7.4-1 .1-.2.2-.4.2-.6.2-.5.5-1 .8-1.5.1-.2.2-.4.3-.5l.6-.9c.1-.2.3-.4.5-.6.2-.2.4-.5.6-.7l.6-.6.6-.6.6-.6c.2-.2.4-.4.7-.6.2-.2.4-.3.7-.5.2-.2.5-.3.7-.5.2-.2.5-.3.7-.5.3-.2.5-.3.8-.4.3-.1.5-.3.8-.4.3-.1.6-.2.8-.4.3-.1.5-.2.8-.3l.9-.3c.3-.1.5-.2.8-.2.4-.1.9-.2 1.3-.3.2 0 .3-.1.5-.1l.4 2.7.6 3.8.1.5c0-.2 0-.4-.1-.6v-.6c0-1.9.5-3.7 1.5-5.1 1.1-1.7 2.9-2.9 4.9-3.5.3-.1.6-.1.9-.2l5.2-.8H97.6l1.7-.3 2.7-.4 31.9-5v.3c0 .1 0 .3.1.4v.1c0 .4.1.9.1 1.4v.1c0 .4 0 .8-.1 1.2l-.3 2.1c-.2.7-.4 1.5-.7 2.2-.1.3-.3.7-.5 1-.1.3-.3.5-.4.8 0 .1-.1.1-.1.2-.1.2-.3.5-.4.7l-.1.1c-.2.2-.3.5-.5.7l-.1.1c-.4.5-.8 1-1.3 1.5.3-.1.7-.1 1.2-.2 1.6-.3 3.6-.6 5.6-.9.5-.1 1.1-.2 1.6-.3.1 0 .2 0 .4-.1.4-.1.8-.1 1.1-.2.1 0 .3 0 .4-.1h.3c.4-.1.8-.1 1.2-.2.2 0 .3 0 .4-.1.1 0 .3 0 .4-.1.2 0 .3-.1.4-.1h.1c0 .2 0 .3.1.5v.4c.1.5.1.9.1 1.4v1.9c0 .3-.1.7-.1 1 0 .1 0 .3-.1.4-.1.4-.2.9-.3 1.3-.1.2-.1.3-.2.5-.1.3-.2.5-.3.8-.1.2-.1.3-.2.5 0 0 0 .1-.1.1-.1.1-.1.3-.2.4 0 .1-.1.1-.1.2-.1.2-.2.4-.3.7-.1.1-.2.3-.2.4-.2.4-.5.8-.8 1.2 0 .1-.1.1-.1.2s-.1.2-.2.2c-.2.3-.4.5-.6.8l-.2.2c-.2.3-.5.5-.7.8-.4.4-.8.7-1.2 1-.1.1-.2.2-.3.2-.4.3-.9.7-1.3 1-.3.2-.7.4-1 .6l-2.1 5.5c-.5-1.4-1.1-2.7-1.8-3.9l-1.5.3-.8.1-.7.1c.8 1.3 1.5 2.7 2 4.1h-.1l-9.3 1.5c-1 .2-1.7 1.1-1.5 2.1.1.8.7 1.4 1.5 1.5 1.4-1 3-1.7 4.8-1.9 1.8-.3 3.5-.1 5.2.5l.6-.1c0 .1.1.3.1.4.7.3 1.5.7 2.1 1.2.5.3.9.7 1.3 1.1-.1-.8-.3-1.7-.5-2.5l.5-1.4 2.5-6.6c6.3-3.9 9.8-10.9 9-18.2 0-.3-.1-.6-.1-.9l-.4-2.8-2.8.4s-3.2.5-6.6 1c1.2-3 1.6-6.3 1.1-9.6l-.4-2.8-2.8.4-31.9 5-9.8 1.5c-2.1.3-4 1.2-5.5 2.5l-2.8.4c-5.7.9-10.7 3.9-14.1 8.6-3.4 4.7-4.8 10.4-3.9 16.1.1.8.4 1.7.8 2.8-1.9 5.5-2.5 11.3-1.6 17.1l1.4 8.9c1.3 8.1 5.6 15.6 12 20.5l.2.1-2.1 7.1v.1c-.3 1.6-.4 3.2-.2 4.8-8.3-.1-17.2-.1-26.6-.1h-3.3c-10.9 0-20.3 7.6-22.5 18.1-1.4 6.9-1.3 14.2-1.2 19.5l.3 6.7-.3.2.4.7 7 137.6.1 1.4h10l1.2 267.2H40v10.8h17.4v6.4H57c-.8 0-1.4.6-1.4 1.4v33c0 .8.6 1.4 1.4 1.4h138.3c.4 0 .8-.2 1.1-.5.3-.3.4-.7.3-1.2l-1.1-7c-.1-.9-2.3-12.5-25.3-16.2l-.4-2.4c-1.7.3-3.1.8-4.3 1.3-.8-.3-1.6-.6-2.3-.9.6-.2 1.3-.4 2.1-.5l-.5-2.8c-2 .3-3.6.9-4.9 1.6-.6-.4-1.2-.8-1.7-1.1.6-.2 1.3-.4 2.1-.5l-.5-2.8c-1.6.3-2.9.7-4 1.2-1.7-1.7-2.5-3.1-2.6-3.3-.3-.5-.7-.7-1.3-.7h-9v-6.4h11.3V319.6h10l-.4-19.4c4.3 2.8 7.7 4.5 10.1 5.1 1.2.3 2.3.4 3.2.4 2.2 0 3.6-.7 4.4-1.3 1.2.5 3.4 1.2 5.8.9 3.2-.4 4.9-1.3 5.7-2.2 1.4.7 3.6 1.7 6.1 1.4 2.4-.3 3.9-1.7 4.7-2.8 1.3.5 3.3 1.2 5.1 1.2 2.9-.1 6.9-2.9 7.3-3.2.4-.3.6-.7.6-1.2v-.3h22.5c1.1 2.1 2.8 4 3.9 4.9zm1.8-2.3c-1.9-1.5-4.3-5.3-3.5-6.7.3-.5.8-.6 1.2-.6.5 0 1.1.2 1.3.3.6.7 3.1 3.5 4.9 7.8-1.6.2-3 0-3.9-.8zm6.8.3c-2-5-4.9-8.3-5.6-9.2-.2-.6-1-2.8.2-4.1 1.2-1.3 2.8-.9 3.2-.8.9.6 7.4 5.1 9.8 11.2-2.5 1.2-5.2 2.3-7.6 2.9zm10.2-4.1c-2.5-6.3-8.6-10.8-10.4-12.1-.5-1.9-.4-2.8 1.3-3.7 1.3-.8 5.6 2.2 8.8 5.4.5.7 3.4 5 5 7.9-1.3.7-2.9 1.5-4.7 2.5zm10-11.6c1 2.1 1.6 4.8-2.9 7.7-1.8-3.3-5-7.9-5.2-8.2-2.9-4.5-2.5-7.3-1.4-8.3.5-.4 1.1-.5 1.4-.3.3.3.7.5 1 .8 2.1 1.6 4.7 3.6 7.1 8.3zm-84.6-64.7v50.1c-1.2.1-2.4.1-3.7 0h-3.3c-4.6 0-8.6.1-17.4-4.4-6.4-3.3-15.7-9.5-25-15.9v-29.7h49.4zm-31.7-2.8l-2.5-13.3c3.5-1.6 7.5-2.6 11.8-3.1.9-.1 1.8-.2 2.6-.3 3.5-.4 6.2-.7 8.5-.6l5.9 17.3h-26.3zm-130.5-45c-.1-5.2-.2-12.2 1.1-18.9 1.8-9.2 10.1-15.8 19.7-15.8 7.5 0 18.5.1 30.6.2 1.6 5.2 5.6 9.4 11.2 11.1 1.6.5 3.1.7 4.7.7 6.6 0 12.7-3.9 15.2-10.3l.3-.9c18.2.4 33.9 1.1 38.1 1.9 5.9 1.2 11.2 5.5 15.1 12.7l20.9 45.1c-3.7-1.6-8.5-1-14.5-.4-.8.1-1.7.2-2.6.3-4.4.5-8.5 1.5-12.1 3l-5.9-31.9-1.4.3-1.4.3 8.8 47.6h-16.2c-.8 0-1.4.6-1.4 1.4v29.2c-.7-.5-1.4-1-2.1-1.4l-1-.7c-14-9.7-28.1-16.8-30.9-18.2-1.3-3-8-19.1-10.9-25.3-1-2.2-3-6-5.1-10.1.4-3 0-6.1-1.3-8.8-.1-.2-.2-.3-.2-.5l-.2-.3c0-.1-.1-.1-.1-.2l-11.5-20.6-2.5 1.4 6.9 12.4c-1.7-1-3.7-1.7-5.8-2.2-1.1-.3-2.2-.4-3.3-.6h-.1c-3.1-.3-6.4-.2-9.6.6-.2 0-.4.1-.7.2-.6.1-1.1.3-1.7.5-.5.1-1 .3-1.4.5-.2.1-.5.2-.7.3-.7.3-1.4.5-2.1.9-.1.1-.3.1-.4.2-.6.3-1.3.6-1.9 1-.4.3-.9.5-1.3.8-.2.1-.4.2-.5.3-.2.1-.4.3-.7.4-.4.3-.9.6-1.3 1-1.8 1.4-3.3 2.9-4.7 4.6-.5.7-1.1 1.3-1.6 2-.1.1-.1.2-.2.2-.4.6-.8 1.2-1.2 1.9-.1.1-.2.3-.2.4-.2.3-.3.6-.5.9-1.3 2.5-2 5.1-2.4 7.5L25.7 180l-.4-7.1zm91.4 434c.5.6 1.4 1.7 2.4 3.2 1.1 1.6 2.3 3.7 3.5 6.1l-1.2-.3c-1.5-.3-3-.7-4.7-.9l-.4-2.4c-1.7.3-3.1.8-4.3 1.3h-.1v-7h4.8zm-3-2.9v-6.4h26.5v6.4h-26.5zm9.1 16.6c.8-.6 1.3-.8 1.4-.8.1 0 .1 0 .1-.1 9.7 3.1 13.2 7.8 14.3 10.3h-19.5c0-.6 0-1.1.1-1.7.4-4.5 2.3-6.7 3.6-7.7zm-10.5-3.6c1.1.3 2.3.6 3.6.8 1.7.3 3.3.6 4.8.9-2 1.7-4.4 5.1-4.3 11.3H75.2c-.1-10.9-5.3-19.2-8.3-23.1h30.6c.4.6 1.1 1.5 2.1 2.6-2.7 1.8-3.6 3.8-3.7 4l2.6 1.2c0-.1.8-1.7 3.2-3.1.6.5 1.3 1 2 1.5-2 1.6-2.7 3.2-2.7 3.3l2.6 1.2c0-.1.7-1.5 2.7-2.8.8.4 1.6.8 2.5 1.2-2 1.6-2.8 3.2-2.8 3.3l2.6 1.2c.1-.3 1-2.1 3.7-3.5zm-49.1-10.1c.5.6 1.4 1.7 2.4 3.2 2.4 3.5 5.5 9.3 6.4 16.4.1 1.1.2 2.3.2 3.5H58.5v-23.1h4.7zm-2.9-2.9v-6.4h26.5v6.4H60.3zm50.6 0h-.3c-.8 0-1.4.6-1.4 1.4v4.8c-1 .3-2 .7-2.7 1.1-.6-.4-1.2-.8-1.7-1.1.6-.2 1.3-.4 2.1-.5l-.5-2.8c-1.6.3-2.9.7-4 1.2-1.7-1.7-2.5-3.1-2.6-3.3-.3-.5-.7-.7-1.3-.7h-8.7v-6.4h21.1v6.3zm-9.8-17.2l1.5-77 5-156.2 6-2.5-1.1-2.6-7.6 3.1h-.1v.1l-4 102.4-1.1 55.7-2.5 77.1H44l-1.2-267.2h108.7v267.2H101.1zm-58.3 8v-5.1h57.5v5.1H42.8zm69.1 42.2H58.5v-4.1h81l.6 4.1h-28.2zm81.7 0H143l-.6-4.1H193l.6 4.1zm-17.3-16.4c.8-.6 1.3-.8 1.4-.8.1 0 .1 0 .1-.1 9.7 3.1 13.2 7.8 14.3 10.3h-19.5c0-.6 0-1.2.1-1.7.4-4.5 2.3-6.7 3.6-7.7zM151 606.9c.4.6 1.1 1.5 2.1 2.6-2.7 1.8-3.6 3.8-3.7 4l2.6 1.2c0-.1.8-1.7 3.2-3.1.6.5 1.3 1 2 1.5-2 1.6-2.7 3.2-2.7 3.3l2.6 1.2c0-.1.7-1.5 2.7-2.8.8.4 1.6.8 2.5 1.2-2 1.6-2.8 3.2-2.8 3.3l2.6 1.2c0-.1.9-1.9 3.6-3.3 1.1.3 2.3.6 3.6.8 1.7.3 3.3.6 4.8.9-2 1.7-4.4 5.1-4.3 11.3h-28c-.9-2.6-4.1-8.8-15.6-12.7-1.8-4.6-4.1-8.2-5.8-10.4H151zm.5-12.1h-48.3v-5.1h48.3v5.1zM32.6 316.7L26 187.1l9.2 18.7c.1.3.3.7.4 1 2.3 4.9 7 8.1 12.8 9.3L66.5 251c1.3 2.3 3.1 4.4 5.2 6.1 1.6 1.7 3.3 3.1 5.3 4.2h.1c.2.1 23.8 11.1 36.4 16.1 4.6 1.8 15.5 5.8 21.8 8v11.3c0 .8.6 1.4 1.4 1.4h24.2c.1.1.2.1.3.2l.3 18.4H32.6zm105.5-21.4v-8.8c1.1.4 1.8.6 1.8.6 5.5 2.3 11 5 16.3 8.2h-18.1zm71 4.7c-1.8 0-4-1-4.8-1.4l-7.6-5.6c-.6-.5-1.5-.3-2 .3s-.3 1.5.3 2l6.6 4.8c-.5.6-1.3 1.3-2.6 1.4-1.8.2-3.6-.6-4.6-1.1l-6.9-4.5c-.7-.4-1.5-.2-2 .4-.4.7-.2 1.5.4 2l4.7 3.1c-.6.3-1.6.8-3.5 1-2.7.3-5.1-1-5.1-1s-.1 0-.1-.1h-.2l-3.6-1.5c-.7-.3-1.6 0-1.9.8-.3.7 0 1.6.8 1.9l.9.4c-.8.1-1.9 0-3.3-.3-2.2-.5-5.7-2.4-10.3-5.4-7.6-5.1-15.5-9.3-23.5-12.6-.2-.1-19.9-7.1-26.4-9.7-12.2-4.8-35-15.4-36.2-16-1.7-1-3.3-2.2-4.6-3.7 0-.1-.1-.1-.2-.1-1.9-1.5-3.4-3.3-4.5-5.3l-30-57.9c2.6-5.5 7.4-10.2 13.3-13 7.3-3.5 15.8-3.6 22.1-.4 1.5 2.8 10.8 20.2 13.4 25.8 3.2 6.8 11 25.5 11.1 25.7.1.3.4.6.7.7.2.1 15.6 7.6 31 18.2l1 .7c11.1 7.7 22.6 15.6 30.3 19.5 9.4 4.8 13.9 4.8 18.7 4.8h3.2c5.8.2 11.1-.8 15-1.6 2.3-.4 5.1-1 5.8-.7.1.9-.1 1.8-.7 2.6-2.6 3.5-10.8 5.4-13.7 5.8-.6.1-1.1.5-1.2 1.1-.1.6.1 1.2.6 1.5l23.5 16c-1.3.7-2.9 1.4-3.9 1.4zm29.5-4.7h-25.1L193.9 282c3.8-.9 9.7-2.8 12.2-6.3 1.1-1.5 1.5-3.2 1.2-4.9-.1-.7-.5-1.3-1.1-1.7-1.5-1.1-4-.6-8.1.2-2.3.4-4.9.9-7.8 1.2v-49.8h74.3v52.7c-1.3-.4-2.8 0-3.9 1-.7.6-2.3 2.5-1.7 6.1-4.5-3.1-6.8-2.3-7.6-1.8-2.7 1.6-3.1 3.6-2.9 5.3-1.3 0-2.9.4-4.2 1.9-1.3 1.5-1.5 3.3-1.3 4.8-1.4-.1-2.8.4-3.8 1.9-.5.8-.7 1.8-.6 2.7z"/><path class="st3" d="M131.5 84.4l1.3 8.1c.1.8.2 1.7.3 2.5 1.1-1.6 1.6-3.6 1.3-5.6-.4-2-1.4-3.8-2.9-5zM116.1 109c-2 .3-4.7-.2-6.3-2.8l-2.4 1.5c1.7 2.6 4.5 4.2 7.6 4.2.5 0 1 0 1.5-.1 3.7-.6 6.5-3.1 7.5-6.6l-2.8-.7c-.7 2.9-3.1 4.2-5.1 4.5zM104.9 82.5c-.2-1-1.1-1.7-2.1-1.5l-9.3 1.5c-2 .3-3.3 2.1-3 4.1l4.7-.7c1.4-1.1 3.1-1.7 4.9-2 1.4-.2 2.9-.1 4.3.2.3-.5.6-1.1.5-1.6zM72.6 94.2a8.2 8.2 0 00-1.6 4.9c0 .5 0 .9.1 1.4.4 2.3 1.6 4.2 3.4 5.6.7.5 1.4.9 2.2 1.1.9.3 1.9.5 2.8.5.4 0 .9 0 1.3-.1l.5-.1 1-.2-.4-2.8-1.5.2c-1.5.2-3-.1-4.2-1-1.2-.9-2-2.2-2.3-3.7-.2-1.5.1-3 1-4.2.9-1.2 2.2-2 3.7-2.3l6.3-.8v-.2l-5.3-1.4c-.2 0-.5 0-.6.1v.4l-3 .2v-.3c-.8.3-1.5.8-2.1 1.4-.5.3-.9.8-1.3 1.3zM113.8 94.5l.4 2.8c1.3-.2 2.6.7 2.8 2.1.2 1.4-.7 2.6-2.1 2.8l.4 2.8c2.8-.4 4.8-3 4.5-5.8v-.3c-.3-2-1.7-3.6-3.5-4.2-.7-.2-1.6-.3-2.5-.2zM63.9 628.6c2.7 0 4.8-2.2 4.8-4.8 0-2.7-2.2-4.8-4.8-4.8-2.7 0-4.8 2.2-4.8 4.8 0 2.7 2.1 4.8 4.8 4.8zm0-6.8c1.1 0 2 .9 2 2s-.9 2-2 2-2-.9-2-2 .9-2 2-2zM126.9 86.5c-1.2.2-1.9 1.4-1.7 2.7.2 1.3 1.3 2.2 2.5 2 1.2-.2 1.9-1.4 1.7-2.7-.3-1.2-1.4-2.1-2.5-2zM102.8 91c-1.1.2-1.9 1.5-1.6 2.8.3 1.3 1.4 2.1 2.6 1.9 1.1-.2 1.9-1.5 1.6-2.8-.3-1.3-1.5-2.1-2.6-1.9zM344.2 517.7h139c1.6 0 2.9-1.3 2.9-2.9s-1.3-2.9-2.9-2.9H288.5c-.5 0-.9-.4-.9-.9v-11.7c0-.5.4-.9.9-.9h194.7c1.6 0 2.9-1.3 2.9-2.9s-1.3-2.9-2.9-2.9H288.5c-3.7 0-6.6 3-6.6 6.6V511c0 3.7 3 6.6 6.6 6.6h55.7zM401.6 595.1v-19.8c0-3.8 3.1-6.8 6.8-6.8h82.3c1.6 0 2.9-1.3 2.9-2.9s-1.3-2.9-2.9-2.9c0 0-43-.1-69.5-.1h-162c-5.6 0-10.1 4.5-10.1 10.1v24.8c0 5.6 4.5 10.1 10.1 10.1h231.5c1.6 0 2.9-1.3 2.9-2.9s-1.3-2.9-2.9-2.9h-82.3c-3.8.1-6.8-2.9-6.8-6.7zm-3.7 6.8H259.2c-2.4 0-4.4-2-4.4-4.4v-24.8c0-2.4 2-4.4 4.4-4.4H398c-1.3 2-2.1 4.4-2.1 7v19.8c0 2.5.7 4.8 2 6.8zM326.7 163.8c-.4-3.2-.2-6.6.5-10.2-1.2 1.1-2 2.6-2.3 4.3-.3 1.9.2 3.9 1.4 5.4.2.2.3.4.4.5zM355.4 168.2c1.2.5 2.6-.2 3.2-1.5.6-1.3 0-2.8-1.2-3.3s-2.6.2-3.2 1.5c-.5 1.3 0 2.8 1.2 3.3zM332.2 161.5c1.2.4 2.6-.3 3.1-1.7s-.1-2.8-1.4-3.3c-1.2-.4-2.6.3-3.1 1.7-.4 1.4.2 2.9 1.4 3.3zM343.6 173c-1.2-.3-2.1-1.1-2.6-2.2l-2.7 1.1c.8 2 2.5 3.4 4.6 3.9.5.1 1 .2 1.5.2 1.6 0 3.2-.6 4.3-1.7l-1.9-2.1c-.8.8-2 1.1-3.2.8zM367.1 159.4l.5.1.2-.5c.4-1-.2-2.2-1.2-2.6l-4-1.4-5.4-1.9c-.7-.2-1.4.1-1.6.8-.2.7.1 1.4.8 1.6l2.6.9c1.4.2 2.7.7 3.8 1.4l4.2 1.5.1.1zM364.9 234.3l4.3 1.5-4.1 3.6 5-.6-1.3 3.8 5.2-4.3-2.6-5.2z"/><path class="st3" d="M328.8 148.3l-.1.3 1.7.4c1.1-.2 2.2-.2 3.3-.1 1.6.2 3 .8 4.3 1.7l2.5.5h.2c.2 0 .4-.1.6-.2.3-.2.4-.4.5-.7v-.2c.1-.3 0-.6-.2-.9l-.3-.3c-.1-.1-.3-.2-.4-.2l-6.9-1.5c6.8-2 13-5.6 18.1-10.7 1-1 2-2.1 3-3.3 3.4 16.2 16 29.6 32.9 33.5l.6-2.8c-19.1-4.4-32.4-21.8-31.5-41.2l-2.9-.1c-.1 2.3 0 4.5.2 6.7-1 1.4-2 2.7-3.1 3.9-7.2 7.9-17.4 12.6-28.1 12.7h-.5v2.9c2.1.1 4.1-.1 6.1-.4z"/><path class="st3" d="M351.2 130.1l-.5-.4-1.7-1.4c-5.3 6.6-13.2 10.8-21.6 11.8l.3 2.8c8.9-1 17.3-5.5 23.1-12.4.2-.1.3-.3.4-.4zM409.1 179.6l2.8.3c.9-8-1.3-15.8-6.4-22l-2.2 1.8c4.6 5.6 6.6 12.7 5.8 19.9zM342.5 169.2l.6-2.8c-.5-.1-.8-.6-.7-1.1.1-.5.6-.8 1.1-.7l.6-2.5.1-.3c-.4-.1-.8-.1-1.2-.1-.3 0-.6.1-.9.2-1.2.4-2.1 1.4-2.4 2.7-.1.5-.1 1 0 1.4.1 1.5 1.2 2.8 2.8 3.2zM88.6 62.2l.4 2.4 1.9-.3.4-.1.5-.1v-.2l-.1-.4-.3-1.8c-.2-1.2.1-2.4.8-3.3.7-1 1.8-1.6 2.9-1.8l1.4-.2 31.3-4.7-.2-1.5-.2-1.4-32.7 4.9c-1.9.3-3.6 1.3-4.8 2.9l-.1.1c-.2.3-.5.7-.6 1.1-.6 1.5-.8 3-.6 4.4zM121.4 59.1v.3l.4 2.5 9.6-1.4-.1-.3-.3-2.6-8.4 1.3z"/><path class="st0" d="M249.5 91.7h-6.1c1.6 1.6 5.2 4.4 11.9 5.5-2.4-1.4-4.3-3.6-5.8-5.5zM471.7 480.8v-20.4c0-3.4-2.8-6.1-6.1-6.1H275.2v.4c5.9 0 10.9 7.1 10.9 15.9s-5 15.9-10.9 15.9v.4h190.3c3.4 0 6.2-2.8 6.2-6.1zm-10.5 1.5l-8.9-3-8.9 3v-14.6h17.8v14.6zM167.8 201.2c-.8.1-1.7.2-2.6.3-4.3.5-8.4 1.5-11.8 3.1l2.5 13.3h26.4l-5.9-17.3c-2.4-.1-5.1.2-8.6.6zM274.9 64.8l-7.8-4.8c-.6 1-1.3 1.9-2.1 2.7-6.5 6.8-17.3 7-24 .5-6.8-6.5-7-17.3-.5-24 6.5-6.8 17.3-7 24-.5l-6.8 6.8h16.9v-20l-3.6 6.8c-4.9-4.8-11.5-7.4-18.3-7.4-14.8 0-26.9 11.3-26.9 26.1s12 26.1 26.9 26.1c5.8-.1 17.3-4.7 22.2-12.3zM126.2 617.3c11.5 3.9 14.8 10.1 15.6 12.7h28c-.1-6.3 2.3-9.6 4.3-11.3-1.5-.3-3.1-.7-4.8-.9-1.3-.2-2.5-.5-3.6-.8-2.7 1.4-3.6 3.2-3.6 3.3l-2.6-1.2c.1-.1.8-1.7 2.8-3.3-.9-.4-1.8-.8-2.5-1.2-2 1.3-2.7 2.7-2.7 2.8l-2.6-1.2c.1-.1.8-1.7 2.7-3.3-.7-.5-1.4-1-2-1.5-2.4 1.4-3.1 3-3.2 3.1l-2.6-1.2c.1-.1 1-2.1 3.7-4-1-1.1-1.7-2-2.1-2.6h-30.6c1.7 2.4 4 5.9 5.8 10.6zM142.4 632.9l.6 4.1h50.6l-.6-4.1h-21.7zM172.7 630h19.5c-1.2-2.5-4.6-7.2-14.3-10.3 0 0-.1 0-.1.1-.1 0-.7.2-1.4.8-1.4 1-3.2 3.3-3.6 7.8-.1.5-.1 1-.1 1.6zM111.9 613.9c.1 0 .1 0 0 0 1.3-.5 2.7-1 4.4-1.3l.4 2.4c1.7.3 3.2.6 4.7.9l1.2.3c-1.1-2.5-2.4-4.5-3.5-6.1-1.1-1.5-2-2.6-2.4-3.2h-4.8v7zM243 290.7c-.2-1.5 0-3.3 1.3-4.8s2.9-1.9 4.2-1.9c-.2-1.8.2-3.8 2.9-5.3.7-.4 3.1-1.3 7.6 1.8-.7-3.6 1-5.5 1.7-6.1 1.2-1 2.7-1.4 3.9-1v-52.7h-74.3v49.8c2.9-.3 5.5-.8 7.8-1.2 4.1-.8 6.6-1.3 8.1-.2.6.4 1 1 1.1 1.7.3 1.8-.1 3.4-1.2 4.9-2.5 3.5-8.4 5.4-12.2 6.3l19.5 13.3h25.1c-.1-1 .1-1.9.6-2.7 1.1-1.6 2.6-2 3.9-1.9zm-14.6-6.5c-6.9.1-13.6-2.2-18.9-6.6l5.4-7.6c3.6 3.4 8.5 5.2 13.4 5 9.5 0 13.8-10.1 3.3-12.9l-8.7-2.2c-7.5-2-12.5-7-12.5-14.1-.2-8.1 8.4-14.9 18-14.7 6.3-.1 12.4 2 17.5 5.8l-5.4 7.6c-3.4-2.7-7.7-4.1-12.1-4-8 0-12 8.1-3 10.6l8.2 2.1c7.9 2 14.2 7 14.2 15.2.1 8.8-8.9 16-19.4 15.8zM138.1 286.5v8.8h18.1c-5.4-3.2-10.8-5.9-16.3-8.2 0 0-.7-.2-1.8-.6zM138.1 250.4c9.4 6.5 18.6 12.6 25 15.9 8.8 4.5 12.8 4.5 17.4 4.4h7v-50.1h-49.4v29.8zM93.1 78c-2.7.4-5.2-1.4-5.7-4.1.5 2.9.7 5.3.6 7.4-.2 3.9-1.3 6.6-2.8 8.5l6.1 1.7c.4-1.2.9-2.3 1.7-3.4.6-.9 1.4-1.6 2.2-2.2l-4.7.7c-.3-2 1-3.8 3-4.1l9.3-1.5c1-.2 1.9.5 2.1 1.5.1.6-.1 1.1-.5 1.5 1.4.3 2.6 1 3.8 1.8 1.9 1.4 3.3 3.4 3.9 5.6l3.5-.7c-.1-2.4.7-4.7 2.1-6.7.7-.9 1.5-1.7 2.4-2.3-.7-.1-1.3-.7-1.5-1.5-.2-1 .5-1.9 1.5-2.1l9.3-1.5h.1c-.6-1.4-1.3-2.8-2-4.1L93.1 78z"/><path class="st0" d="M131.5 84.4l-.3-.3c-1.4-1-3-1.6-4.7-1.6-.4 0-.8 0-1.2.1-2.1.3-4 1.4-5.2 3.1s-1.8 3.8-1.5 5.9c.6 4.4 4.7 7.4 9.1 6.7 2.3-.3 4.2-1.7 5.5-3.5-.1-.8-.1-1.7-.3-2.5l-1.4-7.9zm-3.9 6.8c-1.2.2-2.3-.7-2.5-2-.2-1.3.6-2.5 1.7-2.7 1.2-.2 2.3.7 2.5 2 .2 1.3-.5 2.5-1.7 2.7zM106.4 88.1c-1.4-1-3-1.6-4.7-1.6-.4 0-.8 0-1.2.1-2.1.3-4 1.4-5.2 3.1-1.3 1.7-1.8 3.8-1.5 5.9.6 4.4 4.7 7.4 9.1 6.7 4.4-.6 7.4-4.7 6.7-9.1-.3-2-1.4-3.8-3.2-5.1zm-2.6 7.5c-1.1.2-2.3-.6-2.6-1.9-.3-1.3.4-2.5 1.6-2.8 1.1-.2 2.3.6 2.6 1.9.2 1.4-.5 2.6-1.6 2.8zM130.6 80.2l-.6.1c.3.1.5.2.8.3-.1-.2-.2-.3-.2-.4zM188.9 281c.1-.6.6-1 1.2-1.1 3-.4 11.2-2.3 13.7-5.8.6-.8.8-1.7.7-2.6-.8-.3-3.6.3-5.8.7-3.9.7-9.2 1.7-15 1.6h-3.2c-4.8 0-9.3.1-18.7-4.8-7.7-4-19.2-11.9-30.3-19.5l-1-.7c-15.4-10.6-30.9-18.1-31-18.2-.3-.2-.6-.4-.7-.7-.1-.2-7.8-18.9-11.1-25.7-2.6-5.5-11.9-22.9-13.4-25.8-6.3-3.2-14.8-3.1-22.1.4-5.9 2.8-10.7 7.5-13.3 13l30 57.9c1.1 2 2.7 3.8 4.5 5.3.1 0 .1.1.2.1 1.4 1.5 2.9 2.7 4.6 3.7 1.2.6 24 11.2 36.2 16 6.6 2.6 26.2 9.6 26.4 9.7 8 3.3 15.9 7.5 23.5 12.6 4.5 3 8.1 4.9 10.3 5.4 1.4.3 2.5.4 3.3.3l-.9-.4c-.7-.3-1.1-1.1-.8-1.9.3-.7 1.1-1.1 1.9-.8l3.6 1.5h.2s.1 0 .1.1c0 0 2.4 1.3 5.1 1 1.9-.2 3-.7 3.5-1l-4.7-3.1c-.7-.4-.9-1.3-.4-2 .4-.7 1.3-.9 2-.4l6.9 4.5c1 .6 2.7 1.4 4.6 1.1 1.2-.1 2.1-.8 2.6-1.4l-6.6-4.8c-.6-.5-.8-1.4-.3-2 .5-.6 1.4-.8 2-.3l7.6 5.6c.8.4 3.1 1.4 4.8 1.4 1 0 2.6-.8 3.9-1.5l-23.5-16c-.5-.3-.7-.9-.6-1.4z"/><path class="st0" d="M126.4 101.4c-2.4 0-4.6-.8-6.4-2.1.3 2.8-1.7 5.4-4.5 5.8l-.4-2.8c1.4-.2 2.3-1.5 2.1-2.8-.2-1.4-1.5-2.3-2.8-2.1l-.4-2.8c.9-.1 1.8 0 2.6.2-.2-.4-.3-.8-.4-1.2l-3.5.7c.1 5.4-3.8 10.2-9.3 11-.5.1-1.1.1-1.6.1-5.3 0-9.9-3.9-10.7-9.3-.1-.6-.1-1.2-.1-1.8l-6-1.6v.2l-6.3.8c-1.5.2-2.8 1-3.7 2.3-.9 1.2-1.3 2.7-1 4.2.2 1.5 1 2.8 2.3 3.7 1.2.9 2.7 1.3 4.2 1l1.5-.2.4 2.8-1 .2-1.2 10.8 1.1 1.1c.3.2.5.5.8.7L79 131.5h.1c-1.1 6.8 3 13.4 9.6 15.3 6.7 2 13.8-1.4 16.5-7.9l2.5-8.4h-.1l-.4.1c-3.7.6-7.4.5-11-.1l1-2.7.1-.3c3.2.6 6.5.6 9.9.1 14.5-2.3 25.1-14.4 25.9-28.5-1.5 1.1-3.2 1.9-5.1 2.2-.6 0-1.1.1-1.6.1zm-9.9 10.5c-.5.1-1 .1-1.5.1-3.1 0-5.9-1.5-7.6-4.2l2.4-1.5c1.6 2.5 4.3 3.1 6.3 2.8 2-.3 4.4-1.7 5.1-4.5l2.8.7c-.9 3.4-3.8 6-7.5 6.6zM108.7 620.3l-2.6-1.2c.1-.1.8-1.7 2.8-3.3-.9-.4-1.8-.8-2.5-1.2-2 1.3-2.7 2.7-2.7 2.8l-2.6-1.2c.1-.1.8-1.7 2.7-3.3-.7-.5-1.4-1-2-1.5-2.4 1.4-3.1 3-3.2 3.1l-2.6-1.2c.1-.1 1-2.1 3.7-4-1-1.1-1.7-2-2.1-2.6H66.9c3 3.9 8.2 12.3 8.3 23.1H116.3c-.1-6.3 2.3-9.6 4.3-11.3-1.5-.3-3.1-.7-4.8-.9-1.3-.2-2.5-.5-3.6-.8-2.6 1.6-3.5 3.4-3.5 3.5zM117.8 632.9H58.5v4.1h81.6l-.6-4.1zM119.2 630h19.5c-1.2-2.5-4.6-7.2-14.3-10.3 0 0-.1 0-.1.1-.1 0-.7.2-1.4.8-1.4 1-3.2 3.3-3.6 7.8-.1.5-.1 1-.1 1.6zM58.5 630h13.9c0-1.2-.1-2.4-.2-3.5-.9-7.2-4-12.9-6.4-16.4-1.1-1.5-2-2.6-2.4-3.2h-4.8V630zm5.4-11c2.7 0 4.8 2.2 4.8 4.8 0 2.7-2.2 4.8-4.8 4.8-2.7 0-4.8-2.2-4.8-4.8 0-2.6 2.1-4.8 4.8-4.8z"/><path class="st0" d="M63.9 625.8c1.1 0 2-.9 2-2s-.9-2-2-2-2 .9-2 2 .9 2 2 2zM274.1 105.6c.1 2.3.2 9.1.1 17.9 2 .3 4.4.5 7.4.5 3.4 0 6.2-.3 8.3-.6 0-1-.1-2.1-.1-3.1-.1-2.9-.1-7.6.2-12.3.3-5.5-1.5-10.8-5-15h-9.4c-1.6-.4-3.5-.6-5.5-.9-3.1-.4-6.3-.9-9.4-1.8-1.1-.3-2.5-1.5-4.1-2.8-1.2-1-2.4-1.9-3.4-2.5-1.4-.8-3.6-.5-4.3.6-.3.5-.4.8.3 1.4.8.7 1.7 1.7 2.5 2.8 1.9 2.3 4 4.8 6.6 5.7 4.4 1.4 8.5 2.6 11.3 3.4l.2.1c.1 0 4 2 4.3 6.6zM242.8 293.5c-.5 0-.9.2-1.2.6-.9 1.3 1.6 5.2 3.5 6.7 1 .7 2.3 1 4 .8-1.8-4.2-4.3-7.1-4.9-7.8-.3-.1-.8-.3-1.4-.3zM249.7 287c-.4-.1-2-.6-3.2.8-1.2 1.3-.5 3.5-.2 4.1.8.8 3.6 4.2 5.6 9.2 2.4-.6 5.1-1.7 7.6-2.9-2.3-6-8.8-10.5-9.8-11.2zM252.9 281.1c-1.7 1-1.8 1.8-1.3 3.7 1.8 1.2 7.9 5.8 10.4 12.1 1.8-.9 3.4-1.8 4.7-2.5-1.6-2.9-4.5-7.2-5-7.9-3.1-3.1-7.5-6.1-8.8-5.4zM262.6 276.5c-1.2 1-1.5 3.8 1.4 8.3.2.4 3.4 4.9 5.2 8.2 4.5-2.9 3.9-5.6 2.9-7.7-2.4-4.7-4.9-6.7-7-8.3-.4-.3-.7-.6-1-.8-.4-.2-1-.1-1.5.3zM477.7 607.6H272.2c-4.2 0-7.6 2.7-7.6 6.1v20.6c0 3.4 3.4 6.1 7.6 6.1h205.5c3.4 0 6.1-2.7 6.1-6.1v-20.6c0-3.3-2.8-6.1-6.1-6.1z"/><path class="st1" d="M477.7 642.4H272.2c-5.3 0-9.6-3.6-9.6-8.1v-20.6c0-4.5 4.3-8.1 9.6-8.1h205.5c4.5 0 8.1 3.6 8.1 8.1v20.6c0 4.5-3.7 8.1-8.1 8.1zm-205.5-32.8c-3 0-5.6 1.9-5.6 4.1v20.6c0 2.2 2.6 4.1 5.6 4.1h205.5c2.2 0 4.1-1.8 4.1-4.1v-20.6c0-2.2-1.8-4.1-4.1-4.1H272.2z"/><path class="st0" d="M287.6 499.3V511c0 .5.4.9.9.9h190.2c-3.1-1.4-5.2-3.9-5.2-6.8s2.1-5.4 5.2-6.8H288.5c-.5.1-.9.5-.9 1zM398 568.3H259.2c-2.4 0-4.4 2-4.4 4.4v24.8c0 2.4 2 4.4 4.4 4.4h138.7c-1.3-2-2-4.3-2-6.8v-19.8c0-2.6.7-5 2.1-7zm-127.4 25.4c-4.7 0-8.6-3.8-8.6-8.6s3.8-8.6 8.6-8.6c4.7 0 8.6 3.8 8.6 8.6s-3.9 8.6-8.6 8.6zm116.8-3.3H284.1v-10.6h103.3v10.6zM490.2 569.3v-.8h-81.8c-3.8 0-6.8 3.1-6.8 6.8v19.8c0 3.8 3.1 6.8 6.8 6.8h81.8v-.7c-5.9 0-10.9-7.1-10.9-15.9s5-16 10.9-16zM342.1 161.5c0 .2-.1.3-.1.5.3-.1.6-.2.9-.2l-.8-.3zM326.7 163.8c1.1 1.3 2.7 2.2 4.5 2.5 4 .6 7.7-2.2 8.3-6.2.3-1.9-.2-3.9-1.4-5.4-1.1-1.5-2.8-2.5-4.7-2.9-1.7.5-3.4.8-5.1 1.1-.1.1-.3.2-.4.3-.2.2-.4.3-.6.5-.8 3.5-.9 6.9-.6 10.1zm4.2-5.6c.5-1.4 1.9-2.1 3.1-1.7 1.2.4 1.8 1.9 1.4 3.3-.5 1.4-1.9 2.1-3.1 1.7-1.3-.4-1.9-1.9-1.4-3.3zM362.7 157.8c2.2 1.3 3.8 3.5 4.5 6l9.5 2.1c-3.6-1.8-6.9-4-9.8-6.5l-4.2-1.6zM356.3 173.8c1.9.3 3.9-.2 5.4-1.4 1.6-1.2 2.6-2.9 2.9-4.8s-.2-3.9-1.4-5.4-2.9-2.6-4.8-2.9c-.4-.1-.7-.1-1.1-.1-1.6 0-3.1.5-4.4 1.5-1.6 1.2-2.6 2.9-2.9 4.8s.2 3.9 1.4 5.4c1.3 1.6 3 2.6 4.9 2.9zm-2.1-8.9c.6-1.3 2-2 3.2-1.5 1.2.5 1.7 2 1.2 3.3-.6 1.3-2 2-3.2 1.5-1.2-.5-1.7-2-1.2-3.3zM355.5 153.9c.3-.7 1-1.1 1.6-.8l5.4 1.9c-3.8-4.3-6.8-9.2-8.9-14.5-3.6 3.4-7.7 6.1-12.1 8.3l.3.3c.2.3.2.6.2.9v.2c-.1.3-.2.6-.5.7-.2.1-.4.2-.6.2h-.2l-2.5-.5c.9.6 1.8 1.4 2.4 2.3 1.2 1.7 1.9 3.6 2 5.7l6.6 2v.1c2.1-3.1 5.9-4.8 9.8-4.3l-2.6-.9c-.8-.2-1.1-1-.9-1.6z"/><path class="st0" d="M367.5 168c-.4 2.7-1.8 5.1-4 6.7-1.8 1.3-3.9 2-6.1 2-.5 0-1 0-1.5-.1-5.6-.8-9.4-6-8.6-11.6.1-.6.2-1.2.4-1.8l-3.7-1.1-.6 2.5c-.5-.1-1 .2-1.1.7-.1.5.2 1 .7 1.1l-.6 2.8c-1.5-.4-2.6-1.6-2.9-3.1-1.9 1.9-4.5 3.1-7.3 3.1-.5 0-1 0-1.5-.1-1.2-.2-2.2-.5-3.2-1.1.8 3.1 2.2 5.9 4.1 8.6 4.5 6.3 11.8 10.8 20.7 12.9 3.6.8 7.1 1.2 10.5 1.1l.3 2.8h-1.7c-.6 0-1.2 0-1.8-.1l2.7 7.2c.9 2.9 3.9 4.4 6.7 3.6 1.4-.4 2.5-1.3 3.1-2.6.7-1.3.8-2.7.4-4l-1-2.7-.5-2.5-.2-.8-.5-1.9c2.2-.6 4.3-1.4 6.2-2.4 3.9-2.1 7.2-5.1 9.7-8.8v.1l.3-1.4.7.2c1.6.4 3.1-.6 3.5-2.2.4-1.6-.6-3.1-2.2-3.5l-2.4-.5-.3-.1-18.2-3.9c0 .1 0 .5-.1.9zm-23 8c-.5 0-1-.1-1.5-.2-2.1-.5-3.8-1.9-4.6-3.9l2.7-1.1c.4 1.1 1.4 1.9 2.6 2.2 1.2.3 2.4 0 3.3-.8l1.9 2.1c-1.3 1.1-2.8 1.7-4.4 1.7zM371.4 233.1l2.5 5.2 10.6-5.1-2.5-5.2-10.6 5.1zm9.2.4c-.7.3-1.6 0-1.9-.7-.3-.7 0-1.6.7-1.9.7-.3 1.6 0 1.9.7.3.7 0 1.5-.7 1.9zM338.1 523.4c-3.8 0-6.8 3.1-6.8 6.8v20c0 3.8 3.1 6.8 6.8 6.8h124.7v-.7c-5.9 0-10.9-7.1-10.9-15.9s5-15.9 10.9-15.9v-1H338.1zM404.7 342.5c-10.1 3.4-17.4 12.6-17.4 23.9 0 11.3 7.3 20.5 17.4 23.9.5.2.9.3 1.4.4.5.1.9.2 1.4.4 1.9.4 3.8.6 5.8.6 8.8 0 16.9-4.4 21.6-11.8l-7.5-4.7c-1.3 2.1-3.1 3.8-5.1 5.1-4.6 2.9-10.1 3.3-14.8 1.4-.5-.2-1-.4-1.4-.7-.5-.2-1-.5-1.4-.8-2-1.3-3.8-3-5.1-5.1-4.9-7.7-2.6-17.9 5.1-22.8.5-.3.9-.5 1.4-.8s.9-.5 1.4-.6c7.2-2.8 15.7-.2 19.9 6.6l7.6-4.7c-4.7-7.4-12.9-11.8-21.6-11.8-2 0-4 .2-5.9.6-.5.1-1 .2-1.4.4-.5.2-1 .3-1.4.5z"/><path class="st0" d="M407.5 361.4c-.6.8-1.1 1.6-1.4 2.6-.2.8-.4 1.6-.4 2.4 0 .8.1 1.6.4 2.4.3.9.8 1.8 1.4 2.6 1.4 1.7 3.6 2.8 6 2.8 4.3 0 7.8-3.5 7.7-7.8 0-4.3-3.5-7.7-7.8-7.7-2.3-.1-4.5 1-5.9 2.7zM277.6 230.4v-22.6h-26.8v2.8h23.9v19.8z"/><path class="st4" d="M269.1 122.1c.1 0 .1.1.2.1s.1.1.2.1.1.1.2.1.1.1.2.1.2.1.3.1c.1 0 .1.1.2.1s.2.1.3.1c.1 0 .2 0 .2.1.1 0 .3.1.4.1v-1.8c-1.2.3-2 .6-2.4.9.1-.1.2 0 .2 0zM292.9 122.6c.1 0 .1-.1.2-.1s.2-.1.3-.1c.1 0 .1-.1.2-.1s.2-.1.2-.1c.1 0 .1 0 .2-.1.1 0 .1-.1.2-.1 0 0 .1 0 .1-.1-.3-.2-.8-.4-1.5-.6-.1.5-.1.9.1 1.3-.1 0-.1 0 0 0zM132.2 76l2.1-5.5-2.1 5.5zM133.9 42.9l-31.8 4.9-2.7.5 2.7-.5zM99.4 48.3l-1.7.2zM83.9 52.3zM84.9 58.8l-.6-3.8v.1zM129.7 55.9c.5-.5.9-1 1.3-1.5-.4.5-.8 1-1.3 1.5zM132.1 52.7c0-.1.1-.1.1-.2v.1c-.1 0-.1.1-.1.1zM134 46.4c0-.4.1-.8.1-1.2 0 .4 0 .8-.1 1.2zM71.2 110c.1.2.2.5.3.7-.1-.3-.2-.5-.3-.7zM151.5 586.8V319.6H42.7l1.2 267.2h53.4l2.5-77.1 1.1-55.6 4-102.4v-.1h.1l7.6-3.1 1.1 2.6-6 2.5-5.1 156.2-1.5 77h2.2zM103.3 589.7h48.3v5.1h-48.3z"/><path class="st4" d="M81.3 107.6l-.5.1c-.4.1-.9.1-1.3.1-1 0-1.9-.2-2.8-.5-.8-.3-1.5-.6-2.2-1.1-1.8-1.3-3.1-3.3-3.4-5.6-.1-.5-.1-1-.1-1.4 0-1.8.6-3.5 1.6-4.9.4-.5.8-1 1.3-1.4.6-.6 1.3-1 2.1-1.4 0-.2 0-.4.1-.6.1-.9.6-1.4.9-1.8.7-.6 1.7-.8 2.3-.8.4 0 .7.1.8.1l2.1.6 1.4.4 1.5.4c1.5-1.8 2.6-4.5 2.8-8.5.1-2.1-.1-4.6-.6-7.5.4 2.7 3 4.5 5.7 4.1l34.3-5.4.7-.1.8-.1 1.5-.3c.7 1.3 1.3 2.6 1.8 3.9l2.1-5.5c.3-.2.7-.4 1-.6.5-.3.9-.6 1.3-1 .1-.1.2-.1.3-.2.4-.3.8-.7 1.2-1 .2-.2.5-.5.7-.8l.2-.2c.2-.2.4-.5.6-.8 0-.1.1-.2.2-.2 0-.1.1-.1.1-.2.3-.4.6-.8.8-1.3.1-.1.2-.3.2-.4.1-.2.2-.4.3-.7 0-.1.1-.1.1-.2.1-.1.1-.3.2-.4 0 0 0-.1.1-.1.1-.2.1-.3.2-.5s.2-.5.3-.8c.1-.2.1-.3.2-.5.1-.4.2-.9.3-1.3 0-.1 0-.3.1-.4.1-.3.1-.7.1-1v-.5-.5-.8c0-.5 0-.9-.1-1.4v-.1-.3c0-.2 0-.3-.1-.5h-.1c-.1 0-.2 0-.4.1-.1 0-.2 0-.4.1-.1 0-.3 0-.4.1-.4.1-.9.1-1.4.2-.1 0-.3 0-.4.1-.4.1-.7.1-1.1.2-.1 0-.2 0-.4.1-.5.1-1 .2-1.6.3-2 .3-4.1.6-5.6.9-.4.1-.8.1-1.2.2 1-1 1.9-2.1 2.5-3.3v-.1c.1-.3.3-.5.4-.8.2-.3.3-.7.5-1 .3-.7.5-1.5.7-2.2.1-.7.3-1.4.3-2.1 0-.4.1-.8.1-1.2v-.1c0-.5 0-.9-.1-1.4v-.1c0-.1 0-.3-.1-.4V43l-31.9 5-4.3.7H97.3l-5.2.8c-.3.1-.6.1-.9.2-2.1.5-3.8 1.8-4.9 3.5-1 1.5-1.6 3.3-1.5 5.1v.6c0 .2 0 .4.1.6l-.1-.6-.6-3.6v-.1l-.4-2.7c-.2 0-.3.1-.5.1-.4.1-.9.2-1.3.3-.3.1-.5.2-.8.2-.2-.1-.5-.1-.8.1-.3.1-.5.2-.8.3-.3.1-.6.2-.8.4-.3.1-.5.3-.8.4-.3.1-.5.3-.8.4-.2.1-.5.3-.7.5-.2.2-.5.3-.7.5-.2.2-.5.3-.7.5-.2.2-.5.4-.7.6l-.6.6-.6.6-.6.6c-.2.2-.4.5-.6.7-.2.2-.3.4-.5.6l-.6.9c-.1.2-.2.3-.3.5-.3.5-.5 1-.8 1.5-.1.2-.2.4-.2.6-.1.3-.3.7-.4 1-.1.2-.1.5-.2.7-.1.3-.2.6-.3 1-.1.2-.1.5-.2.7-.1.3-.1.7-.2 1 0 .3-.1.5-.1.8 0 .3-.1.7-.1 1v2.5c0 .5.1 1.1.2 1.6v.2c0 .2.1.4.1.7 0 .1.1.2.1.3.1.2.1.4.2.6 0 .1.1.2.1.2v.1c.1.2.2.5.3.7v.1c0 .1.1.2.1.3 0 .1 0 .1-.1.2v.1c-.1.3-.2.7-.4 1l-.9 3c-.1.6-.3 1.1-.4 1.7v.1c-.1.3-.1.6-.1.9 0 .3-.1.6-.1.9V85.1c-.1.5-.1 1-.1 1.5v3c0 .5 0 1 .1 1.5v.6c.1.7.1 1.3.2 2l1.4 8.9c.1.5.2 1.1.3 1.6.4 2 1.1 4 2 6 .1.2.2.5.3.7.1.3.3.6.4.8.6 1.2 1.4 2.4 2.2 3.6 1.1 1.5 2.4 3 3.8 4.3.4.4.8.7 1.2 1 .2.2.4.4.7.5h.1l.3-2.6 1.2-10.9zm16.6-51.2c-.4 0-.8.1-1.2.1.4-.1.8-.1 1.2-.1zm33.1 1.2l.4 2.6v.3l-9.6 1.4-.4-2.5v-.3l1.2-.2 8.4-1.3zm-39.3 6l.1.4v.2l-.5.1-.4.1-1.9.2-.4-2.4c-.2-1.5 0-2.9.6-4.2.2-.4.4-.7.6-1.1l.1-.1c1.2-1.6 2.9-2.6 4.8-2.9l32.7-4.9.2 1.4.2 1.5-31.3 4.7-1.4.2c-1.2.2-2.2.8-2.9 1.8-.7 1-1 2.1-.8 3.3l.3 1.7M100.4 594.8v-5.1H42.8v5.1h57.1zM384.9 202.2c-3.3-.8-5.9-2.2-8.2-4.2h-1.3c.2 1.7-.1 3.3-.9 4.8-1 1.9-2.7 3.4-4.8 4-.8.3-1.6.4-2.4.4-3.5 0-6.7-2.2-7.8-5.7l-1.3-3.4h-13.7c-3.3 0-6.5 1.2-9 3.3l-.9-1.1-.9-1.1c2.3-1.9 5-3.2 7.9-3.7l-22.6-14c-8.9-5.4-14.4-14.8-14.8-25.2l-.6-15.1c-.1-1.9-.9-3.6-2.2-4.8-1.1-1-2.4-1.6-3.9-1.8v.7c0 4.6-13.1 4.8-15.8 4.8-2.5 0-14.4-.2-15.7-4.1-3.2.7-5.6 3.6-5.5 7l7.4 39.7c1.5 7.8 6.2 14.7 12.9 18.8l44.2 27.3.2-2.3 1.4.1 1.4.1-5.1 63.2 71.9 5.3-8.1-55.3 1.4-.2 1.4-.2 12.3 83.2h32.1l-16.4-110.2c-1.1-7.4-7.3-12.8-14.4-13.4-3.4 2.3-7.4 3.7-11.7 3.7-2.5.1-4.6-.1-6.5-.6zm2.4 27.9l-2.7 3.1-10.6 5.1-5.2 4.3 1.4-3.8-5.1.5 4.2-3.5-4.3-1.5 6.5-1.3 10.6-5.1 5-.2 2.2-.1-2 2.5z"/><path class="st4" d="M294.5 135.1V125c-4 1.7-11.1 1.8-12.9 1.8-1.9 0-8.9-.1-12.9-1.8v10.1c.8.8 5.2 2.1 12.9 2.1 7.7.1 12.1-1.3 12.9-2.1zM327.5 168c1 .5 2.1.9 3.2 1.1.5.1 1 .1 1.5.1 2.8 0 5.4-1.2 7.3-3.1-.1-.5-.1-1 0-1.4.3-1.3 1.2-2.3 2.4-2.7 0-.2.1-.3.1-.5l.8.2c.4 0 .8 0 1.2.1l-.1.3 3.7 1.1c-.2.6-.4 1.2-.4 1.8-.8 5.6 3 10.8 8.6 11.6.5.1 1 .1 1.5.1 2.2 0 4.3-.7 6.1-2 2.2-1.6 3.6-4 4-6.7.1-.4.1-.8.1-1.2l18.2 3.9.3-1.4.3-1.4-9.6-2.1-9.5-2.1c-.7-2.5-2.3-4.6-4.5-6-1.1-.7-2.4-1.2-3.8-1.4-3.9-.6-7.7 1.2-9.8 4.3v-.1l-6.6-2c-.1-2-.8-4-2-5.7-.7-.9-1.5-1.7-2.4-2.3-1.3-.9-2.7-1.4-4.3-1.7-1.1-.2-2.2-.1-3.3.1-1.5.3-3 .9-4.3 1.8-.9.7-1.7 1.6-2.4 2.5-.8 1.2-1.4 2.7-1.6 4.2-.4 2.6.3 5.3 1.8 7.4l.1.1c.9 1.4 2.1 2.4 3.4 3.1zm22.7-2.6c.3-1.9 1.3-3.7 2.9-4.8 1.3-1 2.8-1.5 4.4-1.5.4 0 .7 0 1.1.1 1.9.3 3.7 1.3 4.8 2.9s1.7 3.5 1.4 5.4-1.3 3.7-2.9 4.8c-1.6 1.2-3.5 1.7-5.4 1.4-1.9-.3-3.7-1.3-4.8-2.9-1.3-1.5-1.8-3.4-1.5-5.4zm-25.2-7.5c.2-1.7 1-3.2 2.3-4.3.2-.2.4-.4.6-.5.1-.1.3-.2.4-.3 1.2-.8 2.5-1.2 3.9-1.2.4 0 .7 0 1.1.1h.1c1.9.3 3.6 1.3 4.7 2.9 1.2 1.6 1.7 3.5 1.4 5.4-.6 4-4.3 6.8-8.3 6.2-1.8-.3-3.3-1.1-4.5-2.5-.1-.1-.2-.3-.4-.4-1.1-1.5-1.6-3.4-1.3-5.4zM379.3 230.9c-.7.3-1 1.2-.7 1.9.3.7 1.2 1 1.9.7.7-.3 1-1.2.7-1.9-.3-.7-1.2-1-1.9-.7zM443.4 482.3l8.9-3 8.9 3v-14.5h-17.8zM142.7 47.2c.5-2.2.9-5.6.2-9.4l-2.8.5c.8 4.6-.2 8.5-.7 10 .1 0 3.1-.3 3.3-1.1z"/><path transform="rotate(-8.885 59.713 99.446)" class="st4" d="M58.3 94.9h2.9v9h-2.9z"/><path class="st4" d="M62.2 78.8l-2.7-1c-1.3 3.3-2 6.7-2.3 10.2l2.9.2c.2-3.3.9-6.4 2.1-9.4z"/><path class="st5" d="M284.6 13.8h36.2v75h-36.2zM246.9 88.8c-1.4-1.4-1.6-3.1-.6-4.8 1.5-2.4 5.5-3.2 8.2-1.6 1.2.7 2.5 1.8 3.7 2.8 1.1.9 2.6 2.1 3.2 2.3 2.1.6 4.2 1 6.4 1.3h13.9v-75H217.8v75H246.9zm-21.1-38c0-14.8 12-26.1 26.9-26.1 6.8 0 13.4 2.7 18.3 7.4l3.6-6.8v20h-16.9l6.8-6.8c-6.8-6.5-17.5-6.3-24 .5s-6.3 17.5.5 24 17.5 6.3 24-.5c.8-.8 1.5-1.7 2.1-2.7l7.8 4.8C270 72.4 258.5 77 252.6 77c-14.8-.1-26.8-11.4-26.8-26.2zM117.4 604h22.8v-6.4h-26.5v6.4h3.7zM63.9 604h22.8v-6.4H60.3v6.4h3.6zM160.8 298.2h-24.2c-.8 0-1.4-.6-1.4-1.4v-11.3c-6.3-2.3-17.2-6.2-21.8-8-12.6-5-36.2-16-36.4-16.1h-.1c-2-1.1-3.8-2.5-5.3-4.2-2.1-1.7-3.8-3.8-5.2-6.1l-18.1-34.9c-5.8-1.3-10.5-4.5-12.8-9.3-.2-.3-.3-.7-.4-1L26 187.1l6.6 129.7h128.9l-.3-18.4c-.2-.1-.3-.2-.4-.2z"/><path class="st5" d="M36.6 189.9c.1-.3.3-.6.5-.9.1-.1.1-.3.2-.4.4-.6.8-1.3 1.2-1.9.1-.1.1-.2.2-.2.5-.7 1-1.4 1.6-2 1.4-1.7 3-3.2 4.7-4.6.4-.3.9-.7 1.3-1 .2-.2.4-.3.7-.4.2-.1.4-.2.5-.3.4-.3.9-.5 1.3-.8.6-.3 1.2-.7 1.9-1 .1-.1.3-.1.4-.2l2.1-.9c.2-.1.5-.2.7-.3.5-.2.9-.3 1.4-.5.6-.2 1.1-.3 1.7-.5.2-.1.4-.1.7-.2 3.2-.7 6.4-.9 9.6-.6h.1c1.1.1 2.3.3 3.3.6 2.1.5 4 1.3 5.8 2.2l-6.9-12.4 2.5-1.4L83.4 183c0 .1.1.1.1.2l.2.3c.1.2.2.3.2.5 1.3 2.8 1.7 5.8 1.3 8.8 2.1 4.1 4.1 7.9 5.1 10.1 3 6.2 9.7 22.3 10.9 25.3 2.8 1.4 16.9 8.5 30.9 18.2l1 .7c.7.5 1.4.9 2.1 1.4v-29.2c0-.8.6-1.4 1.4-1.4h16.2l-8.8-47.6 1.4-.3 1.4-.3 5.9 31.9c3.6-1.5 7.7-2.6 12.1-3 .9-.1 1.8-.2 2.6-.3 6-.7 10.8-1.2 14.5.4L161 153.6c-3.9-7.1-9.2-11.5-15.1-12.7-4.2-.8-19.9-1.4-38.1-1.9l-.3.9c-2.6 6.4-8.7 10.3-15.2 10.3-1.6 0-3.1-.2-4.7-.7-5.5-1.6-9.6-5.9-11.2-11.1-12.1-.2-23.1-.2-30.6-.2-9.5 0-17.8 6.7-19.7 15.8-1.3 6.6-1.2 13.7-1.1 18.9l.4 7 8.6 17.6c.6-2.6 1.3-5.1 2.6-7.6zM247.7 268.3c0-8.3-6.3-13.3-14.2-15.2l-8.2-2.1c-9-2.5-5-10.6 3-10.6 4.4-.1 8.6 1.3 12.1 4l5.4-7.6c-5-3.8-11.2-5.8-17.5-5.8-9.6-.2-18.2 6.6-18 14.7 0 7.1 5 12.1 12.5 14.1l8.7 2.2c10.5 2.8 6.2 12.9-3.3 12.9-5 .1-9.8-1.7-13.4-5l-5.4 7.6c5.3 4.3 12 6.7 18.9 6.6 10.6.3 19.6-6.9 19.4-15.8zM130.7 80.6c-.2-.1-.5-.2-.8-.3-1.6-.6-3.4-.8-5.2-.5-1.8.3-3.4.9-4.8 1.9-.9.6-1.7 1.4-2.4 2.3-1.5 2-2.2 4.3-2.1 6.7l-3.5.7c-.7-2.3-2-4.2-3.9-5.6-1.2-.9-2.4-1.5-3.8-1.8-1.4-.4-2.8-.4-4.3-.2-1.8.3-3.5 1-4.9 2-.8.6-1.6 1.4-2.2 2.2-.8 1-1.3 2.2-1.7 3.4L85 89.7l-1.5-.4-1.4-.4-2.1-.6c-.1 0-.4-.1-.8-.1-.7 0-1.6.1-2.3.8-.4.3-.8.9-.9 1.8 0 .2-.1.4-.1.6v.3l2.9-.2v-.4c.1-.1.4-.1.6-.1l5.3 1.4 6 1.6c0 .6 0 1.2.1 1.8.8 5.4 5.4 9.3 10.7 9.3.5 0 1.1 0 1.6-.1 5.5-.8 9.4-5.6 9.3-11l3.5-.7c.1.4.3.8.4 1.2 1.8.6 3.2 2.2 3.5 4.2v.3c1.8 1.3 4.1 2.1 6.4 2.1.5 0 1.1 0 1.6-.1 1.9-.3 3.6-1 5.1-2.2.8-.6 1.5-1.3 2.1-2.1.3-.4.6-.9.8-1.3 1.1-2 1.5-4.4 1.2-6.7-.3-2.3-1.4-4.4-3-6-.4-.4-.8-.8-1.3-1.1-.5-.3-1.2-.7-2-1zm-27.9 21.8c-4.4.6-8.4-2.4-9.1-6.7-.3-2.1.2-4.2 1.5-5.9 1.3-1.7 3.1-2.8 5.2-3.1.4-.1.8-.1 1.2-.1 1.7 0 3.4.5 4.7 1.6 1.7 1.3 2.8 3.1 3.1 5.2.8 4.3-2.2 8.4-6.6 9zm31.5-13.1c.3 2-.2 4-1.3 5.6-1.2 1.8-3.1 3.1-5.5 3.5-4.3.6-8.4-2.4-9.1-6.7-.3-2.1.2-4.2 1.5-5.9s3.1-2.8 5.2-3.1c.4-.1.8-.1 1.2-.1 1.7 0 3.4.5 4.7 1.6l.3.3c1.7 1.1 2.7 2.9 3 4.8z"/><path class="st3" d="M459.1 448.5v.1h-8.6v-.1H305.2v.1h-8.6v-.1H288v.1h-8.6v-.1h-8.1c-.3 0-.5 0-.7.1-1.2.3-2.1 1.4-2.1 2.8 0 1.6 1.3 2.9 2.9 2.9H465.6c3.4 0 6.1 2.8 6.1 6.1v20.4c0 3.4-2.8 6.1-6.1 6.1H271.3c-1.6 0-2.9 1.3-2.9 2.9 0 1.6 1.3 2.9 2.9 2.9h194.2c6.5 0 11.9-5.3 11.9-11.9v-20.4c0-6-4.5-11-10.4-11.8-.5-.1-1-.1-1.5-.1h-6.4z"/><path class="st5" d="M422 609.6h24v28.7h-24zM395.2 298.1l-18.6-1.4-36.1-2.7-18.3-1.3-60.6 60.6c-12.3 12.3-12.3 32.2 0 44.4 7.1 7.1 16.9 10.3 26.8 8.9h.2l13.6.1c-3.5-1.6-6.9-3.9-10.2-6.8-6.4-5.8-10.1-13.9-10.3-22.9-.2-9.5 3.5-18.9 10.3-25.7l40.5-40.5c-2.3-.6-3.2-1.5-3.5-1.8l.6-.5 1.5-1.3-1.1.9 1.1-1s2.4 2.3 11.6 1l.2 1.4.1.5.1.9c-2.2.3-4 .4-5.6.4H336l-42 42c-6.2 6.2-9.7 14.8-9.4 23.6.2 8.2 3.5 15.5 9.4 20.8 6.6 6 13.4 8.9 20.9 8.9l59.7.3v-31.2l-8.2.1h-.1c-2.1 0-3.9-1.2-4.7-3.1-.8-1.9-.4-4.1 1.1-5.6l11.9-11.9v-32.5h24.2l-3.6-24.6zM333.3 151.7c-.4-.1-.7-.1-1.1-.1-1.4 0-2.8.4-3.9 1.2 1.7-.3 3.5-.6 5.1-1.1 0 .1 0 0-.1 0zM326.2 150.8c1.3-1 2.7-1.6 4.3-1.8l-1.7-.4.1-.3c-2 .3-4 .5-6 .5v-1.5c-.3 1-.6 2-.8 3-.2 1.1-.4 2.1-.6 3.2.8 0 1.6 0 2.4-.1.5-1 1.3-1.9 2.3-2.6z"/><path class="st5" d="M351.4 133.2c1.1-1.2 2.2-2.5 3.1-3.9-.2-2.2-.3-4.4-.2-6.7l2.9.1c-.9 19.4 12.4 36.8 31.5 41.2l-.6 2.8c-16.9-3.9-29.5-17.3-32.9-33.5-.9 1.2-1.9 2.3-3 3.3-5 5.1-11.3 8.7-18.1 10.7l6.9 1.5c.2 0 .3.1.4.2 4.4-2.1 8.5-4.9 12.1-8.3 2.1 5.3 5.1 10.2 8.9 14.5l4 1.4c1 .4 1.6 1.5 1.2 2.6l-.2.5-.5-.1h-.1c3 2.5 6.3 4.7 9.8 6.5l9.6 2.1-.3 1.4.3-1.4 2.7.6c2.1.5 3.6 2 4.2 3.9.3.9.4 2 .1 3-.6 2.4-2.6 4.1-5 4.4-2.7 4.1-6.3 7.3-10.6 9.6-1.4.8-3 1.4-4.5 2l1.9 5c.5.6 1 1.1 1.6 1.6 2.2 1.9 4.9 3.4 8.2 4.2 1.9.5 4 .7 6.4.7 4.3 0 8.3-1.4 11.7-3.7l.9-.6c.8-.6 1.5-1.1 2.2-1.8.5-.4 1-.9 1.4-1.4 4.3-4.5 7.1-10.6 7.8-16.9.9-7.9-1.5-15.3-6-20.9-1.5-1.8-2.5-3.9-2.7-6.2-1.6-15.2-12.6-28.4-28.4-32-4.8-1.1-9.6-1.2-14.2-.5-1.4-.7-2.9-1.3-4.5-1.6-10-2.3-20.3 3.4-26.2 13.4-4.4 4.1-7.9 9.3-10.1 15.3 10.9-.5 21.1-5.2 28.3-13zm54.1 24.8c5 6.2 7.3 14 6.4 22l-2.8-.3c.8-7.2-1.2-14.3-5.7-19.8l2.1-1.9zm-77.7-15.1l-.3-2.8c8.4-.9 16.2-5.2 21.6-11.8l1.7 1.4.5.4c-.1.1-.2.3-.4.4-5.8 6.9-14.2 11.4-23.1 12.4zM382.1 228l2.5 5.2 2.7-3.1 2-2.4-2.2.1zM463.2 556.9H338c-3.8 0-6.8-3.1-6.8-6.8v-20c0-3.8 3.1-6.8 6.8-6.8h125.2c1.6 0 2.9-1.3 2.9-2.9s-1.3-2.9-2.9-2.9H265.7c-3.7 0-6.7 3-6.7 6.7V556c0 3.4 2.6 6.3 6 6.7H463.2c1.6 0 2.9-1.3 2.9-2.9s-1.3-2.9-2.9-2.9z"/><path class="st1" d="M463.2 564.2H264.9c-4.2-.4-7.3-3.9-7.3-8.1v-31.6c0-4.5 3.7-8.2 8.2-8.2h197.4c2.4 0 4.4 2 4.4 4.4s-2 4.4-4.4 4.4H338.1c-2.9 0-5.3 2.4-5.3 5.3v20c0 2.9 2.4 5.3 5.3 5.3h125.2c2.4 0 4.4 2 4.4 4.4s-2.1 4.1-4.5 4.1zm-197.4-45c-2.9 0-5.2 2.3-5.2 5.2V556c0 2.7 2 4.9 4.6 5.2h198c.8 0 1.4-.6 1.4-1.4s-.6-1.4-1.4-1.4H338.1c-4.6 0-8.3-3.7-8.3-8.3v-20c0-4.6 3.7-8.3 8.3-8.3h125.2c.8 0 1.4-.6 1.4-1.4s-.6-1.4-1.4-1.4H265.8z"/><path class="st5" d="M270.6 576.6c-4.7 0-8.6 3.8-8.6 8.6s3.8 8.6 8.6 8.6c4.7 0 8.6-3.8 8.6-8.6s-3.9-8.6-8.6-8.6z"/><g><path class="st5" d="M284.1 579.9h103.3v10.6H284.1z"/></g><g><path class="st5" d="M449.9 325.6h39.5v81.6h-39.5z"/></g><g><path class="st5" d="M404.7 325.6h-27.2v81.6h69.6v-81.6h-42.4zm8.7 15.5c8.8 0 16.9 4.4 21.6 11.8l-7.6 4.7c-4.3-6.8-12.7-9.4-19.9-6.6-.5.2-1 .4-1.4.6s-.9.5-1.4.8c-7.7 4.9-10 15.1-5.1 22.8 1.4 2.1 3.1 3.9 5.1 5.1.5.3.9.6 1.4.8.5.2.9.5 1.4.7 4.7 1.8 10.2 1.5 14.8-1.4 2.1-1.3 3.8-3.1 5.1-5.1l7.5 4.7c-4.7 7.4-12.9 11.8-21.6 11.8-2 0-4-.2-5.8-.6-.5-.1-1-.2-1.4-.4-.5-.1-1-.3-1.4-.4-10.1-3.4-17.4-12.6-17.4-23.9 0-11.3 7.3-20.5 17.4-23.9.5-.2.9-.3 1.4-.4.5-.1.9-.3 1.4-.4 1.9-.5 3.9-.7 5.9-.7zm7.8 25.2c0 4.3-3.4 7.8-7.7 7.8-2.4 0-4.5-1.1-6-2.8-.6-.8-1.1-1.6-1.4-2.6-.2-.8-.4-1.6-.4-2.4 0-.8.1-1.7.4-2.4.3-.9.8-1.8 1.4-2.6 1.4-1.7 3.5-2.8 5.9-2.8 4.3.1 7.8 3.6 7.8 7.8z"/></g><g><path class="st3" d="M406.4 197.2l-.6-.8c3.3-2.6 7.5-8.7 9.1-18 1.4-8.4-4.1-17.7-7-22.6-.5-.8-.9-1.4-1.1-2-.7-1.2-.8-2.7-1-4.6-.5-4.6-1.2-11.7-10.9-20.7-13.3-12.3-30.4-9.3-30.6-9.3l-.4.1-.1-.4s-.8-1.1-6.2-1.8c-5.5-.7-18.4 2.5-23.6 13.6l-.1.1-.1.1c-9.4 7.1-11.7 22.3-11.8 22.5l-1-.1c.1-.6 2.4-15.7 12.1-23 5-10.6 17.7-15 24.6-14.1 4.7.6 6.3 1.6 6.8 2.1 2.4-.3 18.5-2.1 31.1 9.6 10 9.3 10.8 16.5 11.3 21.3.2 1.8.3 3.2.9 4.2.3.5.7 1.2 1.1 1.9 3 5.1 8.7 14.5 7.2 23.3-1.9 9.5-6.2 15.8-9.7 18.6z"/><path class="st1" d="M406.3 197.9l-1.2-1.6.4-.3c3.3-2.6 7.3-8.6 8.9-17.7 1.4-8.3-4-17.4-7-22.3-.5-.8-.9-1.4-1.2-2-.7-1.3-.9-2.8-1.1-4.7-.5-4.6-1.2-11.5-10.8-20.4-13.2-12.2-30-9.2-30.1-9.2l-.8.1-.3-.7c-.3-.2-1.6-1-5.9-1.6-5.4-.7-18 2.5-23 13.3l-.1.2-.2.1c-9.1 7-11.6 22-11.6 22.2l-.1.5-2-.3.1-.5c.1-.6 2.5-15.8 12.1-23.3 5.1-10.7 18-15.2 25-14.2 3.5.5 5.8 1.2 6.9 2.1 3.5-.5 18.9-1.7 31.3 9.8 10.1 9.4 10.9 16.7 11.4 21.6.2 1.7.3 3.1.8 4 .3.5.6 1.1 1.1 1.8l.1.1c3.1 5.1 8.8 14.6 7.2 23.6-1.7 9.7-6.1 16.1-9.6 18.9l-.3.5zm.2-1.4c3.3-2.8 7.3-8.9 8.9-18 1.5-8.6-4.1-17.9-7.1-22.9l-.1-.1-.9-1.5c.3.5.6 1 .9 1.6 3 5 8.6 14.3 7.1 22.9-1.5 9-5.5 15.1-8.8 18zm-12.3-69c.3.3.6.5.9.8 9.9 9.1 10.6 16.3 11.1 21 .2 1.8.3 3.3.9 4.4 0 .1.1.2.1.3 0-.1-.1-.2-.1-.3-.6-1.1-.8-2.5-.9-4.4-.5-4.7-1.2-11.9-11.1-21-.3-.3-.6-.6-.9-.8zm-72.7 25.4c.5-2.7 3.3-15.7 11.9-22.3.1-.1.1-.3.2-.4-.1.1-.1.2-.2.3l-.1.1-.1.1c-8.6 6.6-11.3 19.5-11.7 22.2zm34-36.3c-3.7 0-8.5 1.3-12.8 3.9 5.4-3.2 11.3-4.2 14.6-3.8-.6-.1-1.2-.1-1.8-.1zm8.5 2.2c0 .1.1.1.2 0h-.2z"/></g></g></svg>