<svg version="1.1" id="Layer_1" xmlns="http://www.w3.org/2000/svg" xmlns:xlink="http://www.w3.org/1999/xlink" x="0" y="0" viewBox="0 0 1200.9 602" xml:space="preserve"><style>.st21{clip-path:url(#SVGID_44_);fill:#1c1d1d}.st75{clip-path:url(#SVGID_152_)}.st75,.st77{fill:#1c1d1d}.st78{font-family:&apos;FiraSans-Medium&apos;}.st79{font-size:10.187px}.st119,.st165{clip-path:url(#SVGID_232_);fill:#1c1d1d}.st165{clip-path:url(#SVGID_322_)}</style><defs><path id="SVGID_1_" d="M86.2 498.4c-1.5 0-2.9-.4-4.1-1.2L54.8 479c-1.2-.8-2.6-1.2-4.1-1.2H15.9c-2.3 0-4.5 1-5.6 2.7l-6.3 9c-1.2 1.7-1.2 3.9.1 5.6l7.1 9.7c.6.9 1 1.9 1 2.9v11.1c0 1.9 1.2 3.7 3.3 4.7l21.9 10.6c2.6 1.3 5.9.9 8-.9l36-20.2c.4-.3.8-.6 1.3-.9l7-3.5c5.6-2.9 3.1-10.2-3.5-10.2z"/></defs><clipPath id="SVGID_2_"><use xlink:href="#SVGID_1_" overflow="visible"/></clipPath><g clip-path="url(#SVGID_2_)"><defs><path id="SVGID_3_" d="M0 0h1200v602H0z"/></defs><clipPath id="SVGID_4_"><use xlink:href="#SVGID_3_" overflow="visible"/></clipPath><path clip-path="url(#SVGID_4_)" fill="#edf0f2" d="M-2 472.8h99.7v67H-2z"/></g><defs><path id="SVGID_5_" d="M0 0h1200v602H0z"/></defs><clipPath id="SVGID_6_"><use xlink:href="#SVGID_5_" overflow="visible"/></clipPath><path d="M86.2 498.4h0c-1.5 0-2.9-.4-4.1-1.2L54.8 479c-1.2-.8-2.6-1.2-4.1-1.2H15.9c-2.3 0-4.5 1-5.6 2.7l-6.3 9c-1.2 1.7-1.2 3.9.1 5.6l7.1 9.7c.6.9 1 1.9 1 2.9v11.1c0 1.9 1.2 3.7 3.3 4.7l21.9 10.6c2.6 1.3 5.9.9 8-.9l36-20.2c.4-.3.8-.6 1.3-.9l7-3.5c5.6-2.9 3.1-10.2-3.5-10.2z" clip-path="url(#SVGID_6_)" fill="none" stroke="#b6c5ce" stroke-width="1.213" stroke-miterlimit="10"/><defs><path id="SVGID_7_" d="M150.1 448.4l-38.2-50.1c-1.7-2.2-2.4-4.9-2-7.6l7-47.8c.4-3-.5-6-2.5-8.3-3-3.3-3.5-8.3-1.2-12.1l26.6-43.6c1.8-3 5.1-4.9 8.7-4.9h3.6c3.1 0 6.1-1.4 8-3.9l85.6-110c1.9-2.5 4.9-3.9 8-3.9h17c3.5 0 6.7 1.8 8.6 4.7l16.8 26.6c2.1 3.3 2.1 7.6-.1 10.9l-7.6 11.8c-3.3 5-10.1 6.1-14.8 2.4l-12.2-9.6c-5.9-4.6-14.5-1.6-16.2 5.7l-4 17.8c-.6 2.7-.1 5.6 1.4 7.9l2 3c2.5 3.7 7.1 5.4 11.4 4.1l128.5-39c.4-.1.9-.2 1.3-.1l34.4 5.4c1.2.2 2.4-.4 3-1.4l6.4-10.7c.9-1.5 2.8-1.9 4.2-.9l33.7 23.4c1.2.8 2.7.7 3.7-.3l8.2-7.9c1.1-1.1 1.2-2.8.3-4l-9.1-11.6c-.7-.9-.8-2.1-.3-3.1l18.8-39.4c.7-1.4 2.3-2 3.7-1.5l12.3 4.5c1.7.6 2.5 2.7 1.5 4.3l-8.9 15.1c-.2.4-.3.8-.4 1.2l-6.5 56.5c-.2 2.1 1.8 3.8 3.8 3.2l11.8-3.8c1.2-.4 2.1-1.5 2.1-2.8V177c0-1.3.8-2.4 2-2.8l25.7-8.3c1.3-.4 2.8.1 3.5 1.3l13.2 23.1c.8 1.5 2.7 1.9 4.1 1l7.4-4.6c1.5-.9 1.9-3 .7-4.4l-24.5-30.2c-1.1-1.4-.8-3.5.8-4.4l100.2-59.2c.8-.5 1.7-.5 2.6-.2l34.1 13.2c1.5.6 2.3 2.3 1.7 3.8l-14.1 36c-1 2.6 1.9 5.1 4.3 3.6l27.4-16.5c.4-.2.8-.4 1.2-.4l68.5-6.6c.8-.1 1.7.2 2.3.8l19 17.5c.8.8 2.1 1 3.1.6l43.4-17.7c1.7-.7 2.4-2.7 1.4-4.3l-6.7-11.2c-1.2-2 .2-4.5 2.5-4.5h75c.6 0 1.1-.2 1.6-.4l22.3-13.9c.5-.3 1-.4 1.6-.4H964c.3 0 .7-.1 1-.2l51.6-17.7c2.5-.9 2.7-4.4.3-5.5l-2.8-1.3c-2.5-1.1-2.3-4.7.3-5.5l133.1-43.5c.8-.3 1.8-.2 2.5.3l19.3 12.1c2.1 1.3 1.7 4.5-.6 5.3L1127 46.6c-1.2.4-2 1.5-2 2.8v15.8c0 1.4 1 2.7 2.4 2.9l41.5 7.5c2.3.4 3.2 3.3 1.6 5l-14.1 14.6c-.5.6-.8 1.3-.8 2.1v30.2c0 .5-.1 1-.4 1.5l-19.9 35.4c-.4.6-.5 1.4-.3 2.1l5.7 25.8c.1.6.4 1.1.9 1.5l44.7 41.1c.6.6 1 1.4 1 2.2v6.4c0 .2 0 .4.1.6l8.3 41.3c.5 2.5-2.1 4.4-4.3 3.2l-55.8-30.5c-.5-.3-.9-.7-1.2-1.2l-19.4-36.4c-.2-.4-.3-.9-.3-1.4v-61.2c0-.9-.4-1.8-1.2-2.4l-18-13.7c-.5-.4-1.1-.6-1.8-.6h-3.5c-2 0-3.4 1.9-2.8 3.8l7.5 24.3c.7 2.3-1.6 4.5-3.9 3.7l-17.6-6.5c-1.6-.6-3.4.3-3.9 2l-4.5 16.1c-.1.4-.1.9-.1 1.3l5.9 31.7c.2 1.3-.4 2.6-1.6 3.2l-72 36.1c-1 .5-1.6 1.5-1.6 2.6v75.9c0 1.6 1.3 3 3 3h52.7c1.1 0 2 .6 2.6 1.5l35.3 61.3c.2.4.3.8.4 1.2l5 54.6c0 .4 0 .9-.2 1.3l-18.5 50.6c-.7 1.9-3.1 2.6-4.6 1.3l-24.2-19.7c-1.4-1.2-1.5-3.3-.1-4.5l11.7-10.1c.8-.7 1.2-1.9.9-3l-11.8-45.7c-.3-1.3-1.5-2.2-2.9-2.2h-4.5c-1.1 0-2 .6-2.6 1.5l-12.7 21.9c-.8 1.4-2.7 1.9-4.1 1l-88.2-53.8c-.5-.3-1-.4-1.5-.4h-37.1c-1.5 0-2.8 1.2-3 2.7l-5.1 65.1c-.1 1.5-1.4 2.7-3 2.7h-33.3c-.8 0-1.6.3-2.1.9L828 487.3c-.6.6-1.3.9-2.1.9h-73.4c-1 0-1.9-.5-2.4-1.3L736.5 467c-.6-.8-1.5-1.3-2.4-1.3h-31.7c-2 0-3.4 2-2.8 3.9l8.8 26.4c.5 1.6-.4 3.4-2.1 3.8l-23.9 6.2c-.8.2-1.6.1-2.3-.4l-25.2-16.2c-1-.7-2.4-.6-3.4.1L612.7 518c-.5.4-1.1.6-1.8.6h-22.4c-.8 0-1.5-.3-2.1-.8L568 499.9c-.6-.5-1.3-.8-2.1-.8H540c-1 0-2-.5-2.5-1.4l-28.3-45.3c-.5-.9-1.5-1.4-2.5-1.4h-24.4c-.7 0-1.3-.2-1.8-.6l-31.3-24.6c-.6-.5-1.4-.7-2.2-.6l-68 9.6c-1.1.2-2 .9-2.4 1.9l-14 37.3c-.2.5-.5.9-.8 1.2l-8.3 7.2c-3.9 3.4-9.8 3.3-13.5-.2l-6.2-5.8c-1.2-1.1-2.7-1.9-4.2-2.4l-28.6-7.8c-1-.3-1.9-.7-2.8-1.2l-18.1-11.5c-2.4-1.5-5.4-2-8.2-1.2L226.8 465c-2 .6-3.9 1.8-5.2 3.4l-12.1 15.2c-2.3 2.9-2.9 6.9-1.4 10.3l12.1 28.2c2 4.6.3 10-4.1 12.7l-17.8 10.9c-3 1.8-4.9 5.1-4.9 8.7v26.3c0 8.5-9.7 13.2-16.4 8l-57.9-45.2c-1-.8-1.8-1.7-2.5-2.8l-16.2-27.3c-2.4-4-1.7-9.1 1.6-12.4l25.6-25.3c.6-.6 1.2-1.1 1.9-1.5l17.6-10.5c5.3-3.5 6.7-10.5 3-15.3z"/></defs><clipPath id="SVGID_8_"><use xlink:href="#SVGID_7_" overflow="visible"/></clipPath><g clip-path="url(#SVGID_8_)"><defs><path id="SVGID_9_" d="M0 0h1200v602H0z"/></defs><clipPath id="SVGID_10_"><use xlink:href="#SVGID_9_" overflow="visible"/></clipPath><path clip-path="url(#SVGID_10_)" fill="#edf0f2" d="M94 9.1h1106.8v586.3H94z"/></g><defs><path id="SVGID_11_" d="M0 0h1200v602H0z"/></defs><clipPath id="SVGID_12_"><use xlink:href="#SVGID_11_" overflow="visible"/></clipPath><path d="M150.1 448.4l-38.2-50.1c-1.7-2.2-2.4-4.9-2-7.6l7-47.8c.4-3-.5-6.1-2.5-8.3-3-3.3-3.5-8.3-1.2-12.1l26.6-43.6c1.8-3 5.1-4.9 8.7-4.9h3.6c3.1 0 6.1-1.4 8-3.9l85.6-110c1.9-2.5 4.9-3.9 8-3.9h17c3.5 0 6.7 1.8 8.6 4.7l16.8 26.6c2.1 3.3 2.1 7.6-.1 10.9l-7.6 11.8c-3.3 5-10.1 6.1-14.8 2.4l-12.2-9.6c-5.9-4.6-14.5-1.6-16.2 5.7l-4 17.8c-.6 2.7-.1 5.6 1.4 7.9l2 3c2.5 3.7 7.1 5.4 11.4 4.1l128.5-39c.4-.1.9-.2 1.3-.1l34.4 5.4c1.2.2 2.4-.4 3-1.4l6.4-10.7c.9-1.5 2.8-1.9 4.2-.9l33.7 23.4c1.2.8 2.7.7 3.7-.3l8.2-7.9c1.1-1.1 1.2-2.8.3-4l-9.1-11.6c-.7-.9-.8-2.1-.3-3.1l18.8-39.4c.7-1.4 2.3-2 3.7-1.5l12.3 4.5c1.7.6 2.5 2.7 1.5 4.3l-8.9 15.1c-.2.4-.3.8-.4 1.2l-6.5 56.5c-.2 2.1 1.8 3.8 3.8 3.2l11.8-3.8c1.2-.4 2.1-1.5 2.1-2.8V177c0-1.3.8-2.4 2-2.8l25.7-8.3c1.3-.4 2.8.1 3.5 1.3l13.2 23.1c.8 1.5 2.7 1.9 4.1 1l7.4-4.6c1.5-.9 1.9-3 .7-4.4l-24.5-30.2c-1.1-1.4-.8-3.5.8-4.4l100.2-59.2c.8-.5 1.7-.5 2.6-.2l34.1 13.2c1.5.6 2.3 2.3 1.7 3.8l-14.1 36c-1 2.6 1.9 5.1 4.3 3.6l27.4-16.5c.4-.2.8-.4 1.2-.4l68.5-6.6c.8-.1 1.7.2 2.3.8l19 17.5c.8.8 2.1 1 3.1.6l43.4-17.7c1.7-.7 2.4-2.7 1.4-4.3l-6.7-11.2c-1.2-2 .2-4.5 2.5-4.5h75c.6 0 1.1-.2 1.6-.4l22.3-13.9c.5-.3 1-.4 1.6-.4H964c.3 0 .7-.1 1-.2l51.6-17.7c2.5-.9 2.7-4.4.3-5.5l-2.8-1.3c-2.5-1.1-2.3-4.7.3-5.5l133.1-43.5c.8-.3 1.8-.2 2.5.3l19.3 12.1c2.1 1.3 1.7 4.5-.6 5.3L1127 46.6c-1.2.4-2 1.5-2 2.8v15.8c0 1.4 1 2.7 2.4 2.9l41.5 7.5c2.3.4 3.2 3.3 1.6 5l-14.1 14.6c-.5.6-.8 1.3-.8 2.1v30.2c0 .5-.1 1-.4 1.5l-19.9 35.4c-.4.6-.5 1.4-.3 2.1l5.7 25.8c.1.6.4 1.1.9 1.5l44.7 41.1c.6.6 1 1.4 1 2.2v6.4c0 .2 0 .4.1.6l8.3 41.3c.5 2.5-2.1 4.4-4.3 3.2l-55.8-30.5c-.5-.3-.9-.7-1.2-1.2l-19.4-36.4c-.2-.4-.3-.9-.3-1.4v-61.2c0-.9-.4-1.8-1.2-2.4l-18-13.7c-.5-.4-1.1-.6-1.8-.6h-3.5c-2 0-3.4 1.9-2.8 3.8l7.5 24.3c.7 2.3-1.6 4.5-3.9 3.7l-17.6-6.5c-1.6-.6-3.4.3-3.9 2l-4.5 16.1c-.1.4-.1.9-.1 1.3l5.9 31.7c.2 1.3-.4 2.6-1.6 3.2l-72 36.1c-1 .5-1.6 1.5-1.6 2.6v75.9c0 1.6 1.3 3 3 3h52.7c1.1 0 2 .6 2.6 1.5l35.3 61.3c.2.4.3.8.4 1.2l5 54.6c0 .4 0 .9-.2 1.3l-18.6 50.6c-.7 1.9-3.1 2.6-4.6 1.3l-24.2-19.7c-1.4-1.2-1.5-3.3-.1-4.5l11.7-10.1c.8-.7 1.2-1.9.9-3l-11.8-45.7c-.3-1.3-1.5-2.2-2.9-2.2h-4.5c-1.1 0-2 .6-2.6 1.5l-12.7 21.9c-.8 1.4-2.7 1.9-4.1 1l-88.2-53.8c-.5-.3-1-.4-1.5-.4h-37.1c-1.5 0-2.8 1.2-3 2.7L886 463c-.1 1.5-1.4 2.7-3 2.7h-33.3c-.8 0-1.6.3-2.1.9l-19.7 20.7c-.6.6-1.3.9-2.1.9h-73.4c-1 0-1.9-.5-2.4-1.3L736.4 467c-.6-.8-1.5-1.3-2.4-1.3h-31.7c-2 0-3.4 2-2.8 3.9l8.8 26.4c.5 1.6-.4 3.4-2.1 3.8l-23.9 6.2c-.8.2-1.6.1-2.3-.4l-25.2-16.2c-1-.7-2.4-.6-3.4.1L612.6 518c-.5.4-1.1.6-1.8.6h-22.4c-.8 0-1.5-.3-2.1-.8l-18.4-17.9c-.6-.5-1.3-.8-2.1-.8h-25.9c-1 0-2-.5-2.5-1.4l-28.3-45.3c-.5-.9-1.5-1.4-2.5-1.4h-24.4c-.7 0-1.3-.2-1.8-.6l-31.3-24.6c-.6-.5-1.4-.7-2.2-.6l-68 9.6c-1.1.2-2 .9-2.4 1.9l-14 37.3c-.2.5-.5.9-.8 1.2l-8.3 7.2c-3.9 3.4-9.8 3.3-13.5-.2l-6.2-5.8c-1.2-1.1-2.7-1.9-4.2-2.4l-28.6-7.8c-1-.3-1.9-.7-2.8-1.2L280 453.5c-2.4-1.5-5.4-2-8.2-1.2L226.7 465c-2 .6-3.9 1.8-5.2 3.4l-12.1 15.2c-2.3 2.9-2.9 6.9-1.4 10.3l12.1 28.2c2 4.6.3 10-4.1 12.7l-17.8 10.9c-3 1.8-4.9 5.1-4.9 8.7v26.3c0 8.5-9.7 13.2-16.4 8L119 543.5c-1-.8-1.8-1.7-2.5-2.8l-16.2-27.3c-2.4-4-1.7-9.1 1.6-12.4l25.6-25.3c.6-.6 1.2-1.1 1.9-1.5l17.6-10.5c5.4-3.5 6.8-10.5 3.1-15.3z" clip-path="url(#SVGID_12_)" fill="none" stroke="#b6c5ce" stroke-width="1.213" stroke-miterlimit="10"/><defs><path id="SVGID_13_" d="M394 162.3l12.8 14.5c.6.6 1.4 1 2.2 1h8.7c2.1 0 3.5-2.1 2.8-4l-4.6-11.9c-.4-1-.2-2.1.5-3l25.9-31.3c.3-.4.8-.7 1.3-.9l48.4-17.9c1.2-.4 1.9-1.5 1.9-2.8v-5.1c0-2-1.9-3.4-3.8-2.8l-56.7 17.1c-.5.2-1 .5-1.3.9l-38 42.2c-1.1 1.2-1.1 2.9-.1 4z"/></defs><clipPath id="SVGID_14_"><use xlink:href="#SVGID_13_" overflow="visible"/></clipPath><g clip-path="url(#SVGID_14_)"><defs><path id="SVGID_15_" d="M0 0h1200v602H0z"/></defs><clipPath id="SVGID_16_"><use xlink:href="#SVGID_15_" overflow="visible"/></clipPath><path clip-path="url(#SVGID_16_)" fill="#edf0f2" d="M388.2 93.1h110.6v89.8H388.2z"/></g><defs><path id="SVGID_17_" d="M0 0h1200v602H0z"/></defs><clipPath id="SVGID_18_"><use xlink:href="#SVGID_17_" overflow="visible"/></clipPath><path d="M394 162.3l12.8 14.5c.6.6 1.4 1 2.2 1h8.7c2.1 0 3.5-2.1 2.8-4l-4.6-11.9c-.4-1-.2-2.1.5-3l25.9-31.3c.3-.4.8-.7 1.3-.9l48.4-17.9c1.2-.4 1.9-1.5 1.9-2.8v-5.1c0-2-1.9-3.4-3.8-2.8l-56.7 17.1c-.5.2-1 .5-1.3.9l-38 42.2c-1.1 1.2-1.1 2.9-.1 4z" clip-path="url(#SVGID_18_)" fill="none" stroke="#b6c5ce" stroke-width="1.213" stroke-miterlimit="10"/><defs><path id="SVGID_19_" d="M1056.3 318.3l67.8 100.1c1.6 2.4 5.4 1.3 5.4-1.7 0-2 2-3.4 3.9-2.8l7.3 2.4c2.6.9 4.9-2 3.4-4.4l-6.4-10.2c-.5-.9-1.5-1.4-2.5-1.4h-11.7c-.9 0-1.8-.4-2.4-1.2l-11.9-16.3c-1.4-2 0-4.7 2.4-4.7h9c2.8 0 4.1-3.6 1.8-5.3l-37.7-28.4c-.3-.3-.6-.6-.8-1l-14.9-28.2c-.5-1-1.5-1.6-2.6-1.6h-7.7c-2.4.1-3.8 2.8-2.4 4.7z"/></defs><clipPath id="SVGID_20_"><use xlink:href="#SVGID_19_" overflow="visible"/></clipPath><g clip-path="url(#SVGID_20_)"><defs><path id="SVGID_21_" d="M0 0h1200v602H0z"/></defs><clipPath id="SVGID_22_"><use xlink:href="#SVGID_21_" overflow="visible"/></clipPath><path clip-path="url(#SVGID_22_)" fill="#edf0f2" d="M1050.8 308.7h98.8v116h-98.8z"/></g><defs><path id="SVGID_23_" d="M0 0h1200v602H0z"/></defs><clipPath id="SVGID_24_"><use xlink:href="#SVGID_23_" overflow="visible"/></clipPath><path d="M1056.3 318.3l67.8 100.1c1.6 2.4 5.4 1.3 5.4-1.7 0-2 2-3.4 3.9-2.8l7.3 2.4c2.6.9 4.9-2 3.4-4.4l-6.4-10.2c-.5-.9-1.5-1.4-2.5-1.4h-11.7c-.9 0-1.8-.4-2.4-1.2l-11.9-16.3c-1.4-2 0-4.7 2.4-4.7h9c2.8 0 4.1-3.6 1.8-5.3l-37.7-28.4c-.3-.3-.6-.6-.8-1l-14.9-28.2c-.5-1-1.5-1.6-2.6-1.6h-7.7c-2.4.1-3.8 2.8-2.4 4.7z" clip-path="url(#SVGID_24_)" fill="none" stroke="#b6c5ce" stroke-width="1.213" stroke-miterlimit="10"/><defs><path id="SVGID_25_" d="M176.8 352.7c3.5 0 6.4-2.8 6.4-6.1 0-3.4-2.9-6.1-6.4-6.1-3.5 0-6.4 2.8-6.4 6.1s2.8 6.1 6.4 6.1z"/></defs><clipPath id="SVGID_26_"><use xlink:href="#SVGID_25_" overflow="visible"/></clipPath><g clip-path="url(#SVGID_26_)"><defs><path id="SVGID_27_" d="M0 0h1200v602H0z"/></defs><clipPath id="SVGID_28_"><use xlink:href="#SVGID_27_" overflow="visible"/></clipPath><path clip-path="url(#SVGID_28_)" fill="#fff" d="M165.4 335.4h22.8v22.3h-22.8z"/></g><defs><path id="SVGID_29_" d="M176.6 349.1c1.5 0 2.7-1.2 2.7-2.7 0-1.5-1.2-2.7-2.7-2.7s-2.7 1.2-2.7 2.7c0 1.5 1.2 2.7 2.7 2.7zm0 2.7c3 0 5.3-2.4 5.3-5.4 0-3-2.4-5.4-5.3-5.4-3 0-5.3 2.4-5.3 5.4-.1 3 2.3 5.4 5.3 5.4zm.6 7.4s0 .1 0 0c-.5.4-1 .4-1.3 0-4.9-5.7-7.3-10-7.3-12.9 0-4.5 3.6-8.2 8-8.2s8 3.7 8 8.2c0 2.9-2.5 7.2-7.4 12.9z"/></defs><clipPath id="SVGID_30_"><use xlink:href="#SVGID_29_" overflow="visible"/></clipPath><g clip-path="url(#SVGID_30_)"><defs><path id="SVGID_31_" d="M0 0h1200v602H0z"/></defs><clipPath id="SVGID_32_"><use xlink:href="#SVGID_31_" overflow="visible"/></clipPath><path clip-path="url(#SVGID_32_)" fill="#34b798" d="M163.6 333.2h26v31.3h-26z"/></g><defs><path id="SVGID_33_" d="M0 0h1200v602H0z"/></defs><clipPath id="SVGID_34_"><use xlink:href="#SVGID_33_" overflow="visible"/></clipPath><path d="M166.5 369.9h-1.3l-.2-2.9c-.1-1.1-.1-1.9-.1-2.5v-.4l-1.3 5.1h-1.3l-1.4-5.1v1c0 .6 0 1.3-.1 1.9l-.2 2.9h-1.3l.6-7h1.7l1.3 4.9 1.2-4.9h1.8l.6 7zm3.5-5.5c.8 0 1.4.3 1.9.8.4.5.7 1.2.7 2.1 0 .6-.1 1.1-.3 1.5-.2.4-.5.8-.9 1-.4.2-.8.4-1.4.4-.8 0-1.4-.3-1.9-.8-.4-.5-.7-1.2-.7-2.1 0-.6.1-1.1.3-1.5.2-.4.5-.8.9-1 .4-.3.8-.4 1.4-.4zm0 1c-.8 0-1.2.6-1.2 1.9 0 .6.1 1.1.3 1.4.2.3.5.5.9.5s.7-.2.9-.5c.2-.3.3-.8.3-1.4s-.1-1.1-.3-1.4c-.3-.4-.6-.5-.9-.5zm5.9-1c.4 0 .7.1 1 .2.3.1.5.3.8.5l-.6.8c-.2-.1-.4-.2-.5-.3-.2-.1-.4-.1-.6-.1-.8 0-1.2.6-1.2 1.8 0 .6.1 1.1.3 1.3.2.3.5.4.9.4.2 0 .4 0 .5-.1.2-.1.3-.2.6-.3l.6.8c-.5.4-1.1.6-1.7.6-.5 0-1-.1-1.3-.3-.4-.2-.7-.6-.9-1-.2-.4-.3-.9-.3-1.5s.1-1.1.3-1.5c.2-.4.5-.8.9-1 .2-.2.7-.3 1.2-.3zm7.1.2l-1.5 2.5 1.7 2.9h-1.4l-1.3-2.4h-.6v2.4h-1.3v-5.4h1.3v2.1h.6l1.3-2.1h1.2zm4.1 2.4c.9.1 1.4.5 1.4 1.3 0 .6-.2 1-.6 1.2-.4.3-1 .4-1.7.4H184v-5.3c.7-.1 1.4-.2 2-.2.7 0 1.2.1 1.7.4.4.3.6.6.6 1.1 0 .3-.1.6-.3.7-.2.2-.5.3-.9.4zm-1.1-1.7c-.2 0-.4 0-.7.1v1.4h.8c.6 0 .8-.2.8-.7 0-.6-.3-.8-.9-.8zm.1 3.7c.7 0 1-.3 1-.8 0-.3-.1-.4-.2-.6-.2-.1-.4-.2-.8-.2h-.8v1.6h.8zm7.6-.5c0 .2 0 .4.1.5.1.1.2.2.3.2l-.3.9c-.3 0-.6-.1-.7-.2-.2-.1-.3-.3-.4-.6-.2.3-.4.5-.7.6-.3.1-.6.2-.9.2-.5 0-1-.2-1.3-.5-.3-.3-.5-.7-.5-1.2 0-.6.2-1 .6-1.3.4-.3 1-.5 1.8-.5h.7v-.3c0-.3-.1-.6-.2-.7-.2-.1-.4-.2-.8-.2s-.9.1-1.4.3l-.3-.9c.7-.3 1.3-.4 2-.4 1.4 0 2.1.6 2.1 1.9v2.2h-.1zm-2.3.7c.4 0 .8-.2 1-.7v-1.1h-.5c-.8 0-1.3.3-1.3.9 0 .3.1.5.2.6.1.2.3.3.6.3z" clip-path="url(#SVGID_34_)" fill="#1c1d1d"/><defs><path id="SVGID_35_" d="M1051.7 415.7c3.5 0 6.4-2.8 6.4-6.1 0-3.4-2.9-6.1-6.4-6.1-3.5 0-6.4 2.8-6.4 6.1.1 3.4 2.9 6.1 6.4 6.1z"/></defs><clipPath id="SVGID_36_"><use xlink:href="#SVGID_35_" overflow="visible"/></clipPath><g clip-path="url(#SVGID_36_)"><defs><path id="SVGID_37_" d="M0 0h1200v602H0z"/></defs><clipPath id="SVGID_38_"><use xlink:href="#SVGID_37_" overflow="visible"/></clipPath><path clip-path="url(#SVGID_38_)" fill="#fff" d="M1040.4 398.4h22.8v22.3h-22.8z"/></g><defs><path id="SVGID_39_" d="M1051.6 412.2c1.5 0 2.7-1.2 2.7-2.7s-1.2-2.7-2.7-2.7c-1.5 0-2.7 1.2-2.7 2.7s1.2 2.7 2.7 2.7zm0 2.7c3 0 5.3-2.4 5.3-5.4s-2.4-5.4-5.3-5.4c-3 0-5.3 2.4-5.3 5.4s2.3 5.4 5.3 5.4zm.6 7.4c-.5.4-1 .4-1.3 0-4.9-5.7-7.3-10-7.3-12.9 0-4.5 3.6-8.2 8-8.2s8 3.7 8 8.2c0 2.9-2.5 7.2-7.4 12.9z"/></defs><clipPath id="SVGID_40_"><use xlink:href="#SVGID_39_" overflow="visible"/></clipPath><g clip-path="url(#SVGID_40_)"><defs><path id="SVGID_41_" d="M0 0h1200v602H0z"/></defs><clipPath id="SVGID_42_"><use xlink:href="#SVGID_41_" overflow="visible"/></clipPath><path clip-path="url(#SVGID_42_)" fill="#34b798" d="M1038.5 396.3h26v31.3h-26z"/></g><defs><path id="SVGID_43_" d="M0 0h1200v602H0z"/></defs><clipPath id="SVGID_44_"><use xlink:href="#SVGID_43_" overflow="visible"/></clipPath><path class="st21" d="M1030 429.2l2.1 3.8h-1.5l-1.4-2.9-1.4 2.9h-1.4l2-3.7-1.9-3.3h1.5l1.2 2.4 1.2-2.4h1.4l-1.8 3.2zm6.9 2.4c0 .2 0 .4.1.5.1.1.2.2.3.2l-.3.9c-.3 0-.6-.1-.7-.2-.2-.1-.3-.3-.4-.6-.2.3-.4.5-.7.6-.3.1-.6.2-.9.2-.5 0-1-.2-1.3-.5s-.5-.7-.5-1.2c0-.6.2-1 .6-1.3.4-.3 1-.5 1.8-.5h.7v-.3c0-.3-.1-.6-.2-.7-.2-.1-.4-.2-.8-.2s-.9.1-1.4.3l-.3-.9c.7-.3 1.3-.4 2-.4 1.4 0 2.1.6 2.1 1.9v2.2h-.1zm-2.4.6c.4 0 .8-.2 1-.7v-1.1h-.5c-.8 0-1.3.3-1.3.9 0 .3.1.5.2.6.2.2.4.3.6.3zm6.6-4.2c.4 0 .7.1 1 .3.3.2.5.5.7.9.2.4.3.8.3 1.3 0 .6-.1 1-.3 1.4-.2.4-.5.7-.9.9-.4.2-.8.3-1.3.3-.8 0-1.4-.3-1.8-.8-.5-.5-.7-1.3-.7-2.4 0-.8.1-1.4.2-1.9s.3-.9.7-1.2c.3-.3.8-.6 1.3-.8.4-.1.7-.3 1-.4.2-.1.5-.2.8-.4l.5.9c-.2.2-.5.3-.8.4-.3.1-.6.2-1 .4-.3.1-.6.2-.7.4-.2.1-.3.3-.4.6-.1.2-.2.6-.2 1 .3-.6.8-.9 1.6-.9zm-.5 4.2c.3 0 .6-.1.8-.4.2-.2.3-.7.3-1.3 0-.6-.1-1-.2-1.2-.2-.2-.4-.4-.7-.4-.3 0-.5.1-.7.2-.2.1-.4.3-.6.6v.7c0 .6.1 1 .3 1.3.2.3.4.5.8.5zm7.7-.6c0 .2 0 .4.1.5.1.1.2.2.3.2l-.3.9c-.3 0-.6-.1-.7-.2-.2-.1-.3-.3-.4-.6-.2.3-.4.5-.7.6-.3.1-.6.2-.9.2-.5 0-1-.2-1.3-.5-.3-.3-.5-.7-.5-1.2 0-.6.2-1 .6-1.3.4-.3 1-.5 1.8-.5h.7v-.3c0-.3-.1-.6-.2-.7-.2-.1-.4-.2-.8-.2s-.9.1-1.4.3l-.3-.9c.7-.3 1.3-.4 2-.4 1.4 0 2.1.6 2.1 1.9v2.2h-.1zm-2.3.6c.4 0 .8-.2 1-.7v-1.1h-.5c-.8 0-1.3.3-1.3.9 0 .3.1.5.2.6.1.2.3.3.6.3zm6.7-4.7c.7 0 1.2.2 1.5.7.3.5.5 1.2.5 2.1 0 .6-.1 1.1-.2 1.5-.2.4-.4.8-.7 1-.3.2-.7.4-1.1.4-.6 0-1-.2-1.4-.6v2.5l-1.3.1v-7.6h1.1l.1.7c.2-.3.5-.5.7-.6.2-.2.5-.2.8-.2zm-.5 4.7c.8 0 1.1-.6 1.1-1.9 0-.7-.1-1.1-.3-1.4-.2-.3-.4-.4-.8-.4-.2 0-.4.1-.6.2-.2.1-.4.3-.5.5v2.4c.3.4.6.6 1.1.6zm5.9-4.7c.8 0 1.4.3 1.9.8.4.5.7 1.2.7 2.1 0 .6-.1 1.1-.3 1.5-.2.4-.5.8-.9 1-.4.2-.8.4-1.4.4-.8 0-1.4-.3-1.9-.8-.4-.5-.7-1.2-.7-2.1 0-.6.1-1.1.3-1.5s.5-.8.9-1c.5-.3.9-.4 1.4-.4zm0 1c-.8 0-1.2.6-1.2 1.9 0 .6.1 1.1.3 1.4.2.3.5.5.9.5s.7-.2.9-.5c.2-.3.3-.8.3-1.4s-.1-1.1-.3-1.4c-.2-.4-.5-.5-.9-.5zm6.9 1.6c.9.1 1.4.5 1.4 1.3 0 .6-.2 1-.6 1.2-.4.3-1 .4-1.7.4h-2.1v-5.3c.7-.1 1.4-.2 2-.2.7 0 1.2.1 1.7.4.4.3.6.6.6 1.1 0 .3-.1.6-.3.7-.4.2-.7.3-1 .4zm-1.2-1.7c-.2 0-.4 0-.7.1v1.4h.8c.6 0 .8-.2.8-.7.1-.6-.2-.8-.9-.8zm.2 3.7c.7 0 1-.3 1-.8 0-.3-.1-.4-.2-.6-.2-.1-.4-.2-.8-.2h-.8v1.6h.8zm5.8-4.6c.4 0 .7.1 1 .2.3.1.5.3.8.5l-.6.8c-.2-.1-.4-.2-.5-.3-.2-.1-.4-.1-.6-.1-.8 0-1.2.6-1.2 1.8 0 .6.1 1.1.3 1.3.2.3.5.4.9.4.2 0 .4 0 .5-.1.2-.1.3-.2.6-.3l.6.8c-.5.4-1.1.6-1.7.6-.5 0-1-.1-1.3-.3-.4-.2-.7-.6-.9-1-.2-.4-.3-.9-.3-1.5s.1-1.1.3-1.5c.2-.4.5-.8.9-1 .2-.2.6-.3 1.2-.3zm7.1.1l-1.5 2.5 1.7 2.9h-1.4l-1.3-2.4h-.6v2.4h-1.3v-5.4h1.3v2.1h.6l1.3-2.1h1.2zM526.2 436.6V433h-2.8v3.6h-1.5v-8h1.5v3.2h2.8v-3.2h1.5v8h-1.5zm5.8-6.3c.9 0 1.6.3 2.1.9.5.6.8 1.4.8 2.4 0 .6-.1 1.2-.3 1.7-.2.5-.6.9-1 1.1-.4.3-.9.4-1.5.4-.9 0-1.6-.3-2.1-.9-.5-.6-.8-1.4-.8-2.4 0-.6.1-1.2.3-1.7.2-.5.6-.9 1-1.1.4-.3 1-.4 1.5-.4zm0 1.1c-.9 0-1.3.7-1.3 2.1 0 .7.1 1.3.3 1.6.2.3.5.5 1 .5s.8-.2 1-.5c.2-.3.3-.9.3-1.6s-.1-1.2-.3-1.6c-.2-.3-.5-.5-1-.5zm7.8 1.8c1 .1 1.6.6 1.6 1.5 0 .6-.2 1.1-.7 1.4-.5.3-1.1.5-1.9.5h-2.4v-6c.8-.2 1.6-.2 2.2-.2.8 0 1.4.1 1.9.4.5.3.7.7.7 1.2 0 .3-.1.6-.3.8-.4.2-.7.3-1.1.4zm-1.3-1.9c-.2 0-.5 0-.7.1v1.5h.9c.6 0 1-.3 1-.8-.1-.5-.5-.8-1.2-.8zm.2 4.2c.8 0 1.2-.3 1.2-.9 0-.3-.1-.5-.3-.6-.2-.1-.5-.2-.9-.2h-.9v1.8h.9v-.1zm6.5-5.2c.9 0 1.6.3 2.1.9.5.6.8 1.4.8 2.4 0 .6-.1 1.2-.3 1.7-.2.5-.6.9-1 1.1-.4.3-.9.4-1.5.4-.9 0-1.6-.3-2.1-.9-.5-.6-.8-1.4-.8-2.4 0-.6.1-1.2.3-1.7.2-.5.6-.9 1-1.1.4-.3.9-.4 1.5-.4zm0 1.1c-.9 0-1.3.7-1.3 2.1 0 .7.1 1.3.3 1.6.2.3.5.5 1 .5s.8-.2 1-.5c.2-.3.3-.9.3-1.6s-.1-1.2-.3-1.6c-.2-.3-.5-.5-1-.5zm6.7-1.1c.4 0 .8.1 1.1.2.3.1.6.3.9.5l-.7.9c-.2-.2-.4-.3-.6-.3-.2-.1-.4-.1-.6-.1-.9 0-1.4.7-1.4 2.1 0 .7.1 1.2.4 1.5.2.3.6.5 1 .5.2 0 .4 0 .6-.1l.6-.3.7.9c-.6.5-1.2.7-2 .7-.6 0-1.1-.1-1.5-.4-.4-.3-.8-.6-1-1.1-.2-.5-.3-1-.3-1.7s.1-1.2.3-1.7c.2-.5.6-.9 1-1.2.4-.3.9-.4 1.5-.4zm8.2 6.3h-1.4v-2.4c0-.4 0-.9.1-1.3 0-.4.1-.7.1-.9l-2.3 4.6H555v-6.1h1.4v2.4c0 .4 0 .8-.1 1.3 0 .4-.1.7-.1.9l2.2-4.6h1.6v6.1zm4.7-5.7c.4 0 .8.1 1.2.3.3.2.6.5.8 1 .2.4.3.9.3 1.5s-.1 1.2-.4 1.6c-.2.5-.6.8-1 1-.4.2-.9.4-1.5.4-.9 0-1.6-.3-2.1-.9-.5-.6-.8-1.5-.8-2.7 0-.9.1-1.6.2-2.2.1-.6.4-1 .7-1.4.4-.4.8-.7 1.5-.9.5-.2.8-.3 1.1-.4.3-.1.6-.3.9-.5l.6 1c-.3.2-.6.3-.9.5-.3.1-.7.3-1.1.4-.4.1-.6.2-.8.4-.2.2-.4.4-.5.7-.1.3-.2.7-.3 1.1.6-.6 1.3-.9 2.1-.9zm-.5 4.7c.4 0 .7-.1.9-.4.2-.3.3-.8.3-1.5 0-.6-.1-1.1-.3-1.4s-.5-.4-.8-.4c-.3 0-.6.1-.8.2-.2.2-.5.4-.6.7v.8c0 .6.1 1.1.3 1.4.2.4.6.6 1 .6zm9.2 1h-1.4v-2.4c0-.4 0-.9.1-1.3 0-.4.1-.7.1-.9l-2.3 4.6h-1.6v-6.1h1.4v2.4c0 .4 0 .8-.1 1.3 0 .4-.1.7-.1.9l2.2-4.6h1.6v6.1zm5-6.3c.8 0 1.3.3 1.7.8.4.6.6 1.3.6 2.4 0 .6-.1 1.2-.3 1.7-.2.5-.5.9-.8 1.1-.4.3-.8.4-1.3.4-.6 0-1.2-.2-1.5-.7v2.8l-1.5.2v-8.6h1.3l.1.7c.2-.3.5-.5.8-.7.2 0 .5-.1.9-.1zm-.6 5.3c.9 0 1.3-.7 1.3-2.1 0-.7-.1-1.3-.3-1.6-.2-.3-.5-.5-.9-.5-.2 0-.5.1-.7.2-.2.1-.4.4-.6.6v2.7c.4.5.7.7 1.2.7zm6.7-5.3c.4 0 .8.1 1.1.2.3.1.6.3.9.5l-.7.9c-.2-.2-.4-.3-.6-.3-.2-.1-.4-.1-.6-.1-.9 0-1.4.7-1.4 2.1 0 .7.1 1.2.4 1.5.2.3.6.5 1 .5.2 0 .4 0 .6-.1l.6-.3.7.9c-.6.5-1.2.7-2 .7-.6 0-1.1-.1-1.5-.4-.4-.3-.8-.6-1-1.1-.2-.5-.3-1-.3-1.7s.1-1.2.3-1.7.6-.9 1-1.2c.5-.3 1-.4 1.5-.4zm8.1.2l-1.7 2.8 1.9 3.3h-1.6l-1.5-2.7h-.7v2.7h-1.5v-6.1h1.5v2.4h.7l1.4-2.4h1.5z"/><defs><path id="SVGID_45_" d="M557.8 427l-.1.1c-.6.5-1.6.5-2.2-.1-8.5-9.1-12.8-15.9-12.8-20.5 0-7.2 6.2-13 13.9-13s13.9 5.8 13.9 13c.1 4.6-4.2 11.4-12.7 20.5z"/></defs><clipPath id="SVGID_46_"><use xlink:href="#SVGID_45_" overflow="visible"/></clipPath><g clip-path="url(#SVGID_46_)"><defs><path id="SVGID_47_" d="M0 0h1200v602H0z"/></defs><clipPath id="SVGID_48_"><use xlink:href="#SVGID_47_" overflow="visible"/></clipPath><path clip-path="url(#SVGID_48_)" fill="#34b798" d="M537.7 388.5h37.9v44h-37.9z"/></g><defs><path id="SVGID_49_" d="M563.6 406.6c0-.5.2-1 .6-1.2.4-.2.8-.1 1.1.3.3.4.4.9.2 1.4-.2.5-.5.8-.9.8-.3 0-.5-.1-.7-.4-.2-.2-.3-.5-.3-.9zm2.8-1.4c-.6-1-1.7-1.4-2.8-1.1-1.1.3-1.8 1.3-1.8 2.5s.7 2.2 1.8 2.5c1.1.3 2.2-.1 2.8-1.1l1.1.7c-.7 1.2-2 1.9-3.3 1.9-2.2 0-4-1.7-4-4 0-2.2 1.8-4 4-4 1.3 0 2.6.7 3.3 1.9l-1.1.7zm-9.5 4c-.7 0-1.4-.3-1.9-.8l-.8 1.1c.7.6 1.7 1 2.6 1 1.5 0 2.7-1.1 2.7-2.4 0-1.2-.9-2-2-2.3l-1.1-.3c-1.2-.4-.7-1.6.4-1.6.6 0 1.2.2 1.7.6l.7-1.1c-.7-.6-1.5-.9-2.4-.9-1.3 0-2.5 1-2.5 2.2 0 1.1.7 1.8 1.7 2.1l1.2.3c1.6.6 1 2.1-.3 2.1zm-3.2-6.5v3h-3.1l1-1c-.8-.8-2-.9-3-.4s-1.5 1.5-1.4 2.6c.1 1.1.9 2 2 2.2 1.1.2 2.2-.2 2.8-1.1l1.2.7c-.7 1.2-2 1.9-3.4 1.9-2.3 0-4.1-1.7-4.1-4 0-2.2 1.8-4 4.1-4 1 0 2 .4 2.8 1.1l1.1-1z"/></defs><clipPath id="SVGID_50_"><use xlink:href="#SVGID_49_" overflow="visible"/></clipPath><g clip-path="url(#SVGID_50_)"><defs><path id="SVGID_51_" d="M0 0h1200v602H0z"/></defs><clipPath id="SVGID_52_"><use xlink:href="#SVGID_51_" overflow="visible"/></clipPath><path clip-path="url(#SVGID_52_)" fill="#fff" d="M540.7 397.6h31.8v17.9h-31.8z"/></g><defs><path id="SVGID_53_" d="M606.1 435.1c3.5 0 6.4-2.8 6.4-6.1 0-3.4-2.9-6.1-6.4-6.1-3.5 0-6.4 2.8-6.4 6.1 0 3.4 2.8 6.1 6.4 6.1z"/></defs><clipPath id="SVGID_54_"><use xlink:href="#SVGID_53_" overflow="visible"/></clipPath><g clip-path="url(#SVGID_54_)"><defs><path id="SVGID_55_" d="M0 0h1200v602H0z"/></defs><clipPath id="SVGID_56_"><use xlink:href="#SVGID_55_" overflow="visible"/></clipPath><path clip-path="url(#SVGID_56_)" fill="#fff" d="M594.7 417.8h22.8v22.3h-22.8z"/></g><defs><path id="SVGID_57_" d="M605.9 431.6c1.5 0 2.7-1.2 2.7-2.7 0-1.5-1.2-2.7-2.7-2.7s-2.7 1.2-2.7 2.7c0 1.4 1.2 2.7 2.7 2.7zm0 2.7c3 0 5.3-2.4 5.3-5.4 0-3-2.4-5.4-5.3-5.4-3 0-5.3 2.4-5.3 5.4-.1 2.9 2.3 5.4 5.3 5.4zm.7 7.4c-.1 0-.1 0 0 0-.5.4-1 .4-1.3 0-4.9-5.7-7.3-10-7.3-12.9 0-4.5 3.6-8.2 8-8.2s8 3.7 8 8.2c-.1 2.9-2.5 7.2-7.4 12.9z"/></defs><clipPath id="SVGID_58_"><use xlink:href="#SVGID_57_" overflow="visible"/></clipPath><g clip-path="url(#SVGID_58_)"><defs><path id="SVGID_59_" d="M0 0h1200v602H0z"/></defs><clipPath id="SVGID_60_"><use xlink:href="#SVGID_59_" overflow="visible"/></clipPath><path clip-path="url(#SVGID_60_)" fill="#34b798" d="M592.9 415.7h26V447h-26z"/></g><defs><path id="SVGID_61_" d="M0 0h1200v602H0z"/></defs><clipPath id="SVGID_62_"><use xlink:href="#SVGID_61_" overflow="visible"/></clipPath><path d="M591.7 452.4h-1.3v-3c0-.9.1-1.8.2-2.7l-2.4 5.7h-1.7v-7h1.3v3c0 .6 0 1-.1 1.4 0 .4-.1.8-.1 1.2l2.4-5.7h1.6v7.1zm3.7-5.5c.4 0 .7.1 1 .2.3.1.5.3.8.5l-.6.8c-.2-.1-.4-.2-.5-.3-.2-.1-.4-.1-.6-.1-.8 0-1.2.6-1.2 1.8 0 .6.1 1.1.3 1.3.2.3.5.4.9.4.2 0 .4 0 .5-.1.2-.1.3-.2.6-.3l.6.8c-.5.4-1.1.6-1.7.6-.5 0-1-.1-1.3-.3-.4-.2-.7-.6-.9-1-.2-.4-.3-.9-.3-1.5s.1-1.1.3-1.5.5-.8.9-1c.3-.2.7-.3 1.2-.3zm7.2.1l-1.5 2.5 1.7 2.9h-1.4L600 450h-.6v2.4h-1.3V447h1.3v2.1h.6l1.3-2.1h1.3zm5.5 5.4h-1.3v-2.2c0-.4 0-.8.1-1.1 0-.3.1-.6.1-.8l-2 4.1h-1.4V447h1.3v2.2c0 .4 0 .7-.1 1.1 0 .4-.1.6-.1.8l2-4.1h1.4v5.4zm5.5-5.4l-.2 1h-1.6v4.4h-1.3V448h-1.7v-1h4.8zm5.3 5.4h-1.3v-2.2c0-.4 0-.8.1-1.1 0-.3.1-.6.1-.8l-2 4.1h-1.4V447h1.3v2.2c0 .4 0 .7-.1 1.1 0 .4-.1.6-.1.8l2-4.1h1.4v5.4zm7.1 0h-1.2l-.2-2.2v-1.1-.9l-1 3.6h-1.1l-1-3.6v2l-.1 2.2h-1.2l.5-5.4h1.6l.9 3.6.9-3.6h1.6l.3 5.4z" clip-path="url(#SVGID_62_)" fill="#1c1d1d"/><defs><ellipse id="SVGID_63_" cx="590.9" cy="370.2" rx="6.4" ry="6.1"/></defs><clipPath id="SVGID_64_"><use xlink:href="#SVGID_63_" overflow="visible"/></clipPath><g clip-path="url(#SVGID_64_)"><defs><path id="SVGID_65_" d="M0 0h1200v602H0z"/></defs><clipPath id="SVGID_66_"><use xlink:href="#SVGID_65_" overflow="visible"/></clipPath><path clip-path="url(#SVGID_66_)" fill="#fff" d="M579.5 359h22.8v22.3h-22.8z"/></g><defs><path id="SVGID_67_" d="M590.7 372.7c1.5 0 2.7-1.2 2.7-2.7 0-1.5-1.2-2.7-2.7-2.7-1.5 0-2.7 1.2-2.7 2.7 0 1.5 1.2 2.7 2.7 2.7zm0 2.8c3 0 5.3-2.4 5.3-5.4 0-3-2.4-5.4-5.3-5.4-3 0-5.3 2.4-5.3 5.4 0 2.9 2.4 5.4 5.3 5.4zm.7 7.4s-.1 0 0 0c-.5.4-1 .4-1.3 0-4.9-5.7-7.3-10-7.3-12.9 0-4.5 3.6-8.2 8-8.2s8 3.7 8 8.2c-.1 2.9-2.5 7.2-7.4 12.9z"/></defs><clipPath id="SVGID_68_"><use xlink:href="#SVGID_67_" overflow="visible"/></clipPath><g clip-path="url(#SVGID_68_)"><defs><path id="SVGID_69_" d="M0 0h1200v602H0z"/></defs><clipPath id="SVGID_70_"><use xlink:href="#SVGID_69_" overflow="visible"/></clipPath><path clip-path="url(#SVGID_70_)" fill="#34b798" d="M577.7 356.8h26v31.3h-26z"/></g><defs><path id="SVGID_71_" d="M0 0h1200v602H0z"/></defs><clipPath id="SVGID_72_"><use xlink:href="#SVGID_71_" overflow="visible"/></clipPath><path d="M582 386.6l-.1 1.1H580v6h-1.4v-6h-1.9v-1.1h5.3zm3 1.5c.8 0 1.4.3 1.9.8.4.5.7 1.2.7 2.1 0 .6-.1 1.1-.3 1.5-.2.4-.5.8-.9 1-.4.2-.8.4-1.4.4-.8 0-1.4-.3-1.9-.8-.4-.5-.7-1.2-.7-2.1 0-.6.1-1.1.3-1.5s.5-.8.9-1c.5-.3.9-.4 1.4-.4zm0 .9c-.8 0-1.2.6-1.2 1.9 0 .6.1 1.1.3 1.4.2.3.5.5.9.5s.7-.2.9-.5c.2-.3.3-.8.3-1.4s-.1-1.1-.3-1.4c-.2-.3-.5-.5-.9-.5zm9.4 4.6h-1.2l-.2-2.2v-1.1-.9l-1 3.6h-1.1l-1-3.6v2l-.1 2.2h-1.2l.5-5.4h1.6l.9 3.6.9-3.6h1.6l.3 5.4zm3.4-5.5c.4 0 .7.1 1 .2.3.1.5.3.8.5l-.6.8c-.2-.1-.4-.2-.5-.3-.2-.1-.4-.1-.6-.1-.8 0-1.2.6-1.2 1.8 0 .6.1 1.1.3 1.3.2.3.5.4.9.4.2 0 .4 0 .5-.1.2-.1.3-.2.6-.3l.6.8c-.5.4-1.1.6-1.7.6-.5 0-1-.1-1.3-.3-.4-.2-.7-.6-.9-1-.2-.4-.3-.9-.3-1.5s.1-1.1.3-1.5.5-.8.9-1c.2-.2.7-.3 1.2-.3zm7.2.1l-1.5 2.5 1.7 2.9h-1.4l-1.3-2.4h-.6v2.4h-1.3v-5.4h1.3v2.1h.6l1.3-2.1h1.2z" clip-path="url(#SVGID_72_)" fill="#1c1d1d"/><defs><ellipse id="SVGID_73_" cx="744.9" cy="435.6" rx="6.4" ry="6.1"/></defs><clipPath id="SVGID_74_"><use xlink:href="#SVGID_73_" overflow="visible"/></clipPath><g clip-path="url(#SVGID_74_)"><defs><path id="SVGID_75_" d="M0 0h1200v602H0z"/></defs><clipPath id="SVGID_76_"><use xlink:href="#SVGID_75_" overflow="visible"/></clipPath><path clip-path="url(#SVGID_76_)" fill="#fff" d="M733.5 424.5h22.8v22.3h-22.8z"/></g><defs><path id="SVGID_77_" d="M744.7 438.2c1.5 0 2.7-1.2 2.7-2.7 0-1.5-1.2-2.7-2.7-2.7-1.5 0-2.7 1.2-2.7 2.7.1 1.5 1.3 2.7 2.7 2.7zm0 2.7c3 0 5.3-2.4 5.3-5.4s-2.4-5.4-5.3-5.4c-3 0-5.3 2.4-5.3 5.4s2.4 5.4 5.3 5.4zm.7 7.5c-.5.4-1 .4-1.3 0-4.9-5.7-7.3-10-7.3-12.9 0-4.5 3.6-8.2 8-8.2s8 3.7 8 8.2c0 2.9-2.5 7.2-7.4 12.9z"/></defs><clipPath id="SVGID_78_"><use xlink:href="#SVGID_77_" overflow="visible"/></clipPath><g clip-path="url(#SVGID_78_)"><defs><path id="SVGID_79_" d="M0 0h1200v602H0z"/></defs><clipPath id="SVGID_80_"><use xlink:href="#SVGID_79_" overflow="visible"/></clipPath><path clip-path="url(#SVGID_80_)" fill="#34b798" d="M731.7 422.3h26v31.3h-26z"/></g><defs><path id="SVGID_81_" d="M0 0h1200v602H0z"/></defs><clipPath id="SVGID_82_"><use xlink:href="#SVGID_81_" overflow="visible"/></clipPath><path d="M730.3 459.1l-.4-1.6h-2.3l-.4 1.6h-1.4l2.2-7h1.7l2.2 7h-1.6zm-2.5-2.7h1.8l-.9-3.4-.9 3.4zm7.8 2.7v-2.3h-1.8v2.3h-1.3v-5.4h1.3v2.1h1.8v-2.1h1.3v5.4h-1.3zm4.2 0h-1.3v-5.4h3.6l-.2 1h-2.1v4.4zm7.1-1.4c0 .2 0 .4.1.5.1.1.2.2.3.2l-.3.9c-.3 0-.6-.1-.7-.2s-.3-.3-.4-.6c-.2.3-.4.5-.7.6-.3.1-.6.2-.9.2-.5 0-1-.2-1.3-.5-.3-.3-.5-.7-.5-1.2 0-.6.2-1 .6-1.3.4-.3 1-.5 1.8-.5h.7v-.3c0-.3-.1-.6-.2-.7-.2-.1-.4-.2-.8-.2s-.9.1-1.4.3l-.3-.9c.7-.3 1.3-.4 2-.4 1.4 0 2.1.6 2.1 1.9v2.2h-.1zm-2.3.6c.4 0 .8-.2 1-.7v-1.1h-.5c-.8 0-1.3.3-1.3.9 0 .3.1.5.2.6.1.2.3.3.6.3zm6.6-4.8c.7 0 1.2.2 1.5.7.3.5.5 1.2.5 2.1 0 .6-.1 1.1-.2 1.5-.2.4-.4.8-.7 1-.3.2-.7.4-1.1.4-.6 0-1-.2-1.4-.6v2.5l-1.3.1v-7.6h1.1l.1.7c.2-.3.5-.5.7-.6.3-.1.5-.2.8-.2zm-.5 4.7c.8 0 1.1-.6 1.1-1.9 0-.7-.1-1.1-.3-1.4-.2-.3-.4-.4-.8-.4-.2 0-.4.1-.6.2-.2.1-.4.3-.5.5v2.4c.4.4.7.6 1.1.6zm6-4.7c.4 0 .7.1 1 .2.3.1.5.3.8.5l-.6.8c-.2-.1-.4-.2-.5-.3-.2-.1-.4-.1-.6-.1-.8 0-1.2.6-1.2 1.8 0 .6.1 1.1.3 1.3.2.3.5.4.9.4.2 0 .4 0 .5-.1.2-.1.3-.2.6-.3l.6.8c-.5.4-1.1.6-1.7.6-.5 0-1-.1-1.3-.3-.4-.2-.7-.6-.9-1-.2-.4-.3-.9-.3-1.5s.1-1.1.3-1.5c.2-.4.5-.8.9-1 .2-.1.7-.3 1.2-.3zm7.2.2l-1.5 2.5 1.7 2.9h-1.4l-1.3-2.4h-.6v2.4h-1.3v-5.4h1.3v2.1h.6l1.3-2.1h1.2z" clip-path="url(#SVGID_82_)" fill="#1c1d1d"/><defs><ellipse id="SVGID_83_" cx="560.6" cy="455.7" rx="6.4" ry="6.1"/></defs><clipPath id="SVGID_84_"><use xlink:href="#SVGID_83_" overflow="visible"/></clipPath><g clip-path="url(#SVGID_84_)"><defs><path id="SVGID_85_" d="M0 0h1200v602H0z"/></defs><clipPath id="SVGID_86_"><use xlink:href="#SVGID_85_" overflow="visible"/></clipPath><path clip-path="url(#SVGID_86_)" fill="#fff" d="M549.2 444.5H572v22.3h-22.8z"/></g><defs><path id="SVGID_87_" d="M560.4 458.2c1.5 0 2.7-1.2 2.7-2.7 0-1.5-1.2-2.7-2.7-2.7-1.5 0-2.7 1.2-2.7 2.7 0 1.5 1.2 2.7 2.7 2.7zm0 2.8c3 0 5.3-2.4 5.3-5.4s-2.4-5.4-5.3-5.4c-3 0-5.3 2.4-5.3 5.4s2.4 5.4 5.3 5.4zm.7 7.4c-.1 0-.1 0 0 0-.5.4-1 .4-1.3 0-4.9-5.7-7.3-10-7.3-12.9 0-4.5 3.6-8.2 8-8.2s8 3.7 8 8.2c-.1 2.9-2.5 7.2-7.4 12.9z"/></defs><clipPath id="SVGID_88_"><use xlink:href="#SVGID_87_" overflow="visible"/></clipPath><g clip-path="url(#SVGID_88_)"><defs><path id="SVGID_89_" d="M0 0h1200v602H0z"/></defs><clipPath id="SVGID_90_"><use xlink:href="#SVGID_89_" overflow="visible"/></clipPath><path clip-path="url(#SVGID_90_)" fill="#34b798" d="M547.4 442.3h26v31.3h-26z"/></g><defs><path id="SVGID_91_" d="M0 0h1200v602H0z"/></defs><clipPath id="SVGID_92_"><use xlink:href="#SVGID_91_" overflow="visible"/></clipPath><path d="M543.5 474.6c.9 0 1.6.2 2 .6.5.4.7.9.7 1.6 0 .8-.2 1.3-.7 1.7-.5.4-1.2.6-2 .6h-2.2v-7h4.1l-.1 1h-2.6v1.5h.8zm0 3.5c.4 0 .8-.1 1-.3.2-.2.4-.5.4-1 0-.4-.1-.7-.4-.9-.2-.2-.6-.3-1.1-.3h-.8v2.5h.9zm7.8-.4c0 .2 0 .4.1.5.1.1.2.2.3.2l-.3.9c-.3 0-.6-.1-.7-.2-.2-.1-.3-.3-.4-.6-.2.3-.4.5-.7.6-.3.1-.6.2-.9.2-.5 0-1-.2-1.3-.5-.3-.3-.5-.7-.5-1.2 0-.6.2-1 .6-1.3.4-.3 1-.5 1.8-.5h.7v-.3c0-.3-.1-.6-.2-.7-.2-.1-.4-.2-.8-.2s-.9.1-1.4.3l-.3-.9c.7-.3 1.3-.4 2-.4 1.4 0 2.1.6 2.1 1.9v2.2h-.1zm-2.4.6c.4 0 .8-.2 1-.7v-1.1h-.5c-.8 0-1.3.3-1.3.9 0 .3.1.5.2.6.2.2.4.3.6.3zm6.7-4.8c.7 0 1.2.2 1.5.7.3.5.5 1.2.5 2.1 0 .6-.1 1.1-.2 1.5-.2.4-.4.8-.7 1-.3.2-.7.4-1.1.4-.6 0-1-.2-1.4-.6v2.5l-1.3.1v-7.6h1.1l.1.7c.2-.3.5-.5.7-.6.2-.1.5-.2.8-.2zm-.5 4.7c.8 0 1.1-.6 1.1-1.9 0-.7-.1-1.1-.3-1.4-.2-.3-.4-.4-.8-.4-.2 0-.4.1-.6.2-.2.1-.4.3-.5.5v2.4c.4.5.7.6 1.1.6zm6.9.9v-2.3h-1.8v2.3h-1.3v-5.4h1.3v2.1h1.8v-2.1h1.3v5.4H562zm6.9-1.4c0 .2 0 .4.1.5.1.1.2.2.3.2l-.3.9c-.3 0-.6-.1-.7-.2-.2-.1-.3-.3-.4-.6-.2.3-.4.5-.7.6-.3.1-.6.2-.9.2-.5 0-1-.2-1.3-.5-.3-.3-.5-.7-.5-1.2 0-.6.2-1 .6-1.3.4-.3 1-.5 1.8-.5h.7v-.3c0-.3-.1-.6-.2-.7-.2-.1-.4-.2-.8-.2s-.9.1-1.4.3l-.3-.9c.7-.3 1.3-.4 2-.4 1.4 0 2.1.6 2.1 1.9v2.2h-.1zm-2.3.6c.4 0 .8-.2 1-.7v-1.1h-.5c-.8 0-1.3.3-1.3.9 0 .3.1.5.2.6.1.2.3.3.6.3zm6.5.8c-.2.7-.5 1.2-1 1.6-.4.4-1 .6-1.8.6l-.1-.9c.4-.1.6-.1.9-.2.2-.1.4-.2.5-.4.1-.2.2-.4.4-.7h-.4l-1.7-5.4h1.4l1.2 4.5 1.2-4.5h1.3l-1.9 5.4zm6.8-5.4v5.4h-1.3v-4.4h-1.3l-.1 1.4c-.1.8-.1 1.3-.2 1.7-.1.4-.3.7-.5.9-.2.2-.6.4-1 .5l-.3-1c.2-.1.4-.2.5-.3.1-.1.2-.3.2-.6s.1-.7.1-1.3l.2-2.3h3.7z" clip-path="url(#SVGID_92_)" fill="#1c1d1d"/><defs><path id="SVGID_93_" d="M176.8 400.6c3.5 0 6.4-2.8 6.4-6.1 0-3.4-2.9-6.1-6.4-6.1-3.5 0-6.4 2.8-6.4 6.1s2.8 6.1 6.4 6.1z"/></defs><clipPath id="SVGID_94_"><use xlink:href="#SVGID_93_" overflow="visible"/></clipPath><g clip-path="url(#SVGID_94_)"><defs><path id="SVGID_95_" d="M0 0h1200v602H0z"/></defs><clipPath id="SVGID_96_"><use xlink:href="#SVGID_95_" overflow="visible"/></clipPath><path clip-path="url(#SVGID_96_)" fill="#fff" d="M165.4 383.3h22.8v22.3h-22.8z"/></g><defs><path id="SVGID_97_" d="M176.6 397c1.5 0 2.7-1.2 2.7-2.7 0-1.5-1.2-2.7-2.7-2.7s-2.7 1.2-2.7 2.7c0 1.5 1.2 2.7 2.7 2.7zm0 2.7c3 0 5.3-2.4 5.3-5.4s-2.4-5.4-5.3-5.4c-3 0-5.3 2.4-5.3 5.4s2.3 5.4 5.3 5.4zm.6 7.4s0 .1 0 0c-.5.4-1 .4-1.3 0-4.9-5.7-7.3-10-7.3-12.9 0-4.5 3.6-8.2 8-8.2s8 3.7 8 8.2c0 2.9-2.5 7.2-7.4 12.9z"/></defs><clipPath id="SVGID_98_"><use xlink:href="#SVGID_97_" overflow="visible"/></clipPath><g clip-path="url(#SVGID_98_)"><defs><path id="SVGID_99_" d="M0 0h1200v602H0z"/></defs><clipPath id="SVGID_100_"><use xlink:href="#SVGID_99_" overflow="visible"/></clipPath><path clip-path="url(#SVGID_100_)" fill="#34b798" d="M163.6 381.1h26v31.3h-26z"/></g><defs><path id="SVGID_101_" d="M0 0h1200v602H0z"/></defs><clipPath id="SVGID_102_"><use xlink:href="#SVGID_101_" overflow="visible"/></clipPath><path d="M164.7 410.8v7h-1.3v-6h-1.8l-.3 2.7c-.1.8-.2 1.5-.4 1.9-.1.4-.3.8-.6 1-.3.2-.6.4-1.1.5l-.3-1c.3-.1.4-.2.6-.4.1-.2.2-.4.3-.7.1-.3.1-.8.2-1.4l.4-3.7h4.3zm6.1 7h-1.3v-2.2c0-.4 0-.8.1-1.1 0-.3.1-.6.1-.8l-2 4.1h-1.4v-5.4h1.3v2.2c0 .4 0 .7-.1 1.1 0 .4-.1.6-.1.8l2-4.1h1.4v5.4zm4.7 0v-4.4h-1.8v4.4h-1.3v-5.4h4.4v5.4h-1.3zm7.3-2.8v.5h-3.4c0 .5.2.9.4 1.1.2.2.5.3.9.3.2 0 .5 0 .7-.1.2-.1.4-.2.7-.4l.5.7c-.6.5-1.3.7-2 .7-.8 0-1.5-.3-1.9-.8-.4-.5-.7-1.2-.7-2.1 0-.6.1-1 .3-1.5.2-.4.5-.8.8-1 .4-.2.8-.4 1.3-.4.8 0 1.3.2 1.8.7.4.8.6 1.5.6 2.3zm-1.3-.4c0-.9-.3-1.4-1-1.4-.3 0-.6.1-.7.4-.2.2-.3.6-.3 1.1l2-.1zm6.8 2.3h.8v2.6h-.9l-.2-1.6h-4v-5.4h1.3v4.4h1.7v-4.4h1.3v4.4zm6.2-4.4L193 415l1.7 2.9h-1.4l-1.3-2.4h-.6v2.4H190v-5.4h1.3v2.1h.6l1.3-2.1h1.3z" clip-path="url(#SVGID_102_)" fill="#1c1d1d"/><defs><ellipse id="SVGID_103_" cx="120.4" cy="527.8" rx="6.4" ry="6.1"/></defs><clipPath id="SVGID_104_"><use xlink:href="#SVGID_103_" overflow="visible"/></clipPath><g clip-path="url(#SVGID_104_)"><defs><path id="SVGID_105_" d="M0 0h1200v602H0z"/></defs><clipPath id="SVGID_106_"><use xlink:href="#SVGID_105_" overflow="visible"/></clipPath><path clip-path="url(#SVGID_106_)" fill="#fff" d="M109 516.7h22.8V539H109z"/></g><defs><path id="SVGID_107_" d="M120.2 530.4c1.5 0 2.7-1.2 2.7-2.7 0-1.5-1.2-2.7-2.7-2.7-1.5 0-2.7 1.2-2.7 2.7 0 1.5 1.2 2.7 2.7 2.7zm0 2.7c3 0 5.3-2.4 5.3-5.4s-2.4-5.4-5.3-5.4c-3 0-5.3 2.4-5.3 5.4s2.3 5.4 5.3 5.4zm.7 7.4c-.1 0-.1.1 0 0-.5.4-1 .4-1.3 0-4.9-5.7-7.3-10-7.3-12.9 0-4.5 3.6-8.2 8-8.2s8 3.7 8 8.2c-.1 2.9-2.5 7.2-7.4 12.9z"/></defs><clipPath id="SVGID_108_"><use xlink:href="#SVGID_107_" overflow="visible"/></clipPath><g clip-path="url(#SVGID_108_)"><defs><path id="SVGID_109_" d="M0 0h1200v602H0z"/></defs><clipPath id="SVGID_110_"><use xlink:href="#SVGID_109_" overflow="visible"/></clipPath><path clip-path="url(#SVGID_110_)" fill="#34b798" d="M107.2 514.5h26v31.3h-26z"/></g><g><defs><path id="SVGID_111_" d="M0 0h1200v602H0z"/></defs><clipPath id="SVGID_112_"><use xlink:href="#SVGID_111_" overflow="visible"/></clipPath><path d="M112.2 544.1c.4 0 .8.1 1.1.2.3.1.6.3.9.6l-.7.8c-.4-.3-.8-.5-1.3-.5s-.9.2-1.3.6c-.3.4-.5 1.1-.5 2 0 .9.2 1.5.5 2 .3.4.7.6 1.3.6.3 0 .5 0 .7-.1.2-.1.4-.2.7-.4l.6.8c-.2.2-.5.4-.9.6-.4.2-.8.2-1.2.2-.6 0-1.2-.1-1.6-.4-.5-.3-.8-.7-1.1-1.3-.3-.6-.4-1.2-.4-2s.1-1.4.4-2c.3-.6.6-1 1.1-1.3.6-.3 1.1-.4 1.7-.4zm5.2 1.6c.8 0 1.4.3 1.9.8.4.5.7 1.2.7 2.1 0 .6-.1 1.1-.3 1.5-.2.4-.5.8-.9 1-.4.2-.8.4-1.4.4-.8 0-1.4-.3-1.9-.8-.4-.5-.7-1.2-.7-2.1 0-.6.1-1.1.3-1.5.2-.4.5-.8.9-1 .5-.3.9-.4 1.4-.4zm0 1c-.8 0-1.2.6-1.2 1.9 0 .6.1 1.1.3 1.4.2.3.5.5.9.5s.7-.2.9-.5c.2-.3.3-.8.3-1.4s-.1-1.1-.3-1.4c-.2-.4-.5-.5-.9-.5zm7.8-.8v5.4h-1.3v-2.1c-.2.2-.4.3-.7.4-.3.1-.6.1-.9.1-.5 0-.9-.1-1.2-.4-.3-.3-.4-.7-.4-1.2v-2.2h1.3v2c0 .3.1.5.2.6.1.1.3.2.5.2s.4 0 .6-.1c.2-.1.4-.2.5-.3v-2.4h1.4zm6.1 5.3H130V549c0-.4 0-.8.1-1.1 0-.3.1-.6.1-.8l-2 4.1h-1.4v-5.4h1.3v2.2c0 .4 0 .7-.1 1.1 0 .4-.1.6-.1.8l2-4.1h1.4v5.4z" clip-path="url(#SVGID_112_)" fill="#1c1d1d"/></g><g><defs><ellipse id="SVGID_113_" cx="196.2" cy="453.8" rx="6.4" ry="6.1"/></defs><clipPath id="SVGID_114_"><use xlink:href="#SVGID_113_" overflow="visible"/></clipPath><g clip-path="url(#SVGID_114_)"><defs><path id="SVGID_115_" d="M0 0h1200v602H0z"/></defs><clipPath id="SVGID_116_"><use xlink:href="#SVGID_115_" overflow="visible"/></clipPath><path clip-path="url(#SVGID_116_)" fill="#fff" d="M184.8 442.7h22.8V465h-22.8z"/></g></g><g><defs><path id="SVGID_117_" d="M196 456.4c1.5 0 2.7-1.2 2.7-2.7 0-1.5-1.2-2.7-2.7-2.7-1.5 0-2.7 1.2-2.7 2.7 0 1.5 1.2 2.7 2.7 2.7zm0 2.7c3 0 5.3-2.4 5.3-5.4s-2.4-5.4-5.3-5.4c-3 0-5.3 2.4-5.3 5.4s2.3 5.4 5.3 5.4zm.6 7.4c0 .1 0 .1 0 0-.5.4-1 .4-1.3 0-4.9-5.7-7.3-10-7.3-12.9 0-4.5 3.6-8.2 8-8.2s8 3.7 8 8.2c0 3-2.5 7.3-7.4 12.9z"/></defs><clipPath id="SVGID_118_"><use xlink:href="#SVGID_117_" overflow="visible"/></clipPath><g clip-path="url(#SVGID_118_)"><defs><path id="SVGID_119_" d="M0 0h1200v602H0z"/></defs><clipPath id="SVGID_120_"><use xlink:href="#SVGID_119_" overflow="visible"/></clipPath><path clip-path="url(#SVGID_120_)" fill="#34b798" d="M183 440.5h26v31.3h-26z"/></g></g><g><defs><path id="SVGID_121_" d="M0 0h1200v602H0z"/></defs><clipPath id="SVGID_122_"><use xlink:href="#SVGID_121_" overflow="visible"/></clipPath><path d="M175.4 473.5c.5.1.9.3 1.2.5.3.3.4.7.4 1.2 0 .7-.3 1.3-.8 1.6-.5.3-1.2.5-2.2.5h-2v-7h1.8c1.9 0 2.9.6 2.9 1.8 0 .4-.1.8-.4 1-.2.2-.5.4-.9.4zm-2.1-2.3v1.9h.8c.4 0 .7-.1.9-.2.2-.2.3-.4.3-.7 0-.3-.1-.6-.3-.7-.2-.1-.6-.2-1.1-.2h-.6zm.8 5.1c.5 0 .9-.1 1.1-.2.3-.1.4-.4.4-.8s-.1-.7-.4-.9c-.2-.2-.6-.3-1-.3h-.9v2.2h.8zm6.3-4.6c.8 0 1.4.3 1.9.8.4.5.7 1.2.7 2.1 0 .6-.1 1.1-.3 1.5-.2.4-.5.8-.9 1-.4.2-.8.4-1.4.4-.8 0-1.4-.3-1.9-.8-.4-.5-.7-1.2-.7-2.1 0-.6.1-1.1.3-1.5.2-.4.5-.8.9-1 .4-.3.8-.4 1.4-.4zm0 1c-.8 0-1.2.6-1.2 1.9 0 .6.1 1.1.3 1.4.2.3.5.5.9.5s.7-.2.9-.5c.2-.3.3-.8.3-1.4s-.1-1.1-.3-1.4c-.3-.3-.6-.5-.9-.5zm8-.8v5.4h-1.3v-4.4h-1.3l-.1 1.4c-.1.8-.1 1.3-.2 1.7-.1.4-.3.7-.5.9-.2.2-.6.4-1 .5l-.3-1c.2-.1.4-.2.5-.3.1-.1.2-.3.2-.6s.1-.7.1-1.3l.2-2.3h3.7zm2.8 5.4h-1.3v-5.4h3.6l-.2 1h-2.1v4.4zm5.3-5.6c.8 0 1.4.3 1.9.8.4.5.7 1.2.7 2.1 0 .6-.1 1.1-.3 1.5-.2.4-.5.8-.9 1-.4.2-.8.4-1.4.4-.8 0-1.4-.3-1.9-.8-.4-.5-.7-1.2-.7-2.1 0-.6.1-1.1.3-1.5s.5-.8.9-1c.5-.3.9-.4 1.4-.4zm0 1c-.8 0-1.2.6-1.2 1.9 0 .6.1 1.1.3 1.4.2.3.5.5.9.5s.7-.2.9-.5c.2-.3.3-.8.3-1.4s-.1-1.1-.3-1.4c-.2-.3-.5-.5-.9-.5zm5.1 4.6h-1.3v-5.4h3.6l-.2 1h-2.1v4.4zm5.9-5.6c.7 0 1.2.2 1.5.7.3.5.5 1.2.5 2.1 0 .6-.1 1.1-.2 1.5-.2.4-.4.8-.7 1-.3.2-.7.4-1.1.4-.6 0-1-.2-1.4-.6v2.5l-1.3.1v-7.6h1.1l.1.7c.2-.3.5-.5.7-.6.2-.1.5-.2.8-.2zm-.5 4.7c.8 0 1.1-.6 1.1-1.9 0-.7-.1-1.1-.3-1.4-.2-.3-.4-.4-.8-.4-.2 0-.4.1-.6.2-.2.1-.4.3-.5.5v2.4c.3.4.7.6 1.1.6zm7.7-.6c0 .2 0 .4.1.5.1.1.2.2.3.2l-.3.9c-.3 0-.6-.1-.7-.2-.2-.1-.3-.3-.4-.6-.2.3-.4.5-.7.6-.3.1-.6.2-.9.2-.5 0-1-.2-1.3-.5-.3-.3-.5-.7-.5-1.2 0-.6.2-1 .6-1.3.4-.3 1-.5 1.8-.5h.7v-.3c0-.3-.1-.6-.2-.7-.2-.1-.4-.2-.8-.2s-.9.1-1.4.3l-.3-.9c.7-.3 1.3-.4 2-.4 1.4 0 2.1.6 2.1 1.9v2.2h-.1zm-2.3.7c.4 0 .8-.2 1-.7v-1.1h-.5c-.8 0-1.3.3-1.3.9 0 .3.1.5.2.6.2.2.4.3.6.3zm8.6-.2v2.6h-1l-.2-1.6h-3.2l-.2 1.6h-.9v-2.6h.4c.1-.1.3-.2.3-.4.1-.1.2-.4.2-.7.1-.3.1-.8.2-1.4l.1-1.9h3.6v4.4h.7zm-1.9-3.5h-1.2l-.1.9c0 .6-.1 1-.2 1.4-.1.3-.2.6-.3.8-.1.2-.3.3-.5.5h2.2v-3.6z" clip-path="url(#SVGID_122_)" fill="#1c1d1d"/></g><g><defs><ellipse id="SVGID_123_" cx="39.1" cy="518.7" rx="6.4" ry="6.1"/></defs><clipPath id="SVGID_124_"><use xlink:href="#SVGID_123_" overflow="visible"/></clipPath><g clip-path="url(#SVGID_124_)"><defs><path id="SVGID_125_" d="M0 0h1200v602H0z"/></defs><clipPath id="SVGID_126_"><use xlink:href="#SVGID_125_" overflow="visible"/></clipPath><path clip-path="url(#SVGID_126_)" fill="#fff" d="M27.7 507.6h22.8v22.3H27.7z"/></g></g><g><defs><path id="SVGID_127_" d="M38.9 521.3c1.5 0 2.7-1.2 2.7-2.7 0-1.5-1.2-2.7-2.7-2.7-1.5 0-2.7 1.2-2.7 2.7.1 1.5 1.3 2.7 2.7 2.7zm0 2.7c3 0 5.3-2.4 5.3-5.4 0-3-2.4-5.4-5.3-5.4-3 0-5.3 2.4-5.3 5.4 0 3 2.4 5.4 5.3 5.4zm.7 7.4c0 .1-.1.1 0 0-.5.4-1 .4-1.3 0-4.9-5.7-7.3-10-7.3-12.9 0-4.5 3.6-8.2 8-8.2s8 3.7 8 8.2c-.1 3-2.5 7.2-7.4 12.9z"/></defs><clipPath id="SVGID_128_"><use xlink:href="#SVGID_127_" overflow="visible"/></clipPath><g clip-path="url(#SVGID_128_)"><defs><path id="SVGID_129_" d="M0 0h1200v602H0z"/></defs><clipPath id="SVGID_130_"><use xlink:href="#SVGID_129_" overflow="visible"/></clipPath><path clip-path="url(#SVGID_130_)" fill="#34b798" d="M25.9 505.4h26v31.3h-26z"/></g></g><g><defs><path id="SVGID_131_" d="M0 0h1200v602H0z"/></defs><clipPath id="SVGID_132_"><use xlink:href="#SVGID_131_" overflow="visible"/></clipPath><path d="M33.3 535.1v7H32v-2.6h-1.1l-1.3 2.6h-1.5l1.5-2.9c-.9-.4-1.3-1-1.3-1.9 0-.7.2-1.3.7-1.6.5-.4 1.2-.6 2.1-.6h2.2zm-1.3 3.4v-2.4h-.8c-.5 0-.9.1-1.1.3-.2.2-.3.5-.3.9s.1.7.3.9c.2.2.5.3.9.3h1zm7.2-1.7v5.4h-1.3v-4.4h-1.3l-.1 1.4c-.1.8-.1 1.3-.2 1.7-.1.4-.3.7-.5.9-.2.2-.6.4-1 .5l-.3-1c.2-.1.4-.2.5-.3.1-.1.2-.3.2-.6s.1-.7.1-1.3l.2-2.3h3.7zm5.5 0l-.2 1H43v4.4h-1.3v-4.4H40v-1h4.7zm4.8 3.9c0 .2 0 .4.1.5.1.1.2.2.3.2l-.3.9c-.3 0-.6-.1-.7-.2s-.3-.3-.4-.6c-.2.3-.4.5-.7.6s-.6.2-.9.2c-.5 0-1-.2-1.3-.5-.3-.3-.5-.7-.5-1.2 0-.6.2-1 .6-1.3.4-.3 1-.5 1.8-.5h.7v-.3c0-.3-.1-.6-.2-.7-.2-.1-.4-.2-.8-.2s-.9.1-1.4.3l-.3-.9c.7-.3 1.3-.4 2-.4 1.4 0 2.1.6 2.1 1.9v2.2h-.1zm-2.4.7c.4 0 .8-.2 1-.7v-1.1h-.5c-.8 0-1.3.3-1.3.9 0 .3.1.5.2.6.2.2.4.3.6.3z" clip-path="url(#SVGID_132_)" fill="#1c1d1d"/></g><g><defs><ellipse id="SVGID_133_" cx="379.9" cy="375" rx="6.4" ry="6.1"/></defs><clipPath id="SVGID_134_"><use xlink:href="#SVGID_133_" overflow="visible"/></clipPath><g clip-path="url(#SVGID_134_)"><defs><path id="SVGID_135_" d="M0 0h1200v602H0z"/></defs><clipPath id="SVGID_136_"><use xlink:href="#SVGID_135_" overflow="visible"/></clipPath><path clip-path="url(#SVGID_136_)" fill="#fff" d="M368.5 363.9h22.8v22.3h-22.8z"/></g></g><g><defs><path id="SVGID_137_" d="M379.7 377.6c1.5 0 2.7-1.2 2.7-2.7 0-1.5-1.2-2.7-2.7-2.7s-2.7 1.2-2.7 2.7c0 1.5 1.2 2.7 2.7 2.7zm0 2.7c3 0 5.3-2.4 5.3-5.4s-2.4-5.4-5.3-5.4c-3 0-5.3 2.4-5.3 5.4s2.4 5.4 5.3 5.4zm.7 7.4s-.1.1 0 0c-.5.4-1 .4-1.3 0-4.9-5.7-7.3-10-7.3-12.9 0-4.5 3.6-8.2 8-8.2s8 3.7 8 8.2c-.1 2.9-2.5 7.2-7.4 12.9z"/></defs><clipPath id="SVGID_138_"><use xlink:href="#SVGID_137_" overflow="visible"/></clipPath><g clip-path="url(#SVGID_138_)"><defs><path id="SVGID_139_" d="M0 0h1200v602H0z"/></defs><clipPath id="SVGID_140_"><use xlink:href="#SVGID_139_" overflow="visible"/></clipPath><path clip-path="url(#SVGID_140_)" fill="#34b798" d="M366.7 361.7h26V393h-26z"/></g></g><g><defs><path id="SVGID_141_" d="M0 0h1200v602H0z"/></defs><clipPath id="SVGID_142_"><use xlink:href="#SVGID_141_" overflow="visible"/></clipPath><path d="M351.6 391.4l-.1 1h-2.6v2h2.3v1h-2.3v2.1h2.8v1h-4.1v-7h4zm5.8 1.7l-1.5 2.5 1.7 2.9h-1.4l-1.3-2.4h-.6v2.4H353v-5.4h1.3v2.1h.6l1.3-2.1h1.2zm4.9 3.9c0 .2 0 .4.1.5.1.1.2.2.3.2l-.3.9c-.3 0-.6-.1-.7-.2-.2-.1-.3-.3-.4-.6-.2.3-.4.5-.7.6-.3.1-.6.2-.9.2-.5 0-1-.2-1.3-.5-.3-.3-.5-.7-.5-1.2 0-.6.2-1 .6-1.3.4-.3 1-.5 1.8-.5h.7v-.3c0-.3-.1-.6-.2-.7-.2-.1-.4-.2-.8-.2s-.9.1-1.4.3l-.3-.9c.7-.3 1.3-.4 2-.4 1.4 0 2.1.6 2.1 1.9v2.2h-.1zm-2.3.7c.4 0 .8-.2 1-.7v-1.1h-.5c-.8 0-1.3.3-1.3.9 0 .3.1.5.2.6.2.2.4.3.6.3zm7.9-4.6l-.2 1h-1.6v4.4h-1.3v-4.4h-1.7v-1h4.8zm5.2 2.5v.5h-3.4c0 .5.2.9.4 1.1.2.2.5.3.9.3.2 0 .5 0 .7-.1.2-.1.4-.2.7-.4l.5.7c-.6.5-1.3.7-2 .7-.8 0-1.5-.3-1.9-.8-.4-.5-.7-1.2-.7-2.1 0-.6.1-1 .3-1.5.2-.4.5-.8.8-1 .4-.2.8-.4 1.3-.4.8 0 1.3.2 1.8.7.3.8.6 1.5.6 2.3zm-1.3-.4c0-.9-.3-1.4-1-1.4-.3 0-.6.1-.7.4-.2.2-.3.6-.3 1.1l2-.1zm5.2-2.3c.7 0 1.2.2 1.5.7.3.5.5 1.2.5 2.1 0 .6-.1 1.1-.2 1.5-.2.4-.4.8-.7 1-.3.2-.7.4-1.1.4-.6 0-1-.2-1.4-.6v2.5l-1.3.1V393h1.1l.1.7c.2-.3.5-.5.7-.6.2-.1.5-.2.8-.2zm-.5 4.7c.8 0 1.1-.6 1.1-1.9 0-.7-.1-1.1-.3-1.4-.2-.3-.4-.4-.8-.4-.2 0-.4.1-.6.2-.2.1-.4.3-.5.5v2.4c.4.4.7.6 1.1.6zm8.3.8h-1.3v-2.2c0-.4 0-.8.1-1.1 0-.3.1-.6.1-.8l-2 4.1h-1.4V393h1.3v2.2c0 .4 0 .7-.1 1.1 0 .4-.1.6-.1.8l2-4.1h1.4v5.4zm4.7 0v-2.3h-1.8v2.3h-1.3V393h1.3v2.1h1.8V393h1.3v5.4h-1.3zm5.5-5c.4 0 .7.1 1 .3.3.2.5.5.7.9.2.4.3.8.3 1.3 0 .6-.1 1-.3 1.4-.2.4-.5.7-.9.9-.4.2-.8.3-1.3.3-.8 0-1.4-.3-1.8-.8-.5-.5-.7-1.3-.7-2.4 0-.8.1-1.4.2-1.9s.3-.9.7-1.2c.3-.3.8-.6 1.3-.8.4-.1.7-.3 1-.4.2-.1.5-.2.8-.4l.5.9c-.2.2-.5.3-.8.4-.3.1-.6.2-1 .4-.3.1-.6.2-.7.4-.2.1-.3.3-.4.6-.1.2-.2.6-.2 1 .3-.6.9-.9 1.6-.9zm-.5 4.2c.3 0 .6-.1.8-.4.2-.2.3-.7.3-1.3 0-.6-.1-1-.2-1.2-.2-.2-.4-.4-.7-.4-.3 0-.5.1-.7.2-.2.1-.4.3-.6.6v.7c0 .6.1 1 .3 1.3.2.4.5.5.8.5zm6.3.9c-.2.7-.5 1.2-1 1.6-.4.4-1 .6-1.8.6l-.1-.9c.4-.1.6-.1.9-.2.2-.1.4-.2.5-.4.1-.2.2-.4.4-.7h-.4l-1.7-5.4h1.4l1.2 4.5 1.2-4.5h1.3l-1.9 5.4zm5.4-5.6c.7 0 1.2.2 1.5.7.3.5.5 1.2.5 2.1 0 .6-.1 1.1-.2 1.5-.2.4-.4.8-.7 1-.3.2-.7.4-1.1.4-.6 0-1-.2-1.4-.6v2.5l-1.3.1V393h1.1l.1.7c.2-.3.5-.5.7-.6.2-.1.5-.2.8-.2zm-.5 4.7c.8 0 1.1-.6 1.1-1.9 0-.7-.1-1.1-.3-1.4-.2-.3-.4-.4-.8-.4-.2 0-.4.1-.6.2-.2.1-.4.3-.5.5v2.4c.3.4.7.6 1.1.6zm5.1.8h-1.3V393h3.6l-.2 1h-2.1v4.4z" clip-path="url(#SVGID_142_)" fill="#1c1d1d"/></g><g><defs><ellipse id="SVGID_143_" cx="495.1" cy="321.6" rx="6.4" ry="6.1"/></defs><clipPath id="SVGID_144_"><use xlink:href="#SVGID_143_" overflow="visible"/></clipPath><g clip-path="url(#SVGID_144_)"><defs><path id="SVGID_145_" d="M0 0h1200v602H0z"/></defs><clipPath id="SVGID_146_"><use xlink:href="#SVGID_145_" overflow="visible"/></clipPath><path clip-path="url(#SVGID_146_)" fill="#fff" d="M483.7 310.5h22.8v22.3h-22.8z"/></g></g><g><defs><path id="SVGID_147_" d="M494.9 324.2c1.5 0 2.7-1.2 2.7-2.7 0-1.5-1.2-2.7-2.7-2.7s-2.7 1.2-2.7 2.7c0 1.5 1.2 2.7 2.7 2.7zm0 2.8c3 0 5.3-2.4 5.3-5.4s-2.4-5.4-5.3-5.4c-3 0-5.3 2.4-5.3 5.4s2.4 5.4 5.3 5.4zm.7 7.4s-.1 0 0 0c-.5.4-1 .4-1.3 0-4.9-5.7-7.3-10-7.3-12.9 0-4.5 3.6-8.2 8-8.2s8 3.7 8 8.2c-.1 2.9-2.5 7.2-7.4 12.9z"/></defs><clipPath id="SVGID_148_"><use xlink:href="#SVGID_147_" overflow="visible"/></clipPath><g clip-path="url(#SVGID_148_)"><defs><path id="SVGID_149_" d="M0 0h1200v602H0z"/></defs><clipPath id="SVGID_150_"><use xlink:href="#SVGID_149_" overflow="visible"/></clipPath><path clip-path="url(#SVGID_150_)" fill="#34b798" d="M481.9 308.3h26v31.3h-26z"/></g></g><g><defs><path id="SVGID_151_" d="M0 0h1200v602H0z"/></defs><clipPath id="SVGID_152_"><use xlink:href="#SVGID_151_" overflow="visible"/></clipPath><path class="st75" d="M481.2 338v7h-1.3v-6h-2.5v6H476v-7h5.2zm3.3 3.4c.8 0 1.5.2 1.8.5.4.3.6.8.6 1.4 0 .6-.2 1.1-.6 1.4-.4.3-.9.5-1.6.5h-1.9v-5.4h1.3v1.7h.4v-.1zm.1 2.8c.7 0 1-.3 1-1 0-.3-.1-.6-.2-.7s-.4-.2-.8-.2h-.4v1.9h.4zm2.9-4.5h1.3v5.4h-1.3v-5.4zm6.9 0l-.2 1h-1.6v4.4h-1.3v-4.4h-1.7v-1h4.8zm2.6 1.7c.8 0 1.5.2 1.8.5.4.3.6.8.6 1.4 0 .6-.2 1.1-.6 1.4-.4.3-.9.5-1.6.5h-2v-5.4h1.3v1.7h.5v-.1zm0 2.8c.7 0 1-.3 1-1 0-.3-.1-.6-.2-.7s-.4-.2-.8-.2h-.5v1.9h.5z"/><g clip-path="url(#SVGID_152_)"><text transform="translate(499.621 345.084)" class="st77 st78 st79">-</text></g><path class="st75" d="M509.1 338v7h-1.3v-2.6h-1.1l-1.3 2.6h-1.5l1.5-2.9c-.9-.4-1.3-1-1.3-1.9 0-.7.2-1.3.7-1.6.5-.4 1.2-.6 2.1-.6h2.2zm-1.3 3.5V339h-.8c-.5 0-.9.1-1.1.3-.2.2-.3.5-.3.9s.1.7.3.9c.2.2.5.3.9.3h1zm5.5.7l1.8 2.9h-1.5l-1.1-2.1-1.1 2.1H510l1.8-2.8-1.6-2.5h1.5l.9 1.8.9-1.8h1.4l-1.6 2.4z"/></g><g><defs><path id="SVGID_153_" d="M218.6 361.1c3.5 0 6.4-2.8 6.4-6.1 0-3.4-2.9-6.1-6.4-6.1-3.5 0-6.4 2.8-6.4 6.1 0 3.4 2.9 6.1 6.4 6.1z"/></defs><clipPath id="SVGID_154_"><use xlink:href="#SVGID_153_" overflow="visible"/></clipPath><g clip-path="url(#SVGID_154_)"><defs><path id="SVGID_155_" d="M0 0h1200v602H0z"/></defs><clipPath id="SVGID_156_"><use xlink:href="#SVGID_155_" overflow="visible"/></clipPath><path clip-path="url(#SVGID_156_)" fill="#fff" d="M207.2 343.9H230v22.3h-22.8z"/></g></g><g><defs><path id="SVGID_157_" d="M218.4 357.6c1.5 0 2.7-1.2 2.7-2.7 0-1.5-1.2-2.7-2.7-2.7-1.5 0-2.7 1.2-2.7 2.7 0 1.5 1.2 2.7 2.7 2.7zm0 2.7c3 0 5.3-2.4 5.3-5.4s-2.4-5.4-5.3-5.4c-3 0-5.3 2.4-5.3 5.4s2.4 5.4 5.3 5.4zm.7 7.4s-.1.1 0 0c-.5.4-1 .4-1.3 0-4.9-5.7-7.3-10-7.3-12.9 0-4.5 3.6-8.2 8-8.2s8 3.7 8 8.2c-.1 2.9-2.5 7.2-7.4 12.9z"/></defs><clipPath id="SVGID_158_"><use xlink:href="#SVGID_157_" overflow="visible"/></clipPath><g clip-path="url(#SVGID_158_)"><defs><path id="SVGID_159_" d="M0 0h1200v602H0z"/></defs><clipPath id="SVGID_160_"><use xlink:href="#SVGID_159_" overflow="visible"/></clipPath><path clip-path="url(#SVGID_160_)" fill="#34b798" d="M205.4 341.7h26V373h-26z"/></g></g><g><defs><path id="SVGID_161_" d="M0 0h1200v602H0z"/></defs><clipPath id="SVGID_162_"><use xlink:href="#SVGID_161_" overflow="visible"/></clipPath><path d="M198.1 377.4v2.7h-1l-.2-1.6H193l-.2 1.6h-1v-2.7h.5c.2-.2.3-.4.4-.6.1-.3.2-.6.3-1.1.1-.5.2-1.2.3-2.1l.3-2.1h3.9v6h.6zm-1.9-5h-1.4l-.1 1c-.1.9-.2 1.6-.3 2.1-.1.5-.2.9-.3 1.2-.1.3-.3.5-.5.7h2.6v-5zm4.6.5c.6 0 1.1.1 1.5.4.4.3.6.6.6 1.1 0 .3-.1.6-.3.7-.2.2-.5.3-.9.4.5.1.8.2 1.1.4.2.2.4.5.4.9 0 .6-.2 1-.7 1.3-.4.3-1 .4-1.7.4-.8 0-1.6-.2-2.1-.7l.6-.8c.2.2.5.3.7.3.2.1.5.1.8.1.7 0 1.1-.3 1.1-.8s-.4-.7-1.2-.7h-.8l.1-.9h.6c.3 0 .6-.1.8-.2.2-.1.3-.3.3-.5s-.1-.4-.2-.5c-.2-.1-.4-.2-.6-.2-.3 0-.5 0-.7.1l-.6.3-.6-.7c.3-.2.6-.4.9-.5.1.1.4.1.9.1zm7.9 2.7v.5h-3.4c0 .5.2.9.4 1.1.2.2.5.3.9.3.2 0 .5 0 .7-.1.2-.1.4-.2.7-.4l.5.7c-.6.5-1.3.7-2 .7-.8 0-1.5-.3-1.9-.8-.4-.5-.7-1.2-.7-2.1 0-.6.1-1 .3-1.5.2-.4.5-.8.8-1 .4-.2.8-.4 1.3-.4.8 0 1.3.2 1.8.7.4.8.6 1.5.6 2.3zm-1.3-.4c0-.9-.3-1.4-1-1.4-.3 0-.6.1-.7.4-.2.2-.3.6-.3 1.1l2-.1zm5.3-2.3c.7 0 1.2.2 1.5.7.3.5.5 1.2.5 2.1 0 .6-.1 1.1-.2 1.5-.2.4-.4.8-.7 1-.3.2-.7.4-1.1.4-.6 0-1-.2-1.4-.6v2.5l-1.3.1V373h1.1l.1.7c.2-.3.5-.5.7-.6.2-.1.5-.2.8-.2zm-.5 4.7c.8 0 1.1-.6 1.1-1.9 0-.7-.1-1.1-.3-1.4-.2-.3-.4-.4-.8-.4-.2 0-.4.1-.6.2-.2.1-.4.3-.5.5v2.4c.3.4.7.6 1.1.6zm10.2-4.6l-1.3 2.5 1.4 2.9h-1.4L220 376h-.6v2.4h-1.2V376h-.6l-1.1 2.4h-1.3l1.4-2.9-1.3-2.5h1.3l1 2.2h.6V373h1.2v2.2h.6l1-2.2h1.4zm5.6 5.4h-1.3v-2.2c0-.4 0-.8.1-1.1 0-.3.1-.6.1-.8l-2 4.1h-1.4V373h1.3v2.2c0 .4 0 .7-.1 1.1 0 .4-.1.6-.1.8l2-4.1h1.4v5.4zm4.7 0v-2.3h-1.8v2.3h-1.3V373h1.3v2.1h1.8V373h1.3v5.4h-1.3zm5-5.5c.4 0 .7.1 1 .2.3.1.5.3.8.5l-.6.8c-.2-.1-.4-.2-.5-.3-.2-.1-.4-.1-.6-.1-.8 0-1.2.6-1.2 1.8 0 .6.1 1.1.3 1.3.2.3.5.4.9.4.2 0 .4 0 .5-.1.2-.1.3-.2.6-.3l.6.8c-.5.4-1.1.6-1.7.6-.5 0-1-.1-1.3-.3-.4-.2-.7-.6-.9-1-.2-.4-.3-.9-.3-1.5s.1-1.1.3-1.5.5-.8.9-1c.3-.2.7-.3 1.2-.3zm7.2.1l-1.5 2.5 1.7 2.9h-1.4l-1.3-2.4h-.6v2.4h-1.3V373h1.3v2.1h.6l1.3-2.1h1.2z" clip-path="url(#SVGID_162_)" fill="#1c1d1d"/></g><g><defs><ellipse id="SVGID_163_" cx="336.8" cy="433.8" rx="6.4" ry="6.1"/></defs><clipPath id="SVGID_164_"><use xlink:href="#SVGID_163_" overflow="visible"/></clipPath><g clip-path="url(#SVGID_164_)"><defs><path id="SVGID_165_" d="M0 0h1200v602H0z"/></defs><clipPath id="SVGID_166_"><use xlink:href="#SVGID_165_" overflow="visible"/></clipPath><path clip-path="url(#SVGID_166_)" fill="#fff" d="M325.5 422.7h22.8V445h-22.8z"/></g></g><g><defs><path id="SVGID_167_" d="M336.7 436.4c1.5 0 2.7-1.2 2.7-2.7 0-1.5-1.2-2.7-2.7-2.7-1.5 0-2.7 1.2-2.7 2.7 0 1.5 1.2 2.7 2.7 2.7zm0 2.7c3 0 5.3-2.4 5.3-5.4s-2.4-5.4-5.3-5.4c-3 0-5.3 2.4-5.3 5.4s2.3 5.4 5.3 5.4zm.6 7.4c0 .1 0 .1 0 0-.5.4-1 .4-1.3 0-4.9-5.7-7.3-10-7.3-12.9 0-4.5 3.6-8.2 8-8.2s8 3.7 8 8.2c0 3-2.5 7.2-7.4 12.9z"/></defs><clipPath id="SVGID_168_"><use xlink:href="#SVGID_167_" overflow="visible"/></clipPath><g clip-path="url(#SVGID_168_)"><defs><path id="SVGID_169_" d="M0 0h1200v602H0z"/></defs><clipPath id="SVGID_170_"><use xlink:href="#SVGID_169_" overflow="visible"/></clipPath><path clip-path="url(#SVGID_170_)" fill="#34b798" d="M323.6 420.5h26v31.3h-26z"/></g></g><g><defs><path id="SVGID_171_" d="M0 0h1200v602H0z"/></defs><clipPath id="SVGID_172_"><use xlink:href="#SVGID_171_" overflow="visible"/></clipPath><path d="M325.7 450.1c.4 0 .8.1 1.1.2.3.1.6.3.9.6l-.7.8c-.4-.3-.8-.5-1.3-.5s-.9.2-1.3.6c-.3.4-.5 1.1-.5 2 0 .9.2 1.5.5 2 .3.4.7.6 1.3.6.3 0 .5 0 .7-.1.2-.1.4-.2.7-.4l.6.8c-.2.2-.5.4-.9.6-.4.2-.8.2-1.2.2-.6 0-1.2-.1-1.6-.4-.5-.3-.8-.7-1.1-1.3-.3-.6-.4-1.2-.4-2s.1-1.4.4-2c.3-.6.6-1 1.1-1.3.6-.3 1.1-.4 1.7-.4zm7.5 7.2H332v-2.2c0-.4 0-.8.1-1.1 0-.3.1-.6.1-.8l-2 4.1h-1.4v-5.4h1.3v2.2c0 .4 0 .7-.1 1.1 0 .4-.1.6-.1.8l2-4.1h1.4v5.4zm4.2-5.1c.4 0 .7.1 1 .3.3.2.5.5.7.9.2.4.3.8.3 1.3 0 .6-.1 1-.3 1.4-.2.4-.5.7-.9.9-.4.2-.8.3-1.3.3-.8 0-1.4-.3-1.8-.8-.5-.5-.7-1.3-.7-2.4 0-.8.1-1.4.2-1.9s.3-.9.7-1.2c.3-.3.8-.6 1.3-.8.4-.1.7-.3 1-.4.2-.1.5-.2.8-.4l.5.9c-.2.2-.5.3-.8.4-.3.1-.6.2-1 .4-.3.1-.6.2-.7.4-.2.1-.3.3-.4.6-.1.2-.2.6-.2 1 .3-.6.9-.9 1.6-.9zm-.5 4.2c.3 0 .6-.1.8-.4.2-.2.3-.7.3-1.3 0-.6-.1-1-.2-1.2-.2-.2-.4-.4-.7-.4-.3 0-.5.1-.7.2-.2.1-.4.3-.6.6v.7c0 .6.1 1 .3 1.3.2.4.5.5.8.5zm7.8-.6c0 .2 0 .4.1.5.1.1.2.2.3.2l-.3.9c-.3 0-.6-.1-.7-.2-.2-.1-.3-.3-.4-.6-.2.3-.4.5-.7.6-.3.1-.6.2-.9.2-.5 0-1-.2-1.3-.5-.3-.3-.5-.7-.5-1.2 0-.6.2-1 .6-1.3.4-.3 1-.5 1.8-.5h.7v-.3c0-.3-.1-.6-.2-.7-.2-.1-.4-.2-.8-.2s-.9.1-1.4.3l-.3-.9c.7-.3 1.3-.4 2-.4 1.4 0 2.1.6 2.1 1.9v2.2h-.1zm-2.4.7c.4 0 .8-.2 1-.7v-1.1h-.5c-.8 0-1.3.3-1.3.9 0 .3.1.5.2.6.2.2.4.3.6.3zm8.4.8h-1.3v-2.2c0-.4 0-.8.1-1.1 0-.3.1-.6.1-.8l-2 4.1h-1.4v-5.4h1.3v2.2c0 .4 0 .7-.1 1.1 0 .4-.1.6-.1.8l2-4.1h1.4v5.4zm-2.2-6.5c-.5 0-.9-.1-1.2-.4-.3-.3-.5-.6-.5-1l.8-.2c.1.2.2.4.3.5.1.1.3.1.6.1.2 0 .4 0 .6-.1.1-.1.3-.3.3-.5l.8.2c0 .4-.2.8-.5 1-.4.2-.8.4-1.2.4z" clip-path="url(#SVGID_172_)" fill="#1c1d1d"/></g><g><defs><ellipse id="SVGID_173_" cx="243.5" cy="392.6" rx="6.4" ry="6.1"/></defs><clipPath id="SVGID_174_"><use xlink:href="#SVGID_173_" overflow="visible"/></clipPath><g clip-path="url(#SVGID_174_)"><defs><path id="SVGID_175_" d="M0 0h1200v602H0z"/></defs><clipPath id="SVGID_176_"><use xlink:href="#SVGID_175_" overflow="visible"/></clipPath><path clip-path="url(#SVGID_176_)" fill="#fff" d="M232.1 381.4h22.8v22.3h-22.8z"/></g></g><g><defs><path id="SVGID_177_" d="M243.3 395.2c1.5 0 2.7-1.2 2.7-2.7 0-1.5-1.2-2.7-2.7-2.7-1.5 0-2.7 1.2-2.7 2.7 0 1.5 1.2 2.7 2.7 2.7zm0 2.7c3 0 5.3-2.4 5.3-5.4s-2.4-5.4-5.3-5.4c-3 0-5.3 2.4-5.3 5.4s2.3 5.4 5.3 5.4zm.6 7.4s0 .1 0 0c-.5.4-1 .4-1.3 0-4.9-5.7-7.3-10-7.3-12.9 0-4.5 3.6-8.2 8-8.2s8 3.7 8 8.2c0 2.9-2.5 7.2-7.4 12.9z"/></defs><clipPath id="SVGID_178_"><use xlink:href="#SVGID_177_" overflow="visible"/></clipPath><g clip-path="url(#SVGID_178_)"><defs><path id="SVGID_179_" d="M0 0h1200v602H0z"/></defs><clipPath id="SVGID_180_"><use xlink:href="#SVGID_179_" overflow="visible"/></clipPath><path clip-path="url(#SVGID_180_)" fill="#34b798" d="M230.3 379.3h26v31.3h-26z"/></g></g><g><defs><path id="SVGID_181_" d="M0 0h1200v602H0z"/></defs><clipPath id="SVGID_182_"><use xlink:href="#SVGID_181_" overflow="visible"/></clipPath><path d="M222.1 414c-.2.5-.4.9-.6 1.2-.2.3-.5.5-.8.7-.3.1-.7.2-1.2.3l-.2-.9c.5-.1.8-.2 1-.3.2-.2.4-.4.6-.8h-.4l-2.2-5.1h1.4l1.7 4.4 1.5-4.4h1.4l-2.2 4.9zm6.9-3.4v5.4h-1.3v-4.4h-1.3l-.1 1.4c-.1.8-.1 1.3-.2 1.7-.1.4-.3.7-.5.9-.2.2-.6.4-1 .5l-.3-1c.2-.1.4-.2.5-.3.1-.1.2-.3.2-.6s.1-.7.1-1.3l.2-2.3h3.7zm3.4 1.7c.8 0 1.5.2 1.8.5.4.3.6.8.6 1.4 0 .6-.2 1.1-.6 1.4-.4.3-.9.5-1.6.5h-2v-5.4h1.3v1.7h.5v-.1zm.1 2.8c.7 0 1-.3 1-1 0-.3-.1-.6-.2-.7s-.4-.2-.8-.2h-.5v1.9h.5zm7.4-4.5v5.4h-1.3v-2h-.9l-1 2h-1.4l1.3-2.3c-.3-.1-.5-.3-.7-.6-.2-.2-.2-.5-.2-.9 0-.6.2-1 .6-1.3.4-.3 1-.4 1.8-.4h1.8zm-1.3 2.6v-1.7h-.6c-.7 0-1 .3-1 .8 0 .3.1.5.2.7.2.1.4.2.7.2h.7zm6 2.8v-2.3h-1.8v2.3h-1.3v-5.4h1.3v2.1h1.8v-2.1h1.3v5.4h-1.3zm5.1-5.5c.8 0 1.4.3 1.9.8.4.5.7 1.2.7 2.1 0 .6-.1 1.1-.3 1.5-.2.4-.5.8-.9 1-.4.2-.8.4-1.4.4-.8 0-1.4-.3-1.9-.8-.4-.5-.7-1.2-.7-2.1 0-.6.1-1.1.3-1.5.2-.4.5-.8.9-1 .4-.3.9-.4 1.4-.4zm0 1c-.8 0-1.2.6-1.2 1.9 0 .6.1 1.1.3 1.4.2.3.5.5.9.5s.7-.2.9-.5c.2-.3.3-.8.3-1.4s-.1-1.1-.3-1.4c-.2-.4-.5-.5-.9-.5zm6.8 1.6c.9.1 1.4.5 1.4 1.3 0 .6-.2 1-.6 1.2-.4.3-1 .4-1.7.4h-2.1v-5.3c.7-.1 1.4-.2 2-.2.7 0 1.2.1 1.7.4.4.3.6.6.6 1.1 0 .3-.1.6-.3.7-.3.2-.6.3-1 .4zm-1.1-1.7c-.2 0-.4 0-.7.1v1.4h.8c.6 0 .8-.2.8-.7.1-.6-.3-.8-.9-.8zm.1 3.7c.7 0 1-.3 1-.8 0-.3-.1-.4-.2-.6-.2-.1-.4-.2-.8-.2h-.8v1.6h.8zm5.8-4.6c.4 0 .7.1 1 .2.3.1.5.3.8.5l-.6.8c-.2-.1-.4-.2-.5-.3-.2-.1-.4-.1-.6-.1-.8 0-1.2.6-1.2 1.8 0 .6.1 1.1.3 1.3.2.3.5.4.9.4.2 0 .4 0 .5-.1.2-.1.3-.2.6-.3l.6.8c-.5.4-1.1.6-1.7.6-.5 0-1-.1-1.3-.3-.4-.2-.7-.6-.9-1-.2-.4-.3-.9-.3-1.5s.1-1.1.3-1.5c.2-.4.5-.8.9-1 .3-.2.7-.3 1.2-.3zm7.2.1l-1.5 2.5 1.7 2.9h-1.4l-1.3-2.4h-.6v2.4H264v-5.4h1.3v2.1h.6l1.3-2.1h1.3z" clip-path="url(#SVGID_182_)" fill="#1c1d1d"/></g><g><defs><path id="SVGID_183_" d="M278 235.6c3.5 0 6.4-2.8 6.4-6.1 0-3.4-2.9-6.1-6.4-6.1s-6.4 2.8-6.4 6.1c0 3.4 2.9 6.1 6.4 6.1z"/></defs><clipPath id="SVGID_184_"><use xlink:href="#SVGID_183_" overflow="visible"/></clipPath><g clip-path="url(#SVGID_184_)"><defs><path id="SVGID_185_" d="M0 0h1200v602H0z"/></defs><clipPath id="SVGID_186_"><use xlink:href="#SVGID_185_" overflow="visible"/></clipPath><path clip-path="url(#SVGID_186_)" fill="#fff" d="M266.6 218.3h22.8v22.3h-22.8z"/></g></g><g><defs><path id="SVGID_187_" d="M277.8 232.1c1.5 0 2.7-1.2 2.7-2.7 0-1.5-1.2-2.7-2.7-2.7-1.5 0-2.7 1.2-2.7 2.7.1 1.4 1.3 2.7 2.7 2.7zm0 2.7c3 0 5.3-2.4 5.3-5.4 0-3-2.4-5.4-5.3-5.4-3 0-5.3 2.4-5.3 5.4 0 2.9 2.4 5.4 5.3 5.4zm.7 7.4c-.5.4-1 .4-1.3 0-4.9-5.7-7.3-10-7.3-12.9 0-4.5 3.6-8.2 8-8.2s8 3.7 8 8.2c0 2.9-2.5 7.2-7.4 12.9z"/></defs><clipPath id="SVGID_188_"><use xlink:href="#SVGID_187_" overflow="visible"/></clipPath><g clip-path="url(#SVGID_188_)"><defs><path id="SVGID_189_" d="M0 0h1200v602H0z"/></defs><clipPath id="SVGID_190_"><use xlink:href="#SVGID_189_" overflow="visible"/></clipPath><path clip-path="url(#SVGID_190_)" fill="#34b798" d="M264.8 216.2h26v31.3h-26z"/></g></g><g><defs><path id="SVGID_191_" d="M0 0h1200v602H0z"/></defs><clipPath id="SVGID_192_"><use xlink:href="#SVGID_191_" overflow="visible"/></clipPath><path d="M252.5 252.9l-.4-1.6h-2.3l-.4 1.6H248l2.2-7h1.7l2.2 7h-1.6zm-2.5-2.6h1.8l-.9-3.4-.9 3.4zm7.5-2.9c.7 0 1.2.2 1.5.7.3.5.5 1.2.5 2.1 0 .6-.1 1.1-.2 1.5-.2.4-.4.8-.7 1-.3.2-.7.4-1.1.4-.6 0-1-.2-1.4-.6v2.5l-1.3.1v-7.6h1.1l.1.7c.2-.3.5-.5.7-.6.2-.2.5-.2.8-.2zm-.5 4.7c.8 0 1.1-.6 1.1-1.9 0-.7-.1-1.1-.3-1.4-.2-.3-.4-.4-.8-.4-.2 0-.4.1-.6.2-.2.1-.4.3-.5.5v2.4c.4.4.7.6 1.1.6zm6.3-2.1l1.8 2.9h-1.5l-1.1-2.1-1.1 2.1H260l1.8-2.8-1.6-2.5h1.5l.9 1.8.9-1.8h1.4l-1.6 2.4zm6.5 1.5c0 .2 0 .4.1.5.1.1.2.2.3.2l-.2.8c-.3 0-.6-.1-.7-.2-.2-.1-.3-.3-.4-.6-.2.3-.4.5-.7.6-.3.1-.6.2-.9.2-.5 0-1-.2-1.3-.5-.3-.3-.5-.7-.5-1.2 0-.6.2-1 .6-1.3.4-.3 1-.5 1.8-.5h.7v-.3c0-.3-.1-.6-.2-.7-.2-.1-.4-.2-.8-.2s-.9.1-1.4.3l-.3-.9c.7-.3 1.3-.4 2-.4 1.4 0 2.1.6 2.1 1.9v2.3h-.2zm-2.3.6c.4 0 .8-.2 1-.7v-1.1h-.5c-.8 0-1.3.3-1.3.9 0 .3.1.5.2.6.2.3.4.3.6.3zm7.1.8v-2.3h-1.8v2.3h-1.3v-5.4h1.3v2.1h1.8v-2.1h1.3v5.4h-1.3zm4.1 0h-1.3v-5.4h3.6l-.2 1h-2.1v4.4zm7.5-2.8v.5h-3.4c0 .5.2.9.4 1.1.2.2.5.3.9.3.2 0 .5 0 .7-.1.2-.1.4-.2.7-.4l.5.7c-.6.5-1.3.7-2 .7-.8 0-1.5-.3-1.9-.8-.4-.5-.7-1.2-.7-2.1 0-.6.1-1 .3-1.5.2-.4.5-.8.8-1 .4-.2.8-.4 1.3-.4.8 0 1.3.2 1.8.7.4.8.6 1.4.6 2.3zm-1.3-.4c0-.9-.3-1.4-1-1.4-.3 0-.6.1-.7.4-.2.2-.3.6-.3 1.1l2-.1zm6.8-2.2v5.4h-1.3v-4.4h-1.3l-.1 1.4c-.1.8-.1 1.3-.2 1.7-.1.4-.3.7-.5.9-.2.2-.6.4-1 .5l-.3-1c.2-.1.4-.2.5-.3.1-.1.2-.3.2-.6s.1-.7.1-1.3l.2-2.3h3.7zm3.4 1.7c.8 0 1.5.2 1.8.5.4.3.6.8.6 1.4 0 .6-.2 1.1-.6 1.4-.4.3-.9.5-1.6.5h-2v-5.4h1.3v1.7h.5v-.1zm.1 2.8c.7 0 1-.3 1-1 0-.3-.1-.6-.2-.7s-.4-.2-.8-.2h-.5v1.9h.5zm5.5-4.6c.4 0 .7.1 1 .2.3.1.5.3.8.5l-.6.8c-.2-.1-.4-.2-.5-.3-.2-.1-.4-.1-.6-.1-.8 0-1.2.6-1.2 1.8 0 .6.1 1.1.3 1.3.2.3.5.4.9.4.2 0 .4 0 .5-.1.2-.1.3-.2.6-.3l.6.8c-.5.4-1.1.6-1.7.6-.5 0-1-.1-1.3-.3-.4-.2-.7-.6-.9-1-.2-.4-.3-.9-.3-1.5s.1-1.1.3-1.5.5-.8.9-1c.2-.2.7-.3 1.2-.3zm7.2.1l-1.5 2.5 1.7 2.9h-1.4l-1.3-2.4h-.6v2.4h-1.3v-5.4h1.3v2.1h.6l1.3-2.1h1.2z" clip-path="url(#SVGID_192_)" fill="#1c1d1d"/></g><g><defs><ellipse id="SVGID_193_" cx="274.4" cy="365.9" rx="6.4" ry="6.1"/></defs><clipPath id="SVGID_194_"><use xlink:href="#SVGID_193_" overflow="visible"/></clipPath><g clip-path="url(#SVGID_194_)"><defs><path id="SVGID_195_" d="M0 0h1200v602H0z"/></defs><clipPath id="SVGID_196_"><use xlink:href="#SVGID_195_" overflow="visible"/></clipPath><path clip-path="url(#SVGID_196_)" fill="#fff" d="M263 354.8h22.8v22.3H263z"/></g></g><g><defs><path id="SVGID_197_" d="M274.2 368.5c1.5 0 2.7-1.2 2.7-2.7 0-1.5-1.2-2.7-2.7-2.7-1.5 0-2.7 1.2-2.7 2.7 0 1.5 1.2 2.7 2.7 2.7zm0 2.7c3 0 5.3-2.4 5.3-5.4 0-3-2.4-5.4-5.3-5.4-3 0-5.3 2.4-5.3 5.4 0 3 2.3 5.4 5.3 5.4zm.7 7.4c-.1 0-.1.1 0 0-.5.4-1 .4-1.3 0-4.9-5.7-7.3-10-7.3-12.9 0-4.5 3.6-8.2 8-8.2s8 3.7 8 8.2c-.1 2.9-2.5 7.2-7.4 12.9z"/></defs><clipPath id="SVGID_198_"><use xlink:href="#SVGID_197_" overflow="visible"/></clipPath><g clip-path="url(#SVGID_198_)"><defs><path id="SVGID_199_" d="M0 0h1200v602H0z"/></defs><clipPath id="SVGID_200_"><use xlink:href="#SVGID_199_" overflow="visible"/></clipPath><path clip-path="url(#SVGID_200_)" fill="#34b798" d="M261.2 352.6h26v31.3h-26z"/></g></g><g><defs><path id="SVGID_201_" d="M0 0h1200v602H0z"/></defs><clipPath id="SVGID_202_"><use xlink:href="#SVGID_201_" overflow="visible"/></clipPath><path d="M263.5 382.3l-1.8 3.2 2 3.8h-1.5l-1.7-3.2h-.8v3.2h-1.3v-7h1.3v2.8h.9l1.6-2.8h1.3zm5 5.6c0 .2 0 .4.1.5.1.1.2.2.3.2l-.3.9c-.3 0-.6-.1-.7-.2-.2-.1-.3-.3-.4-.6-.2.3-.4.5-.7.6-.3.1-.6.2-.9.2-.5 0-1-.2-1.3-.5-.3-.3-.5-.7-.5-1.2 0-.6.2-1 .6-1.3.4-.3 1-.5 1.8-.5h.7v-.3c0-.3-.1-.6-.2-.7-.2-.1-.4-.2-.8-.2s-.9.1-1.4.3l-.3-.9c.7-.3 1.3-.4 2-.4 1.4 0 2.1.6 2.1 1.9v2.2h-.1zm-2.3.7c.4 0 .8-.2 1-.7v-1.1h-.5c-.8 0-1.3.3-1.3.9 0 .3.1.5.2.6.1.2.3.3.6.3zm5.4-4.8c.6 0 1.1.1 1.5.4.4.3.6.6.6 1.1 0 .3-.1.6-.3.7-.2.2-.5.3-.9.4.5.1.8.2 1.1.4.2.2.4.5.4.9 0 .6-.2 1-.7 1.3-.4.3-1 .4-1.7.4-.8 0-1.6-.2-2.1-.7l.6-.8c.2.2.5.3.7.3.2.1.5.1.8.1.7 0 1.1-.3 1.1-.8s-.4-.7-1.2-.7h-.8l.1-.9h.6c.3 0 .6-.1.8-.2.2-.1.3-.3.3-.5s-.1-.4-.2-.5c-.2-.1-.4-.2-.6-.2-.3 0-.5 0-.7.1l-.6.3-.6-.7c.3-.2.6-.4.9-.5.1.2.5.1.9.1zm7.5 4.1c0 .2 0 .4.1.5.1.1.2.2.3.2l-.3.9c-.3 0-.6-.1-.7-.2-.2-.1-.3-.3-.4-.6-.2.3-.4.5-.7.6-.3.1-.6.2-.9.2-.5 0-1-.2-1.3-.5-.3-.3-.5-.7-.5-1.2 0-.6.2-1 .6-1.3.4-.3 1-.5 1.8-.5h.7v-.3c0-.3-.1-.6-.2-.7-.2-.1-.4-.2-.8-.2s-.9.1-1.4.3l-.3-.9c.7-.3 1.3-.4 2-.4 1.4 0 2.1.6 2.1 1.9v2.2h-.1zm-2.3.7c.4 0 .8-.2 1-.7v-1.1h-.5c-.8 0-1.3.3-1.3.9 0 .3.1.5.2.6.2.2.4.3.6.3zm7 .7V387H282v2.3h-1.3V384h1.3v2.1h1.8V384h1.3v5.4h-1.3zm4.8-3.6c.8 0 1.5.2 1.8.5.4.3.6.8.6 1.4 0 .6-.2 1.1-.6 1.4-.4.3-.9.5-1.6.5h-2V384h1.3v1.7h.5zm0 2.7c.7 0 1-.3 1-1 0-.3-.1-.6-.2-.7s-.4-.2-.8-.2h-.6v1.9h.6z" clip-path="url(#SVGID_202_)" fill="#1c1d1d"/></g><g><defs><path id="SVGID_203_" d="M218.6 319.3c3.5 0 6.4-2.8 6.4-6.1 0-3.4-2.9-6.1-6.4-6.1-3.5 0-6.4 2.8-6.4 6.1 0 3.4 2.9 6.1 6.4 6.1z"/></defs><clipPath id="SVGID_204_"><use xlink:href="#SVGID_203_" overflow="visible"/></clipPath><g clip-path="url(#SVGID_204_)"><defs><path id="SVGID_205_" d="M0 0h1200v602H0z"/></defs><clipPath id="SVGID_206_"><use xlink:href="#SVGID_205_" overflow="visible"/></clipPath><path clip-path="url(#SVGID_206_)" fill="#fff" d="M207.2 302H230v22.3h-22.8z"/></g></g><g><defs><path id="SVGID_207_" d="M218.4 315.7c1.5 0 2.7-1.2 2.7-2.7 0-1.5-1.2-2.7-2.7-2.7-1.5 0-2.7 1.2-2.7 2.7 0 1.5 1.2 2.7 2.7 2.7zm0 2.8c3 0 5.3-2.4 5.3-5.4 0-3-2.4-5.4-5.3-5.4-3 0-5.3 2.4-5.3 5.4 0 2.9 2.4 5.4 5.3 5.4zm.7 7.4s-.1 0 0 0c-.5.4-1 .4-1.3 0-4.9-5.7-7.3-10-7.3-12.9 0-4.5 3.6-8.2 8-8.2s8 3.7 8 8.2c-.1 2.9-2.5 7.2-7.4 12.9z"/></defs><clipPath id="SVGID_208_"><use xlink:href="#SVGID_207_" overflow="visible"/></clipPath><g clip-path="url(#SVGID_208_)"><defs><path id="SVGID_209_" d="M0 0h1200v602H0z"/></defs><clipPath id="SVGID_210_"><use xlink:href="#SVGID_209_" overflow="visible"/></clipPath><path clip-path="url(#SVGID_210_)" fill="#34b798" d="M205.4 299.8h26v31.3h-26z"/></g></g><g><defs><path id="SVGID_211_" d="M0 0h1200v602H0z"/></defs><clipPath id="SVGID_212_"><use xlink:href="#SVGID_211_" overflow="visible"/></clipPath><path d="M198.3 329.6v7H197V334h-1.1l-1.3 2.6h-1.5l1.5-2.9c-.9-.4-1.3-1-1.3-1.9 0-.7.2-1.3.7-1.6.5-.4 1.2-.6 2.1-.6h2.2zM197 333v-2.4h-.8c-.5 0-.9.1-1.1.3-.2.2-.3.5-.3.9s.1.7.3.9c.2.2.5.3.9.3h1zm5.7-1.9c.7 0 1.2.2 1.5.7.3.5.5 1.2.5 2.1 0 .6-.1 1.1-.2 1.5-.2.4-.4.8-.7 1-.3.2-.7.4-1.1.4-.6 0-1-.2-1.4-.6v2.5l-1.3.1v-7.6h1.1l.1.7c.2-.3.5-.5.7-.6.2-.2.5-.2.8-.2zm-.5 4.6c.8 0 1.1-.6 1.1-1.9 0-.7-.1-1.1-.3-1.4-.2-.3-.4-.4-.8-.4-.2 0-.4.1-.6.2-.2.1-.4.3-.5.5v2.4c.4.5.7.6 1.1.6zm6-4.6c.8 0 1.4.3 1.9.8.4.5.7 1.2.7 2.1 0 .6-.1 1.1-.3 1.5-.2.4-.5.8-.9 1-.4.2-.8.4-1.4.4-.8 0-1.4-.3-1.9-.8-.4-.5-.7-1.2-.7-2.1 0-.6.1-1.1.3-1.5.2-.4.5-.8.9-1 .4-.3.9-.4 1.4-.4zm0 .9c-.8 0-1.2.6-1.2 1.9 0 .6.1 1.1.3 1.4.2.3.5.5.9.5s.7-.2.9-.5c.2-.3.3-.8.3-1.4s-.1-1.1-.3-1.4c-.2-.3-.5-.5-.9-.5zm5.9-.9c.4 0 .7.1 1 .2.3.1.5.3.8.5l-.6.8c-.2-.1-.4-.2-.5-.3-.2-.1-.4-.1-.6-.1-.8 0-1.2.6-1.2 1.8 0 .6.1 1.1.3 1.3.2.3.5.4.9.4.2 0 .4 0 .5-.1.2-.1.3-.2.6-.3l.6.8c-.5.4-1.1.6-1.7.6-.5 0-1-.1-1.3-.3-.4-.2-.7-.6-.9-1-.2-.4-.3-.9-.3-1.5s.1-1.1.3-1.5.5-.8.9-1c.2-.2.7-.3 1.2-.3zm7 .1v5.4h-1.3v-4.4h-1.3l-.1 1.4c-.1.8-.1 1.3-.2 1.7-.1.4-.3.7-.5.9-.2.2-.6.4-1 .5l-.3-1c.2-.1.4-.2.5-.3.1-.1.2-.3.2-.6s.1-.7.1-1.3l.2-2.3h3.7zm5.5 4c0 .2 0 .4.1.5.1.1.2.2.3.2l-.3.9c-.3 0-.6-.1-.7-.2-.2-.1-.3-.3-.4-.6-.2.3-.4.5-.7.6-.3.1-.6.2-.9.2-.5 0-1-.2-1.3-.5-.3-.3-.5-.7-.5-1.2 0-.6.2-1 .6-1.3.4-.3 1-.5 1.8-.5h.7v-.3c0-.3-.1-.6-.2-.7-.2-.1-.4-.2-.8-.2s-.9.1-1.4.3l-.3-.9c.7-.3 1.3-.4 2-.4 1.4 0 2.1.6 2.1 1.9v2.2h-.1zm-2.3.6c.4 0 .8-.2 1-.7V334h-.5c-.8 0-1.3.3-1.3.9 0 .3.1.5.2.6.2.2.3.3.6.3zm7-2.1c.9.1 1.4.5 1.4 1.3 0 .6-.2 1-.6 1.2-.4.3-1 .4-1.7.4h-2.1v-5.3c.7-.1 1.4-.2 2-.2.7 0 1.2.1 1.7.4.4.3.6.6.6 1.1 0 .3-.1.6-.3.7-.4.2-.6.3-1 .4zm-1.1-1.8c-.2 0-.4 0-.7.1v1.4h.8c.6 0 .8-.2.8-.7 0-.5-.3-.8-.9-.8zm.1 3.8c.7 0 1-.3 1-.8 0-.3-.1-.4-.2-.6-.2-.1-.4-.2-.8-.2h-.8v1.6h.8zm7.9-4.5v5.4h-1.3v-4.4h-1.3l-.1 1.4c-.1.8-.1 1.3-.2 1.7-.1.4-.3.7-.5.9-.2.2-.6.4-1 .5l-.3-1c.2-.1.4-.2.5-.3.1-.1.2-.3.2-.6s.1-.7.1-1.3l.2-2.3h3.7zm3.4 1.7c.8 0 1.5.2 1.8.5s.6.8.6 1.4c0 .6-.2 1.1-.6 1.4-.4.3-.9.5-1.6.5h-2v-5.4h1.3v1.7h.5v-.1zm.1 2.8c.7 0 1-.3 1-1 0-.3-.1-.6-.2-.7-.2-.2-.4-.2-.8-.2h-.7v1.9h.7z" clip-path="url(#SVGID_212_)" fill="#1c1d1d"/></g><g><defs><ellipse id="SVGID_213_" cx="225.3" cy="256.8" rx="6.4" ry="6.1"/></defs><clipPath id="SVGID_214_"><use xlink:href="#SVGID_213_" overflow="visible"/></clipPath><g clip-path="url(#SVGID_214_)"><defs><path id="SVGID_215_" d="M0 0h1200v602H0z"/></defs><clipPath id="SVGID_216_"><use xlink:href="#SVGID_215_" overflow="visible"/></clipPath><path clip-path="url(#SVGID_216_)" fill="#fff" d="M213.9 245.6h22.8v22.3h-22.8z"/></g></g><g><defs><path id="SVGID_217_" d="M225.1 259.3c1.5 0 2.7-1.2 2.7-2.7 0-1.5-1.2-2.7-2.7-2.7-1.5 0-2.7 1.2-2.7 2.7 0 1.5 1.2 2.7 2.7 2.7zm0 2.8c3 0 5.3-2.4 5.3-5.4 0-3-2.4-5.4-5.3-5.4-3 0-5.3 2.4-5.3 5.4-.1 2.9 2.3 5.4 5.3 5.4zm.7 7.4c-.1 0-.1 0 0 0-.5.4-1 .4-1.3 0-4.9-5.7-7.3-10-7.3-12.9 0-4.5 3.6-8.2 8-8.2s8 3.7 8 8.2c-.1 2.9-2.5 7.2-7.4 12.9z"/></defs><clipPath id="SVGID_218_"><use xlink:href="#SVGID_217_" overflow="visible"/></clipPath><g clip-path="url(#SVGID_218_)"><defs><path id="SVGID_219_" d="M0 0h1200v602H0z"/></defs><clipPath id="SVGID_220_"><use xlink:href="#SVGID_219_" overflow="visible"/></clipPath><path clip-path="url(#SVGID_220_)" fill="#34b798" d="M212.1 243.4h26v31.3h-26z"/></g></g><g><defs><path id="SVGID_221_" d="M0 0h1200v602H0z"/></defs><clipPath id="SVGID_222_"><use xlink:href="#SVGID_221_" overflow="visible"/></clipPath><path d="M212.2 276.5c.5.1.9.3 1.2.5.3.3.4.7.4 1.2 0 .7-.3 1.3-.8 1.6-.5.3-1.2.5-2.2.5h-2.1v-7h1.8c1.9 0 2.9.6 2.9 1.8 0 .4-.1.8-.4 1-.2.1-.5.3-.8.4zm-2.2-2.3v1.9h.8c.4 0 .7-.1.9-.2.2-.2.3-.4.3-.7 0-.3-.1-.6-.3-.7-.2-.1-.6-.2-1.1-.2h-.6zm.8 5c.5 0 .9-.1 1.1-.2.3-.1.4-.4.4-.8s-.1-.7-.4-.9c-.2-.2-.6-.3-1-.3h-.9v2.2h.8zm6.3-4.5c.8 0 1.4.3 1.9.8.4.5.7 1.2.7 2.1 0 .6-.1 1.1-.3 1.5-.2.4-.5.8-.9 1-.4.2-.8.4-1.4.4-.8 0-1.4-.3-1.9-.8-.4-.5-.7-1.2-.7-2.1 0-.6.1-1.1.3-1.5.2-.4.5-.8.9-1 .4-.3.9-.4 1.4-.4zm0 .9c-.8 0-1.2.6-1.2 1.9 0 .6.1 1.1.3 1.4.2.3.5.5.9.5s.7-.2.9-.5c.2-.3.3-.8.3-1.4s-.1-1.1-.3-1.4c-.2-.3-.5-.5-.9-.5zm8-.8v5.4h-1.3v-4.4h-1.3l-.1 1.4c-.1.8-.1 1.3-.2 1.7-.1.4-.3.7-.5.9-.2.2-.6.4-1 .5l-.3-1c.2-.1.4-.2.5-.3.1-.1.2-.3.2-.6s.1-.7.1-1.3l.2-2.3h3.7zm4.1 2.5l1.8 2.9h-1.5l-1.1-2.1-1.1 2.1h-1.4l1.8-2.8-1.6-2.5h1.5l.9 1.8.9-1.8h1.4l-1.6 2.4zm4.8-2.6c.8 0 1.4.3 1.9.8.4.5.7 1.2.7 2.1 0 .6-.1 1.1-.3 1.5-.2.4-.5.8-.9 1-.4.2-.8.4-1.4.4-.8 0-1.4-.3-1.9-.8-.4-.5-.7-1.2-.7-2.1 0-.6.1-1.1.3-1.5.2-.4.5-.8.9-1 .4-.3.9-.4 1.4-.4zm0 .9c-.8 0-1.2.6-1.2 1.9 0 .6.1 1.1.3 1.4.2.3.5.5.9.5s.7-.2.9-.5c.2-.3.3-.8.3-1.4s-.1-1.1-.3-1.4c-.2-.3-.5-.5-.9-.5zm6.8 1.7c.9.1 1.4.5 1.4 1.3 0 .6-.2 1-.6 1.2-.4.3-1 .4-1.7.4h-2.1v-5.3c.7-.1 1.4-.2 2-.2.7 0 1.2.1 1.7.4.4.3.6.6.6 1.1 0 .3-.1.6-.3.7-.3.2-.6.3-1 .4zm-1.1-1.8c-.2 0-.4 0-.7.1v1.4h.8c.6 0 .8-.2.8-.7.1-.5-.3-.8-.9-.8zm.1 3.8c.7 0 1-.3 1-.8 0-.3-.1-.4-.2-.6-.2-.1-.4-.2-.8-.2h-.8v1.6h.8z" clip-path="url(#SVGID_222_)" fill="#1c1d1d"/></g><g><defs><ellipse id="SVGID_223_" cx="127.6" cy="288.9" rx="6.4" ry="6.1"/></defs><clipPath id="SVGID_224_"><use xlink:href="#SVGID_223_" overflow="visible"/></clipPath><g clip-path="url(#SVGID_224_)"><defs><path id="SVGID_225_" d="M0 0h1200v602H0z"/></defs><clipPath id="SVGID_226_"><use xlink:href="#SVGID_225_" overflow="visible"/></clipPath><path clip-path="url(#SVGID_226_)" fill="#fff" d="M116.3 277.8h22.8v22.3h-22.8z"/></g></g><g><defs><path id="SVGID_227_" d="M127.5 291.5c1.5 0 2.7-1.2 2.7-2.7 0-1.5-1.2-2.7-2.7-2.7-1.5 0-2.7 1.2-2.7 2.7 0 1.5 1.2 2.7 2.7 2.7zm0 2.7c3 0 5.3-2.4 5.3-5.4 0-3-2.4-5.4-5.3-5.4-3 0-5.3 2.4-5.3 5.4-.1 3 2.3 5.4 5.3 5.4zm.6 7.4s0 .1 0 0c-.5.4-1 .4-1.3 0-4.9-5.7-7.3-10-7.3-12.9 0-4.5 3.6-8.2 8-8.2s8 3.7 8 8.2c0 2.9-2.5 7.2-7.4 12.9z"/></defs><clipPath id="SVGID_228_"><use xlink:href="#SVGID_227_" overflow="visible"/></clipPath><g clip-path="url(#SVGID_228_)"><defs><path id="SVGID_229_" d="M0 0h1200v602H0z"/></defs><clipPath id="SVGID_230_"><use xlink:href="#SVGID_229_" overflow="visible"/></clipPath><path clip-path="url(#SVGID_230_)" fill="#34b798" d="M114.4 275.6h26v31.3h-26z"/></g></g><g><defs><path id="SVGID_231_" d="M0 0h1200v602H0z"/></defs><clipPath id="SVGID_232_"><use xlink:href="#SVGID_231_" overflow="visible"/></clipPath><path class="st119" d="M97 305.1c.4 0 .8.1 1.1.2.3.1.6.3.9.6l-.7.8c-.4-.3-.8-.5-1.3-.5s-.9.2-1.3.6c-.3.4-.5 1.1-.5 2 0 .9.2 1.5.5 2 .3.4.7.6 1.3.6.3 0 .5 0 .7-.1.2-.1.4-.2.7-.4l.6.8c-.2.2-.5.4-.9.6-.4.2-.8.2-1.2.2-.6 0-1.2-.1-1.6-.4-.5-.3-.8-.7-1.1-1.3-.3-.6-.4-1.2-.4-2s.1-1.4.4-2c.3-.6.6-1 1.1-1.3.6-.2 1.1-.4 1.7-.4zm5.2 1.7c.8 0 1.4.3 1.9.8.4.5.7 1.2.7 2.1 0 .6-.1 1.1-.3 1.5-.2.4-.5.8-.9 1-.4.2-.8.4-1.4.4-.8 0-1.4-.3-1.9-.8-.4-.5-.7-1.2-.7-2.1 0-.6.1-1.1.3-1.5.2-.4.5-.8.9-1 .4-.3.9-.4 1.4-.4zm0 1c-.8 0-1.2.6-1.2 1.9 0 .6.1 1.1.3 1.4.2.3.5.5.9.5s.7-.2.9-.5c.2-.3.3-.8.3-1.4s-.1-1.1-.3-1.4c-.2-.4-.5-.5-.9-.5zm5.9-1c.4 0 .7.1 1 .2.3.1.5.3.8.5l-.6.8c-.2-.1-.4-.2-.5-.3-.2-.1-.4-.1-.6-.1-.8 0-1.2.6-1.2 1.8 0 .6.1 1.1.3 1.3.2.3.5.4.9.4.2 0 .4 0 .5-.1.2-.1.3-.2.6-.3l.6.8c-.5.4-1.1.6-1.7.6-.5 0-1-.1-1.3-.3-.4-.2-.7-.6-.9-1-.2-.4-.3-.9-.3-1.5s.1-1.1.3-1.5c.2-.4.5-.8.9-1 .3-.2.7-.3 1.2-.3zm5.9 5.5V310h-1.8v2.3h-1.3V307h1.3v2.1h1.8V307h1.3v5.4H114zm5-5.5c.8 0 1.4.3 1.9.8.4.5.7 1.2.7 2.1 0 .6-.1 1.1-.3 1.5-.2.4-.5.8-.9 1-.4.2-.8.4-1.4.4-.8 0-1.4-.3-1.9-.8-.4-.5-.7-1.2-.7-2.1 0-.6.1-1.1.3-1.5.2-.4.5-.8.9-1 .5-.3.9-.4 1.4-.4zm0 1c-.8 0-1.2.6-1.2 1.9 0 .6.1 1.1.3 1.4.2.3.5.5.9.5s.7-.2.9-.5c.2-.3.3-.8.3-1.4s-.1-1.1-.3-1.4c-.2-.4-.5-.5-.9-.5zm6.9 1.6c.9.1 1.4.5 1.4 1.3 0 .6-.2 1-.6 1.2-.4.3-1 .4-1.7.4h-2.1V307c.7-.1 1.4-.2 2-.2.7 0 1.2.1 1.7.4.4.3.6.6.6 1.1 0 .3-.1.6-.3.7-.4.2-.7.3-1 .4zm-1.2-1.7c-.2 0-.4 0-.7.1v1.4h.8c.6 0 .8-.2.8-.7.1-.6-.2-.8-.9-.8zm.2 3.7c.7 0 1-.3 1-.8 0-.3-.1-.4-.2-.6-.2-.1-.4-.2-.8-.2h-.8v1.6h.8zm5.3-2.7c.8 0 1.5.2 1.8.5s.6.8.6 1.4c0 .6-.2 1.1-.6 1.4-.4.3-.9.5-1.6.5h-1.9V307h1.3v1.7h.4zm.1 2.7c.7 0 1-.3 1-1 0-.3-.1-.6-.2-.7s-.4-.2-.8-.2h-.4v1.9h.4zm2.9-4.4h1.3v5.4h-1.3V307zm7.4 5.3h-1.3v-2.2c0-.4 0-.8.1-1.1 0-.3.1-.6.1-.8l-2 4.1h-1.4V307h1.3v2.2c0 .4 0 .7-.1 1.1 0 .4-.1.6-.1.8l2-4.1h1.4v5.3zm-2.2-6.4c-.5 0-.9-.1-1.2-.4-.3-.3-.5-.6-.5-1l.8-.2c.1.2.2.4.3.5.1.1.3.1.6.1.2 0 .4 0 .6-.1.1-.1.3-.3.3-.5l.8.2c0 .4-.2.8-.5 1-.4.2-.8.4-1.2.4z"/><g clip-path="url(#SVGID_232_)"><text transform="translate(141.398 312.34)" class="st77 st78 st79"></text></g><path class="st119" d="M147.4 307.3c.4 0 .7.1 1 .3.3.2.5.5.7.9.2.4.3.8.3 1.3 0 .6-.1 1-.3 1.4-.2.4-.5.7-.9.9-.4.2-.8.3-1.3.3-.8 0-1.4-.3-1.8-.8-.5-.5-.7-1.3-.7-2.4 0-.8.1-1.4.2-1.9s.3-.9.7-1.2c.3-.3.8-.6 1.3-.8.4-.1.7-.3 1-.4.2-.1.5-.2.8-.4l.5.9c-.2.2-.5.3-.8.4-.3.1-.6.2-1 .4-.3.1-.6.2-.7.4-.2.1-.3.3-.4.6-.1.2-.2.6-.2 1 .3-.6.8-.9 1.6-.9zm-.5 4.2c.3 0 .6-.1.8-.4.2-.2.3-.7.3-1.3 0-.6-.1-1-.2-1.2-.2-.2-.4-.4-.7-.4-.3 0-.5.1-.7.2-.2.1-.4.3-.6.6v.7c0 .6.1 1 .3 1.3.1.4.4.5.8.5zm5.9-4.7c.8 0 1.4.3 1.9.8.4.5.7 1.2.7 2.1 0 .6-.1 1.1-.3 1.5-.2.4-.5.8-.9 1-.4.2-.8.4-1.4.4-.8 0-1.4-.3-1.9-.8-.4-.5-.7-1.2-.7-2.1 0-.6.1-1.1.3-1.5.2-.4.5-.8.9-1 .4-.3.9-.4 1.4-.4zm0 1c-.8 0-1.2.6-1.2 1.9 0 .6.1 1.1.3 1.4.2.3.5.5.9.5s.7-.2.9-.5c.2-.3.3-.8.3-1.4s-.1-1.1-.3-1.4c-.2-.4-.5-.5-.9-.5zm6.5-1c.7 0 1.2.2 1.5.7.3.5.5 1.2.5 2.1 0 .6-.1 1.1-.2 1.5-.2.4-.4.8-.7 1-.3.2-.7.4-1.1.4-.6 0-1-.2-1.4-.6v2.5l-1.3.1V307h1.1l.1.7c.2-.3.5-.5.7-.6.3-.2.5-.3.8-.3zm-.5 4.7c.8 0 1.1-.6 1.1-1.9 0-.7-.1-1.1-.3-1.4-.2-.3-.4-.4-.8-.4-.2 0-.4.1-.6.2-.2.1-.4.3-.5.5v2.4c.4.4.7.6 1.1.6z"/></g><g><defs><path id="SVGID_233_" d="M193.1 225.3c3.5 0 6.4-2.8 6.4-6.1 0-3.4-2.9-6.1-6.4-6.1-3.5 0-6.4 2.8-6.4 6.1 0 3.4 2.9 6.1 6.4 6.1z"/></defs><clipPath id="SVGID_234_"><use xlink:href="#SVGID_233_" overflow="visible"/></clipPath><g clip-path="url(#SVGID_234_)"><defs><path id="SVGID_235_" d="M0 0h1200v602H0z"/></defs><clipPath id="SVGID_236_"><use xlink:href="#SVGID_235_" overflow="visible"/></clipPath><path clip-path="url(#SVGID_236_)" fill="#fff" d="M181.7 208h22.8v22.3h-22.8z"/></g></g><g><defs><path id="SVGID_237_" d="M192.9 221.8c1.5 0 2.7-1.2 2.7-2.7 0-1.5-1.2-2.7-2.7-2.7s-2.7 1.2-2.7 2.7c.1 1.4 1.3 2.7 2.7 2.7zm0 2.7c3 0 5.3-2.4 5.3-5.4s-2.4-5.4-5.3-5.4c-3 0-5.3 2.4-5.3 5.4s2.4 5.4 5.3 5.4zm.7 7.4c-.5.4-1 .4-1.3 0-4.9-5.7-7.3-10-7.3-12.9 0-4.5 3.6-8.2 8-8.2s8 3.7 8 8.2c0 2.9-2.5 7.2-7.4 12.9z"/></defs><clipPath id="SVGID_238_"><use xlink:href="#SVGID_237_" overflow="visible"/></clipPath><g clip-path="url(#SVGID_238_)"><defs><path id="SVGID_239_" d="M0 0h1200v602H0z"/></defs><clipPath id="SVGID_240_"><use xlink:href="#SVGID_239_" overflow="visible"/></clipPath><path clip-path="url(#SVGID_240_)" fill="#34b798" d="M179.9 205.9h26v31.3h-26z"/></g></g><g><defs><path id="SVGID_241_" d="M0 0h1200v602H0z"/></defs><clipPath id="SVGID_242_"><use xlink:href="#SVGID_241_" overflow="visible"/></clipPath><path d="M174.9 238.9c.5.1.9.3 1.2.5.3.3.4.7.4 1.2 0 .7-.3 1.3-.8 1.6-.5.3-1.2.5-2.2.5h-2.1v-7h1.8c1.9 0 2.9.6 2.9 1.8 0 .4-.1.8-.4 1-.2.1-.5.3-.8.4zm-2.1-2.3v1.9h.8c.4 0 .7-.1.9-.2.2-.2.3-.4.3-.7 0-.3-.1-.6-.3-.7-.2-.1-.6-.2-1.1-.2h-.6zm.7 5c.5 0 .9-.1 1.1-.2.3-.1.4-.4.4-.8s-.1-.7-.4-.9c-.2-.2-.6-.3-1-.3h-.9v2.2h.8zm8.2-4.4v5.4h-1.3v-2h-.9l-1 2H177l1.3-2.3c-.3-.1-.5-.3-.7-.6-.2-.2-.2-.5-.2-.9 0-.6.2-1 .6-1.3.4-.3 1-.4 1.8-.4h1.9zm-1.3 2.6v-1.7h-.7c-.7 0-1 .3-1 .8 0 .3.1.5.2.7.2.1.4.2.7.2h.8zm5.6-2.7c.7 0 1.2.2 1.5.7.3.5.5 1.2.5 2.1 0 .6-.1 1.1-.2 1.5-.2.4-.4.8-.7 1-.3.2-.7.4-1.1.4-.6 0-1-.2-1.4-.6v2.5l-1.3.1v-7.6h1.1l.1.7c.2-.3.5-.5.7-.6.3-.2.5-.2.8-.2zm-.5 4.7c.8 0 1.1-.6 1.1-1.9 0-.7-.1-1.1-.3-1.4-.2-.3-.4-.4-.8-.4-.2 0-.4.1-.6.2-.2.1-.4.3-.5.5v2.4c.4.4.7.6 1.1.6zm7.8-4.6l-.2 1h-1.6v4.4h-1.3v-4.4h-1.7v-1h4.8zm2.9-.1c.4 0 .7.1 1 .2.3.1.5.3.8.5l-.6.8c-.2-.1-.4-.2-.5-.3-.2-.1-.4-.1-.6-.1-.8 0-1.2.6-1.2 1.8 0 .6.1 1.1.3 1.3.2.3.5.4.9.4.2 0 .4 0 .5-.1.2-.1.3-.2.6-.3l.6.8c-.5.4-1.1.6-1.7.6-.5 0-1-.1-1.3-.3-.4-.2-.7-.6-.9-1-.2-.4-.3-.9-.3-1.5s.1-1.1.3-1.5c.2-.4.5-.8.9-1 .3-.2.7-.3 1.2-.3zm7.2 5.5h-1.3v-2.2c0-.4 0-.8.1-1.1 0-.3.1-.6.1-.8l-2 4.1h-1.4v-5.4h1.3v2.2c0 .4 0 .7-.1 1.1 0 .4-.1.6-.1.8l2-4.1h1.4v5.4zm5.8-5.4v5.4h-1.3v-4.4h-1.3l-.1 1.4c-.1.8-.1 1.3-.2 1.7-.1.4-.3.7-.5.9-.2.2-.6.4-1 .5l-.3-1c.2-.1.4-.2.5-.3.1-.1.2-.3.2-.6s.1-.7.1-1.3l.2-2.3h3.7zm5.7 0v5.4h-1.3v-2h-.9l-1 2h-1.4l1.3-2.3c-.3-.1-.5-.3-.7-.6-.2-.2-.2-.5-.2-.9 0-.6.2-1 .6-1.3.4-.3 1-.4 1.8-.4h1.8zm-1.3 2.6v-1.7h-.7c-.7 0-1 .3-1 .8 0 .3.1.5.2.7.2.1.4.2.7.2h.8z" clip-path="url(#SVGID_242_)" fill="#1c1d1d"/></g><g><defs><path id="SVGID_243_" d="M823.2 46.1c0 5-4.1 9.1-9.1 9.1s-9.1-4.1-9.1-9.1h-2.2c0 5-4.1 9.1-9.1 9.1s-9.1-4.1-9.1-9.1h-2.2c0 5-4.1 9.1-9.1 9.1s-9.1-4.1-9.1-9.1H762c0 5-4.1 9.1-9.1 9.1s-9.1-4.1-9.1-9.1h-2.2c0 6.2 5.1 11.3 11.3 11.3 4.5 0 8.4-2.7 10.2-6.5 1.8 3.8 5.7 6.5 10.2 6.5 4.5 0 8.4-2.7 10.2-6.5 1.8 3.8 5.7 6.5 10.2 6.5s8.4-2.7 10.2-6.5c1.8 3.8 5.7 6.5 10.2 6.5 6.2 0 11.3-5.1 11.3-11.3h-2.2z"/></defs><clipPath id="SVGID_244_"><use xlink:href="#SVGID_243_" overflow="visible"/></clipPath><g clip-path="url(#SVGID_244_)"><defs><path id="SVGID_245_" d="M0 0h1200v602H0z"/></defs><clipPath id="SVGID_246_"><use xlink:href="#SVGID_245_" overflow="visible"/></clipPath><path clip-path="url(#SVGID_246_)" fill="#cbd5db" d="M736.6 41.1h93.8v21.3h-93.8z"/></g></g><g><defs><path id="SVGID_247_" d="M112.5 71.6c0 5-4.1 9.1-9.1 9.1s-9.1-4.1-9.1-9.1h-2.2c0 5-4.1 9.1-9.1 9.1s-9.1-4.1-9.1-9.1h-2.2c0 5-4.1 9.1-9.1 9.1s-9.1-4.1-9.1-9.1h-2.2c0 5-4.1 9.1-9.1 9.1s-9.1-4.1-9.1-9.1h-2.2c0 6.2 5.1 11.3 11.3 11.3 4.5 0 8.4-2.7 10.2-6.5 1.8 3.8 5.7 6.5 10.2 6.5 4.5 0 8.4-2.7 10.2-6.5 1.8 3.8 5.7 6.5 10.2 6.5 4.5 0 8.4-2.7 10.2-6.5 1.8 3.8 5.7 6.5 10.2 6.5 6.2 0 11.3-5.1 11.3-11.3h-2.2z"/></defs><clipPath id="SVGID_248_"><use xlink:href="#SVGID_247_" overflow="visible"/></clipPath><g clip-path="url(#SVGID_248_)"><defs><path id="SVGID_249_" d="M0 0h1200v602H0z"/></defs><clipPath id="SVGID_250_"><use xlink:href="#SVGID_249_" overflow="visible"/></clipPath><path clip-path="url(#SVGID_250_)" fill="#cbd5db" d="M25.9 66.6h93.8v21.3H25.9z"/></g></g><g><defs><path id="SVGID_251_" d="M366 132.2c0 5-4.1 9.1-9.1 9.1s-9.1-4.1-9.1-9.1h-2.2c0 5-4.1 9.1-9.1 9.1s-9.1-4.1-9.1-9.1h-2.2c0 5-4.1 9.1-9.1 9.1s-9.1-4.1-9.1-9.1h-2.2c0 5-4.1 9.1-9.1 9.1s-9.1-4.1-9.1-9.1h-2.2c0 6.2 5.1 11.3 11.3 11.3 4.5 0 8.4-2.7 10.2-6.5 1.8 3.8 5.7 6.5 10.2 6.5 4.5 0 8.4-2.7 10.2-6.5 1.8 3.8 5.7 6.5 10.2 6.5 4.5 0 8.4-2.7 10.2-6.5 1.8 3.8 5.7 6.5 10.2 6.5 6.2 0 11.3-5.1 11.3-11.3H366z"/></defs><clipPath id="SVGID_252_"><use xlink:href="#SVGID_251_" overflow="visible"/></clipPath><g clip-path="url(#SVGID_252_)"><defs><path id="SVGID_253_" d="M0 0h1200v602H0z"/></defs><clipPath id="SVGID_254_"><use xlink:href="#SVGID_253_" overflow="visible"/></clipPath><path clip-path="url(#SVGID_254_)" fill="#cbd5db" d="M279.4 127.2h93.8v21.3h-93.8z"/></g></g><g><defs><path id="SVGID_255_" d="M1128.4 282.6c0 5-4.1 9.1-9.1 9.1s-9.1-4.1-9.1-9.1h-2.2c0 5-4.1 9.1-9.1 9.1s-9.1-4.1-9.1-9.1h-2.2c0 5-4.1 9.1-9.1 9.1s-9.1-4.1-9.1-9.1h-2.2c.6 8.6 6.8 11.3 11.3 11.3s8.4-2.7 10.2-6.5c1.8 3.8 5.7 6.5 10.2 6.5 4.5 0 8.4-2.7 10.2-6.5 1.8 3.8 5.7 6.5 10.2 6.5 6.2 0 11.3-5.1 11.3-11.3h-2.2z"/></defs><clipPath id="SVGID_256_"><use xlink:href="#SVGID_255_" overflow="visible"/></clipPath><g clip-path="url(#SVGID_256_)"><defs><path id="SVGID_257_" d="M0 0h1200v602H0z"/></defs><clipPath id="SVGID_258_"><use xlink:href="#SVGID_257_" overflow="visible"/></clipPath><path clip-path="url(#SVGID_258_)" fill="#cbd5db" d="M1062.2 277.6h73.4v21.3h-73.4z"/></g></g><g><defs><path id="SVGID_259_" d="M269.8 71.6c0 5-4.1 9.1-9.1 9.1s-9.1-4.1-9.1-9.1h-2.2c0 5-4.1 9.1-9.1 9.1s-9.1-4.1-9.1-9.1H229c0 5-4.1 9.1-9.1 9.1s-9.1-4.1-9.1-9.1h-2.2c.6 8.6 6.8 11.3 11.3 11.3 4.5 0 8.4-2.7 10.2-6.5 1.8 3.8 5.7 6.5 10.2 6.5 4.5 0 8.4-2.7 10.2-6.5 1.8 3.8 5.7 6.5 10.2 6.5 6.2 0 11.3-5.1 11.3-11.3h-2.2z"/></defs><clipPath id="SVGID_260_"><use xlink:href="#SVGID_259_" overflow="visible"/></clipPath><g clip-path="url(#SVGID_260_)"><defs><path id="SVGID_261_" d="M0 0h1200v602H0z"/></defs><clipPath id="SVGID_262_"><use xlink:href="#SVGID_261_" overflow="visible"/></clipPath><path clip-path="url(#SVGID_262_)" fill="#cbd5db" d="M203.6 66.6H277v21.3h-73.4z"/></g></g><g><defs><path id="SVGID_263_" d="M280.1 552.4c0 5-4.1 9.1-9.1 9.1s-9.1-4.1-9.1-9.1h-2.2c0 5-4.1 9.1-9.1 9.1s-9.1-4.1-9.1-9.1h-2.2c0 5-4.1 9.1-9.1 9.1s-9.1-4.1-9.1-9.1h-2.2c.6 8.6 6.8 11.3 11.3 11.3 4.5 0 8.4-2.7 10.2-6.5 1.8 3.8 5.7 6.5 10.2 6.5 4.5 0 8.4-2.7 10.2-6.5 1.8 3.8 5.7 6.5 10.2 6.5 6.2 0 11.3-5.1 11.3-11.3h-2.2z"/></defs><clipPath id="SVGID_264_"><use xlink:href="#SVGID_263_" overflow="visible"/></clipPath><g clip-path="url(#SVGID_264_)"><defs><path id="SVGID_265_" d="M0 0h1200v602H0z"/></defs><clipPath id="SVGID_266_"><use xlink:href="#SVGID_265_" overflow="visible"/></clipPath><path clip-path="url(#SVGID_266_)" fill="#cbd5db" d="M213.9 547.4h73.4v21.3h-73.4z"/></g></g><g><defs><path id="SVGID_267_" d="M102.4 554.8c0 5-4.1 9.1-9.1 9.1s-9.1-4.1-9.1-9.1H82c0 5-4.1 9.1-9.1 9.1s-9.1-4.1-9.1-9.1h-2.2c0 5-4.1 9.1-9.1 9.1s-9.1-4.1-9.1-9.1h-2.2c.6 8.6 6.8 11.3 11.3 11.3 4.5 0 8.4-2.7 10.2-6.5 1.8 3.8 5.7 6.5 10.2 6.5 4.5 0 8.4-2.7 10.2-6.5 1.8 3.8 5.7 6.5 10.2 6.5 6.2 0 11.3-5.1 11.3-11.3h-2.2z"/></defs><clipPath id="SVGID_268_"><use xlink:href="#SVGID_267_" overflow="visible"/></clipPath><g clip-path="url(#SVGID_268_)"><defs><path id="SVGID_269_" d="M0 0h1200v602H0z"/></defs><clipPath id="SVGID_270_"><use xlink:href="#SVGID_269_" overflow="visible"/></clipPath><path clip-path="url(#SVGID_270_)" fill="#cbd5db" d="M36.2 549.8h73.4v21.3H36.2z"/></g></g><g><defs><path id="SVGID_271_" d="M492.7 46.1c0 5-4.1 9.1-9.1 9.1s-9.1-4.1-9.1-9.1h-2.2c0 5-4.1 9.1-9.1 9.1s-9.1-4.1-9.1-9.1h-2.2c0 5-4.1 9.1-9.1 9.1s-9.1-4.1-9.1-9.1h-2.2c0 5-4.1 9.1-9.1 9.1s-9.1-4.1-9.1-9.1h-2.2c0 6.2 5.1 11.3 11.3 11.3 4.5 0 8.4-2.7 10.2-6.5 1.8 3.8 5.7 6.5 10.2 6.5 4.5 0 8.4-2.7 10.2-6.5 1.8 3.8 5.7 6.5 10.2 6.5 4.5 0 8.4-2.7 10.2-6.5 1.8 3.8 5.7 6.5 10.2 6.5 6.2 0 11.3-5.1 11.3-11.3h-2.2z"/></defs><clipPath id="SVGID_272_"><use xlink:href="#SVGID_271_" overflow="visible"/></clipPath><g clip-path="url(#SVGID_272_)"><defs><path id="SVGID_273_" d="M0 0h1200v602H0z"/></defs><clipPath id="SVGID_274_"><use xlink:href="#SVGID_273_" overflow="visible"/></clipPath><path clip-path="url(#SVGID_274_)" fill="#cbd5db" d="M406.1 41.1h93.8v21.3h-93.8z"/></g></g><g><defs><path id="SVGID_275_" d="M1058.1 40.1c0-4.6 8.2-26.1 31.8-26.1s31.7 22.1 31.7 32.6c7.5-3.8 23.2 5.3 23.2 20.1s-12.6 18-17.9 18h-76.8c-11.5-.4-19.3-5.3-23.3-14.5-6.1-14 7.9-41.3 31.3-30.1z"/></defs><clipPath id="SVGID_276_"><use xlink:href="#SVGID_275_" overflow="visible"/></clipPath><g clip-path="url(#SVGID_276_)"><defs><path id="SVGID_277_" d="M0 0h1200v602H0z"/></defs><clipPath id="SVGID_278_"><use xlink:href="#SVGID_277_" overflow="visible"/></clipPath><path clip-path="url(#SVGID_278_)" fill="#fff" d="M1020.4 8.9h129.4v80.7h-129.4z"/></g></g><g><defs><path id="SVGID_279_" d="M0 0h1200v602H0z"/></defs><clipPath id="SVGID_280_"><use xlink:href="#SVGID_279_" overflow="visible"/></clipPath><path d="M1058.1 40.1c0-4.6 8.2-26.1 31.8-26.1s31.7 22.1 31.7 32.6c7.5-3.8 23.2 5.3 23.2 20.1s-12.6 18-17.9 18h-76.8c-11.5-.4-19.3-5.3-23.3-14.5-6.1-14 7.9-41.3 31.3-30.1z" clip-path="url(#SVGID_280_)" fill="none" stroke="#b6c5ce" stroke-width="1.614" stroke-miterlimit="10"/></g><g><defs><path id="SVGID_281_" d="M438.4 520.3c0-4.6 8.2-26.1 31.8-26.1s31.7 22.1 31.7 32.6c7.5-3.8 23.2 5.3 23.2 20.1s-12.6 18-17.9 18h-76.8c-11.5-.4-19.3-5.3-23.3-14.5-6.1-13.9 7.9-41.3 31.3-30.1z"/></defs><clipPath id="SVGID_282_"><use xlink:href="#SVGID_281_" overflow="visible"/></clipPath><g clip-path="url(#SVGID_282_)"><defs><path id="SVGID_283_" d="M0 0h1200v602H0z"/></defs><clipPath id="SVGID_284_"><use xlink:href="#SVGID_283_" overflow="visible"/></clipPath><path clip-path="url(#SVGID_284_)" fill="#fff" d="M400.7 489.2h129.4v80.7H400.7z"/></g></g><g><defs><path id="SVGID_285_" d="M0 0h1200v602H0z"/></defs><clipPath id="SVGID_286_"><use xlink:href="#SVGID_285_" overflow="visible"/></clipPath><path d="M438.4 520.3c0-4.6 8.2-26.1 31.8-26.1s31.7 22.1 31.7 32.6c7.5-3.8 23.2 5.3 23.2 20.1s-12.6 18-17.9 18h-76.8c-11.5-.4-19.3-5.3-23.3-14.5-6.1-13.9 7.9-41.3 31.3-30.1z" clip-path="url(#SVGID_286_)" fill="none" stroke="#b6c5ce" stroke-width="1.614" stroke-miterlimit="10"/></g><g><defs><path id="SVGID_287_" d="M970 79.4c0-5.8 10.2-32.5 39.8-32.5 29.5 0 39.6 27.5 39.6 40.6 9.4-4.7 29 6.6 29 25.1S1062.6 135 1056 135h-96.1c-14.4-.5-24.1-6.6-29.1-18.1-7.7-17.4 9.9-51.4 39.2-37.5z"/></defs><clipPath id="SVGID_288_"><use xlink:href="#SVGID_287_" overflow="visible"/></clipPath><g clip-path="url(#SVGID_288_)"><defs><path id="SVGID_289_" d="M0 0h1200v602H0z"/></defs><clipPath id="SVGID_290_"><use xlink:href="#SVGID_289_" overflow="visible"/></clipPath><path clip-path="url(#SVGID_290_)" fill="#fff" d="M924 41.9h159.4v98H924z"/></g></g><g><defs><path id="SVGID_291_" d="M0 0h1200v602H0z"/></defs><clipPath id="SVGID_292_"><use xlink:href="#SVGID_291_" overflow="visible"/></clipPath><path d="M970 79.4c0-5.8 10.2-32.5 39.8-32.5 29.5 0 39.6 27.5 39.6 40.6 9.4-4.7 29 6.6 29 25.1S1062.6 135 1056 135h-96.1c-14.4-.5-24.1-6.6-29.1-18.1-7.7-17.4 9.9-51.4 39.2-37.5z" clip-path="url(#SVGID_292_)" fill="none" stroke="#b6c5ce" stroke-width="1.453" stroke-miterlimit="10"/></g><g><defs><path id="SVGID_293_" d="M728 224.1c0-5.8 10.2-32.5 39.8-32.5 29.5 0 39.6 27.5 39.6 40.6 9.4-4.7 29 6.6 29 25.1s-15.8 22.4-22.4 22.4h-96.1c-14.4-.5-24.1-6.6-29.1-18.1-7.6-17.3 9.9-51.4 39.2-37.5z"/></defs><clipPath id="SVGID_294_"><use xlink:href="#SVGID_293_" overflow="visible"/></clipPath><g clip-path="url(#SVGID_294_)"><defs><path id="SVGID_295_" d="M0 0h1200v602H0z"/></defs><clipPath id="SVGID_296_"><use xlink:href="#SVGID_295_" overflow="visible"/></clipPath><path clip-path="url(#SVGID_296_)" fill="#fff" d="M682 186.6h159.4v98H682z"/></g></g><g><defs><path id="SVGID_297_" d="M0 0h1200v602H0z"/></defs><clipPath id="SVGID_298_"><use xlink:href="#SVGID_297_" overflow="visible"/></clipPath><path d="M728 224.1c0-5.8 10.2-32.5 39.8-32.5 29.5 0 39.6 27.5 39.6 40.6 9.4-4.7 29 6.6 29 25.1s-15.8 22.4-22.4 22.4h-96.1c-14.4-.5-24.1-6.6-29.1-18.1-7.6-17.3 9.9-51.4 39.2-37.5z" clip-path="url(#SVGID_298_)" fill="none" stroke="#b6c5ce" stroke-width="1.453" stroke-miterlimit="10"/></g><g><defs><path id="SVGID_299_" d="M902.7 246.6c0-5.8-10.2-32.5-39.8-32.5-29.5 0-39.6 27.5-39.6 40.6-9.4-4.7-29 6.6-29 25.1s15.8 22.4 22.4 22.4h96.1c14.4-.5 24.1-6.6 29.1-18.1 7.7-17.4-9.9-51.4-39.2-37.5z"/></defs><clipPath id="SVGID_300_"><use xlink:href="#SVGID_299_" overflow="visible"/></clipPath><g clip-path="url(#SVGID_300_)"><defs><path id="SVGID_301_" d="M0 0h1200v602H0z"/></defs><clipPath id="SVGID_302_"><use xlink:href="#SVGID_301_" overflow="visible"/></clipPath><path clip-path="url(#SVGID_302_)" fill="#fff" d="M789.3 209h159.4v98H789.3z"/></g></g><g><defs><path id="SVGID_303_" d="M0 0h1200v602H0z"/></defs><clipPath id="SVGID_304_"><use xlink:href="#SVGID_303_" overflow="visible"/></clipPath><path d="M902.7 246.6c0-5.8-10.2-32.5-39.8-32.5-29.5 0-39.6 27.5-39.6 40.6-9.4-4.7-29 6.6-29 25.1s15.8 22.4 22.4 22.4h96.1c14.4-.5 24.1-6.6 29.1-18.1 7.7-17.4-9.9-51.4-39.2-37.5z" clip-path="url(#SVGID_304_)" fill="none" stroke="#b6c5ce" stroke-width="1.453" stroke-miterlimit="10"/></g><g><defs><path id="SVGID_305_" d="M1065.2 520.7c0-5.8 10.2-32.5 39.8-32.5 29.5 0 39.6 27.5 39.6 40.6 9.4-4.7 29 6.6 29 25.1s-15.8 22.4-22.4 22.4h-96.1c-14.4-.5-24.1-6.6-29.1-18.1-7.7-17.4 9.9-51.5 39.2-37.5z"/></defs><clipPath id="SVGID_306_"><use xlink:href="#SVGID_305_" overflow="visible"/></clipPath><g clip-path="url(#SVGID_306_)"><defs><path id="SVGID_307_" d="M0 0h1200v602H0z"/></defs><clipPath id="SVGID_308_"><use xlink:href="#SVGID_307_" overflow="visible"/></clipPath><path clip-path="url(#SVGID_308_)" fill="#fff" d="M1019.2 483.1h159.4v98h-159.4z"/></g></g><g><defs><path id="SVGID_309_" d="M0 0h1200v602H0z"/></defs><clipPath id="SVGID_310_"><use xlink:href="#SVGID_309_" overflow="visible"/></clipPath><path d="M1065.2 520.7c0-5.8 10.2-32.5 39.8-32.5s39.6 27.5 39.6 40.6c9.4-4.7 29 6.6 29 25.1s-15.8 22.4-22.4 22.4h-96.1c-14.4-.5-24.1-6.6-29.1-18.1-7.7-17.4 9.9-51.5 39.2-37.5z" clip-path="url(#SVGID_310_)" fill="none" stroke="#b6c5ce" stroke-width="1.453" stroke-miterlimit="10"/></g><g><defs><path id="SVGID_311_" d="M93.8 96.8c0-5.8 10.2-32.5 39.8-32.5s39.6 27.5 39.6 40.6c9.4-4.7 29 6.6 29 25.1s-15.8 22.4-22.4 22.4H83.7c-14.4-.5-24.1-6.6-29.1-18.1-7.7-17.4 9.9-51.4 39.2-37.5z"/></defs><clipPath id="SVGID_312_"><use xlink:href="#SVGID_311_" overflow="visible"/></clipPath><g clip-path="url(#SVGID_312_)"><defs><path id="SVGID_313_" d="M0 0h1200v602H0z"/></defs><clipPath id="SVGID_314_"><use xlink:href="#SVGID_313_" overflow="visible"/></clipPath><path clip-path="url(#SVGID_314_)" fill="#fff" d="M47.8 59.3h159.4v98H47.8z"/></g></g><g><defs><path id="SVGID_315_" d="M0 0h1200v602H0z"/></defs><clipPath id="SVGID_316_"><use xlink:href="#SVGID_315_" overflow="visible"/></clipPath><path d="M93.8 96.8c0-5.8 10.2-32.5 39.8-32.5 29.5 0 39.6 27.5 39.6 40.6 9.4-4.7 29 6.6 29 25.1s-15.8 22.4-22.4 22.4H83.7c-14.4-.5-24.1-6.6-29.1-18.1-7.7-17.4 9.9-51.4 39.2-37.5z" clip-path="url(#SVGID_316_)" fill="none" stroke="#b6c5ce" stroke-width="1.453" stroke-miterlimit="10"/></g><g><defs><path id="SVGID_317_" d="M185.5 282.7l-.1.1c-.6.5-1.6.5-2.2-.1-8.5-9.1-12.8-15.9-12.8-20.5 0-7.2 6.2-13 13.9-13s13.9 5.8 13.9 13c.1 4.6-4.2 11.4-12.7 20.5z"/></defs><clipPath id="SVGID_318_"><use xlink:href="#SVGID_317_" overflow="visible"/></clipPath><g clip-path="url(#SVGID_318_)"><defs><path id="SVGID_319_" d="M0 0h1200v602H0z"/></defs><clipPath id="SVGID_320_"><use xlink:href="#SVGID_319_" overflow="visible"/></clipPath><path clip-path="url(#SVGID_320_)" fill="#34b798" d="M165.4 244.2h37.9v44h-37.9z"/></g></g><g><defs><path id="SVGID_321_" d="M0 0h1200v602H0z"/></defs><clipPath id="SVGID_322_"><use xlink:href="#SVGID_321_" overflow="visible"/></clipPath><path class="st165" d="M140.5 284.1c.5 0 .9.1 1.3.2s.7.3 1.1.6l-.8.9c-.5-.4-1-.6-1.5-.6-.6 0-1.1.2-1.4.7-.4.5-.5 1.2-.5 2.2 0 1 .2 1.7.5 2.2.4.5.8.7 1.4.7.3 0 .6-.1.8-.2.2-.1.5-.3.8-.5l.7.9c-.3.3-.6.5-1 .7-.4.2-.9.3-1.4.3-.7 0-1.3-.2-1.8-.5s-.9-.8-1.2-1.4c-.3-.6-.4-1.4-.4-2.3 0-.9.2-1.6.5-2.2.3-.6.7-1.1 1.2-1.4.4-.1 1-.3 1.7-.3zm7.9 6.5c0 .2 0 .4.1.5.1.1.2.2.4.3l-.3 1c-.3 0-.6-.1-.8-.3-.2-.1-.4-.3-.5-.6-.2.3-.5.5-.8.7s-.7.2-1 .2c-.6 0-1.1-.2-1.4-.5-.4-.3-.5-.8-.5-1.4 0-.7.2-1.2.7-1.5.5-.3 1.2-.5 2.1-.5h.8v-.3c0-.4-.1-.7-.3-.8-.2-.2-.5-.2-.9-.2s-1 .1-1.6.3l-.3-1c.8-.3 1.5-.4 2.2-.4 1.6 0 2.3.7 2.3 2.1v2.4h-.2zm-2.6.7c.5 0 .9-.2 1.2-.7v-1.2h-.6c-1 0-1.4.4-1.4 1.1 0 .3.1.5.2.7.1.1.3.1.6.1zm8 .9v-2.5h-2.1v2.5h-1.5v-6.1h1.5v2.4h2.1v-2.4h1.5v6.1h-1.5zm8.3-6.1l-1.7 2.8 1.9 3.3h-1.6l-1.5-2.7h-.7v2.7H157v-6.1h1.5v2.4h.7l1.4-2.4h1.5zm5.6 0l-.2 1.1h-1.8v5h-1.5v-5h-1.9v-1.1h5.4z"/><g clip-path="url(#SVGID_322_)"><text transform="translate(167.618 292.239)" class="st77 st78" font-size="11.521">-</text></g><path class="st165" d="M179.1 284.3v8h-1.5v-6.8h-2.8v6.8h-1.5v-8h5.8zm6.8 4.7v.6H182c0 .6.2 1 .5 1.3.3.3.6.4 1 .4.3 0 .5 0 .8-.1.2-.1.5-.2.8-.4l.6.8c-.7.5-1.4.8-2.3.8-.9 0-1.6-.3-2.1-.9-.5-.6-.8-1.3-.8-2.3 0-.6.1-1.2.3-1.7.2-.5.5-.9.9-1.2.4-.3.9-.4 1.5-.4.9 0 1.5.3 2 .8.4.6.7 1.4.7 2.3zm-1.5-.4c0-1.1-.4-1.6-1.2-1.6-.4 0-.6.1-.8.4-.2.3-.3.7-.4 1.3l2.4-.1zm7.3-2.5l-.2 1.1h-1.8v5h-1.5v-5h-1.9v-1.1h5.4zm5.8 2.9v.6h-3.8c0 .6.2 1 .5 1.3.3.3.6.4 1 .4.3 0 .5 0 .8-.1.2-.1.5-.2.8-.4l.6.8c-.7.5-1.4.8-2.3.8-.9 0-1.6-.3-2.1-.9-.5-.6-.8-1.3-.8-2.3 0-.6.1-1.2.3-1.7.2-.5.5-.9.9-1.2.4-.3.9-.4 1.5-.4.9 0 1.5.3 2 .8.4.6.6 1.4.6 2.3zm-1.4-.4c0-1.1-.4-1.6-1.2-1.6-.4 0-.6.1-.8.4-.2.3-.3.7-.4 1.3l2.4-.1zm5.9-2.6c.8 0 1.3.3 1.7.8.4.6.6 1.3.6 2.4 0 .6-.1 1.2-.3 1.7-.2.5-.5.9-.8 1.1-.4.3-.8.4-1.3.4-.6 0-1.2-.2-1.5-.7v2.8l-1.5.2v-8.6h1.3l.1.7c.2-.3.5-.5.8-.7.3-.1.6-.1.9-.1zm-.5 5.3c.9 0 1.3-.7 1.3-2.1 0-.7-.1-1.3-.3-1.6-.2-.3-.5-.5-.9-.5-.2 0-.5.1-.7.2-.2.1-.4.4-.6.6v2.7c.3.5.7.7 1.2.7zm7.2-4.8c.4 0 .8.1 1.2.3.3.2.6.5.8 1s.3.9.3 1.5-.1 1.2-.4 1.6c-.2.5-.6.8-1 1-.4.2-.9.4-1.5.4-.9 0-1.6-.3-2.1-.9-.5-.6-.8-1.5-.8-2.7 0-.9.1-1.6.2-2.2.1-.6.4-1 .7-1.4.4-.4.8-.7 1.5-.9.5-.2.8-.3 1.1-.4.3-.1.6-.3.9-.5l.6 1c-.3.2-.6.3-.9.5-.3.1-.7.3-1.1.4-.4.1-.6.2-.8.4-.2.2-.4.4-.5.7-.1.3-.2.7-.3 1.1.6-.5 1.3-.9 2.1-.9zm-.5 4.8c.4 0 .7-.1.9-.4.2-.3.3-.8.3-1.5 0-.6-.1-1.1-.3-1.4-.2-.3-.5-.4-.8-.4-.3 0-.6.1-.8.2-.2.2-.5.4-.6.7v.8c0 .6.1 1.1.3 1.4.2.4.6.6 1 .6zm7.1 1c-.2.8-.6 1.3-1.1 1.8-.5.4-1.2.7-2.1.7l-.1-1.1c.4-.1.7-.1 1-.3.2-.1.4-.3.6-.4.1-.2.3-.4.4-.7h-.5l-1.9-6.1h1.6l1.3 5.1 1.4-5.1h1.5l-2.1 6.1zm6.1-6.3c.8 0 1.3.3 1.7.8.4.6.6 1.3.6 2.4 0 .6-.1 1.2-.3 1.7-.2.5-.5.9-.8 1.1-.4.3-.8.4-1.3.4-.6 0-1.2-.2-1.5-.7v2.8l-1.5.2v-8.6h1.3l.1.7c.2-.3.5-.5.8-.7.2-.1.5-.1.9-.1zm-.6 5.3c.9 0 1.3-.7 1.3-2.1 0-.7-.1-1.3-.3-1.6-.2-.3-.5-.5-.9-.5-.2 0-.5.1-.7.2-.2.1-.4.4-.6.6v2.7c.4.5.7.7 1.2.7zm5.7.9H225v-6.1h4.1l-.2 1.2h-2.4v4.9z"/></g><g><defs><path id="SVGID_323_" d="M190.9 262.3c0-.5.2-1 .6-1.2.4-.2.8-.1 1.1.3.3.4.4.9.2 1.4-.2.5-.5.8-.9.8-.3 0-.5-.1-.7-.4-.2-.2-.3-.6-.3-.9zm2.8-1.4c-.6-1-1.7-1.4-2.8-1.1-1.1.3-1.8 1.3-1.8 2.5s.7 2.2 1.8 2.5c1.1.3 2.2-.1 2.8-1.1l1.1.7c-.7 1.2-2 1.9-3.3 1.9-2.2 0-4-1.7-4-4 0-2.2 1.8-4 4-4 1.3 0 2.6.7 3.3 1.9l-1.1.7zm-9.5 4c-.7 0-1.4-.3-1.9-.8l-.8 1.1c.7.6 1.7 1 2.6 1 1.5 0 2.7-1.1 2.7-2.4 0-1.2-.9-2-2-2.3l-1.1-.3c-1.2-.4-.7-1.6.4-1.6.6 0 1.2.2 1.7.6l.7-1.1c-.7-.6-1.5-.9-2.4-.9-1.3 0-2.5 1-2.5 2.2 0 1.1.7 1.8 1.7 2.1l1.2.3c1.6.6 1 2.1-.3 2.1zm-3.2-6.5v3h-3.1l1-1c-.8-.8-2-.9-3-.4s-1.5 1.5-1.4 2.6c.1 1.1.9 2 2 2.2 1.1.2 2.2-.2 2.8-1.1l1.2.7c-.7 1.2-2 1.9-3.4 1.9-2.3 0-4.1-1.7-4.1-4 0-2.2 1.8-4 4.1-4 1 0 2 .4 2.8 1.1l1.1-1z"/></defs><clipPath id="SVGID_324_"><use xlink:href="#SVGID_323_" overflow="visible"/></clipPath><g clip-path="url(#SVGID_324_)"><defs><path id="SVGID_325_" d="M0 0h1200v602H0z"/></defs><clipPath id="SVGID_326_"><use xlink:href="#SVGID_325_" overflow="visible"/></clipPath><path clip-path="url(#SVGID_326_)" fill="#fff" d="M168 253.3h31.8v17.9H168z"/></g></g></svg>