<svg width="1979" height="992" xmlns="http://www.w3.org/2000/svg"><g fill="none" fill-rule="evenodd"><path d="M142.211 822h0c-2.442 0-4.812-.694-6.721-1.966l-45.099-30.068C88.482 788.693 86.112 788 83.67 788H26.18c-3.823 0-7.36 1.691-9.292 4.444l-10.41 14.823c-2.017 2.873-1.966 6.442.132 9.274l11.789 15.918c1.052 1.42 1.61 3.058 1.61 4.728v18.341c0 3.207 2.045 6.17 5.367 7.778l36.116 17.481c4.279 2.07 9.697 1.443 13.138-1.522l59.437-33.324a10.701 10.701 0 012.17-1.441l11.539-5.813c9.34-4.705 5.344-16.688-5.565-16.688z" stroke="#B6C5CE" stroke-width="2" fill="#ECF0F2"/><g fill="#ECF0F2" stroke="#B6C5CE" stroke-width="2"><path d="M247.514 739.491l-63.076-82.544a16.744 16.744 0 01-3.261-12.594l11.576-78.892a16.735 16.735 0 00-4.172-13.685 16.74 16.74 0 01-1.896-19.978l43.892-71.891a16.74 16.74 0 0114.287-8.016h5.89a16.74 16.74 0 0013.207-6.456l141.188-181.341a16.739 16.739 0 0113.207-6.456h27.971a16.736 16.736 0 0114.153 7.8l27.7 43.86a16.738 16.738 0 01-.109 18.048l-12.576 19.389c-5.371 8.279-16.703 10.139-24.438 4.01l-20.042-15.878c-9.66-7.651-23.994-2.597-26.719 9.42l-6.653 29.34a16.736 16.736 0 002.389 12.974l3.25 4.886a16.739 16.739 0 0018.797 6.744L633.95 333.94a4.89 4.89 0 012.18-.15l56.722 8.968a4.884 4.884 0 004.946-2.306l10.603-17.628a4.881 4.881 0 016.967-1.495l55.584 38.565a4.883 4.883 0 006.167-.49l13.59-13.064a4.882 4.882 0 00.448-6.545l-15.038-19.051a4.883 4.883 0 01-.574-5.128l30.992-64.966a4.883 4.883 0 016.087-2.482l20.325 7.449c2.868 1.051 4.077 4.449 2.518 7.075l-14.76 24.868a4.88 4.88 0 00-.651 1.933l-10.74 93.227c-.405 3.523 2.961 6.29 6.339 5.209l19.417-6.216a4.882 4.882 0 003.394-4.65v-85.054a4.881 4.881 0 013.38-4.645l42.458-13.731a4.884 4.884 0 015.743 2.223l21.76 38.1a4.882 4.882 0 006.819 1.724l12.162-7.568a4.881 4.881 0 001.216-7.217l-40.363-49.856a4.882 4.882 0 011.312-7.277l165.327-97.576a4.887 4.887 0 014.244-.349l56.205 21.763a4.88 4.88 0 012.782 6.335l-23.26 59.314c-1.701 4.342 3.073 8.372 7.068 5.963l45.253-27.288a4.879 4.879 0 012.053-.679l113.016-10.883a4.886 4.886 0 013.78 1.273l31.3 28.9a4.883 4.883 0 005.155.933l71.54-29.168a4.883 4.883 0 002.347-7.027l-11.074-18.515c-1.946-3.254.399-7.388 4.19-7.388h123.757c.912 0 1.805-.255 2.58-.737l36.811-22.912a4.88 4.88 0 012.58-.738h51.256a4.89 4.89 0 001.584-.264l85.103-29.178c4.178-1.433 4.457-7.236.435-9.063l-4.615-2.097c-4.054-1.84-3.73-7.702.502-9.086l219.545-71.75a4.882 4.882 0 014.115.507l31.796 19.99c3.462 2.175 2.876 7.387-.982 8.74l-68.674 24.083a4.883 4.883 0 00-3.267 4.607v26.009a4.882 4.882 0 004.011 4.803l68.51 12.425c3.837.696 5.35 5.387 2.643 8.194l-23.202 24.056a4.883 4.883 0 00-1.368 3.39v49.723c0 .839-.217 1.664-.628 2.395l-32.84 58.316a4.88 4.88 0 00-.513 3.453l9.459 42.623a4.886 4.886 0 001.464 2.538l73.785 67.787a4.885 4.885 0 011.578 3.596v10.58c0 .322.032.645.096.96l13.668 68.12c.816 4.068-3.49 7.235-7.13 5.244l-92.044-50.357a4.888 4.888 0 01-1.966-1.989l-31.997-60.089a4.884 4.884 0 01-.573-2.295V260.065a4.88 4.88 0 00-1.934-3.892l-29.756-22.543a4.883 4.883 0 00-2.948-.99h-5.754c-3.29 0-5.639 3.19-4.662 6.332l12.448 40.009c1.204 3.87-2.557 7.436-6.357 6.028l-29.038-10.756a4.882 4.882 0 00-6.399 3.27l-7.402 26.574a4.881 4.881 0 00-.095 2.209l9.788 52.25a4.884 4.884 0 01-2.612 5.264l-118.698 59.455a4.881 4.881 0 00-2.695 4.365v125.11a4.881 4.881 0 004.882 4.882h86.852c1.747 0 3.36.934 4.231 2.448l58.211 101.174c.351.61.566 1.29.63 1.992l8.21 90.097c.067.72-.029 1.445-.278 2.124l-30.592 83.42c-1.153 3.146-5.06 4.222-7.66 2.11l-39.962-32.442a4.88 4.88 0 01-.12-7.479l19.286-16.72a4.881 4.881 0 001.53-4.908l-19.441-75.347a4.883 4.883 0 00-4.728-3.662h-7.383c-1.74 0-3.348.926-4.222 2.43l-21.016 36.177a4.883 4.883 0 01-6.763 1.716l-145.529-88.71a4.875 4.875 0 00-2.54-.715h-61.111a4.882 4.882 0 00-4.867 4.499l-8.459 107.417a4.882 4.882 0 01-4.866 4.5h-54.851a4.884 4.884 0 00-3.538 1.517l-32.436 34.1a4.881 4.881 0 01-3.537 1.517h-121.092a4.884 4.884 0 01-4.029-2.124l-22.509-32.886a4.883 4.883 0 00-4.028-2.125h-52.227c-3.332 0-5.685 3.263-4.633 6.424l14.48 43.5a4.883 4.883 0 01-3.412 6.27l-39.356 10.159a4.88 4.88 0 01-3.866-.623l-41.539-26.774a4.881 4.881 0 00-5.534.169l-64.03 47.018a4.882 4.882 0 01-2.889.947h-36.881c-1.27 0-2.49-.495-3.4-1.38l-30.33-29.445a4.88 4.88 0 00-3.4-1.38h-42.719a4.881 4.881 0 01-4.138-2.291l-46.744-74.695a4.883 4.883 0 00-4.139-2.293H795.59a4.88 4.88 0 01-3.016-1.044l-51.641-40.589a4.881 4.881 0 00-3.697-.996L625.103 716.49a4.882 4.882 0 00-3.893 3.124l-23.055 61.594a4.877 4.877 0 01-1.378 1.982l-13.747 11.886c-6.457 5.583-16.082 5.413-22.337-.396l-10.24-9.507a16.73 16.73 0 00-6.98-3.881l-47.132-12.874a16.725 16.725 0 01-4.573-2.024l-29.902-19.021a16.74 16.74 0 00-13.515-1.991l-74.355 20.908a16.739 16.739 0 00-8.562 5.685l-19.983 25.086a16.738 16.738 0 00-2.294 17.022l19.923 46.499c3.281 7.657.432 16.562-6.684 20.893l-29.436 17.91a16.74 16.74 0 00-8.037 14.3v43.34c0 13.946-16.054 21.777-27.045 13.19l-95.484-74.594a16.736 16.736 0 01-4.102-4.668l-26.66-45.064a16.74 16.74 0 012.647-20.435l42.183-41.644a16.77 16.77 0 013.21-2.478l29.093-17.289c8.61-5.115 10.83-16.596 4.75-24.553z"/><path d="M649.703 267.687l21.166 23.965a4.882 4.882 0 003.66 1.65h14.423c3.438 0 5.798-3.457 4.547-6.658l-7.636-19.544a4.88 4.88 0 01.786-4.89l42.78-51.675a4.89 4.89 0 012.067-1.465l79.749-29.483a4.882 4.882 0 003.19-4.58v-8.353c0-3.273-3.16-5.62-6.294-4.674l-93.567 28.235a4.88 4.88 0 00-2.218 1.408l-62.622 69.566a4.883 4.883 0 00-.031 6.498zM1741.96 524.963l111.733 165.023c2.698 3.985 8.925 2.075 8.925-2.737 0-3.328 3.255-5.68 6.414-4.636l12.023 3.975c4.342 1.436 8.097-3.35 5.67-7.226l-10.515-16.794a4.883 4.883 0 00-4.138-2.292h-19.22a4.88 4.88 0 01-3.934-1.991l-19.706-26.824c-2.369-3.224-.067-7.772 3.935-7.772h14.891c4.685 0 6.68-5.959 2.94-8.78l-62.115-46.858a4.88 4.88 0 01-1.377-1.617l-24.548-46.487a4.883 4.883 0 00-4.317-2.603h-12.618c-3.915 0-6.237 4.378-4.042 7.62z"/></g><g transform="translate(277.975 557.734)"><ellipse fill="#FFF" cx="13.525" cy="13.716" rx="10.519" ry="10.138"/><path d="M14.329 34.674a1.45 1.45 0 01-2.208 0C4.04 25.294 0 18.229 0 13.478 0 6.034 5.92 0 13.224 0S26.45 6.034 26.45 13.478c0 4.75-4.04 11.816-12.12 21.196zm-1.105-12.21c4.87 0 8.817-4.023 8.817-8.986 0-4.962-3.948-8.985-8.817-8.985s-8.816 4.023-8.816 8.985c0 4.963 3.947 8.985 8.816 8.985zm0-4.493c2.435 0 4.409-2.012 4.409-4.493 0-2.481-1.974-4.493-4.409-4.493-2.434 0-4.408 2.012-4.408 4.493 0 2.481 1.974 4.493 4.408 4.493z" fill="#33B899"/></g><text font-family="FiraSans-Medium, Fira Sans" font-size="16.8" font-weight="400" fill="#1D1D1D" transform="translate(183 547)"><tspan x="79.226" y="61.67">Москва</tspan></text><g transform="translate(1720.975 661.734)"><ellipse fill="#FFF" cx="13.525" cy="13.716" rx="10.519" ry="10.138"/><path d="M14.329 34.674a1.45 1.45 0 01-2.208 0C4.04 25.294 0 18.229 0 13.478 0 6.034 5.92 0 13.224 0S26.45 6.034 26.45 13.478c0 4.75-4.04 11.816-12.12 21.196zm-1.105-12.21c4.87 0 8.817-4.023 8.817-8.986 0-4.962-3.948-8.985-8.817-8.985s-8.816 4.023-8.816 8.985c0 4.963 3.947 8.985 8.816 8.985zm0-4.493c2.435 0 4.409-2.012 4.409-4.493 0-2.481-1.974-4.493-4.409-4.493-2.434 0-4.408 2.012-4.408 4.493 0 2.481 1.974 4.493 4.408 4.493z" fill="#33B899"/></g><text font-family="FiraSans-Medium, Fira Sans" font-size="16.8" font-weight="400" fill="#1D1D1D" transform="translate(1626 651)"><tspan x="66.643" y="61.67">Хабаровск</tspan></text><text transform="translate(859 696)" fill="#1D1D1D" font-family="FiraSans-Medium, Fira Sans" font-size="19" font-weight="400"><tspan x=".097" y="23.862">Новосибирск</tspan></text><path d="M919.92 704.189c-.073.078-.15.15-.234.219-1.06.868-2.675.77-3.606-.219-14.053-14.93-21.08-26.175-21.08-33.737C895 658.605 905.297 649 918 649s23 9.605 23 21.452c0 7.562-7.027 18.808-21.08 33.737z" fill="#33B899"/><path d="M913.09 664.161v5.024h-5.058l1.715-1.7a4.29 4.29 0 00-4.874-.736 4.258 4.258 0 00-2.333 4.327 4.267 4.267 0 003.307 3.642 4.285 4.285 0 004.554-1.88l1.952 1.201a6.6 6.6 0 01-5.588 3.052c-3.736-.016-6.765-2.856-6.765-6.553s3.03-6.538 6.765-6.538a6.626 6.626 0 014.61 1.86l1.716-1.699zm5.395 10.667c-1.131.032-2.23-.413-3.061-1.24l-1.242 1.882c1.215 1.071 2.742 1.645 4.311 1.62 2.409.05 4.461-1.734 4.415-3.903 0-2.035-1.437-3.27-3.233-3.754l-1.863-.518c-2.05-.62-1.132-2.618.684-2.618.996-.031 1.97.317 2.751.983l1.224-1.861a6.2 6.2 0 00-3.986-1.418c-2.19-.05-4.15 1.62-4.102 3.624 0 1.75 1.15 2.984 2.857 3.468l1.99.55c2.394.7 1.413 3.185-.745 3.185zm15.609-6.553c-.986-1.606-2.884-2.347-4.657-1.819-1.772.528-2.992 2.198-2.992 4.097 0 1.9 1.22 3.57 2.992 4.097 1.773.528 3.67-.213 4.657-1.818l1.89 1.204c-1.179 1.91-3.23 3.064-5.429 3.055-3.62 0-6.555-2.84-6.555-6.544 0-3.703 2.95-6.547 6.57-6.547 2.199-.004 4.247 1.148 5.43 3.055l-1.906 1.22zm-4.64 2.28c-.003-.883.394-1.681 1.005-2.022.612-.341 1.317-.157 1.786.466.47.623.611 1.563.358 2.38-.252.816-.85 1.348-1.512 1.348-.433.002-.849-.226-1.156-.633-.307-.408-.48-.96-.48-1.538z" fill="#FFF"/><g transform="translate(985.975 693.734)"><ellipse fill="#FFF" cx="13.525" cy="13.716" rx="10.519" ry="10.138"/><path d="M14.329 34.674a1.45 1.45 0 01-2.208 0C4.04 25.294 0 18.229 0 13.478 0 6.034 5.92 0 13.224 0S26.45 6.034 26.45 13.478c0 4.75-4.04 11.816-12.12 21.196zm-1.105-12.21c4.87 0 8.817-4.023 8.817-8.986 0-4.962-3.948-8.985-8.817-8.985s-8.816 4.023-8.816 8.985c0 4.963 3.947 8.985 8.816 8.985zm0-4.493c2.435 0 4.409-2.012 4.409-4.493 0-2.481-1.974-4.493-4.409-4.493-2.434 0-4.408 2.012-4.408 4.493 0 2.481 1.974 4.493 4.408 4.493z" fill="#33B899"/></g><text font-family="FiraSans-Medium, Fira Sans" font-size="16.8" font-weight="400" fill="#1D1D1D" transform="translate(891 683)"><tspan x="74.824" y="61.67">Искитим</tspan></text><g transform="translate(960.975 596.734)"><ellipse fill="#FFF" cx="13.525" cy="13.716" rx="10.519" ry="10.138"/><path d="M14.329 34.674a1.45 1.45 0 01-2.208 0C4.04 25.294 0 18.229 0 13.478 0 6.034 5.92 0 13.224 0S26.45 6.034 26.45 13.478c0 4.75-4.04 11.816-12.12 21.196zm-1.105-12.21c4.87 0 8.817-4.023 8.817-8.986 0-4.962-3.948-8.985-8.817-8.985s-8.816 4.023-8.816 8.985c0 4.963 3.947 8.985 8.816 8.985zm0-4.493c2.435 0 4.409-2.012 4.409-4.493 0-2.481-1.974-4.493-4.409-4.493-2.434 0-4.408 2.012-4.408 4.493 0 2.481 1.974 4.493 4.408 4.493z" fill="#33B899"/></g><text font-family="FiraSans-Medium, Fira Sans" font-size="16.8" font-weight="400" fill="#1D1D1D" transform="translate(866 586)"><tspan x="84.997" y="61.67">Томск</tspan></text><g transform="translate(1214.975 704.734)"><ellipse fill="#FFF" cx="13.525" cy="13.716" rx="10.519" ry="10.138"/><path d="M14.329 34.674a1.45 1.45 0 01-2.208 0C4.04 25.294 0 18.229 0 13.478 0 6.034 5.92 0 13.224 0S26.45 6.034 26.45 13.478c0 4.75-4.04 11.816-12.12 21.196zm-1.105-12.21c4.87 0 8.817-4.023 8.817-8.986 0-4.962-3.948-8.985-8.817-8.985s-8.816 4.023-8.816 8.985c0 4.963 3.947 8.985 8.816 8.985zm0-4.493c2.435 0 4.409-2.012 4.409-4.493 0-2.481-1.974-4.493-4.409-4.493-2.434 0-4.408 2.012-4.408 4.493 0 2.481 1.974 4.493 4.408 4.493z" fill="#33B899"/></g><text font-family="FiraSans-Medium, Fira Sans" font-size="16.8" font-weight="400" fill="#1D1D1D" transform="translate(1120 694)"><tspan x="76.933" y="61.67">Ангарск</tspan></text><g transform="translate(910.975 737.734)"><ellipse fill="#FFF" cx="13.525" cy="13.716" rx="10.519" ry="10.138"/><path d="M14.329 34.674a1.45 1.45 0 01-2.208 0C4.04 25.294 0 18.229 0 13.478 0 6.034 5.92 0 13.224 0S26.45 6.034 26.45 13.478c0 4.75-4.04 11.816-12.12 21.196zm-1.105-12.21c4.87 0 8.817-4.023 8.817-8.986 0-4.962-3.948-8.985-8.817-8.985s-8.816 4.023-8.816 8.985c0 4.963 3.947 8.985 8.816 8.985zm0-4.493c2.435 0 4.409-2.012 4.409-4.493 0-2.481-1.974-4.493-4.409-4.493-2.434 0-4.408 2.012-4.408 4.493 0 2.481 1.974 4.493 4.408 4.493z" fill="#33B899"/></g><text font-family="FiraSans-Medium, Fira Sans" font-size="16.8" font-weight="400" fill="#1D1D1D" transform="translate(816 727)"><tspan x="75.37" y="61.67">Барнаул</tspan></text><g transform="translate(277.975 636.734)"><ellipse fill="#FFF" cx="13.525" cy="13.716" rx="10.519" ry="10.138"/><path d="M14.329 34.674a1.45 1.45 0 01-2.208 0C4.04 25.294 0 18.229 0 13.478 0 6.034 5.92 0 13.224 0S26.45 6.034 26.45 13.478c0 4.75-4.04 11.816-12.12 21.196zm-1.105-12.21c4.87 0 8.817-4.023 8.817-8.986 0-4.962-3.948-8.985-8.817-8.985s-8.816 4.023-8.816 8.985c0 4.963 3.947 8.985 8.816 8.985zm0-4.493c2.435 0 4.409-2.012 4.409-4.493 0-2.481-1.974-4.493-4.409-4.493-2.434 0-4.408 2.012-4.408 4.493 0 2.481 1.974 4.493 4.408 4.493z" fill="#33B899"/></g><text font-family="FiraSans-Medium, Fira Sans" font-size="16.8" font-weight="400" fill="#1D1D1D" transform="translate(183 626)"><tspan x="78.999" y="61.67">Липецк</tspan></text><g transform="translate(184.975 856.734)"><ellipse fill="#FFF" cx="13.525" cy="13.716" rx="10.519" ry="10.138"/><path d="M14.329 34.674a1.45 1.45 0 01-2.208 0C4.04 25.294 0 18.229 0 13.478 0 6.034 5.92 0 13.224 0S26.45 6.034 26.45 13.478c0 4.75-4.04 11.816-12.12 21.196zm-1.105-12.21c4.87 0 8.817-4.023 8.817-8.986 0-4.962-3.948-8.985-8.817-8.985s-8.816 4.023-8.816 8.985c0 4.963 3.947 8.985 8.816 8.985zm0-4.493c2.435 0 4.409-2.012 4.409-4.493 0-2.481-1.974-4.493-4.409-4.493-2.434 0-4.408 2.012-4.408 4.493 0 2.481 1.974 4.493 4.408 4.493z" fill="#33B899"/></g><text font-family="FiraSans-Medium, Fira Sans" font-size="16.8" font-weight="400" fill="#1D1D1D" transform="translate(90 846)"><tspan x="89.197" y="61.67">Сочи</tspan></text><g transform="translate(309.975 734.734)"><ellipse fill="#FFF" cx="13.525" cy="13.716" rx="10.519" ry="10.138"/><path d="M14.329 34.674a1.45 1.45 0 01-2.208 0C4.04 25.294 0 18.229 0 13.478 0 6.034 5.92 0 13.224 0S26.45 6.034 26.45 13.478c0 4.75-4.04 11.816-12.12 21.196zm-1.105-12.21c4.87 0 8.817-4.023 8.817-8.986 0-4.962-3.948-8.985-8.817-8.985s-8.816 4.023-8.816 8.985c0 4.963 3.947 8.985 8.816 8.985zm0-4.493c2.435 0 4.409-2.012 4.409-4.493 0-2.481-1.974-4.493-4.409-4.493-2.434 0-4.408 2.012-4.408 4.493 0 2.481 1.974 4.493 4.408 4.493z" fill="#33B899"/></g><text font-family="FiraSans-Medium, Fira Sans" font-size="16.8" font-weight="400" fill="#1D1D1D" transform="translate(215 724)"><tspan x="67.222" y="61.67">Волгоград</tspan></text><g transform="translate(50.975 841.734)"><ellipse fill="#FFF" cx="13.525" cy="13.716" rx="10.519" ry="10.138"/><path d="M14.329 34.674a1.45 1.45 0 01-2.208 0C4.04 25.294 0 18.229 0 13.478 0 6.034 5.92 0 13.224 0S26.45 6.034 26.45 13.478c0 4.75-4.04 11.816-12.12 21.196zm-1.105-12.21c4.87 0 8.817-4.023 8.817-8.986 0-4.962-3.948-8.985-8.817-8.985s-8.816 4.023-8.816 8.985c0 4.963 3.947 8.985 8.816 8.985zm0-4.493c2.435 0 4.409-2.012 4.409-4.493 0-2.481-1.974-4.493-4.409-4.493-2.434 0-4.408 2.012-4.408 4.493 0 2.481 1.974 4.493 4.408 4.493z" fill="#33B899"/></g><text font-family="FiraSans-Medium, Fira Sans" font-size="16.8" font-weight="400" fill="#1D1D1D" transform="translate(-44 831)"><tspan x="90.112" y="61.67">Ялта</tspan></text><g transform="translate(612.975 604.734)"><ellipse fill="#FFF" cx="13.525" cy="13.716" rx="10.519" ry="10.138"/><path d="M14.329 34.674a1.45 1.45 0 01-2.208 0C4.04 25.294 0 18.229 0 13.478 0 6.034 5.92 0 13.224 0S26.45 6.034 26.45 13.478c0 4.75-4.04 11.816-12.12 21.196zm-1.105-12.21c4.87 0 8.817-4.023 8.817-8.986 0-4.962-3.948-8.985-8.817-8.985s-8.816 4.023-8.816 8.985c0 4.963 3.947 8.985 8.816 8.985zm0-4.493c2.435 0 4.409-2.012 4.409-4.493 0-2.481-1.974-4.493-4.409-4.493-2.434 0-4.408 2.012-4.408 4.493 0 2.481 1.974 4.493 4.408 4.493z" fill="#33B899"/></g><text font-family="FiraSans-Medium, Fira Sans" font-size="16.8" font-weight="400" fill="#1D1D1D" transform="translate(518 594)"><tspan x="53.799" y="61.67">Екатеринбург</tspan></text><g transform="translate(802.975 516.734)"><ellipse fill="#FFF" cx="13.525" cy="13.716" rx="10.519" ry="10.138"/><path d="M14.329 34.674a1.45 1.45 0 01-2.208 0C4.04 25.294 0 18.229 0 13.478 0 6.034 5.92 0 13.224 0S26.45 6.034 26.45 13.478c0 4.75-4.04 11.816-12.12 21.196zm-1.105-12.21c4.87 0 8.817-4.023 8.817-8.986 0-4.962-3.948-8.985-8.817-8.985s-8.816 4.023-8.816 8.985c0 4.963 3.947 8.985 8.816 8.985zm0-4.493c2.435 0 4.409-2.012 4.409-4.493 0-2.481-1.974-4.493-4.409-4.493-2.434 0-4.408 2.012-4.408 4.493 0 2.481 1.974 4.493 4.408 4.493z" fill="#33B899"/></g><text font-family="FiraSans-Medium, Fira Sans" font-size="16.8" font-weight="400" fill="#1D1D1D" transform="translate(708 506)"><tspan x="75.639" y="61.67">Пыть-Ях</tspan></text><g transform="translate(346.975 571.734)"><ellipse fill="#FFF" cx="13.525" cy="13.716" rx="10.519" ry="10.138"/><path d="M14.329 34.674a1.45 1.45 0 01-2.208 0C4.04 25.294 0 18.229 0 13.478 0 6.034 5.92 0 13.224 0S26.45 6.034 26.45 13.478c0 4.75-4.04 11.816-12.12 21.196zm-1.105-12.21c4.87 0 8.817-4.023 8.817-8.986 0-4.962-3.948-8.985-8.817-8.985s-8.816 4.023-8.816 8.985c0 4.963 3.947 8.985 8.816 8.985zm0-4.493c2.435 0 4.409-2.012 4.409-4.493 0-2.481-1.974-4.493-4.409-4.493-2.434 0-4.408 2.012-4.408 4.493 0 2.481 1.974 4.493 4.408 4.493z" fill="#33B899"/></g><text font-family="FiraSans-Medium, Fira Sans" font-size="16.8" font-weight="400" fill="#1D1D1D" transform="translate(252 561)"><tspan x="64.795" y="61.67">Дзержинск</tspan></text><g transform="translate(541.975 701.734)"><ellipse fill="#FFF" cx="13.525" cy="13.716" rx="10.519" ry="10.138"/><path d="M14.329 34.674a1.45 1.45 0 01-2.208 0C4.04 25.294 0 18.229 0 13.478 0 6.034 5.92 0 13.224 0S26.45 6.034 26.45 13.478c0 4.75-4.04 11.816-12.12 21.196zm-1.105-12.21c4.87 0 8.817-4.023 8.817-8.986 0-4.962-3.948-8.985-8.817-8.985s-8.816 4.023-8.816 8.985c0 4.963 3.947 8.985 8.816 8.985zm0-4.493c2.435 0 4.409-2.012 4.409-4.493 0-2.481-1.974-4.493-4.409-4.493-2.434 0-4.408 2.012-4.408 4.493 0 2.481 1.974 4.493 4.408 4.493z" fill="#33B899"/></g><text font-family="FiraSans-Medium, Fira Sans" font-size="16.8" font-weight="400" fill="#1D1D1D" transform="translate(447 691)"><tspan x="84.308" y="61.67">Сибай</tspan></text><g transform="translate(387.975 633.734)"><ellipse fill="#FFF" cx="13.525" cy="13.716" rx="10.519" ry="10.138"/><path d="M14.329 34.674a1.45 1.45 0 01-2.208 0C4.04 25.294 0 18.229 0 13.478 0 6.034 5.92 0 13.224 0S26.45 6.034 26.45 13.478c0 4.75-4.04 11.816-12.12 21.196zm-1.105-12.21c4.87 0 8.817-4.023 8.817-8.986 0-4.962-3.948-8.985-8.817-8.985s-8.816 4.023-8.816 8.985c0 4.963 3.947 8.985 8.816 8.985zm0-4.493c2.435 0 4.409-2.012 4.409-4.493 0-2.481-1.974-4.493-4.409-4.493-2.434 0-4.408 2.012-4.408 4.493 0 2.481 1.974 4.493 4.408 4.493z" fill="#33B899"/></g><text font-family="FiraSans-Medium, Fira Sans" font-size="16.8" font-weight="400" fill="#1D1D1D" transform="translate(293 623)"><tspan x="66.903" y="61.67">Ульяновск</tspan></text><g transform="translate(444.975 364.734)"><ellipse fill="#FFF" cx="13.525" cy="13.716" rx="10.519" ry="10.138"/><path d="M14.329 34.674a1.45 1.45 0 01-2.208 0C4.04 25.294 0 18.229 0 13.478 0 6.034 5.92 0 13.224 0S26.45 6.034 26.45 13.478c0 4.75-4.04 11.816-12.12 21.196zm-1.105-12.21c4.87 0 8.817-4.023 8.817-8.986 0-4.962-3.948-8.985-8.817-8.985s-8.816 4.023-8.816 8.985c0 4.963 3.947 8.985 8.816 8.985zm0-4.493c2.435 0 4.409-2.012 4.409-4.493 0-2.481-1.974-4.493-4.409-4.493-2.434 0-4.408 2.012-4.408 4.493 0 2.481 1.974 4.493 4.408 4.493z" fill="#33B899"/></g><text font-family="FiraSans-Medium, Fira Sans" font-size="16.8" font-weight="400" fill="#1D1D1D" transform="translate(350 354)"><tspan x="58.948" y="61.67">Архангельск</tspan></text><g transform="translate(438.975 589.734)"><ellipse fill="#FFF" cx="13.525" cy="13.716" rx="10.519" ry="10.138"/><path d="M14.329 34.674a1.45 1.45 0 01-2.208 0C4.04 25.294 0 18.229 0 13.478 0 6.034 5.92 0 13.224 0S26.45 6.034 26.45 13.478c0 4.75-4.04 11.816-12.12 21.196zm-1.105-12.21c4.87 0 8.817-4.023 8.817-8.986 0-4.962-3.948-8.985-8.817-8.985s-8.816 4.023-8.816 8.985c0 4.963 3.947 8.985 8.816 8.985zm0-4.493c2.435 0 4.409-2.012 4.409-4.493 0-2.481-1.974-4.493-4.409-4.493-2.434 0-4.408 2.012-4.408 4.493 0 2.481 1.974 4.493 4.408 4.493z" fill="#33B899"/></g><text font-family="FiraSans-Medium, Fira Sans" font-size="16.8" font-weight="400" fill="#1D1D1D" transform="translate(344 579)"><tspan x="80.721" y="61.67">Казань</tspan></text><g transform="translate(346.975 502.734)"><ellipse fill="#FFF" cx="13.525" cy="13.716" rx="10.519" ry="10.138"/><path d="M14.329 34.674a1.45 1.45 0 01-2.208 0C4.04 25.294 0 18.229 0 13.478 0 6.034 5.92 0 13.224 0S26.45 6.034 26.45 13.478c0 4.75-4.04 11.816-12.12 21.196zm-1.105-12.21c4.87 0 8.817-4.023 8.817-8.986 0-4.962-3.948-8.985-8.817-8.985s-8.816 4.023-8.816 8.985c0 4.963 3.947 8.985 8.816 8.985zm0-4.493c2.435 0 4.409-2.012 4.409-4.493 0-2.481-1.974-4.493-4.409-4.493-2.434 0-4.408 2.012-4.408 4.493 0 2.481 1.974 4.493 4.408 4.493z" fill="#33B899"/></g><text font-family="FiraSans-Medium, Fira Sans" font-size="16.8" font-weight="400" fill="#1D1D1D" transform="translate(252 492)"><tspan x="66.198" y="61.67">Ярославль</tspan></text><g transform="translate(357.975 409.734)"><ellipse fill="#FFF" cx="13.525" cy="13.716" rx="10.519" ry="10.138"/><path d="M14.329 34.674a1.45 1.45 0 01-2.208 0C4.04 25.294 0 18.229 0 13.478 0 6.034 5.92 0 13.224 0S26.45 6.034 26.45 13.478c0 4.75-4.04 11.816-12.12 21.196zm-1.105-12.21c4.87 0 8.817-4.023 8.817-8.986 0-4.962-3.948-8.985-8.817-8.985s-8.816 4.023-8.816 8.985c0 4.963 3.947 8.985 8.816 8.985zm0-4.493c2.435 0 4.409-2.012 4.409-4.493 0-2.481-1.974-4.493-4.409-4.493-2.434 0-4.408 2.012-4.408 4.493 0 2.481 1.974 4.493 4.408 4.493z" fill="#33B899"/></g><text font-family="FiraSans-Medium, Fira Sans" font-size="16.8" font-weight="400" fill="#1D1D1D" transform="translate(263 399)"><tspan x="79.822" y="61.67">Волхов</tspan></text><g><g transform="translate(196.975 462.734)"><ellipse fill="#FFF" cx="13.525" cy="13.716" rx="10.519" ry="10.138"/><path d="M14.329 34.674a1.45 1.45 0 01-2.208 0C4.04 25.294 0 18.229 0 13.478 0 6.034 5.92 0 13.224 0S26.45 6.034 26.45 13.478c0 4.75-4.04 11.816-12.12 21.196zm-1.105-12.21c4.87 0 8.817-4.023 8.817-8.986 0-4.962-3.948-8.985-8.817-8.985s-8.816 4.023-8.816 8.985c0 4.963 3.947 8.985 8.816 8.985zm0-4.493c2.435 0 4.409-2.012 4.409-4.493 0-2.481-1.974-4.493-4.409-4.493-2.434 0-4.408 2.012-4.408 4.493 0 2.481 1.974 4.493 4.408 4.493z" fill="#33B899"/></g><text font-family="FiraSans-Medium, Fira Sans" font-size="16.8" font-weight="400" fill="#1D1D1D" transform="translate(102 452)"><tspan x="52.111" y="61.67">Сосновый бор</tspan></text></g><g><g transform="translate(304.975 347.734)"><ellipse fill="#FFF" cx="13.525" cy="13.716" rx="10.519" ry="10.138"/><path d="M14.329 34.674a1.45 1.45 0 01-2.208 0C4.04 25.294 0 18.229 0 13.478 0 6.034 5.92 0 13.224 0S26.45 6.034 26.45 13.478c0 4.75-4.04 11.816-12.12 21.196zm-1.105-12.21c4.87 0 8.817-4.023 8.817-8.986 0-4.962-3.948-8.985-8.817-8.985s-8.816 4.023-8.816 8.985c0 4.963 3.947 8.985 8.816 8.985zm0-4.493c2.435 0 4.409-2.012 4.409-4.493 0-2.481-1.974-4.493-4.409-4.493-2.434 0-4.408 2.012-4.408 4.493 0 2.481 1.974 4.493 4.408 4.493z" fill="#33B899"/></g><text font-family="FiraSans-Medium, Fira Sans" font-size="16.8" font-weight="400" fill="#1D1D1D" transform="translate(210 337)"><tspan x="71.322" y="61.67">Вяртсиля</tspan></text></g><path d="M1357.557 76c0 8.273-6.731 15.004-15.004 15.004-8.274 0-15.005-6.731-15.005-15.004h-3.63c0 8.273-6.732 15.004-15.004 15.004-8.274 0-15.006-6.731-15.006-15.004h-3.63c0 8.273-6.73 15.004-15.004 15.004-8.272 0-15.004-6.731-15.004-15.004h-3.63c0 8.273-6.73 15.004-15.005 15.004-8.274 0-15.005-6.731-15.005-15.004H1223c0 10.275 8.36 18.634 18.635 18.634 7.422 0 13.826-4.372 16.82-10.666 2.995 6.294 9.397 10.666 16.82 10.666 7.422 0 13.824-4.372 16.818-10.666 2.996 6.294 9.398 10.666 16.82 10.666 7.423 0 13.825-4.372 16.82-10.666 2.994 6.294 9.398 10.666 16.82 10.666 10.274 0 18.634-8.359 18.634-18.634h-3.63zM185.557 118c0 8.273-6.731 15.004-15.004 15.004-8.274 0-15.005-6.731-15.005-15.004h-3.63c0 8.273-6.732 15.004-15.004 15.004-8.274 0-15.006-6.731-15.006-15.004h-3.63c0 8.273-6.73 15.004-15.004 15.004-8.272 0-15.004-6.731-15.004-15.004h-3.63c0 8.273-6.73 15.004-15.005 15.004-8.274 0-15.005-6.731-15.005-15.004H51c0 10.275 8.36 18.634 18.635 18.634 7.422 0 13.826-4.372 16.82-10.666 2.995 6.294 9.397 10.666 16.82 10.666 7.422 0 13.824-4.372 16.818-10.666 2.996 6.294 9.398 10.666 16.82 10.666 7.423 0 13.825-4.372 16.82-10.666 2.994 6.294 9.398 10.666 16.82 10.666 10.274 0 18.634-8.359 18.634-18.634h-3.63zM603.557 218c0 8.273-6.731 15.004-15.004 15.004-8.274 0-15.005-6.731-15.005-15.004h-3.63c0 8.273-6.732 15.004-15.004 15.004-8.274 0-15.006-6.731-15.006-15.004h-3.63c0 8.273-6.73 15.004-15.004 15.004-8.272 0-15.004-6.731-15.004-15.004h-3.63c0 8.273-6.73 15.004-15.005 15.004-8.274 0-15.005-6.731-15.005-15.004H469c0 10.275 8.36 18.634 18.635 18.634 7.422 0 13.826-4.372 16.82-10.666 2.995 6.294 9.397 10.666 16.82 10.666 7.422 0 13.824-4.372 16.818-10.666 2.996 6.294 9.398 10.666 16.82 10.666 7.423 0 13.825-4.372 16.82-10.666 2.994 6.294 9.398 10.666 16.82 10.666 10.274 0 18.634-8.359 18.634-18.634h-3.63zM1860.917 466c0 8.273-6.731 15.004-15.004 15.004-8.274 0-15.005-6.731-15.005-15.004h-3.63c0 8.273-6.732 15.004-15.004 15.004-8.274 0-15.006-6.731-15.006-15.004h-3.63c0 8.273-6.73 15.004-15.004 15.004-8.272 0-15.004-6.731-15.004-15.004H1760c1.042 14.262 11.212 18.634 18.634 18.634 7.423 0 13.825-4.372 16.82-10.666 2.995 6.294 9.398 10.666 16.82 10.666 7.422 0 13.824-4.372 16.819-10.666 2.994 6.294 9.398 10.666 16.82 10.666 10.274 0 18.634-8.359 18.634-18.634h-3.63zM444.917 118c0 8.273-6.731 15.004-15.004 15.004-8.274 0-15.005-6.731-15.005-15.004h-3.63c0 8.273-6.732 15.004-15.004 15.004-8.274 0-15.006-6.731-15.006-15.004h-3.63c0 8.273-6.73 15.004-15.004 15.004-8.272 0-15.004-6.731-15.004-15.004H344c1.042 14.262 11.212 18.634 18.634 18.634 7.423 0 13.825-4.372 16.82-10.666 2.995 6.294 9.398 10.666 16.82 10.666 7.422 0 13.824-4.372 16.819-10.666 2.994 6.294 9.398 10.666 16.82 10.666 10.274 0 18.634-8.359 18.634-18.634h-3.63zM461.917 911c0 8.273-6.731 15.004-15.004 15.004-8.274 0-15.005-6.731-15.005-15.004h-3.63c0 8.273-6.732 15.004-15.004 15.004-8.274 0-15.006-6.731-15.006-15.004h-3.63c0 8.273-6.73 15.004-15.004 15.004-8.272 0-15.004-6.731-15.004-15.004H361c1.042 14.262 11.212 18.634 18.634 18.634 7.423 0 13.825-4.372 16.82-10.666 2.995 6.294 9.398 10.666 16.82 10.666 7.422 0 13.824-4.372 16.819-10.666 2.994 6.294 9.398 10.666 16.82 10.666 10.274 0 18.634-8.359 18.634-18.634h-3.63zM168.917 915c0 8.273-6.731 15.004-15.004 15.004-8.274 0-15.005-6.731-15.005-15.004h-3.63c0 8.273-6.732 15.004-15.004 15.004-8.274 0-15.006-6.731-15.006-15.004h-3.63c0 8.273-6.73 15.004-15.004 15.004-8.272 0-15.004-6.731-15.004-15.004H68c1.042 14.262 11.212 18.634 18.634 18.634 7.423 0 13.825-4.372 16.82-10.666 2.995 6.294 9.398 10.666 16.82 10.666 7.422 0 13.824-4.372 16.819-10.666 2.994 6.294 9.398 10.666 16.82 10.666 10.274 0 18.634-8.359 18.634-18.634h-3.63zM812.557 76c0 8.273-6.731 15.004-15.004 15.004-8.274 0-15.005-6.731-15.005-15.004h-3.63c0 8.273-6.732 15.004-15.004 15.004-8.274 0-15.006-6.731-15.006-15.004h-3.63c0 8.273-6.73 15.004-15.004 15.004-8.272 0-15.004-6.731-15.004-15.004h-3.63c0 8.273-6.73 15.004-15.005 15.004-8.274 0-15.005-6.731-15.005-15.004H678c0 10.275 8.36 18.634 18.635 18.634 7.422 0 13.826-4.372 16.82-10.666 2.995 6.294 9.397 10.666 16.82 10.666 7.422 0 13.824-4.372 16.818-10.666 2.996 6.294 9.398 10.666 16.82 10.666 7.423 0 13.825-4.372 16.82-10.666 2.994 6.294 9.398 10.666 16.82 10.666 10.274 0 18.634-8.359 18.634-18.634h-3.63z" fill="#CAD5DB"/><path d="M1745.054 66.085c0-7.663 13.488-43.085 52.422-43.085 38.935 0 52.241 36.441 52.241 53.787 12.444-6.241 38.183 8.78 38.183 33.208 0 24.428-20.836 29.605-29.51 29.605h-126.676c-18.95-.719-31.748-8.708-38.395-23.969-9.97-22.89 13.129-67.968 51.735-49.546zM723.054 858.085c0-7.663 13.488-43.085 52.422-43.085 38.935 0 52.241 36.441 52.241 53.787 12.444-6.241 38.183 8.78 38.183 33.208 0 24.428-20.836 29.605-29.51 29.605H709.714c-18.95-.719-31.748-8.708-38.395-23.969-9.97-22.89 13.129-67.968 51.735-49.546z" stroke="#B6C5CE" stroke-width="2.662" fill="#FFF"/><path d="M1599.643 130.953c0-9.543 16.879-53.653 65.601-53.653 48.722 0 65.374 45.38 65.374 66.98 15.573-7.772 47.782 10.933 47.782 41.353s-26.074 36.867-36.928 36.867H1582.95c-23.715-.895-39.73-10.845-48.049-29.848-12.476-28.504 16.43-84.64 64.742-61.699zM1200.643 369.653c0-9.543 16.879-53.653 65.601-53.653 48.722 0 65.374 45.38 65.374 66.98 15.573-7.772 47.782 10.933 47.782 41.353s-26.074 36.867-36.928 36.867H1183.95c-23.715-.895-39.73-10.845-48.049-29.848-12.476-28.504 16.43-84.64 64.742-61.699z" stroke="#B6C5CE" stroke-width="2.396" fill="#FFF"/><path d="M1488.757 406.653c0-9.543-16.879-53.653-65.601-53.653-48.722 0-65.374 45.38-65.374 66.98-15.573-7.772-47.782 10.933-47.782 41.353s26.074 36.867 36.928 36.867h158.522c23.715-.895 39.73-10.845 48.049-29.848 12.476-28.504-16.43-84.64-64.742-61.699zM1756.643 858.653c0-9.543 16.879-53.653 65.601-53.653 48.722 0 65.374 45.38 65.374 66.98 15.573-7.772 47.782 10.933 47.782 41.353s-26.074 36.867-36.928 36.867H1739.95c-23.715-.895-39.73-10.845-48.049-29.848-12.476-28.504 16.43-84.64 64.742-61.699zM154.643 159.653c0-9.543 16.879-53.653 65.601-53.653 48.722 0 65.374 45.38 65.374 66.98 15.573-7.772 47.782 10.933 47.782 41.353S307.326 251.2 296.472 251.2H137.95c-23.715-.895-39.73-10.845-48.048-29.848-12.477-28.504 16.43-84.64 64.74-61.699z" stroke="#B6C5CE" stroke-width="2.396" fill="#FFF"/><g><path d="M305.92 466.189c-.073.078-.15.15-.234.219-1.06.868-2.675.77-3.606-.219-14.053-14.93-21.08-26.175-21.08-33.737C281 420.605 291.297 411 304 411s23 9.605 23 21.452c0 7.562-7.027 18.808-21.08 33.737z" fill="#33B899"/><text font-family="FiraSans-Medium, Fira Sans" font-size="19" font-weight="400" fill="#1D1D1D" transform="translate(225 411)"><tspan x=".111" y="70.862">Санкт-Петербург</tspan></text><path d="M299.09 426.161v5.024h-5.058l1.715-1.7a4.29 4.29 0 00-4.874-.736 4.258 4.258 0 00-2.333 4.327 4.267 4.267 0 003.307 3.642 4.285 4.285 0 004.554-1.88l1.952 1.201a6.6 6.6 0 01-5.588 3.052c-3.736-.016-6.765-2.856-6.765-6.553s3.03-6.538 6.765-6.538a6.626 6.626 0 014.61 1.86l1.716-1.699zm5.395 10.667c-1.131.032-2.23-.413-3.061-1.24l-1.242 1.882c1.215 1.071 2.742 1.645 4.311 1.62 2.409.05 4.461-1.734 4.415-3.903 0-2.035-1.437-3.27-3.233-3.754l-1.863-.518c-2.05-.62-1.132-2.618.684-2.618.996-.031 1.97.317 2.751.983l1.224-1.861a6.2 6.2 0 00-3.986-1.418c-2.19-.05-4.15 1.62-4.102 3.624 0 1.75 1.15 2.984 2.857 3.468l1.99.55c2.393.7 1.413 3.185-.745 3.185zm15.609-6.553c-.986-1.606-2.884-2.347-4.657-1.819-1.772.528-2.992 2.198-2.992 4.097 0 1.9 1.22 3.57 2.992 4.097 1.773.528 3.67-.213 4.657-1.818l1.89 1.204c-1.179 1.91-3.23 3.064-5.429 3.055-3.62 0-6.555-2.84-6.555-6.544 0-3.703 2.95-6.547 6.57-6.547 2.199-.004 4.247 1.148 5.43 3.055l-1.906 1.22zm-4.64 2.28c-.003-.883.394-1.681 1.005-2.022.612-.341 1.317-.157 1.786.466.47.623.611 1.563.358 2.38-.252.816-.85 1.348-1.512 1.348-.433.002-.849-.226-1.156-.633-.307-.408-.48-.96-.48-1.538z" fill="#FFF"/></g></g></svg>