<svg version="1.1" id="Layer_1" xmlns="http://www.w3.org/2000/svg" x="0" y="0" viewBox="0 0 515.7 443.3" xml:space="preserve"><style>.st0{fill:#fff}.st1{fill:#ca2128}</style><g id="XMLID_4270_"><g id="XMLID_3620_"><path class="st0" d="M63.6 184.1c-14.9 14.9-14.9 39.2 0 54.1l29 29c10.5 10.5 10.5 27.5 0 38s-27.5 10.5-38 0L27 277.7c-36-36-36-94.2 0-130.2 36-36 94.2-36 130.2 0L407 397.4c10.5 10.5 10.5 27.5 0 38s-27.5 10.5-38 0L117.7 184.1c-15-15-39.2-15-54.1 0z" id="XMLID_3868_"/><g id="XMLID_3697_"><path class="st1" d="M392.2 382.6l14.8 14.8c5.1 5.1 7.7 11.7 7.9 18.4-15.6 1-34.3 4.1-54.4 11.1L323.6 390c24-7.2 49.1-8.3 68.6-7.4z" id="XMLID_3864_"/><path class="st1" d="M344.8 335.2l30.1 30.1c-17.3.3-39.9 2.9-64.6 11.5l-34.1-34.1c24-7.3 49.1-8.4 68.6-7.5z" id="XMLID_3863_"/><path class="st1" d="M136.6 132c7.4 4.1 14.3 9.2 20.6 15.5l28.2 28.2c-17.3.3-39.9 2.9-64.6 11.5l-3.1-3.1c-5.9-5.9-13.3-9.5-21-10.7 10.9-16.6 25.4-30.4 39.9-41.4z" id="XMLID_3860_"/><path class="st1" d="M53 203.9c-1.9 9.7 0 19.9 5.6 28.4-20.4.5-40.5-4-58.2-10.1-2.7-26.4 6-53.8 26.1-74.2 5.1 16.7 13.3 36.1 26.5 55.9z" id="XMLID_3849_"/><path class="st1" d="M32.7 283.5l-5.8-5.8c-10.6-10.6-18-23.1-22.4-36.3 19.1 5.5 42.7 9.2 69.6 7.5l18.3 18.3c2.2 2.2 4 4.8 5.3 7.5-22.3 7.2-45.9 9-65 8.8z" id="XMLID_3848_"/><path class="st1" d="M99.9 291.6c-1 5-3.5 9.8-7.3 13.7-10.5 10.5-27.5 10.5-38 0l-4.9-4.9c14.1-.8 31.3-3.1 50.2-8.8z" id="XMLID_3846_"/><path class="st1" d="M408.8 433.5c-.5.7-1.1 1.3-1.7 1.9-8.7 8.7-22 10.2-32.2 4.4 11.3-3.3 22.8-5.2 33.9-6.3z" id="XMLID_3845_"/><path class="st1" d="M41.1 135.9c23.1-15.4 51.7-19.2 77.5-11.5-14.7 12.4-30.6 29.4-44 52-4 1.8-7.7 4.4-11 7.7-.7.7-1.3 1.4-1.9 2.1-9.9-16-16.4-33.8-20.6-50.3z" id="XMLID_3824_"/><path class="st1" d="M202.7 193l30.1 30.1c-17.3.3-39.9 2.9-64.6 11.5l-34.1-34.1c24-7.3 49.1-8.3 68.6-7.5z" id="XMLID_3822_"/><path class="st1" d="M250.1 240.4l30.1 30.1c-17.3.3-39.9 2.9-64.6 11.5l-34.1-34.1c24-7.3 49.1-8.3 68.6-7.5z" id="XMLID_3821_"/><path class="st1" d="M297.4 287.8l30.1 30.1c-17.3.3-39.9 2.9-64.6 11.5l-12.6-12.6-21.5-21.5c24.1-7.3 49.2-8.3 68.6-7.5z" id="XMLID_3698_"/></g><path d="M267.6 334l39.4-36.7-20.4-20.4-38.2 37.9z" opacity=".5"/></g><g id="XMLID_3871_"><path class="st0" d="M452.2 184.1c14.9 14.9 14.9 39.2 0 54.1l-29 29c-10.5 10.5-10.5 27.5 0 38s27.5 10.5 38 0l27.5-27.5c36-36 36-94.2 0-130.2-36-36-94.2-36-130.2 0L108.7 397.4c-10.5 10.5-10.5 27.5 0 38s27.5 10.5 38 0L398 184.1c15-15 39.2-15 54.2 0z" id="XMLID_4147_"/><g id="XMLID_3872_"><path class="st1" d="M123.5 382.6l-14.8 14.8c-5.1 5.1-7.7 11.7-7.9 18.4 15.6 1 34.3 4.1 54.4 11.1l36.9-36.9c-24-7.2-49.1-8.3-68.6-7.4z" id="XMLID_4146_"/><path class="st1" d="M170.9 335.2l-30.1 30.1c17.3.3 39.9 2.9 64.6 11.5l34.1-34.1c-24-7.3-49.1-8.4-68.6-7.5z" id="XMLID_3889_"/><path class="st1" d="M379.2 132c-7.4 4.1-14.3 9.2-20.6 15.5l-28.2 28.2c17.3.3 39.9 2.9 64.6 11.5l3.1-3.1c5.9-5.9 13.3-9.5 21-10.7-10.9-16.6-25.5-30.4-39.9-41.4z" id="XMLID_3888_"/><path class="st1" d="M462.7 203.9c1.9 9.7 0 19.9-5.6 28.4 20.4.5 40.5-4 58.2-10.1 2.7-26.4-6-53.8-26.1-74.2-5 16.7-13.2 36.1-26.5 55.9z" id="XMLID_3887_"/><path class="st1" d="M483 283.5l5.8-5.8c10.6-10.6 18-23.1 22.4-36.3-19.1 5.5-42.7 9.2-69.6 7.5l-18.3 18.3c-2.2 2.2-4 4.8-5.3 7.5 22.4 7.2 45.9 9 65 8.8z" id="XMLID_3884_"/><path class="st1" d="M415.9 291.6c1 5 3.5 9.8 7.3 13.7 10.5 10.5 27.5 10.5 38 0l4.9-4.9c-14.1-.8-31.4-3.1-50.2-8.8z" id="XMLID_3881_"/><path class="st1" d="M107 433.5c.5.7 1.1 1.3 1.7 1.9 8.7 8.7 22 10.2 32.2 4.4-11.3-3.3-22.9-5.2-33.9-6.3z" id="XMLID_3880_"/><path class="st1" d="M474.7 135.9c-23.1-15.4-51.7-19.2-77.5-11.5 14.7 12.4 30.6 29.4 44 52 4 1.8 7.7 4.4 11 7.7.7.7 1.3 1.4 1.9 2.1 9.9-16 16.3-33.8 20.6-50.3z" id="XMLID_3879_"/><path class="st1" d="M313.1 193L283 223.1c17.3.3 39.9 2.9 64.6 11.5l34.1-34.1c-24.1-7.3-49.1-8.3-68.6-7.5z" id="XMLID_3876_"/><path class="st1" d="M265.7 240.4l-30.1 30.1c17.3.3 39.9 2.9 64.6 11.5l34.1-34.1c-24-7.3-49.1-8.3-68.6-7.5z" id="XMLID_3873_"/><path class="st1" d="M218.3 287.8l-30.1 30.1c17.3.3 39.9 2.9 64.6 11.5l34.1-34.1c-24-7.3-49.1-8.3-68.6-7.5z" id="XMLID_4148_"/></g></g></g><path class="st0" d="M336 72.4h-14.7l8.7-8.7-4.2-4.2-12.9 12.9h-11.1l8.7-8.7-4.2-4.2-12.9 12.9h-19c-.3-1.6-1-3.2-1.8-4.5l13.2-13.2h18.8v-6h-12.8l7.8-7.8h18.8v-6h-12.8L316 24.2l-4.2-4.2-10.4 10.4V18.1h-6v18.3l-7.8 7.8V31.9h-6v18.3l-13.4 13.4c-1.4-.9-2.9-1.6-4.6-2V43.1l13.3-13.3-4.2-4.2-9.1 9.1V23.5l13.3-13.3-4.2-4.2-9.1 9.1V0h-6v14.7L248.9 6l-4.2 4.2 12.9 12.9v11.1l-8.7-8.7-4.2 4.2 12.9 12.9v18.8c-1.7.3-3.3 1-4.7 1.9l-13-13V31.6h-6v12.8l-7.8-7.8V17.8h-6v12.8L209.5 20l-4.2 4.2 10.4 10.4h-12.3v6h18.3l7.8 7.8h-12.3v6h18.3l13.2 13.2c-.9 1.4-1.6 3-2 4.8h-18.3L215 59.1l-4.2 4.2 9.1 9.1h-11.1l-13.3-13.3-4.2 4.2 9.1 9.1h-15v6h14.7l-8.7 8.7 4.2 4.2 12.9-12.9h11.1l-8.7 8.7 4.2 4.2L228 78.4h18.6c.4 1.7 1.1 3.3 2 4.8l-13 13h-18.8v6h12.8l-7.8 7.8H203v6h12.8l-10.6 10.6 4.2 4.2 10.4-10.4v12.3h6v-18.3l7.8-7.8v12.3h6v-18.3l13.3-13.3c1.4.9 3 1.6 4.7 1.9v18.5L244.2 121l4.2 4.2 9.1-9.1v11.1l-13.3 13.3 4.2 4.2 9.1-9.1v15h6v-14.7l8.7 8.7 4.2-4.2-12.9-12.9v-11.1l8.7 8.7 4.2-4.2-12.9-12.9V89.2c1.6-.4 3.2-1 4.6-1.9l13.2 13.2v18.8h6v-12.8l7.8 7.8v18.8h6v-12.8l10.6 10.6 4.2-4.2-10.4-10.4h12.3v-6h-18.3l-7.8-7.8H304v-6h-18.3L272.2 83c.9-1.4 1.5-2.9 1.9-4.5h18.7l13.3 13.3 4.2-4.2-9.1-9.1h11.1l13.3 13.3 4.2-4.2-9.1-9.1h15v-6.1zm-68 0h-.1.1c-.1 0-.1 0 0 0zm-4.2-4.4l-.2.2v-.3c.1 0 .1.1.2.1zm-6.2-.3v.4l-.3-.3c.1 0 .2 0 .3-.1zM253 72l.4.4h-.5c0-.1 0-.3.1-.4zm-.2 6.4h.5l-.4.4c0-.2 0-.3-.1-.4zm4.5 4.5l.3-.3v.4c-.1 0-.2 0-.3-.1zm6.2 0v-.2l.1.1s0 .1-.1.1zm4.4-4.4z"/></svg>