<svg version="1.1" id="Layer_1" xmlns="http://www.w3.org/2000/svg" x="0" y="0" viewBox="0 0 286 334.7" xml:space="preserve"><style>.st0{fill:#00af9a}.st1{fill:#f59d20}.st2{fill:#fff}.st3{fill:#39444a}.st5{fill:#3a444a}.st6{fill:#34b393}.st7{fill:#f59d21}.st8{fill:#31b797}.st9{fill:#eaedef}.st10{fill:#fff;stroke:#39444a;stroke-width:1.5;stroke-linecap:round;stroke-linejoin:round;stroke-miterlimit:10}.st11{fill:#2d3233}.st12{fill:#2f393e}.st13{fill:#252a2b}.st14{fill:#f59d20;stroke:#39444a;stroke-width:1.5;stroke-miterlimit:10}.st15{fill:#e38725}.st16{fill:#259e80}.st18{fill:#444345}</style><g id="XMLID_953_"><path class="st0" d="M17.1 32.8l.6-7.4c0-.2-.1-.3-.3-.4-.2 0-.4.1-.4.3l-.6 7.4c.2 0 .4 0 .7.1z" id="XMLID_957_"/><circle class="st0" cx="16.1" cy="40.3" r="1.2" id="XMLID_959_"/><path class="st0" d="M10.3 35.3c.2-.2.3-.4.5-.5l-5.4-5.1c-.1-.1-.4-.1-.5 0-.1.1-.1.2-.1.2 0 .1 0 .2.1.3l5.4 5.1z" id="XMLID_960_"/><path class="st0" d="M22.6 36.4l6.2-4.1c.1-.1.2-.2.2-.3 0-.1 0-.1-.1-.2-.1-.2-.3-.2-.5-.1l-6.2 4.1c.1.2.3.4.4.6z" id="XMLID_961_"/><path class="st0" d="M19.1 47.3c-.2.1-.4.2-.7.3l2.6 7c.1.1.2.2.3.2h.1c.1-.1.2-.2.2-.3v-.1l-2.5-7.1z" id="XMLID_1086_"/><path class="st0" d="M30.5 44.6l-7.1-2.3c-.1.2-.1.5-.2.7l7.1 2.3c.2.1.4 0 .4-.2V45c.1-.3 0-.4-.2-.4z" id="XMLID_1087_"/><path class="st0" d="M11.9 46.7l-3.8 6.4v.2c0 .1.1.2.2.3.2.1.4 0 .5-.1l3.8-6.4c-.3-.2-.5-.3-.7-.4z" id="XMLID_1088_"/><path class="st0" d="M8.5 41l-7.4 1c-.2 0-.3.2-.3.4s.2.3.4.3l7.4-1c0-.2-.1-.4-.1-.7z" id="XMLID_1101_"/></g><g id="XMLID_314_"><g id="XMLID_320_"><path class="st1" d="M232.4 196.2l47.3-28 .3-.2-47.7-31 35-73.6-.3-.3-35.1 74 47.4 30.9-47.4 28.1 53.2 81-102.4-35.2-.2-.1-30 91.6-24-89.6-.1-.2-100.2 48.2 54.3-92.7.1-.1-60.8-31 60.7-30.8.1-.1-23.9-73.9 67.5 30.1.1.1 34.5-92.3 27.3 92.1v.2l75.2-35.7-.2-.3-74.8 35.5L161 .5l-.1-.5-34.8 92.9-67.6-30.2-.4-.1 24.1 74.3-60.9 31-.3.1 61.1 31.1-54.5 93.1-.3.5 100.9-48.6 24.1 90 .2.6 30.2-92.4L286 277.7z" id="XMLID_323_"/></g><g id="XMLID_634_"><g id="XMLID_899_"><g id="XMLID_900_"><path class="st2" d="M65 164.6l24.5-25.4c2.1-2.9-3.2-9.1-6.1-11.2-2.9-2.1-6.9-1.4-9 1.5l-20.3 26.9" id="XMLID_902_"/><path class="st3" d="M65 165.2c-.1 0-.3 0-.4-.1-.2-.2-.2-.5 0-.8l24.5-25.4c1-1.4-.3-3.9-1.2-5.3-1.5-2.2-3.5-4.2-4.8-5.2-2.6-1.9-6.4-1.3-8.3 1.3l-20.3 26.9c-.2.2-.5.3-.7.1-.2-.2-.3-.5-.1-.7L74 129.1c2.2-3.1 6.6-3.8 9.8-1.6 1.4 1 3.5 3.1 5.1 5.5 1.8 2.8 2.2 5.1 1.2 6.5v.1L65.4 165c-.1.1-.3.2-.4.2z" id="XMLID_901_"/></g></g><g id="XMLID_836_"><g id="XMLID_892_"><g id="XMLID_897_"><path class="st0" d="M118.5 296.9l-12.4-5.6s-2 3.9-2.1 4.1c0 .2 1.8 6.5 1.8 6.5l5.9 2.8 4.5.1s.6-2.4.6-2.7c-.1-.1 1.7-5.2 1.7-5.2z" id="XMLID_898_"/></g><g id="XMLID_893_"><path class="st3" d="M115.7 305.4h-3.3c-.3 0-.4 0-.8-.1s-.5-.2-.8-.3c-.1 0-.2-.1-.3-.2-.2-.1-.4-.2-.5-.2-.1-.1-.3-.1-.5-.2s-.4-.2-.5-.2c-.1-.1-.3-.1-.5-.2s-.3-.1-.4-.2c-.1 0-.3-.1-.6-.2s-.4-.2-.5-.2c-.1-.1-.2-.1-.5-.2-.1-.1-.2-.1-.3-.1-.2-.1-.4-.2-.7-.4-.4-.3-.4-.6-.4-.9v-.3c0-.1-.1-.3-.1-.4 0-.2-.1-.3-.1-.5 0-.1-.1-.3-.1-.4-.1-.2-.1-.3-.2-.5 0-.1-.1-.3-.1-.4-.1-.2-.1-.3-.2-.5s-.1-.4-.1-.6c0-.1 0-.3-.1-.4-.1-.2-.1-.4-.2-.6l-.1-.3c-.1-.3-.2-.5-.2-.7-.1-.2-.1-.3-.1-.5 0-.1.1-.2.2-.5.1-.2.2-.4.4-.7.1-.2.2-.3.3-.5.1-.2.2-.3.3-.5.1-.2.1-.3.2-.5s.1-.4.2-.6c.1-.1.1-.3.1-.4 0-.2.1-.8.9-.8.5 0 .6.1.9.2.1 0 .2.1.3.1.3.1.4.2.5.3.1.1.2.1.4.2s.3.1.5.2c.1 0 .3.1.5.2s.3.1.4.2c.1 0 .3.1.5.2s.4.2.5.2c.1.1.2.1.5.2s.4.2.5.3c.1.1.2.1.4.2s.3.1.4.1c.1 0 .3.1.6.2s.4.2.5.3c.1.1.2.1.4.2s.4.2.5.2c.1.1.2.1.5.2l.9.4c.2.1.3.1.5.2.1.1.3.1.5.2l1 .4c.1.1.2.1.3.1.3.1.5.2.8.5.4.4.4.8 0 1.2-.1.1-.2.2-.2.3-.1.2-.1.3-.2.5s-.1.4-.2.6c-.1.2-.1.3-.1.5s-.1.4-.2.6l-.3.6c-.1.1-.1.3-.2.4-.2.5-.2.8-.3.9 0 .1 0 .3-.2 1-.1.3-.1.6-.2.9v.2c.1.5-.1.8-.6 1h-.5zm-2.9-1.1H115.9v-.5c.1-.3.1-.6.2-.9.1-.5.1-.7.1-.7s0-.2.3-1.3c.1-.2.1-.4.2-.5.1-.2.2-.3.2-.5.1-.2.1-.3.1-.5s.1-.4.2-.6c.1-.2.1-.4.2-.5.1-.2.1-.4.2-.5.1-.3.2-.4.3-.6 0 0-.1 0-.2-.1-.1 0-.2-.1-.4-.2l-1-.4c-.2-.1-.3-.2-.5-.2-.1-.1-.2-.1-.5-.2l-.9-.4c-.2-.1-.4-.2-.5-.2-.1-.1-.2-.1-.5-.2s-.4-.2-.5-.3c-.1-.1-.2-.1-.4-.2s-.3-.1-.4-.1c-.1 0-.3-.1-.6-.2s-.4-.2-.5-.3c-.1-.1-.2-.1-.4-.2s-.4-.2-.5-.2c-.1-.1-.2-.1-.5-.2-.2-.1-.3-.1-.4-.2-.1 0-.3-.1-.5-.2s-.3-.1-.5-.2c-.1-.1-.3-.1-.5-.2-.3-.1-.4-.2-.5-.3-.1-.1-.2-.1-.4-.2s-.3-.1-.4-.2c-.1-.1-.2-.1-.3-.1 0 .2-.1.4-.2.7-.1.1-.1.3-.2.4l-.3.6c-.1.2-.2.4-.3.5-.1.2-.2.3-.3.5-.1.3-.3.5-.4.7 0 0 0 .1-.1.1.1.2.2.4.2.8l.1.3c0 .2.1.4.2.6 0 .2.1.3.1.5 0 .1 0 .3.1.4 0 .1.1.3.1.4.1.2.1.3.2.5 0 .1.1.3.2.4.1.2.1.3.2.5s.1.4.1.6c0 .1.1.3.1.4.1.3.1.5.1.7.2.2.3.2.5.3.1 0 .2.1.4.2.3.1.4.2.5.2.1.1.2.1.5.2.2.1.3.1.4.2.1 0 .3.1.6.2.2.1.4.2.5.2.1.1.3.1.5.2s.4.2.5.2c.1.1.3.1.5.2s.3.2.4.2c.1.1.2.1.4.2.3.1.4.1.6.1.2.1.3.1.5.1z" id="XMLID_894_"/></g></g><g id="XMLID_885_"><g id="XMLID_890_"><path class="st2" d="M114.4 303.4c-.5 0-.5-.2-.9-.4-.5-.2-.5-.2-.9-.5-.5-.2-.5-.2-.9-.4-.5-.2-.5-.1-1-.3-.5-.2-.5-.2-.9-.4-.5-.2-.5-.2-.9-.4-.5-.2-.5-.2-.9-.4-.5-.2-.6 0-1-.4s0-.4 0-1.1V298c0-.3-.1-.7-.2-1.1-.1-.3-.2-.6-.4-.8-.2-.3-.3-.6-.5-.8-.2-.3-.5-.4-.7-.6-.4-.3-.3-.6-.7-.5-.5.1-.3.2-.6.8-.1.2-.3.5-.5.9-.2.3-.3.5-.5.9-.2.3-.2.6-.4.9-.1.3-.3.6-.5.9-.1.3-.4.6-.5.9-.1.3-.3.6-.4.9-.1.3-.2.6-.4.9-.1.3-.3.6-.4.9-.1.3-.1.7-.2 1-.1.3-.3.6-.4.9-.1.3-.1.7-.2 1-.1.3-.2.6-.3 1-.1.3-.2.7-.3 1-.1.3-.1.7-.2 1-.1.4-.2.7-.2 1-.1.6-.6.6-.2 1 .4.4.5.2.9.5.5.2.5.3.9.5.5.3.4.3.9.5.5.3.5.2.9.5.5.3.4.3.9.5.5.3.5.2.9.5.5.3.5.2.9.4.5.3.4.3.9.6s.4.3.9.5c.5.3.5.1 1 .4.5.3.4.4.9.6.5.3.5.2.9.5.5.3.5.2.9.4.5.3.4.3.9.5.5.3.4.3.9.6s.5.2.9.5c.5.3.5.3.9.5.5.3.5.2.9.5.5.3.4.3.9.5.5.3.4.3.9.5.5.3.5.2 1 .4.5.3.4.3.9.5.5.3.5.2.9.5.5.3.4.3.9.5.5.3.5.3.9.5.5.3.4.3.9.5.5.3.4.5 1 .5.5 0 .3-.3.7-.6.4-.3.4-.3.7-.6.2-.3.4-.6.5-.9.1-.3.1-.7 0-1.1 0-.3-.2-.7-.3-1-.1-.3-.1-.7-.2-1-.1-.3-.3-.6-.5-.9-.2-.3-.3-.6-.5-.9-.2-.3-.2-.7-.4-1l-.6-.9-.6-.9c-.2-.3-.3-.6-.5-.9-.2-.3-.3-.6-.5-1-.2-.3-.3-.6-.5-.9-.2-.3-.3-.6-.4-1-.1-.3-.4-.6-.5-.9-.1-.3-.2-.7-.4-1-.1-.3-.2-.7-.3-1-.1-.3-.3-.7-.4-1-.1-.3-.2-.7-.3-1-.1-.4-.3-.7-.3-1-.1-.4-.2-.7-.2-1-.1-.4-.1-.8-.1-1.1 0-.4.1-.7 0-1-.1-.3-.3-.6-.5-.8-.2-.2-.5-.4-.8-.5-.4-.1-.7-.2-1-.1-.3 0-.6.3-.7.8-.1.3-.2.6-.3 1.1 0 .3 0 .7.1 1.1.1.1.2.5.3.9z" id="XMLID_891_"/></g><g id="XMLID_886_"><path class="st3" d="M122.9 324.1c-.4 0-.7-.2-.9-.4-.1-.1-.1-.1-.3-.2-.2-.1-.4-.2-.5-.3-.1-.1-.2-.1-.4-.2s-.4-.2-.5-.3c-.1-.1-.2-.1-.4-.3-.3-.1-.4-.2-.5-.3-.1-.1-.2-.1-.4-.2s-.3-.2-.4-.2c-.1-.1-.3-.1-.5-.3-.2-.1-.4-.2-.5-.3-.1-.1-.2-.1-.4-.2s-.3-.1-.4-.2c-.1 0-.3-.1-.6-.2-.2-.1-.4-.2-.5-.3-.1-.1-.2-.1-.4-.2-.3-.1-.4-.2-.5-.3-.1-.1-.2-.1-.4-.2s-.3-.2-.4-.2c-.1-.1-.3-.1-.5-.3-.2-.1-.4-.2-.5-.3-.1-.1-.2-.1-.4-.2s-.3-.2-.4-.2c-.1-.1-.2-.1-.5-.3-.3-.1-.4-.2-.5-.3-.1-.1-.2-.1-.4-.2s-.4-.2-.5-.3c-.1-.1-.2-.1-.4-.2s-.3-.2-.4-.2c-.1-.1-.3-.1-.5-.3-.2-.1-.3-.2-.4-.2-.1-.1-.2-.1-.5-.3-.3-.2-.4-.3-.5-.4-.1-.1-.2-.1-.3-.2-.2-.1-.3-.1-.4-.1-.1 0-.3-.1-.6-.2-.2-.1-.4-.2-.5-.3-.1-.1-.2-.1-.4-.2-.3-.1-.4-.3-.5-.3-.1-.1-.2-.1-.4-.2s-.3-.2-.4-.2c-.1-.1-.3-.1-.5-.2s-.3-.2-.4-.2c-.1-.1-.3-.1-.5-.3-.3-.1-.4-.2-.5-.3-.1-.1-.2-.1-.4-.2s-.3-.2-.4-.2c-.1-.1-.3-.1-.5-.3-.2-.1-.4-.2-.5-.3-.1-.1-.2-.1-.4-.2l-.9-.5c-.1-.1-.2-.1-.3-.1-.2-.1-.4-.2-.7-.4-.5-.5-.2-1-.1-1.1.1-.1.1-.2.2-.3 0-.2.1-.3.1-.5s.1-.3.1-.5c0-.1.1-.3.1-.4 0-.2.1-.4.1-.6 0-.2.1-.3.2-.5 0-.1.1-.3.1-.4 0-.2.1-.4.2-.5 0-.1.1-.3.1-.4 0-.1.1-.3.1-.4 0-.2.1-.4.1-.6.1-.2.1-.4.2-.5.1-.1.1-.3.2-.4 0-.1.1-.3.1-.4 0-.2.1-.4.1-.6.1-.2.2-.4.2-.7l.2-.6c.1-.2.2-.4.2-.6l.3-.6.2-.3c.1-.2.2-.4.3-.5.1-.1.1-.2.2-.3l.3-.6.2-.3c.1-.1.1-.3.1-.4.1-.2.1-.4.2-.6.1-.2.2-.4.3-.5.1-.1.1-.2.2-.3l.2-.3.3-.6c.1-.1.1-.2.1-.3.1-.3.3-.6.8-.7.6-.1.8.1 1 .4l.2.2.2.2c.2.1.4.3.6.5.2.2.3.4.4.6 0 .1.1.2.1.2.2.3.3.6.5.9.1.4.2.8.2 1.1v1.1c0 .3-.1.6-.1.7.1.1.1.1.2.1s.3.1.5.2c.3.1.4.2.5.2.1.1.2.1.4.2s.4.2.5.2c.1.1.2.1.4.2s.4.2.5.2c.1.1.2.1.5.2.2.1.3.1.4.1.1 0 .3.1.6.2.2.1.4.2.5.2.1.1.2.1.5.2s.4.2.5.2c.1.1.2.1.4.2h.1v-.2c-.1-.5-.1-.9-.1-1.2 0-.5.2-.9.3-1.2.1-.2.4-1 1.2-1.1.3 0 .8 0 1.2.2.4.1.7.4 1 .6.3.3.5.6.6 1.1.1.4.1.7 0 1.2 0 .2 0 .5.1.9 0 .3.1.7.2 1 0 .2.1.3.2.5s.1.3.2.5c0 .1.1.3.1.5s.1.4.2.6c.1.2.1.3.2.5s.2.3.2.5c.1.2.1.3.2.5s.1.3.2.5.1.3.2.5.1.3.2.5c.1.1.1.3.2.4.1.2.2.3.3.5l.2.4.3.6c.1.2.2.4.3.5.1.1.1.3.2.4.1.1.1.3.2.4.1.2.2.3.2.5.2.3.3.6.5.9.1.1.2.3.3.4.1.1.2.3.3.5.1.1.2.3.3.4.1.2.2.3.3.5l.3.6c.1.1.1.3.2.4.2.3.3.6.5.9.1.1.1.2.2.4l.3.6c.1.3.2.5.2.7 0 .1 0 .2.1.3 0 .1.1.2.1.3.1.3.2.5.2.8 0 .4.1.8 0 1.2-.1.4-.4.8-.6 1.1v.1c-.2.2-.3.3-.5.4l-.2.2c-.1.1-.1.1-.1.2-.1.2-.3.5-.9.6l-.8-.4zm-.1-1.1h.1c.1-.1.2-.3.4-.5l.2-.2.4-.4c.2-.2.3-.5.4-.7.1-.2 0-.5 0-.9 0-.2-.1-.4-.1-.6 0-.1-.1-.2-.1-.3 0-.1-.1-.3-.1-.4 0-.2-.1-.4-.1-.5-.1-.2-.2-.3-.2-.5-.1-.1-.2-.3-.2-.4-.1-.3-.3-.6-.5-.9-.1-.2-.2-.3-.2-.5-.1-.1-.1-.3-.2-.4-.1-.1-.2-.3-.3-.4-.1-.1-.2-.3-.3-.5-.1-.1-.2-.3-.3-.4-.1-.2-.2-.3-.3-.5-.2-.3-.3-.6-.5-.9l-.3-.6c-.1-.1-.1-.3-.2-.4-.1-.1-.1-.3-.2-.4l-.3-.6-.3-.6-.2-.3c-.1-.1-.1-.3-.2-.4l-.3-.6c-.1-.2-.1-.4-.2-.6 0-.1-.1-.3-.2-.4-.1-.2-.1-.4-.2-.6 0-.1-.1-.3-.1-.4-.1-.1-.1-.3-.2-.4l-.3-.6c-.1-.2-.1-.4-.2-.6 0-.1-.1-.3-.1-.4 0-.1-.1-.3-.1-.4-.1-.2-.2-.4-.2-.6-.1-.4-.2-.7-.2-1.1-.1-.5-.1-.9-.1-1.2 0-.3.1-.6 0-.7-.1-.2-.2-.4-.4-.6-.2-.2-.4-.3-.6-.4-.3-.1-.6-.1-.7-.1-.1 0-.2.1-.3.4-.1.2-.2.5-.2.9 0 .3 0 .6.1 1 0 .3.1.7.2 1.1l.1.7h-.7c-.5 0-.7-.1-.9-.3-.1-.1-.1-.1-.3-.2-.3-.1-.4-.2-.5-.2-.1-.1-.2-.1-.4-.2s-.4-.2-.5-.2c-.1-.1-.2-.1-.5-.2-.2-.1-.3-.1-.4-.1-.1 0-.3-.1-.6-.2-.2-.1-.4-.2-.5-.2-.1-.1-.2-.1-.5-.2-.2-.1-.4-.2-.5-.2-.1-.1-.2-.1-.4-.2-.3-.1-.4-.2-.5-.2-.1-.1-.2-.1-.4-.2-.1-.1-.2-.1-.3-.1-.3 0-.5-.1-.8-.4-.4-.4-.4-.8-.3-1.1 0-.1.1-.2.1-.4v-.3-.7c0-.3-.1-.7-.2-1-.1-.2-.2-.5-.3-.7-.1-.1-.1-.2-.2-.3-.1-.2-.2-.3-.3-.4-.1-.1-.3-.2-.4-.3-.1-.1-.2-.1-.3-.2l-.3-.3c0 .1-.1.3-.2.5l-.3.6-.2.3c-.1.1-.1.2-.2.4s-.2.3-.3.5c-.1.1-.1.2-.1.4-.1.2-.1.4-.2.6l-.2.3-.3.6c-.1.2-.2.3-.3.5-.1.1-.2.3-.2.4l-.2.3-.3.6c-.1.2-.1.4-.2.6l-.3.7c-.1.2-.2.4-.2.6 0 .1-.1.3-.1.4 0 .2-.1.4-.1.6-.1.2-.1.4-.2.5-.1.1-.1.3-.2.4 0 .2-.1.3-.1.5s-.1.4-.1.5c0 .2-.1.3-.1.5-.1.2-.1.3-.1.5s-.1.3-.1.5-.1.3-.1.5-.1.4-.1.5c0 .2-.1.3-.1.4 0 .2-.1.4-.1.5 0 .2-.1.3-.1.4-.1.3-.2.5-.2.6.1 0 .1.1.2.1s.3.1.5.2l.9.5c.2.1.4.2.5.3.1.1.2.1.4.2s.3.2.4.2c.1.1.3.1.5.3.3.1.4.2.5.3.1.1.2.1.4.2s.3.2.4.2c.1.1.3.1.5.3.2.1.3.2.4.2.1.1.3.1.5.2.3.1.4.3.5.3.1.1.2.1.4.2s.4.2.5.3c.1.1.2.1.4.2s.3.1.4.1c.1 0 .3.1.6.2.3.2.4.3.5.4.1.1.2.1.3.2.2.1.3.2.4.2.1.1.2.1.5.3.2.1.3.2.4.2.1.1.3.1.5.3.2.1.4.2.5.3.1.1.2.1.4.2.3.1.4.2.5.3.1.1.2.1.4.2s.3.2.4.2c.1.1.2.1.5.3.2.1.4.2.5.3.1.1.2.1.4.3.2.1.3.2.4.2.1.1.3.1.5.2.3.1.4.2.5.3.1.1.2.1.4.2s.4.2.5.3c.1.1.2.1.4.2s.3.1.4.2c.1 0 .3.1.6.2.2.1.4.2.5.3.1.1.2.1.4.2s.3.2.4.2c.1.1.3.1.5.3.2.1.4.2.5.3.1.1.2.1.4.2s.4.2.5.3c.1.1.2.1.4.3.2.1.4.2.5.3.1.1.2.1.4.2.6-.3.7-.2.9 0-.1 0 0 0 0 0z" id="XMLID_887_"/></g></g><g id="XMLID_880_"><g id="XMLID_883_"><path class="st2" d="M114.4 303.4c.1.3 0 .7.1 1 .1.3.2.7.3 1 .1.3.3.6.4 1 .1.3.3.6.5.9.2.3.2.7.3 1 .2.3.3.7.5 1 .2.3.3.7.5 1l.6.9.6.9c.2.3.5.5.7.8.3.3.5.5.8.7.3.2.5.5.9.7.3.2.7.2 1 .3.3.1.6.4 1 .5" id="XMLID_884_"/></g><g id="XMLID_881_"><path class="st3" d="M122.5 315.6c-.3-.1-.5-.2-.7-.3-.1-.1-.2-.1-.3-.2-.1-.1-.3-.1-.4-.1-.2-.1-.5-.1-.7-.3-.3-.1-.5-.3-.7-.5-.1-.1-.2-.1-.3-.2l-.2-.1c-.2-.2-.5-.4-.7-.6l-.2-.2c-.2-.2-.4-.4-.6-.7l-.6-.9c-.2-.3-.4-.6-.6-1l-.3-.6-.2-.3c-.2-.3-.3-.6-.5-1-.1-.2-.1-.4-.2-.6 0-.1-.1-.3-.1-.4-.1-.1-.1-.3-.2-.4l-.3-.6c-.1-.1-.1-.3-.2-.4l-.3-.6-.3-.9v-.1c-.1-.3-.1-.5-.1-.7v-.4l1-.2c0 .2 0 .3.1.5 0 .2 0 .4.1.5v.1c.1.3.2.6.3.8.1.2.1.3.2.4.1.2.2.3.2.5.1.2.1.3.2.5.1.1.2.3.2.5.1.2.1.4.2.6 0 .1.1.3.1.4.2.3.3.7.5 1l.2.4.3.6c.2.3.4.6.5.9l.6.9c.2.2.3.4.5.6l.2.2c.2.2.4.3.6.5l.2.1.3.3c.2.1.3.3.5.4.1.1.3.1.4.2.2 0 .4.1.5.2.1.1.3.1.4.2.2.1.3.2.5.2l-.1.8z" id="XMLID_882_"/></g></g><g id="XMLID_873_"><g id="XMLID_878_"><path class="st0" d="M124.4 318.6c-.3-.3-.4-.3-.9-.3-.3 0-.6 0-.9.2-.2.1-.4.4-.6.7-.1.3-.3.6-.3.8-.3.8 0 1-.3.8-.5-.3-.4-.3-.9-.6s-.5-.2-1-.4c-.5-.3-.4-.3-.9-.6s-.4-.3-.9-.5c-.5-.3-.5-.2-.9-.5-.5-.3-.5-.2-.9-.5-.5-.3-.4-.3-.9-.6s-.5-.2-1-.4c-.5-.3-.4-.3-.9-.6s-.5-.2-1-.4c-.5-.3-.4-.3-.9-.5-.5-.3-.4-.3-.9-.6s-.5-.2-1-.4c-.5-.3-.4-.3-.9-.5-.5-.3-.4-.3-.9-.6s-.5-.2-.9-.5c-.5-.3-.5-.2-.9-.5-.5-.3-.4-.3-.9-.5-.5-.3-.4-.3-.9-.5-.5-.3-.4-.3-.9-.6s-.4-.3-.9-.5c-.5-.3-.5-.2-.9-.5-.5-.3-.5-.2-.9-.5-.5-.3-.5-.2-.9-.5s-.4-.7-.9-.5c-.5.2-.1.5-.2 1s-.5.6-.2 1.1c.2.5.5.3.9.5l1 .4c.5.3.4.3.9.5.5.3.5.2.9.5.5.3.5.2.9.5.5.3.5.2.9.5.5.3.4.3.9.6s.5.2.9.4c.5.3.5.2.9.5.5.3.5.3.9.5.5.3.4.3.9.6s.5.3.9.5c.5.3.5.2 1 .4.5.3.5.2.9.5.5.3.4.3.9.6s.4.3.9.6.5.2 1 .4c.5.3.4.3.9.6s.5.2.9.4c.5.3.5.3.9.5.5.3.5.2.9.5.5.3.5.3.9.5.5.3.5.2.9.5.5.3.5.2.9.5.5.3.5.2.9.5.5.3.4.3.9.6s.4.4.9.5c.6.1.5-.3.9-.8.2-.3.4-.6.6-1 .2-.3.4-.6.5-1 .1-.3 0-.7 0-1.1.1-.5-.1-.8-.3-1.2z" id="XMLID_879_"/></g><g id="XMLID_874_"><path class="st3" d="M123.1 324.1h-.3c-.4-.1-.6-.2-.8-.4-.1-.1-.1-.1-.3-.2-.3-.1-.4-.2-.5-.3-.1-.1-.2-.1-.4-.2s-.3-.2-.5-.2c-.1-.1-.2-.1-.5-.3-.2-.1-.3-.2-.4-.2-.1-.1-.2-.1-.5-.3l-.9-.5c-.2-.1-.4-.2-.5-.3-.1-.1-.2-.1-.4-.3-.2-.1-.3-.2-.4-.2-.1-.1-.3-.1-.5-.3-.2-.1-.4-.2-.5-.3-.1-.1-.2-.1-.4-.3-.2-.1-.3-.2-.4-.2-.1-.1-.3-.1-.5-.2-.3-.1-.4-.2-.5-.3-.1-.1-.2-.1-.4-.2s-.3-.1-.4-.2c-.1-.1-.3-.1-.5-.2-.3-.1-.4-.2-.5-.3-.1-.1-.2-.1-.4-.2-.3-.1-.4-.2-.5-.3-.1-.1-.2-.1-.4-.2s-.3-.2-.4-.2c-.1-.1-.3-.1-.5-.3-.2-.1-.3-.1-.4-.2-.1-.1-.3-.1-.6-.2l-.9-.6c-.3-.1-.4-.2-.5-.3-.1-.1-.2-.1-.4-.2l-.9-.5c-.2-.1-.3-.2-.5-.2-.1-.1-.2-.1-.5-.3-.2-.1-.3-.1-.4-.2-.1-.1-.3-.1-.5-.2-.3-.1-.4-.2-.5-.3-.1-.1-.2-.1-.4-.2s-.3-.2-.5-.2c-.1-.1-.2-.1-.5-.3l-.4-.2c-.1-.1-.2-.1-.5-.3l-.9-.5c-.2-.1-.4-.2-.5-.3-.1-.1-.2-.1-.4-.2s-.3-.1-.4-.2c-.1-.1-.3-.1-.5-.2-.1-.1-.2-.1-.3-.1-.2 0-.6-.1-.9-.7-.2-.6 0-.9.1-1.1.1-.1.1-.2.1-.3v-.3c0-.2-.1-.8.5-1.1.7-.3 1 .1 1.2.3.1.1.1.2.2.2.2.1.3.2.4.2.1.1.2.1.5.3.2.1.3.2.4.2.1.1.2.1.5.3.2.1.3.2.4.2.1.1.3.1.5.3.2.1.4.2.5.3.1.1.2.1.4.3.2.1.4.2.5.3.1.1.2.1.4.3.2.1.4.2.5.3.1.1.2.1.4.3.2.1.4.2.5.3.1.1.2.1.4.3.2.1.3.2.4.2.1.1.3.1.5.3.2.1.3.2.4.2.1.1.2.1.5.3.3.2.4.3.5.4.1.1.2.1.4.2s.3.2.5.3c.1.1.2.1.4.3.2.1.3.1.4.2.1 0 .3.1.6.3.3.1.4.2.5.3.1.1.2.1.4.3.2.1.4.2.5.3.1.1.2.1.4.3.2.1.3.1.4.2.1 0 .3.1.6.3.3.2.4.3.5.4.1.1.2.1.4.2s.3.1.4.2c.1 0 .3.1.6.3.3.1.4.2.5.3.1.1.2.1.4.2s.3.2.4.2c.1.1.2.1.5.3.2.1.3.2.4.2.1.1.3.1.5.3.2.1.3.2.5.3.1.1.2.1.4.3.3.1.4.2.5.3.1.1.2.1.4.2s.3.1.4.2c.1 0 .3.1.6.3.2.1.3.2.4.2 0-.1 0-.1.1-.2l.3-.8c.2-.5.5-.8.8-1 .4-.2.8-.3 1.3-.2h.2c.4 0 .6.1 1 .5l.1.1.1.2c.2.3.3.6.4 1 .1.5.1.9 0 1.3s-.3.7-.4 1l-.1.2c0 .1-.1.2-.1.3-.1.3-.3.6-.5.8-.1.1-.2.2-.2.3-.3-.6-.6-.2-1.1-.2zm-24.4-14.3c.2 0 .4.1.6.2.2.1.3.1.4.2.1.1.3.1.5.2s.4.2.5.3c.1.1.2.1.4.2l1.8 1c.2.1.3.2.5.2.1.1.2.1.5.3.3.1.4.2.5.3.1.1.2.1.4.2s.3.1.4.2c.1.1.3.1.5.2s.3.2.4.2c.1.1.2.1.5.3l.9.5c.3.1.4.2.5.3.1.1.2.1.4.2l.9.5c.2.1.3.1.4.2.1.1.3.1.6.2.2.1.3.2.4.2.1.1.3.1.5.3.3.1.4.2.5.3.1.1.2.1.4.2.3.1.4.2.5.3.1.1.2.1.4.2s.3.1.4.2c.1.1.3.1.5.2.3.1.4.2.5.3.1.1.2.1.4.2s.3.2.4.2c.1.1.3.1.5.2s.4.2.5.3c.1.1.2.1.4.2s.3.2.4.2c.1.1.3.1.5.3.2.1.4.2.5.3.1.1.2.1.4.2l.9.5c.2.1.3.2.4.2.1.1.2.1.5.3.2.1.3.2.5.2.1.1.2.1.5.3.3.1.4.2.5.3.1.1.2.1.4.2s.4.2.5.3c.1.1.1.1.3.1v-.1c.1-.1.2-.3.4-.5.1-.1.2-.3.3-.6 0-.1.1-.2.2-.3l.1-.2c.1-.2.3-.5.3-.7v-1c0-.2-.2-.4-.3-.7v-.1l-.1-.1h-.4c-.2 0-.4 0-.6.1-.1.1-.3.2-.4.5l-.3.8c-.1.3-.1.4-.1.5 0 .1 0 .4-.3.6-.3.2-.5 0-.7-.1-.3-.2-.4-.2-.5-.3-.1-.1-.2-.1-.4-.3-.2-.1-.3-.1-.4-.2-.1 0-.3-.1-.6-.3-.3-.1-.4-.2-.5-.3-.1-.1-.2-.1-.4-.3-.2-.1-.3-.2-.5-.3-.1-.1-.2-.1-.4-.3-.2-.1-.3-.2-.4-.2-.1-.1-.3-.1-.5-.3-.2-.1-.3-.2-.4-.2-.1-.1-.2-.1-.5-.3-.3-.1-.4-.2-.5-.3-.1-.1-.2-.1-.4-.2s-.3-.1-.4-.2c-.1 0-.3-.1-.6-.3-.3-.2-.4-.3-.5-.4-.1-.1-.2-.1-.4-.2s-.3-.1-.4-.2c-.1 0-.3-.1-.6-.3-.2-.1-.4-.2-.5-.3-.1-.1-.2-.1-.4-.3-.3-.1-.4-.2-.5-.3-.1-.1-.2-.1-.4-.3-.2-.1-.3-.1-.4-.2-.1 0-.3-.1-.6-.3-.2-.1-.3-.2-.5-.3-.1-.1-.2-.1-.4-.3-.3-.2-.4-.3-.5-.4-.1-.1-.2-.1-.4-.2s-.3-.2-.4-.2c-.1-.1-.3-.1-.5-.3-.2-.1-.3-.2-.4-.2-.1-.1-.3-.1-.5-.3-.2-.1-.4-.2-.5-.3-.1-.1-.2-.1-.4-.3-.2-.1-.4-.2-.5-.3-.1-.1-.2-.1-.4-.3-.2-.1-.4-.2-.5-.3-.1-.1-.2-.1-.4-.3-.2-.1-.4-.2-.5-.3-.1-.1-.2-.1-.4-.3-.2-.1-.3-.2-.4-.2-.1-.1-.3-.1-.5-.3-.2-.1-.3-.2-.4-.2-.1-.1-.2-.1-.5-.3-.2-.1-.3-.2-.4-.2-.1-.1-.2-.1-.5-.3-.1-.1-.2-.1-.3-.2v.4c-.1.3-.2.5-.3.6v.1c.2 1.5.2 1.5.3 1.6z" id="XMLID_875_"/></g></g><g id="XMLID_866_"><g id="XMLID_871_"><path class="st0" d="M102.7 296.6c.5-.2.4.1.8.7.1.2.3.5.3.9.1.3.2.6.2 1 0 .3.1.6 0 1 0 .3-.2.7-.2 1 0 .4-.1.7-.1 1 0 .4-.1.7-.2 1-.1.4-.1.7-.2 1-.1.4-.2.7-.2 1-.1.6-.1.5-.2 1s-.1.5-.2.9c-.1.5-.2.4-.3.9-.1.5 0 .5-.1.9-.1.5.1.7-.3.9-.5.2-.4-.2-.8-.4s-.4-.3-.8-.6c-.4-.2-.5-.2-.9-.4s-.6-.1-.9-.5c-.4-.4.1-.4.3-1.1.1-.3.2-.7.3-1 .1-.3.2-.7.3-1 .1-.3.2-.7.3-1 .1-.3.1-.7.2-1.1.1-.3.2-.7.4-1 .1-.3.3-.7.4-1 .1-.3.3-.7.4-1 .1-.3.3-.7.4-1 .2-.4.3-.7.4-1 .3-.6.5-.9.7-1.1z" id="XMLID_872_"/></g><g id="XMLID_867_"><path class="st3" d="M101.8 310.3c-.4 0-.6-.2-.7-.4l-.2-.2c-.2-.1-.4-.2-.5-.3-.1-.1-.2-.1-.3-.2-.2-.1-.3-.1-.4-.2-.1 0-.3-.1-.5-.2-.1-.1-.2-.1-.3-.1-.2-.1-.5-.2-.7-.5-.5-.6-.2-1 0-1.2.1-.1.2-.2.2-.4s.1-.3.2-.5c0-.2.1-.3.2-.5 0-.2.1-.4.2-.5.1-.2.1-.3.2-.5s.1-.4.2-.7l.1-.4c0-.1.1-.3.1-.4 0-.2.1-.4.1-.6.1-.2.1-.4.2-.7l.1-.4c.1-.2.2-.4.2-.6.1-.1.1-.3.2-.4l.3-.6c.1-.1.1-.3.2-.4l.1-.3c.1-.2.2-.5.3-.7.1-.1.1-.3.2-.4l.3-.6c.2-.4.5-.8.7-1l.1-.1.1-.1c.8-.3 1.1.3 1.2.5 0 .1.1.2.2.3.2.3.3.6.4 1.1 0 .1 0 .1.1.2.1.2.1.5.2.9v1.1c0 .2-.1.4-.1.6 0 .1-.1.3-.1.4 0 .4-.1.7-.1 1 0 .2-.1.5-.1.7l-.1.7c0 .3-.1.5-.1.7-.1.3-.1.5-.2.8l-.1.3c-.1.3-.1.4-.1.5 0 .1 0 .2-.1.5-.1.2-.1.3-.1.4 0 .1 0 .3-.1.5-.1.3-.1.4-.2.5 0 .1-.1.2-.1.4v.3c0 .1 0 .3-.1.6v.3c0 .2 0 .7-.6.9-.5-.1-.6-.1-.7-.1zm-2.7-2.7s.1 0 .2.1c.1 0 .3.1.5.2s.3.1.4.2c.1 0 .3.1.5.2s.4.2.5.3c.1.1.2.1.3.2l.3.3c0-.1 0-.2.1-.4v-.3c0-.1 0-.3.1-.6s.1-.4.2-.5c0-.1.1-.2.1-.4.1-.2.1-.3.1-.4 0-.1 0-.3.1-.5s.1-.3.1-.4c0-.1 0-.3.1-.6l.1-.3c0-.2.1-.4.2-.7 0-.2.1-.4.1-.7l.1-.7c0-.2.1-.4.1-.6 0-.3.1-.7.1-1 0-.2.1-.4.1-.5 0-.2.1-.3.1-.5v-.7-.3c0-.2-.1-.4-.1-.6 0-.1 0-.2-.1-.3-.1-.3-.2-.6-.3-.7-.1-.1-.1-.2-.2-.3-.1.1-.2.3-.3.5-.1.1-.1.3-.2.5s-.1.3-.2.5l-.3.6-.1.4c-.1.1-.1.3-.2.4-.1.2-.2.4-.2.6-.1.1-.1.3-.2.4-.1.2-.2.4-.2.6l-.1.4c-.1.2-.1.4-.2.6-.1.2-.1.3-.1.5s-.1.4-.1.6l-.1.4c-.1.2-.1.4-.2.7-.1.2-.1.4-.2.6-.1.2-.1.3-.2.5s-.1.4-.2.5c-.1.2-.1.4-.1.5-.2.3-.3.5-.4.7z" id="XMLID_868_"/></g></g><g id="XMLID_859_"><g id="XMLID_864_"><path class="st1" d="M116.5 314.6c-.4 0-.6-.2-.8-.3l-.2-.2c-.3-.1-.4-.2-.5-.3-.1-.1-.2-.1-.4-.2s-.4-.2-.5-.3c-.1-.1-.2-.1-.4-.3l-.9-.5c-.2-.1-.3-.2-.4-.2-.1-.1-.2-.1-.5-.3-.2-.1-.4-.2-.5-.3-.1-.1-.2-.1-.4-.2s-.3-.2-.4-.2c-.1-.1-.3-.1-.5-.3-.2-.1-.3-.2-.4-.2-.1-.1-.2-.1-.5-.3-.2-.1-.3-.2-.5-.3-.1-.1-.2-.1-.4-.2-.3-.1-.4-.2-.5-.3-.1-.1-.2-.1-.4-.2s-.3-.1-.4-.2c-.1 0-.3-.1-.6-.3-.2-.1-.3-.2-.5-.3-.1-.1-.2-.1-.4-.2-.3-.1-.4-.2-.5-.3-.1-.1-.2-.1-.4-.2s-.3-.2-.4-.2c-.1-.1-.2-.1-.5-.3-.2-.1-.4-.2-.5-.3-.1-.1-.2-.1-.4-.2-.1-.1-.2-.1-.3-.1-.3-.1-.6-.2-.8-.7-.2-.5-.5-1.3.4-1.8.2-.1.3-.1.5-.1.4 0 .6.2.7.4.1.1.1.2.2.2.2.1.4.2.5.3.1.1.2.1.4.3.2.1.3.2.4.2.1.1.3.1.5.3.3.2.4.3.5.4.1.1.2.1.3.3.2.1.3.2.4.2.1.1.3.1.5.3.2.1.3.2.4.2.1.1.3.1.5.3.3.2.4.3.5.4.1.1.2.1.4.3.2.1.3.1.4.2.1 0 .3.1.6.3.3.2.4.2.5.3.1.1.2.1.4.3.2.1.4.2.5.3.1.1.2.1.4.3.2.1.3.2.4.2.1.1.3.1.5.3.2.1.3.2.4.3.1.1.2.1.5.3.3.2.4.3.5.4.1.1.2.1.4.3.2.1.3.1.4.2.1 0 .3.1.6.3.1.1.2.1.3.1.3.1.5.2.7.6l.2.2c.3.4.6.8.4 1.3-.1.2-.2.4-.7.5.5-.5.4-.5.3-.5z" id="XMLID_865_"/></g><g id="XMLID_860_"><path class="st3" d="M102.8 304.7c.2 0 .3.3.7.5.5.3.4.3.9.6s.5.2.9.5c.5.3.4.4.9.6.5.3.5.2 1 .5s.5.2.9.5c.5.3.4.4.9.6.5.3.5.2 1 .4.5.3.4.3.9.6s.4.3.9.6.5.2.9.5c.5.3.5.3.9.5.5.3.4.4.9.6.5.3.5.2 1 .4.5.3.6.2.9.6.3.5.9 1 .3 1.1h-.2c-.3 0-.4-.2-.8-.5s-.4-.3-.9-.6c-.4-.3-.4-.3-.9-.5-.4-.3-.4-.2-.9-.5-.4-.3-.5-.2-.9-.5s-.4-.3-.9-.5c-.4-.3-.5-.2-.9-.5s-.5-.2-.9-.5-.4-.3-.9-.5c-.4-.3-.4-.3-.9-.6-.4-.3-.5-.2-.9-.4-.4-.3-.4-.3-.9-.5-.4-.3-.4-.3-.9-.6-.4-.3-.5-.2-.9-.5s-.4-.3-.9-.5c-.4-.3-.6 0-.8-.5-.2-.5-.4-.8.2-1.1.2.3.3.2.3.2m0-1c-.3 0-.5.1-.8.2-1.3.8-.8 1.9-.6 2.4.3.8.9.9 1.2 1h.1c.2.1.3.2.4.2.1.1.2.2.5.3.3.1.4.2.5.3.1 0 .2.1.4.2s.2.1.3.2c.1.1.3.2.5.3.2.1.3.2.4.2.1.1.2.1.5.3.3.2.5.2.7.3.1 0 .2.1.3.1.2.1.2.1.3.2.1.1.3.2.6.4.2.1.3.2.4.2.1.1.2.1.5.3.3.1.4.2.5.3.1 0 .2.1.4.2.3.1.4.2.5.3.1 0 .2.1.4.2s.3.2.4.2c.1.1.2.2.5.3.3.1.4.2.5.3.1 0 .2.1.4.2s.3.2.5.3c.1.1.2.1.4.2s.3.2.4.2c.1.1.2.2.5.3.2.1.2.1.3.2.1.1.3.2.5.4l.1.1c.2.2.5.5 1.1.5h.3c.7-.1 1-.6 1.1-.8.3-.7-.2-1.3-.5-1.8l-.2-.2c-.4-.5-.7-.7-1-.8-.1 0-.1-.1-.2-.1-.3-.2-.5-.3-.7-.3-.1 0-.2-.1-.3-.1-.1-.1-.2-.1-.3-.2-.1-.1-.3-.2-.6-.4-.2-.1-.4-.2-.5-.3-.1-.1-.2-.1-.4-.2-.3-.2-.4-.2-.6-.3-.1 0-.2-.1-.4-.2s-.3-.2-.4-.3c-.1-.1-.2-.2-.5-.3-.2-.1-.2-.2-.3-.2-.1-.1-.3-.2-.6-.4s-.5-.3-.7-.3c-.1 0-.2-.1-.3-.1-.1-.1-.2-.1-.3-.2-.1-.1-.3-.2-.6-.4s-.4-.2-.5-.3c-.1-.1-.2-.1-.4-.2-.3-.2-.5-.2-.6-.3-.1 0-.2-.1-.3-.2-.1-.1-.2-.1-.3-.2-.1-.1-.3-.3-.6-.5s-.4-.2-.5-.3c-.1-.1-.2-.1-.4-.2s-.3-.2-.4-.2c-.1-.1-.3-.2-.5-.3l-.1-.1c0-.2-.4-.6-1-.6z" id="XMLID_861_"/></g></g><g id="XMLID_852_"><g id="XMLID_857_"><path class="st1" d="M115 310.8c-.4 0-.6-.2-.8-.4l-.2-.2c-.2-.1-.3-.2-.5-.3-.1-.1-.2-.1-.4-.3-.2-.1-.3-.2-.4-.2-.1-.1-.3-.1-.5-.3-.2-.1-.4-.2-.5-.3-.1-.1-.2-.1-.4-.3-.2-.1-.3-.2-.4-.2-.1-.1-.3-.1-.5-.3-.3-.2-.4-.3-.5-.4-.1-.1-.2-.1-.3-.2l-.4-.2c-.1 0-.3-.1-.6-.2-.2-.1-.3-.2-.5-.3-.1-.1-.2-.1-.4-.3-.2-.1-.4-.2-.5-.3-.1-.1-.2-.1-.4-.2l-.9-.5c-.2-.1-.3-.2-.4-.2-.1-.1-.3-.1-.5-.3-.2-.1-.3-.2-.5-.3-.1-.1-.2-.1-.4-.3-.2-.1-.3-.2-.5-.3-.1-.1-.2-.1-.4-.3-.2-.1-.3-.2-.5-.3-.1-.1-.2-.1-.4-.3-.2-.1-.4-.2-.5-.3-.1-.1-.2-.1-.4-.2-.1-.1-.2-.1-.3-.1-.3 0-.6-.1-.8-.7-.2-.5-.5-1.2.4-1.8.2-.1.3-.1.5-.1.4 0 .6.3.7.4.1.1.1.2.2.2.2.1.3.2.4.2.1.1.3.1.5.3.2.1.4.2.5.3.1.1.2.1.4.3.2.1.3.2.4.2.1.1.3.1.5.3.3.2.4.3.5.4.1.1.2.1.3.3.2.1.3.2.4.2.1.1.3.1.5.3.3.2.4.3.5.4.1.1.2.1.4.3.2.1.3.2.4.2.1.1.3.1.5.3.3.1.4.2.5.3.1.1.2.1.4.3.2.1.3.1.4.2.1 0 .3.1.6.3.2.1.4.2.5.3.1.1.2.1.4.3.2.1.4.2.5.3.1.1.2.1.4.3.3.2.4.2.5.3.1.1.2.1.4.3l.9.5c.1.1.2.1.3.1.3.1.6.1.8.5l.2.2c.3.4.6.8.4 1.2-.1.2-.2.4-.7.5.3.4.3.4.2.4z" id="XMLID_858_"/></g><g id="XMLID_853_"><path class="st3" d="M101.3 301c.2 0 .3.4.7.6.5.3.5.2 1 .5s.5.3.9.6c.5.3.5.2.9.5.5.3.4.4.9.6.5.3.5.2 1 .5s.4.3.9.6.5.2.9.5c.5.3.4.3.9.6s.5.1 1 .4c.5.3.5.3.9.6.5.3.4.3.9.6s.4.3.9.6.5.3.9.5c.5.3.7.1 1 .5.3.5.9 1 .3 1.1h-.2c-.3 0-.3-.3-.7-.5-.4-.3-.4-.3-.9-.5-.4-.3-.5-.2-.9-.4-.4-.3-.4-.3-.9-.5-.4-.3-.5-.2-.9-.5l-.8-.6c-.4-.3-.5-.1-1-.4-.4-.3-.4-.3-.9-.5-.4-.3-.4-.3-.9-.5-.4-.3-.4-.2-.9-.5-.4-.3-.5-.2-.9-.5s-.4-.3-.9-.5c-.4-.3-.4-.3-.9-.5-.4-.3-.4-.3-.9-.5-.4-.3-.4-.3-.9-.5-.4-.3-.7 0-.9-.5-.2-.5-.3-.8.2-1.1.1-.3.1-.3.2-.3m0-1c-.3 0-.5.1-.8.2-1.3.8-.9 1.9-.6 2.4.3.8 1 .9 1.2 1h.1c.2.1.3.2.4.2.1.1.3.2.5.3.2.1.3.2.4.2.1.1.2.1.5.3.2.1.3.2.4.2.1.1.2.1.5.3.2.1.3.2.4.2.1.1.2.1.5.3.3.2.4.2.6.3.1 0 .2.1.4.2s.3.2.5.3c.1.1.2.1.4.2s.3.2.4.2c.1.1.3.2.5.3.2.1.3.2.4.2.1.1.2.1.5.3.3.2.5.2.7.3.1 0 .1 0 .2.1s.2.1.3.2c.1.1.3.2.6.4s.4.2.6.3c.1 0 .2.1.3.2.2.1.3.2.4.2.1.1.2.2.5.3.3.2.5.2.6.3.1 0 .2.1.3.2.2.1.3.2.4.2.1.1.2.1.5.3l.1.1c.1.2.5.6 1.2.6h.4c.7-.1 1-.6 1.1-.8.3-.7-.2-1.3-.5-1.8l-.2-.2c-.4-.5-.8-.7-1.2-.8h-.1l-.5-.3-.5-.3c-.2-.1-.2-.2-.3-.2-.1-.1-.3-.2-.6-.4-.2-.1-.3-.2-.4-.2-.1-.1-.2-.2-.5-.3-.2-.1-.3-.2-.4-.3-.1-.1-.2-.2-.5-.3-.3-.2-.5-.3-.7-.3-.1 0-.1 0-.2-.1-.2-.1-.3-.2-.4-.2-.1-.1-.3-.2-.5-.3-.3-.2-.4-.2-.5-.3-.1-.1-.2-.1-.4-.2s-.2-.1-.3-.2c-.1-.1-.3-.2-.6-.4s-.5-.2-.6-.3c-.1 0-.2-.1-.3-.2-.1-.1-.2-.1-.3-.2-.1-.1-.3-.3-.6-.4-.3-.2-.4-.2-.6-.3-.1 0-.2-.1-.4-.2s-.3-.2-.4-.3c-.1-.1-.2-.1-.5-.3-.3-.2-.4-.2-.6-.3-.1 0-.2-.1-.4-.2l-.1-.1c-.3-.2-.6-.6-1.3-.6z" id="XMLID_854_"/></g></g><g id="XMLID_847_"><g id="XMLID_850_"><path class="st2" d="M122.2 312.6c-.1.1-.5.2-.9.4-.3.1-.6.2-1 .3-.3.1-.6.2-1 .4-.3.1-.6.4-.9.5-.3.2-.6.3-.9.5" id="XMLID_851_"/></g><g id="XMLID_848_"><path class="st3" d="M117.9 315.1l-.6-.9c.2-.1.4-.3.6-.4.1 0 .2-.1.3-.2.1-.1.2-.1.3-.2l.6-.3c.2-.1.4-.2.6-.2.1 0 .2-.1.3-.1.2-.1.4-.2.7-.2.1 0 .2-.1.3-.1.3-.1.5-.2.7-.3.1 0 .2-.1.2-.1l.4 1s-.1 0-.1.1c-.2.1-.5.2-.8.3-.1 0-.3.1-.4.1-.2 0-.4.1-.5.2-.1 0-.2.1-.4.1-.2.1-.4.1-.5.2-.1.1-.3.2-.4.3-.1.1-.3.2-.4.3-.1.1-.2.1-.3.2-.2 0-.4.1-.6.2z" id="XMLID_849_"/></g></g><g id="XMLID_842_"><g id="XMLID_845_"><path class="st2" d="M120.7 308.5c-.1.1-.5.2-.9.4-.3.1-.6.2-1 .3-.3.1-.6.2-1 .4-.3.1-.6.4-.9.5-.3.2-.6.3-.9.5" id="XMLID_846_"/></g><g id="XMLID_843_"><path class="st3" d="M116.4 311.1l-.6-.9c.2-.1.4-.3.6-.4.1 0 .2-.1.3-.2.1-.1.2-.1.3-.2l.6-.3.6-.3c.1 0 .2-.1.3-.1.2-.1.4-.2.7-.2.1 0 .2-.1.3-.1.3-.1.5-.2.7-.3.1 0 .2-.1.2-.1l.4 1s-.1 0-.1.1c-.2.1-.5.2-.8.3-.1 0-.3.1-.4.1-.2 0-.4.1-.5.2-.1 0-.2.1-.4.1-.2.1-.4.1-.5.2-.2.1-.3.2-.4.3-.1.1-.3.2-.4.3-.1.1-.2.1-.3.2-.2.1-.4.1-.6.3z" id="XMLID_844_"/></g></g><g id="XMLID_837_"><g id="XMLID_840_"><path class="st2" d="M119.2 305c-.3-.1-.7 0-1.1.1-.3 0-.7.1-1.1.2-.3.1-.7.2-1 .3-.3.1-.6.4-.9.6-.3.2-.6.3-.9.5" id="XMLID_841_"/></g><g id="XMLID_838_"><path class="st3" d="M114.4 307.1l-.6-.9c.2-.2.5-.3.7-.4.1-.1.2-.1.3-.2.1-.1.2-.1.3-.2.2-.1.4-.3.6-.4l.9-.3.2-.1c.4-.1.7-.1 1-.2h.4c.3 0 .7-.1 1.1 0l-.2 1h-.7l-.4.1c-.3 0-.5.1-.8.1l-.3.1c-.2.1-.5.1-.7.2-.2.1-.3.2-.5.3-.1.1-.3.2-.4.2-.1.1-.2.1-.3.2-.2.2-.4.3-.6.5z" id="XMLID_839_"/></g></g></g><g id="XMLID_770_"><g id="XMLID_829_"><g id="XMLID_834_"><path class="st0" d="M64.7 276.2l-6.4-11.9s-2.1 1-2.2 1.2-2.6 6.3-2.6 6.3l3 5.8 3.5 2.8s2-1.6 2.1-1.8 2.6-2.4 2.6-2.4z" id="XMLID_835_"/></g><g id="XMLID_830_"><path class="st3" d="M60.1 280.8c-.1 0-.2 0-.3-.1-.4-.2-.6-.3-.8-.5-.1-.1-.1-.2-.3-.3-.2-.2-.3-.3-.5-.4-.1-.1-.2-.2-.4-.3-.2-.2-.3-.2-.4-.3-.1-.1-.2-.2-.5-.3-.1-.1-.2-.2-.3-.2-.2-.1-.4-.2-.6-.5-.3-.3-.3-.5-.4-.7 0-.1-.1-.2-.2-.3-.1-.2-.2-.3-.2-.4-.1-.1-.2-.3-.3-.5-.1-.2-.2-.4-.2-.5-.1-.1-.1-.2-.2-.5s-.2-.4-.2-.5c0-.1-.1-.2-.2-.5s-.2-.4-.2-.5c-.1-.1-.1-.2-.2-.5-.1-.1-.1-.2-.2-.3-.1-.2-.2-.4-.3-.8-.1-.4 0-.7.2-.9.1-.1.1-.1.2-.3 0-.1.1-.2.1-.4.1-.2.1-.4.2-.5.1-.2.2-.3.2-.5.1-.1.1-.2.2-.4s.1-.3.2-.5l.2-.4c.1-.1.1-.3.1-.4 0-.2.1-.4.2-.5.1-.2.2-.4.3-.5.1-.1.1-.2.2-.3.1-.3.4-.9.5-1 .1-.1.6-.5 1.2-.8l.3-.3c.2-.2.6-.7 1.3-.2.4.3.5.5.6.8 0 .1.1.2.1.3.1.3.2.4.2.6 0 .1.1.2.2.4s.2.3.2.4c.1.1.1.2.3.5.1.2.2.3.2.4.1.1.2.2.3.5.1.2.2.4.2.5.1.1.1.2.2.4.1.3.2.4.2.5 0 .1.1.2.2.4s.2.3.2.3c.1.1.2.2.4.5.1.3.2.4.2.5 0 .1.1.2.2.4s.2.4.2.5c.1.1.1.2.2.4l.5.9c.1.2.2.3.2.4.1.1.1.2.3.5l.5.9c.1.1.1.2.2.3.2.2.3.4.3.9.1.8-.5.9-.7 1-.1 0-.2.1-.3.2-.2.2-.4.4-.7.6l-.2.2c-.5.5-.8.7-.8.7 0 .1-.2.2-.4.4-.1.1-.2.2-.4.3l-.3.3-.4.4-.2.2c.1-.1-.1.3-.6.3zm-6.1-9.3s.1 0 0 0c.1.3.1.4.2.5.1.1.1.2.2.4s.2.4.2.5c.1.1.1.2.2.5s.2.4.2.5c0 .1.1.2.2.5.1.2.2.4.2.5.1.1.1.2.2.5.1.2.2.3.2.4.1.1.2.3.3.5.1.2.1.3.2.4.1.2.1.2.3.4l.3.3c.1.1.3.1.5.3.2.2.3.2.4.3.1.1.2.2.5.3.2.2.3.3.5.4.1.1.2.2.4.3l.4.4.1.1c.1-.1.2-.3.3-.4l.3-.3c.1-.1.2-.3.4-.4.1-.1.3-.2.4-.3.1-.1.2-.1.2-.2.1-.1.2-.3 1-.9l.2-.2c.2-.2.4-.4.7-.6.3-.2.5-.3.7-.3 0-.1 0-.1-.1-.2s-.1-.2-.2-.4l-.5-.9c-.1-.2-.2-.3-.2-.4-.1-.1-.1-.2-.3-.5l-.5-.9c-.1-.2-.2-.4-.2-.5-.1-.1-.1-.2-.2-.4-.1-.3-.2-.4-.2-.5 0-.1-.1-.2-.2-.4s-.2-.3-.2-.3c-.1-.1-.2-.2-.4-.5-.1-.3-.2-.4-.2-.5 0-.1-.1-.2-.2-.4s-.2-.4-.2-.5c-.1-.1-.1-.2-.2-.4s-.2-.3-.2-.4c-.1-.1-.2-.2-.3-.5-.1-.2-.2-.3-.2-.4-.1-.1-.1-.2-.3-.5-.1-.3-.2-.4-.2-.6 0-.1-.1-.2-.2-.4s-.1-.3-.2-.4c0-.1 0-.1-.2-.2-.1.1-.3.3-.6.5-.4.2-.8.5-.9.6 0 .1-.2.3-.3.7-.1.1-.1.3-.2.4-.1.1-.2.3-.2.5 0 .1-.1.2-.1.4s-.1.4-.2.6c-.1.1-.1.3-.2.4-.1.2-.1.3-.2.5s-.2.4-.3.5c-.1.1-.1.2-.2.3-.1.2-.1.3-.2.5s-.1.3-.2.4c-.1.2-.2.3-.3.4z" id="XMLID_831_"/></g></g><g id="XMLID_826_"><g id="XMLID_827_"><path d="M51.9 269l-.5-.9c.3-.1.4-.2.6-.3.1 0 .2-.1.4-.2s.3-.2.4-.3c.1-.1.3-.2.5-.4.3-.1.4-.2.5-.3.1 0 .2-.1.4-.2s.4-.2.5-.3c.1-.1.2-.1.5-.3l1-.5c.2-.1.3-.2.5-.3.1-.1.2-.1.5-.3l1-.5.5.9-1 .5c-.2.1-.3.2-.5.3-.1.1-.2.1-.5.3l-1 .5c-.2.1-.4.2-.5.3-.1.1-.2.1-.5.3-.3.1-.4.2-.5.3-.1 0-.2.1-.4.2s-.3.2-.4.3c-.1.1-.3.2-.5.4-.3.1-.4.2-.6.3-.1 0-.2.1-.4.2z" fill="#010101" id="XMLID_828_"/></g></g><g id="XMLID_819_"><g id="XMLID_824_"><path class="st2" d="M59.4 278c-.4-.3-.2-.5-.5-.9-.2-.4-.2-.5-.5-.9-.2-.5-.2-.5-.5-.9-.2-.5-.3-.4-.6-.9-.2-.5-.2-.5-.5-.9-.2-.5-.2-.5-.5-.9-.2-.5-.2-.5-.5-.9-.2-.5-.4-.4-.5-.9-.1-.5.2-.3.6-.9.2-.3.4-.5.6-.9.2-.3.3-.6.5-1 .1-.3.2-.6.2-.9 0-.3.1-.6.1-.9 0-.3-.2-.6-.2-.9-.1-.5.1-.6-.3-.8-.5-.2-.3 0-.9.3-.3.1-.6.2-.9.4-.3.1-.6.2-.9.4-.3.1-.5.4-.9.5-.3.1-.6.3-.9.4-.3.1-.6.2-.9.4-.3.2-.6.3-.9.5-.3.2-.6.4-.9.5-.3.2-.6.3-.9.5-.3.2-.5.5-.8.7-.3.2-.6.3-.9.5-.3.2-.5.5-.8.7-.3.2-.6.4-.8.6-.3.2-.6.4-.8.6-.3.2-.5.5-.8.7-.3.2-.6.4-.8.6-.5.4-.8.2-.8.7.1.5.2.5.4 1l.4 1 .4 1c.2.5.3.5.5.9l.4 1c.2.5.2.5.5.9.2.5.3.5.5.9.2.5.1.5.3 1l.4 1c.2.5.3.4.5.9s.1.5.3 1c.2.5.2.5.4.9.2.5.3.5.5.9l.4 1 .4 1c.2.5.2.5.4.9l.4 1c.2.5.3.5.5.9l.4 1 .4 1c.2.5.3.4.5.9l.4 1c.2.5.2.5.5.9l.4 1 .4 1 .4 1c.2.5 0 .7.5 1 .4.3.5-.1.9-.1s.5 0 .9-.1.7-.2 1-.4c.3-.2.5-.5.7-.8.2-.3.3-.6.4-1 .1-.3.3-.6.4-1 .1-.3.1-.7.2-1 .1-.3.1-.7.2-1 .1-.3.2-.7.3-1 0-.3.1-.7.1-1 0-.3.1-.7.1-1 0-.3.1-.7.2-1 .1-.3.1-.7.2-1 .1-.3.1-.7.2-1 .1-.3.2-.7.2-1 .1-.3.1-.7.2-1.1.1-.3.2-.7.3-1 .1-.3.2-.7.3-1 .1-.3.1-.7.2-1 .1-.3.3-.7.4-1 .1-.4.2-.7.3-1 .2-.4.3-.7.5-1 .2-.4.4-.7.6-.9.3-.3.5-.5.6-.8.1-.3.2-.7.1-1 0-.3-.2-.7-.3-.9-.2-.3-.5-.6-.7-.7-.3-.2-.7-.1-1.1.2-.3.2-.6.4-.9.7l-.6.9c.2-.2 0 .1-.2.5z" id="XMLID_825_"/></g><g id="XMLID_820_"><path class="st3" d="M54.2 299.8c-.2 0-.4 0-.6-.2-.4-.3-.5-.6-.6-.9 0-.1 0-.2-.1-.3-.1-.3-.2-.4-.2-.5 0-.1-.1-.2-.2-.4s-.2-.4-.2-.5c0-.1-.1-.2-.2-.5s-.2-.4-.2-.5c0-.1-.1-.2-.2-.4s-.2-.3-.2-.4c-.1-.1-.1-.2-.2-.5s-.2-.4-.2-.5c0-.1-.1-.2-.2-.5-.1-.2-.1-.3-.2-.4-.1-.1-.2-.3-.3-.5-.1-.3-.2-.4-.2-.5 0-.1-.1-.2-.2-.5s-.2-.4-.2-.5c0-.1-.1-.2-.2-.4s-.2-.3-.2-.4c-.1-.1-.1-.3-.3-.5-.1-.2-.2-.4-.2-.5 0-.1-.1-.2-.2-.5-.1-.2-.2-.3-.2-.5-.1-.1-.1-.2-.2-.5s-.2-.4-.2-.5c0-.1-.1-.2-.2-.4-.1-.3-.2-.4-.2-.5 0-.1-.1-.2-.2-.5-.1-.2-.2-.3-.2-.4-.1-.1-.1-.3-.3-.5-.1-.2-.2-.3-.2-.4-.1-.1-.1-.2-.2-.5s-.2-.5-.2-.6c0-.1 0-.2-.1-.4s-.1-.2-.2-.3c-.1-.1-.2-.3-.3-.6-.1-.3-.2-.4-.2-.5 0-.1-.1-.2-.2-.5s-.2-.4-.2-.6c0-.1-.1-.2-.1-.4-.1-.2-.2-.3-.2-.4-.1-.1-.2-.3-.3-.5-.1-.2-.2-.3-.2-.4-.1-.1-.1-.2-.2-.5s-.2-.4-.2-.5c0-.1-.1-.2-.2-.4s-.2-.3-.2-.4c-.1-.1-.1-.2-.3-.5-.1-.3-.2-.4-.2-.5 0-.1-.1-.2-.2-.5l-.4-1c-.1-.1-.1-.2-.2-.3-.1-.2-.3-.4-.3-.8-.1-.7.4-.9.6-1 .1 0 .2-.1.3-.2.1-.1.3-.2.4-.3.1-.1.3-.2.4-.3l.3-.3c.1-.1.3-.3.5-.4.1-.1.3-.2.4-.3.1-.1.3-.2.4-.3.1-.1.3-.2.5-.3.1-.1.2-.2.4-.3l.3-.3c.1-.1.3-.3.5-.4.2-.1.3-.2.5-.3.1-.1.3-.1.4-.2l.3-.3c.1-.1.3-.3.5-.4.2-.1.4-.3.6-.4l.6-.4c.2-.1.4-.2.6-.4l.6-.3.3-.2c.2-.1.4-.2.6-.2.1 0 .3-.1.4-.2l.6-.3.3-.1c.1-.1.2-.1.4-.2s.3-.2.5-.3c.2-.1.4-.2.6-.2.1 0 .2-.1.4-.1l.3-.1c.2-.1.4-.2.6-.2.2-.1.2-.1.3-.2.3-.2.6-.3 1-.1.5.2.6.6.6.9v.3c0 .1 0 .2.1.2.1.2.1.5.2.7 0 .3 0 .5-.1.7v.3c0 .3-.1.7-.2 1-.1.4-.3.7-.5 1-.2.3-.4.5-.5.7l-.1.2c-.2.3-.4.4-.5.5 0 .1 0 .1.1.2s.2.2.3.5c.1.2.2.4.2.5.1.1.1.2.2.4s.2.4.2.5c.1.1.1.2.2.4s.2.4.2.5c.1.1.1.2.2.4s.2.3.2.4c.1.1.2.2.3.5.1.2.2.3.2.5.1.1.1.2.2.5.1.2.2.4.2.5 0 .1.1.2.2.4v.1c0-.1.1-.1.1-.2.2-.3.4-.7.7-1 .3-.4.7-.6 1-.8.2-.1.9-.5 1.6-.2.3.2.6.5.9.9.2.3.3.7.4 1.1.1.4 0 .8-.1 1.2-.1.4-.4.6-.7.9-.1.2-.3.4-.5.8-.2.3-.3.6-.5.9-.1.2-.1.3-.2.5 0 .2-.1.3-.2.5-.1.1-.1.3-.2.4-.1.2-.2.3-.2.5-.1.2-.1.3-.1.5s-.1.4-.1.5c0 .2-.1.3-.2.5s-.1.3-.2.5c0 .2-.1.3-.2.5s-.1.3-.2.5c0 .2-.1.3-.1.5s0 .4-.1.6l-.1.4c-.1.2-.1.4-.1.6 0 .2-.1.4-.1.6 0 .1 0 .3-.1.4 0 .2-.1.3-.1.5s-.1.4-.1.5c-.1.3-.1.7-.2 1v.5c0 .2 0 .4-.1.5v.5c0 .2 0 .4-.1.6 0 .2-.1.4-.1.6 0 .1-.1.3-.1.4-.1.4-.1.7-.2 1.1 0 .1 0 .3-.1.4 0 .2-.1.4-.1.7-.1.3-.2.5-.3.7-.1.1-.1.2-.1.3 0 .1-.1.2-.1.3-.1.3-.2.5-.4.8-.2.3-.5.7-.8.9-.3.3-.8.4-1.2.5h-.1c-.3 0-.4 0-.6.1h-.3c-.1 0-.1 0-.2.1.1.1-.1.2-.3.2zm0-1.1c.1.1.1.1.1 0 .1-.1.3-.1.6-.2h.8c.3-.1.6-.2.7-.3.2-.2.4-.4.5-.7.1-.2.2-.3.2-.6 0-.1.1-.2.1-.3.1-.1.1-.3.2-.4.1-.2.2-.3.2-.5s.1-.3.1-.5 0-.3.1-.5c.1-.3.1-.7.2-1 0-.2.1-.4.1-.6 0-.2.1-.3.1-.5v-.5c0-.2 0-.4.1-.5v-.5c0-.2 0-.4.1-.6 0-.4.1-.7.2-1.1 0-.2.1-.4.1-.6 0-.1.1-.3.1-.4 0-.1 0-.3.1-.4 0-.2.1-.4.1-.6 0-.2.1-.4.2-.7l.1-.4c0-.1.1-.3.1-.4 0-.2.1-.4.1-.6.1-.2.1-.4.2-.6 0-.1.1-.3.1-.4.1-.2.1-.4.2-.6.1-.1.1-.3.1-.4 0-.1.1-.3.1-.5s.1-.4.1-.6l.3-.6c.1-.1.1-.3.2-.4.1-.1.1-.3.1-.4.1-.2.1-.4.2-.6.1-.3.3-.7.5-1 .3-.5.5-.8.7-1 .2-.2.4-.4.5-.6.1-.2.1-.5.1-.7 0-.3-.1-.5-.2-.7-.2-.3-.4-.5-.5-.5-.1 0-.2 0-.5.2-.2.1-.5.3-.7.6-.2.2-.4.6-.6.8-.2.3-.4.6-.5.9l-.3.6-.5-.4c-.4-.3-.4-.5-.5-.8 0-.1 0-.2-.1-.3-.1-.2-.2-.4-.2-.5 0-.1-.1-.2-.2-.4s-.2-.3-.3-.5c-.1-.1-.1-.2-.2-.4s-.2-.3-.2-.4c-.1-.1-.2-.2-.3-.5-.1-.2-.2-.3-.2-.5-.1-.1-.1-.2-.2-.4s-.2-.4-.2-.5c-.1-.1-.1-.2-.2-.4s-.2-.4-.2-.5c-.1-.1-.1-.2-.2-.4-.1-.1-.1-.2-.2-.3-.2-.2-.3-.4-.4-.8-.1-.6.2-.8.5-1 .1-.1.2-.1.3-.2l.2-.2c.1-.2.3-.4.4-.6.2-.3.3-.6.4-.9.1-.2.1-.5.2-.8 0-.1 0-.2.1-.3 0-.2.1-.3 0-.5 0-.2-.1-.3-.1-.5 0-.1-.1-.2-.1-.3v-.4c-.1.1-.3.2-.4.2-.2.1-.4.1-.6.2l-.3.1c-.1.1-.3.1-.4.2-.2.1-.3.1-.5.2-.1 0-.2.1-.3.2-.1.1-.3.2-.5.3l-.3.1-.6.3c-.2.1-.3.1-.5.2-.1.1-.3.1-.4.2-.1.1-.2.1-.3.2-.2.1-.4.2-.5.3-.2.1-.4.2-.5.3l-.6.4-.6.3-.3.3-.4.4c-.2.1-.3.2-.5.3-.1.1-.3.1-.4.2l-.3.3c-.1.1-.3.2-.4.4-.1.1-.3.2-.4.3-.1.1-.3.2-.4.3-.1.1-.3.2-.4.3-.1.1-.3.2-.4.3-.1.1-.3.2-.4.4l-.3.3c-.1.1-.3.2-.4.3-.1.1-.3.2-.4.3-.2.2-.4.3-.6.3 0 .1 0 .1.1.2s.2.2.3.5l.4 1c.1.3.2.4.2.5 0 .1.1.2.2.5.1.2.2.3.2.4.1.1.1.2.3.5.1.3.2.4.2.5 0 .1.1.2.2.4s.2.3.2.4c.1.1.1.2.2.5.1.2.2.3.2.4.1.1.2.3.3.5.1.3.2.4.2.6 0 .1.1.2.1.4.1.3.2.4.2.5 0 .1.1.2.2.5.1.2.1.2.2.3.1.1.2.3.3.6.1.3.2.5.2.6 0 .1 0 .2.1.4s.2.3.2.5c.1.1.1.2.2.5.1.2.2.3.2.4.1.1.1.3.3.5.1.3.2.4.2.5 0 .1.1.2.2.5s.2.4.2.5c0 .1.1.2.2.4s.2.3.2.5c.1.1.1.2.2.5.1.2.2.4.2.5 0 .1.1.2.2.5.1.2.2.3.2.4.1.1.1.3.3.5.1.3.2.4.2.5 0 .1.1.2.2.4.1.3.2.4.2.5 0 .1.1.2.2.5.1.2.1.3.2.4.1.1.2.3.3.5.1.3.2.4.2.5 0 .1.1.2.2.5.1.2.2.3.2.4.1.1.1.2.2.5s.2.4.2.5c0 .1.1.2.2.4s.2.4.2.5c0 .1.1.2.2.5s.2.4.2.5c0 .1.1.2.2.4s.1.4.2.6c-.7.1-.7.1-.7.2z" id="XMLID_821_"/></g></g><g id="XMLID_814_"><g id="XMLID_817_"><path class="st2" d="M59.5 278c-.1.3-.4.6-.5.9-.1.3-.3.6-.4 1-.1.3-.1.7-.2 1-.1.3-.1.7-.2 1-.1.4-.3.7-.3 1-.1.4-.2.7-.2 1.1-.1.4-.2.7-.2 1.1-.1.4-.1.7-.1 1.1 0 .4-.1.7-.1 1.1 0 .4.1.7.1 1.1 0 .4.2.7.2 1 .1.3.1.7.3 1 .1.3.4.6.6.9.2.3.3.7.5 1" id="XMLID_818_"/></g><g id="XMLID_815_"><path class="st3" d="M58.4 292.6c-.2-.2-.3-.5-.3-.7-.1-.1-.1-.2-.2-.3-.1-.1-.2-.2-.2-.3-.1-.2-.3-.4-.4-.6-.1-.3-.2-.5-.2-.8 0-.1 0-.2-.1-.3v-.2c-.1-.3-.2-.6-.2-.9v-.2c0-.3-.1-.6-.1-.9 0-.4 0-.8.1-1.1 0-.4.1-.7.1-1.1 0-.2.1-.5.1-.7v-.5c.1-.3.1-.7.2-1.1 0-.2.1-.4.2-.6.1-.1.1-.3.2-.4 0-.1.1-.3.1-.4 0-.2.1-.4.1-.6 0-.1.1-.3.1-.4 0-.2.1-.4.1-.6l.3-.9.1-.1c.1-.2.2-.5.3-.6.1-.1.1-.2.2-.3l1 .5c-.1.1-.2.3-.3.4-.1.2-.2.3-.2.4l-.1.1c-.1.3-.2.5-.3.8 0 .2-.1.3-.1.5s-.1.4-.1.5c0 .2-.1.3-.1.5s-.1.3-.1.5-.1.4-.2.6c-.1.1-.1.3-.1.4-.1.4-.2.7-.2 1l-.1.4c0 .2-.1.4-.1.6-.1.4-.1.7-.1 1 0 .3-.1.7-.1 1 0 .3 0 .5.1.8v.2c0 .3.1.5.2.8l.1.2c0 .1.1.3.1.4 0 .2.1.4.2.6.1.1.2.3.3.4.1.1.2.3.3.4.1.1.1.3.2.4.1.2.2.3.2.5l-1 .7z" id="XMLID_816_"/></g></g><g id="XMLID_807_"><g id="XMLID_812_"><path class="st0" d="M58.1 296.2c-.1-.5-.1-.4-.5-.8-.2-.2-.5-.4-.9-.4-.3 0-.6 0-.9.2-.3.2-.6.3-.8.4-.7.4-.6.8-.7.4l-.4-1c-.2-.5-.3-.4-.5-.9s-.1-.5-.3-1l-.4-1c-.2-.5-.2-.5-.4-.9l-.4-1c-.2-.5-.1-.5-.3-1-.2-.5-.3-.4-.5-.9s-.1-.5-.3-1c-.2-.5-.3-.4-.5-.9l-.4-1-.4-1c-.2-.5-.3-.4-.5-.9l-.4-1c-.2-.5-.1-.5-.3-1-.2-.5-.2-.5-.4-.9-.2-.5-.3-.5-.5-.9l-.4-1-.4-1-.4-1-.4-1c-.2-.5-.3-.5-.5-.9l-.4-1-.4-1c-.2-.5.1-.8-.4-.9-.5-.1-.4.3-.8.7-.4.4-.7.2-.8.7-.1.5.2.5.4 1s.3.4.5.9l.4 1 .4 1 .4 1 .4 1c.2.5.1.5.3 1 .2.5.3.4.5.9l.4 1 .4 1c.2.5.1.5.3 1l.4 1c.2.5.3.4.5.9s.2.5.5.9l.4 1c.2.5.1.5.4 1 .2.5.3.4.5.9s.1.5.4 1c.2.5.3.5.5.9l.4 1c.2.5.2.5.5.9l.4 1 .4 1c.2.5.2.5.4.9l.4 1 .4 1c.2.5.1.6.4 1 .4.4.5.1 1.2 0 .3-.1.7-.3 1.1-.4.3-.1.7-.3 1-.5.3-.2.5-.6.7-.9.2-.8.3-1.1.3-1.5z" id="XMLID_813_"/></g><g id="XMLID_808_"><path class="st3" d="M54.3 299.9c-.2 0-.5-.1-.7-.4-.3-.3-.4-.5-.4-.8 0-.1 0-.2-.1-.3-.1-.3-.2-.4-.2-.5 0-.1-.1-.2-.2-.4s-.2-.3-.2-.5c-.1-.1-.1-.2-.2-.5-.1-.2-.2-.3-.2-.5-.1-.1-.1-.2-.2-.5l-.4-1c-.1-.2-.2-.4-.2-.5 0-.1-.1-.2-.2-.5-.1-.2-.2-.3-.2-.4-.1-.1-.1-.2-.2-.5-.1-.2-.2-.4-.2-.5 0-.1-.1-.2-.2-.5-.1-.2-.2-.3-.2-.4-.1-.1-.1-.3-.3-.5-.1-.3-.2-.4-.2-.6 0-.1-.1-.2-.2-.4s-.2-.3-.2-.4c-.1-.1-.2-.3-.3-.5-.1-.3-.2-.4-.2-.6 0-.1-.1-.2-.2-.4-.1-.3-.2-.4-.2-.5 0-.1-.1-.2-.2-.4s-.2-.3-.2-.4c-.1-.1-.1-.2-.2-.5-.1-.2-.1-.3-.2-.4-.1-.1-.2-.3-.3-.5l-.2-.5c-.1-.1-.1-.2-.2-.5s-.2-.4-.2-.6c0-.1-.1-.2-.1-.4l-.4-1c-.1-.2-.2-.3-.2-.5-.1-.1-.1-.2-.2-.5-.1-.2-.2-.3-.2-.4-.1-.1-.2-.3-.3-.5-.1-.3-.2-.4-.2-.6 0-.1-.1-.2-.1-.4-.1-.2-.2-.3-.2-.5-.1-.1-.1-.2-.2-.5l-.2-.5c-.1-.1-.1-.2-.2-.5l-.4-1c-.1-.3-.2-.4-.2-.5 0-.1-.1-.2-.2-.4s-.1-.3-.2-.4c-.1-.1-.2-.3-.3-.5 0-.1-.1-.2-.2-.2-.2-.2-.4-.5-.3-1.1.1-.6.5-.7.7-.8.1 0 .2-.1.3-.1l.2-.2c.1-.2.4-.7 1.1-.5.7.2.7.7.7 1v.3c.1.2.2.4.2.5.1.1.1.2.2.5.1.2.1.3.2.4.1.1.1.2.2.5.1.2.1.3.2.4.1.1.1.3.3.5.1.3.2.4.2.5 0 .1.1.2.2.5s.2.4.2.5c0 .1.1.2.2.4s.2.4.2.5c0 .1.1.2.2.5s.2.4.2.5c0 .1.1.2.2.5.1.2.1.3.2.4.1.1.1.3.3.5.1.2.1.3.2.4.1.1.1.2.2.5s.2.4.2.6c0 .1 0 .2.1.4s.2.4.2.5c0 .1.1.2.2.5.1.2.1.3.2.4.1.1.2.3.3.5.1.3.2.4.2.5 0 .1.1.2.2.4.1.3.2.4.2.5 0 .1.1.2.2.5.1.2.1.3.2.4.1.1.2.3.3.6.1.3.2.4.2.6 0 .1 0 .2.1.4s.1.3.2.4c.1.1.2.3.3.6.1.3.2.4.2.6 0 .1.1.2.1.4.1.2.1.3.2.5.1.1.1.2.2.5.1.2.1.3.2.4.1.1.1.3.2.5s.2.4.2.5c0 .1.1.2.2.5s.2.4.2.6c0 .1.1.2.1.4.1.2.1.3.2.4.1.1.2.3.3.6.1.2.1.3.2.4.1 0 .1-.1.2-.1l.8-.4c.4-.2.9-.3 1.3-.3.4.1.8.3 1.2.6l.1.1c.3.3.4.5.5 1v.1l-.1.3c-.1.4-.1.7-.3 1-.2.4-.5.8-.8 1.1-.3.3-.7.4-1 .6l-.2.1c-.1 0-.2.1-.3.1-.3.1-.6.3-.9.3-.2 0-.3.1-.4.1-.3-.2-.5-.1-.7-.1zm-11.2-26.4c.1.1.3.3.4.6.1.2.1.3.2.4.1.1.2.3.3.5.1.3.2.4.2.5 0 .1.1.2.2.4l.4 1c.1.2.2.4.2.5l.2.5c.1.2.2.4.2.5.1.1.1.2.2.5s.2.4.2.6c0 .1.1.2.1.4.1.2.2.3.2.4.1.1.2.3.3.5.1.2.2.3.2.5.1.1.1.2.2.5l.4 1c.1.3.2.4.2.6 0 .1.1.2.1.4.1.2.2.4.2.5l.2.5c.1.2.1.3.2.4.1.1.2.3.3.5.1.2.2.3.2.4.1.1.1.2.2.5s.2.4.2.5c0 .1.1.2.2.4.1.3.2.4.2.6 0 .1.1.2.2.4s.2.3.2.4c.1.1.2.3.3.5.1.3.2.4.2.6 0 .1.1.2.2.4s.2.3.2.4c.1.1.1.3.3.5.1.2.2.4.2.5 0 .1.1.2.2.5.1.2.2.3.2.4.1.1.1.2.2.5.1.2.2.4.2.5 0 .1.1.2.2.5l.4 1c.1.2.2.3.2.5.1.1.1.2.2.5.1.2.2.4.2.5.1.1.1.2.2.5s.2.4.2.5c0 .1.1.2.2.4s.1.4.2.5c0 .1 0 .2.2.3h.1c.1-.1.3-.1.6-.2.2 0 .4-.1.6-.3.1 0 .2-.1.3-.1l.2-.1c.3-.1.5-.2.7-.4.2-.2.4-.4.6-.8.1-.2.1-.4.2-.7v-.1-.1l-.1-.1-.2-.2c-.1-.1-.3-.3-.6-.3-.2 0-.4 0-.6.2l-.8.4c-.3.2-.4.3-.4.4-.1.1-.2.3-.6.3-.3 0-.4-.3-.5-.5-.1-.3-.2-.4-.2-.6 0-.1-.1-.2-.2-.4s-.1-.3-.2-.4c-.1-.1-.2-.3-.3-.6-.1-.3-.2-.4-.2-.6 0-.1-.1-.2-.1-.4-.1-.2-.2-.4-.2-.5 0-.1-.1-.2-.2-.5-.1-.2-.1-.3-.2-.4-.1-.1-.1-.3-.2-.5s-.1-.3-.2-.5c-.1-.1-.1-.2-.2-.5s-.2-.4-.2-.6c0-.1-.1-.2-.1-.4-.1-.2-.1-.3-.2-.4-.1-.1-.2-.3-.3-.6-.1-.3-.2-.4-.2-.6 0-.1 0-.2-.1-.4s-.1-.3-.2-.4c-.1-.1-.2-.3-.3-.6-.1-.3-.2-.4-.2-.5 0-.1-.1-.2-.2-.5s-.2-.4-.2-.5c0-.1-.1-.2-.2-.4s-.1-.3-.2-.4c-.1-.1-.2-.3-.3-.5-.1-.2-.2-.4-.2-.5 0-.1-.1-.2-.2-.5s-.2-.4-.2-.6c0-.1 0-.2-.1-.4s-.1-.3-.2-.4c-.1-.1-.1-.2-.2-.5-.1-.2-.1-.3-.2-.4-.1-.1-.1-.3-.3-.5-.1-.3-.2-.4-.2-.5 0-.1-.1-.2-.2-.5-.1-.2-.2-.4-.2-.5 0-.1-.1-.2-.2-.5s-.2-.4-.2-.5c0-.1-.1-.2-.2-.4s-.2-.4-.2-.5c0-.1-.1-.2-.2-.5-.1-.2-.1-.3-.2-.4-.1-.1-.1-.3-.3-.5-.1-.2-.1-.3-.2-.4-.1-.1-.1-.2-.2-.5-.1-.2-.2-.4-.2-.5-.1-.1-.1-.2-.2-.5-.1-.1-.1-.2-.1-.3-.1.1-.1.2-.2.3-.2.2-.4.3-.6.3h-.1c.2 0 .2 0 .2.1z" id="XMLID_809_"/></g></g><g id="XMLID_800_"><g id="XMLID_805_"><path class="st0" d="M54.3 265.5c.5.1.3.3.2 1 0 .3-.1.6-.3.9-.1.3-.2.6-.4.9-.2.2-.3.5-.6.8-.2.3-.5.4-.8.7-.2.3-.5.5-.7.7l-.7.7-.7.7c-.3.3-.6.5-.8.7-.5.4-.4.4-.8.7-.4.3-.3.3-.7.6-.4.3-.4.2-.8.5s-.3.4-.7.7c-.4.3-.3.6-.8.5-.5-.1-.2-.4-.4-.8s-.1-.5-.3-.9c-.2-.4-.3-.4-.5-.9-.2-.4-.4-.4-.4-.9s.4-.3.9-.7c.2-.2.6-.4.9-.6l.9-.6.9-.6c.3-.2.5-.5.8-.7l.9-.6.9-.6c.3-.2.6-.4 1-.5l.9-.6.9-.6c.5-.3.9-.5 1.2-.5z" id="XMLID_806_"/></g><g id="XMLID_801_"><path class="st3" d="M45.9 276c-.1 0-.2 0-.3-.1-.7-.2-.7-.7-.7-.9v-.3c-.1-.3-.1-.4-.2-.5 0-.1 0-.2-.1-.4s-.1-.3-.2-.4c-.1-.1-.2-.2-.3-.5 0-.1-.1-.2-.2-.3-.2-.2-.3-.4-.3-.8 0-.7.5-.9.7-1 .1 0 .2-.1.4-.2.1-.1.3-.2.4-.3.1-.1.3-.2.4-.3.1-.1.3-.2.5-.3.1-.1.3-.2.4-.3.2-.1.4-.3.6-.4l.3-.2c.1-.1.2-.2.4-.3.2-.1.3-.3.5-.4.2-.1.4-.2.6-.4l.4-.2.6-.3c.1-.1.3-.2.4-.2l.6-.3c.1-.1.3-.1.4-.2l.3-.2c.2-.1.4-.3.6-.4.1-.1.3-.2.4-.2l.6-.3c.5-.2.9-.3 1.1-.4h.2c.8.2.7.9.6 1.2 0 .1 0 .2-.1.4 0 .3-.1.7-.3 1.1 0 .1-.1.1-.1.2-.1.2-.2.5-.4.8 0 .1-.1.1-.1.2-.1.2-.3.4-.5.6-.2.2-.3.3-.5.4l-.3.3c-.2.3-.5.5-.7.7l-.5.5-.5.4-.5.5c-.2.2-.4.4-.6.5l-.2.2c-.2.2-.3.3-.4.3l-.4.4c-.2.1-.2.2-.3.3-.1.1-.2.2-.4.3-.2.2-.4.2-.5.3-.1 0-.2.1-.3.2l-.2.2c-.1.1-.2.3-.4.4l-.2.2c0 .2-.3.4-.7.4zm-1.2-4c0 .1 0 .1.1.1.1.1.2.2.3.5.1.2.1.3.2.4.1.1.2.2.3.5.1.3.1.4.2.5 0 .1 0 .2.1.4.1.1.1.3.1.4.1-.1.2-.2.3-.2.1-.1.2-.1.2-.2.1-.1.2-.3.4-.4.2-.2.4-.2.5-.3.1 0 .2-.1.3-.2.2-.1.2-.2.3-.3.1-.1.2-.2.4-.3.2-.1.2-.2.3-.3l.4-.4.2-.2c.2-.1.4-.3.6-.5.2-.1.3-.3.5-.5l.5-.5c.2-.1.3-.3.5-.4l.7-.7c.1-.1.3-.2.4-.4.1-.1.3-.2.3-.3.1-.2.3-.4.4-.5.1-.1.1-.2.2-.2l.3-.6c0-.1.1-.2.1-.3.1-.3.2-.5.2-.7v-.3c-.2.1-.4.1-.6.2-.1.1-.3.2-.4.3-.1.1-.3.2-.5.3l-.6.3-.3.2c-.1.1-.3.2-.4.2-.2.1-.4.2-.5.3-.1.1-.3.2-.4.2-.2.1-.3.2-.5.3l-.4.2c-.2.1-.4.2-.5.4-.1.1-.3.2-.4.3l-.4.4-.3.2c-.2.1-.4.3-.6.4-.2.1-.3.2-.5.3-.1.1-.3.2-.4.3-.2.1-.3.2-.4.3-.2.1-.3.2-.4.3-.4.4-.6.4-.8.5z" id="XMLID_802_"/></g></g><g id="XMLID_793_"><g id="XMLID_798_"><path class="st1" d="M54.9 288.5c-.1 0-.3 0-.4-.1-.5-.3-.6-.7-.6-.9 0-.1 0-.2-.1-.3l-.4-1c-.1-.3-.2-.4-.2-.5 0-.1-.1-.2-.2-.5-.1-.2-.1-.3-.2-.4-.1-.1-.1-.3-.3-.5-.1-.3-.2-.4-.2-.6 0-.1-.1-.2-.1-.4-.1-.2-.1-.3-.2-.5-.1-.1-.1-.2-.2-.5s-.2-.4-.2-.5c0-.1-.1-.2-.2-.4s-.1-.3-.2-.4c-.1-.1-.2-.3-.3-.5-.1-.3-.2-.4-.2-.5 0-.1-.1-.2-.2-.4s-.2-.4-.2-.5c0-.1-.1-.2-.2-.5-.1-.2-.1-.3-.2-.4-.1-.1-.2-.3-.3-.5-.1-.2-.1-.3-.2-.4-.1-.1-.1-.2-.2-.5s-.2-.5-.2-.6c0-.1 0-.2-.1-.4s-.1-.3-.2-.4c-.1-.1-.2-.3-.3-.5-.1-.2-.2-.4-.2-.5 0-.1-.1-.2-.2-.5 0-.1-.1-.2-.2-.2-.2-.2-.4-.5-.3-1.1.1-.4.3-1.3 1.3-1.3h.2c.5.1.8.4.7 1.1v.3c.1.2.1.3.2.4.1.1.1.3.2.5.1.3.2.4.2.5 0 .1.1.2.2.5.1.2.1.3.2.4.1.1.1.3.2.5.1.3.2.4.2.5 0 .1.1.2.2.5s.2.4.2.5c0 .1.1.2.2.5s.2.4.2.5c0 .1.1.2.2.5.1.2.1.3.2.4.1.1.2.3.3.6.1.3.2.4.2.5 0 .1.1.2.2.5.1.2.1.3.2.4.1.1.1.3.3.5.1.2.1.4.2.5.1.1.1.3.2.5.1.3.2.5.2.6 0 .1 0 .2.1.4.1.3.2.4.2.5 0 .1.1.2.2.5l.4 1c.1.1.1.2.2.3.2.2.3.4.3.9v.3c.2.7.2 1.6-.6 1.6z" id="XMLID_799_"/></g><g id="XMLID_794_"><path class="st3" d="M49.1 271.8h.2c.5.1.1.6.3 1.1l.4 1 .4 1c.2.5.3.5.5 1l.4 1 .4 1 .4 1c.2.5.3.5.5 1l.4 1c.2.5.3.5.5 1l.4 1c.2.5.1.5.3 1l.4 1 .4 1c.2.5.4.4.4 1 0 .5 0 1.2-.3 1.2-.1 0-.1 0-.2-.1-.5-.2-.2-.5-.4-1l-.4-1-.4-1c-.2-.5-.3-.5-.5-.9-.2-.5-.1-.5-.3-1-.2-.5-.2-.5-.4-.9-.2-.5-.1-.5-.4-1-.2-.5-.3-.4-.5-.9l-.4-1-.4-1c-.2-.5-.3-.4-.5-.9s-.2-.5-.4-.9c-.2-.5-.1-.5-.3-1-.2-.5-.3-.4-.5-.9l-.4-1c-.2-.5-.5-.5-.4-1 .1-.4.3-.8.8-.8m0-1c-1.3 0-1.7 1.3-1.8 1.7-.2.9.2 1.3.4 1.5l.1.1c.1.2.1.3.2.4 0 .1.1.3.2.5.1.3.2.5.4.6.1.1.1.1.1.3.1.1.1.2.1.3 0 .2.1.4.2.7.1.3.2.4.3.5 0 .1.1.2.2.4.1.3.2.5.3.6.1.1.1.1.2.3.1.2.1.3.2.4 0 .1.1.3.2.5s.1.3.2.4c0 .1.1.3.2.6s.2.5.3.6c.1.1.1.2.2.3.1.2.1.3.1.4 0 .1.1.3.2.6.1.2.2.4.2.5.1.1.1.2.2.5.1.2.1.2.1.3 0 .1.1.3.2.6s.2.4.3.6c.1.1.1.2.2.4s.1.3.2.4c0 .1.1.3.2.5s.1.4.2.5c.1.1.1.2.2.5v.1c0 .3.1.9.9 1.4.2.1.5.2.7.2 1.3 0 1.3-1.5 1.3-2v-.3c0-.7-.2-1-.4-1.3l-.1-.1c-.1-.3-.2-.4-.2-.5-.1-.1-.1-.2-.2-.5-.1-.2-.1-.4-.2-.5 0-.1-.1-.3-.2-.5s-.1-.2-.1-.3c0-.2-.1-.4-.2-.7-.1-.3-.2-.4-.2-.5-.1-.1-.1-.2-.2-.5s-.2-.5-.3-.6c-.1-.1-.1-.2-.2-.4s-.1-.3-.1-.4c0-.1-.1-.3-.2-.6s-.2-.5-.3-.6c-.1-.1-.1-.2-.2-.3-.1-.2-.1-.3-.1-.4 0-.1-.1-.3-.2-.6-.1-.2-.1-.4-.2-.5 0-.1-.1-.3-.2-.5s-.1-.3-.2-.4c0-.1-.1-.3-.2-.6s-.2-.5-.3-.6c-.1-.1-.1-.2-.2-.4s-.1-.4-.2-.5c0-.1-.1-.3-.2-.5-.1-.3-.2-.4-.3-.6-.1-.1-.1-.2-.2-.4v-.1c.1-1.4-.9-1.6-1.2-1.6-.2.1-.3.1-.4.1z" id="XMLID_795_"/></g></g><g id="XMLID_786_"><g id="XMLID_791_"><path class="st1" d="M56 284.5c-.1 0-.3 0-.4-.1-.5-.3-.6-.7-.6-.9 0-.1 0-.2-.1-.3-.1-.3-.2-.4-.2-.5 0-.1-.1-.2-.2-.4s-.1-.3-.2-.4c-.1-.1-.2-.3-.3-.5l-.4-.9c-.1-.2-.2-.4-.2-.5 0-.1-.1-.2-.2-.5l-.4-.9c-.1-.3-.2-.4-.2-.5 0-.1-.1-.2-.2-.4s-.1-.3-.2-.5c-.1-.1-.1-.2-.2-.5l-.4-.9c-.1-.2-.1-.3-.2-.4-.1-.1-.1-.3-.3-.5-.1-.3-.2-.4-.2-.5 0-.1-.1-.2-.2-.4s-.1-.3-.2-.4c-.1-.1-.2-.3-.3-.5-.1-.3-.2-.4-.2-.5 0-.1-.1-.2-.2-.4-.1-.3-.2-.4-.2-.5 0-.1-.1-.2-.2-.4s-.1-.3-.2-.4c-.1-.1-.2-.3-.3-.5 0-.1-.1-.2-.2-.2-.2-.2-.4-.5-.2-1.1.1-.4.3-1.3 1.2-1.3h.2c.8.1.8.8.8 1v.3l.4 1c.1.2.1.3.2.5.1.1.1.3.2.5s.1.3.2.5c.1.1.1.3.2.5.1.3.2.5.2.6 0 .1 0 .2.1.4l.4 1c.1.2.1.3.2.4.1.1.1.3.3.5.1.3.2.5.2.6 0 .1 0 .2.1.4s.1.3.2.4c.1.1.2.3.3.5.1.2.1.3.2.4.1.1.1.3.2.5.1.3.2.4.2.6 0 .1.1.2.1.4.1.2.2.4.2.5.1.1.1.3.2.5s.1.3.2.5c.1.1.1.3.2.5s.1.4.2.5c.1.1.1.3.2.5.1.1.1.2.2.3.1.2.3.5.2.9v.2c.6.4.6 1.3-.2 1.3z" id="XMLID_792_"/></g><g id="XMLID_787_"><path class="st3" d="M50.1 267.9h.2c.5.1.2.5.4 1l.4 1 .4 1 .4 1c.2.5.1.5.3 1l.4 1c.2.5.3.5.5 1s.1.5.3 1c.2.5.3.5.5 1s.3.5.5 1 .1.5.3 1l.4 1 .4 1 .4 1c.2.5.4.5.4 1s0 1.1-.3 1.1c-.1 0-.1 0-.2-.1-.5-.2-.2-.5-.4-.9l-.4-1c-.2-.5-.3-.4-.5-.9s-.2-.5-.4-.9l-.4-1c-.2-.5-.2-.5-.4-.9-.2-.5-.1-.5-.3-1-.2-.5-.2-.5-.4-.9-.2-.5-.2-.5-.4-.9-.2-.5-.3-.4-.5-.9l-.4-1c-.2-.5-.3-.4-.5-.9l-.4-1c-.2-.5-.1-.5-.4-1-.2-.5-.3-.4-.5-.9s-.5-.5-.4-1c.4-.5.6-.9 1-.9m0-1c-1.3 0-1.6 1.2-1.8 1.7-.2.8.2 1.3.4 1.5l.1.1c.1.3.2.5.3.6.1.1.1.2.2.3.1.2.1.3.1.4 0 .1.1.3.2.6.1.2.1.3.1.4 0 .1.1.3.2.6s.2.5.3.6c.1.1.1.2.2.3.1.2.1.3.1.4 0 .1.1.3.2.6s.2.4.3.6c.1.1.1.2.2.3.1.2.1.3.2.5 0 .1.1.2.2.5.1.2.2.4.2.5.1.1.1.2.2.4s.1.3.1.4c0 .1.1.3.2.6.1.2.1.3.2.5 0 .1.1.2.2.5.1.2.1.3.2.4 0 .1.1.3.2.5s.1.3.2.5c.1.1.1.2.2.5s.2.5.3.6c.1.1.1.2.2.3.1.2.1.3.1.4 0 .1.1.3.2.6v.1c0 .3.1.9.9 1.4.2.1.5.2.7.2.9 0 1.3-.7 1.4-1.9v-.2c0-.6-.1-1-.3-1.2 0-.1-.1-.1-.1-.2-.1-.3-.2-.4-.2-.5-.1-.1-.1-.2-.2-.4-.1-.3-.2-.4-.2-.5-.1-.1-.1-.2-.2-.4-.1-.3-.2-.4-.2-.5-.1-.1-.1-.2-.2-.5-.1-.2-.1-.3-.1-.4 0-.1-.1-.3-.2-.6s-.2-.4-.3-.6c-.1-.1-.1-.2-.2-.4-.1-.3-.2-.5-.3-.6-.1-.1-.1-.2-.2-.3-.1-.2-.1-.2-.1-.3 0-.2-.1-.4-.2-.7-.1-.3-.2-.5-.3-.6-.1-.1-.1-.2-.2-.4l-.2-.5-.2-.5c-.1-.2-.1-.2-.1-.3 0-.2-.1-.4-.2-.7-.1-.3-.2-.4-.2-.6-.1-.1-.1-.2-.2-.4-.1-.3-.2-.4-.2-.6-.1-.1-.1-.2-.2-.4l-.2-.5-.2-.5v-.1c0-1.2-.8-1.5-1.2-1.6-.2-.5-.3-.5-.4-.5z" id="XMLID_788_"/></g></g><g id="XMLID_781_"><g id="XMLID_784_"><path class="st2" d="M60 290.1c-.1 0-.5-.2-1-.3-.3-.1-.6-.2-1-.3-.3-.1-.6-.2-1-.3-.3-.1-.7-.1-1-.2-.3 0-.7-.1-1-.1" id="XMLID_785_"/></g><g id="XMLID_782_"><path class="st3" d="M59.9 290.6c-.1 0-.2-.1-.4-.1-.2-.1-.4-.1-.6-.2-.2-.1-.5-.2-.8-.2H58c-.1 0-.3-.1-.4-.1-.2-.1-.3-.1-.5-.2-.3-.1-.6-.1-1-.2H56c-.3 0-.6-.1-.9-.1v-1.1c.3 0 .7.1 1 .1h.1c.4.1.7.1 1 .2.2.1.4.1.6.2.1 0 .2.1.3.1h.1l.9.3c.2.1.4.2.6.2.1.1.3.1.3.1l-.1 1z" id="XMLID_783_"/></g></g><g id="XMLID_776_"><g id="XMLID_779_"><path class="st2" d="M61.3 285.9c-.1 0-.5-.1-1-.2l-.9-.3c-.3-.1-.6-.2-1-.3-.3-.1-.7-.1-1-.1-.3 0-.7-.1-1-.1" id="XMLID_780_"/></g><g id="XMLID_777_"><path class="st3" d="M61.2 286.5H61c-.2 0-.5-.1-.9-.2-.1 0-.3-.1-.4-.1-.2-.1-.3-.1-.5-.2-.1 0-.3-.1-.4-.1-.2-.1-.4-.1-.6-.2-.2 0-.3 0-.5-.1h-.5c-.1 0-.2 0-.4-.1-.2 0-.4-.1-.6-.1v-1.1c.3 0 .5.1.7.1.1 0 .2 0 .3.1h.4c.2 0 .4 0 .7.1.2.1.5.1.7.2.1 0 .2.1.3.1.2.1.4.2.6.2.1 0 .2.1.3.1.3.1.6.2.7.2h.2l.1 1.1z" id="XMLID_778_"/></g></g><g id="XMLID_771_"><g id="XMLID_774_"><path class="st2" d="M62.3 282.2c-.2-.2-.5-.4-.9-.6-.3-.2-.6-.4-1-.5-.3-.1-.7-.3-1-.4-.3-.1-.7-.1-1.1-.1-.4 0-.7-.1-1.1-.1" id="XMLID_775_"/></g><g id="XMLID_772_"><path class="st3" d="M61.9 282.5c-.1-.1-.3-.3-.6-.4l-.4-.2c-.2-.1-.5-.3-.7-.4l-.2-.1c-.2-.1-.5-.2-.7-.2-.2 0-.4-.1-.6-.1h-.5c-.1 0-.2 0-.4-.1-.2 0-.4-.1-.7-.1v-1.1c.3 0 .5.1.8.1.1 0 .2 0 .3.1h.4c.2 0 .5 0 .7.1l.9.3.2.1c.3.1.6.3.9.5l.3.2c.3.2.6.3.8.6l-.5.7z" id="XMLID_773_"/></g></g></g><g id="XMLID_765_"><path class="st1" d="M92.8 192.1l40.1-10.1 9 53.9c.9 2.7.8 5.8-.2 8.6l-20 54.2-17.5-7.2 15.3-48.1.9-.5-3.2-13.3-1.1 6.4c-.9 7.2-4.7 13.8-10.5 18.2L69 282.4 56.5 263l34.2-25 1.1-.2 1-45.7z" id="XMLID_769_"/><path class="st3" d="M122.1 299.3l-18.5-7.6 15.5-48.8.7-.4-2.5-10.3-.7 3.8c-.9 7.3-4.8 14.1-10.7 18.6l-37.1 28.6-13.1-20.3 34.7-25.3.8-.2 1-45.7 41.1-10.4.1.6 9 53.8c.9 2.7.8 5.9-.2 8.9l-20.1 54.7zm-17.2-8.3l16.6 6.8 19.8-53.7c.9-2.7 1-5.7.2-8.2v-.1l-8.9-53.3-39.1 9.9-1 45.7-1.4.3L57.3 263l11.9 18.5 36.2-27.9c5.6-4.3 9.4-10.9 10.3-17.9l1.5-8.9L121 243l-1.1.6-15 47.4z" id="XMLID_766_"/></g><g id="XMLID_762_"><path class="st1" d="M117.2 230.3l3.8-27 1-1.1" id="XMLID_764_"/><path class="st3" d="M117.8 230.4l-1.1-.1 3.8-27.2 1.1-1.3.8.7-.9 1.1z" id="XMLID_763_"/></g><g id="XMLID_759_"><path class="st1" d="M90.7 238l3.4-.6" id="XMLID_761_"/><path transform="rotate(-10.276 92.429 237.698)" class="st3" d="M90.7 237.1h3.4v1.1h-3.4z" id="XMLID_760_"/></g><g id="XMLID_756_"><path class="st1" d="M119.5 243.2l3.6-1.6" id="XMLID_758_"/><path transform="rotate(-24.294 121.32 242.456)" class="st3" d="M119.4 241.9h3.9v1.1h-3.9z" id="XMLID_757_"/></g><g id="XMLID_655_"><g id="XMLID_744_"><g id="XMLID_751_"><path class="st2" d="M151.6 56.5c-.4-.2-.9.1-.9.5 0 1.4-.1 3.7-.2 4.9-.3 1.6-.6 7.4-.1 8.6 0 0-6.8 13.5-8 15.9-1.2 2.4-4.1 10.1-4.1 10.1s-20.6 16.1-20.7 16.3c-.1.2-4.6 10 .1 20.2l26.8-21.6c1.6-.6 2.9-1.9 3.6-3.6l10.5-33.1s1.9-2.8 1.9-4.5-.1-10.6-.1-10.6 0-4.1.1-5.2c0-.8-.1-1-.3-1.1-.3-.1-.6-.3-.6-.6.1-1.4.1-3.8-.8-5.2-.2-.4-.8-.3-.9.2l-1.5 11.2-1-.4.9-7.4s.8-2.4-.4-3.5c-.3-.2-.7-.1-.8.3l-2.4 9.2-1.1-.6z" id="XMLID_752_"/><path class="st3" d="M117.4 133.9l-.3-.6c-4.9-10.6 0-21.5 0-21.6.1-.1.2-.3 20.6-15.4.4-1.1 2.9-7.8 4-10s7.1-14.1 7.9-15.7c-.4-1.7 0-7.2.2-8.6.2-1.1.2-3.5.2-4.8 0-.4.2-.8.6-1 .3-.2.8-.2 1.1 0l.3.2 2.3-8.5c.1-.3.4-.6.7-.7.3-.1.7 0 1 .2.5.4.8 1 .9 1.6l.2-1.2c.1-.5.4-.8.8-.9.4-.1.8.1 1.1.5.8 1.3.8 3.5.8 5.2h.2c.9.1.9 1.5.8 2 0 1.1-.1 5.2-.1 5.2 0 .4.2 9 .1 10.6 0 1.7-1.7 4.3-2 4.7l-10.5 33c-.7 1.8-2 3.2-3.8 3.9l-27.1 21.9zm.6-21.6c-.3.7-4.3 10.4-.2 19.9l26.3-21.2h.1c1.5-.6 2.7-1.8 3.2-3.3L158 74.5v-.1c.5-.7 1.8-2.9 1.8-4.2 0-1.7-.1-10.5-.1-10.6 0-.2 0-4.1.1-5.3v-.4c-.1.2-.1.5-.2.8l-1.1-.2c.2-1.4.6-5.3-.4-6.9l-1.5 11.9-1.5-.7.8-8.1s.5-2-.5-2.9l-2.5 9.8-1.5-.8h-.1v.1c0 1.3-.1 3.8-.3 4.9-.3 1.6-.5 7.3-.2 8.3l.1.2-.1.2c-.1.1-6.8 13.5-8 15.9-1.2 2.3-4 10-4 10l-.1.1-.1.1c-5.5 4.4-19.5 14.8-20.6 15.7z" id="XMLID_753_"/></g><g id="XMLID_748_"><path class="st2" d="M159 68.8s-2-3.3-5-3.7c0-.5.1-6.8-1.5-8.1" id="XMLID_750_"/><path class="st3" d="M158.5 69.1s-1.9-3.1-4.6-3.5l-.4-.1v-.4-.4c-.1-5.5-1.1-7.7-1.5-8.1l.6-.2c1.1.9 2 3.6 2 8.2 3 .7 4.9 3.8 4.9 3.9l-1 .6z" id="XMLID_749_"/></g><g id="XMLID_745_"><path class="st2" d="M154 58.2l5.3 2" id="XMLID_747_"/><path transform="rotate(-69.194 156.647 59.163)" class="st3" d="M156.1 56.4h1.1V62h-1.1z" id="XMLID_746_"/></g></g><g id="XMLID_656_"><g id="XMLID_728_"><g id="XMLID_729_"><g id="XMLID_739_"><path class="st0" d="M126.3 104.4l-14.9 9.2c-2.6.1-14.5 2.9-30.1 9.6-4.3 1.8-9 8.2-8.1 12.8.3 1.3 3.5 7.9 7.3 21 4.9 17 10.6 41.2 10.6 41.2l45.4-12.6-12.7-53.9 10.8-8.7-8.3-18.6z" id="XMLID_743_"/><path class="st3" d="M90.7 198.8l-.1-.5c-.1-.2-5.8-24.4-10.6-41.2-2.7-9.2-5.1-15.2-6.3-18.4-.6-1.4-.9-2.3-1-2.7-1-4.8 3.9-11.5 8.4-13.4 14.9-6.4 27-9.4 30.2-9.6l15.3-9.4 8.8 19.5-10.9 8.8 12.8 54.1-46.6 12.8zm35.3-93.7l-14.5 8.9h-.1c-2.2.1-13.7 2.6-30 9.5-4.1 1.8-8.6 8-7.8 12.2.1.3.4 1.3.9 2.5 1.3 3.2 3.7 9.2 6.4 18.5 4.5 15.4 9.6 37 10.5 40.7l44.4-12.3-12.7-53.7 10.7-8.7-7.8-17.6z" id="XMLID_740_"/></g><g id="XMLID_734_"><path class="st2" d="M90.6 119.4l-.6-4.8c4 1.7 8.7 1.3 12.7-1.2l.1-.1.9-.6.6 5.1c.1 3.5-2.6 6.6-6.1 7-3.5.5-6.8-1.9-7.6-5.4z" id="XMLID_738_"/><path class="st5" d="M97.4 125.4c-3.5 0-6.5-2.4-7.3-5.9v-.1l-.7-5.7.8.4c3.9 1.6 8.4 1.2 12.2-1.2l.1-.1.9-.6.7-.5.7 6.1c.1 3.9-2.8 7.2-6.6 7.6h-.8zm-6.3-6.1c.7 3.2 3.8 5.3 7 5 3.3-.4 5.7-3.2 5.7-6.5l-.5-4.2c-.1 0-.1.1-.2.1l-.1.1c-3.8 2.4-8.3 2.9-12.3 1.6l.4 3.9z" id="XMLID_735_"/></g></g></g><g id="XMLID_721_"><path class="st2" d="M90.6 119.4l-.6-4.8c4 1.7 7.6-1.1 11.6-3.6 0 0 1.8 1.9 2.1 1.7l.6 5.1c.1 3.5-2.6 6.6-6.1 7-3.5.5-6.8-1.9-7.6-5.4z" id="XMLID_725_"/><path class="st5" d="M97.4 125.4c-3.5 0-6.5-2.4-7.3-5.9v-.1l-.7-5.7.8.4c3.3 1.4 6.5-.6 9.9-2.8.4-.3.8-.5 1.2-.8.4-.2.6 0 1 .4.2.2.9.9 1.3 1.1l.5-.4.7 6.1c.1 3.9-2.8 7.2-6.6 7.6-.2.1-.5.1-.8.1zm-6.3-6.1c.7 3.2 3.8 5.3 7 5 3.3-.4 5.7-3.2 5.7-6.5l-.6-4.7c-.4-.2-.9-.7-1.6-1.4l-.1-.1-.9.6c-3.3 2.1-6.5 4.2-10 3.2l.5 3.9z" id="XMLID_722_"/></g><g id="XMLID_675_"><g id="XMLID_714_"><path class="st2" d="M107.9 91c-3-7.6-11.7-11.3-19.3-8.3-7.6 3-11.3 11.7-8.3 19.3l1.5 3.9c3 7.6 11.7 11.3 19.3 8.3 7.6-3 11.3-11.7 8.3-19.3l-1.5-3.9z" id="XMLID_718_"/><path class="st5" d="M95.6 115.8c-6.1 0-11.9-3.7-14.3-9.7l-1.5-3.9c-1.5-3.8-1.5-8 .2-11.8s4.6-6.7 8.4-8.2c3.8-1.5 8-1.5 11.8.2 3.8 1.6 6.7 4.6 8.2 8.4l1.5 3.9c3.1 7.9-.7 16.8-8.6 20-1.9.7-3.8 1.1-5.7 1.1zm-1.5-33.6c-1.8 0-3.6.3-5.3 1-3.6 1.4-6.3 4.1-7.9 7.6-1.5 3.5-1.6 7.4-.2 10.9l1.5 3.9c2.9 7.3 11.3 10.9 18.6 8 7.3-2.9 10.9-11.3 8-18.6l-1.5-3.9c-1.4-3.6-4.1-6.3-7.6-7.9-1.8-.6-3.7-1-5.6-1z" id="XMLID_715_"/></g><g id="XMLID_712_"><path class="st5" d="M101.9 105.7c-1 0-2-.4-2.8-1.2l.7-.8c.9.8 2.1 1.1 3.3.6 1.1-.5 1.9-1.5 1.9-2.7h1.1c-.1 1.6-1.1 3-2.6 3.6-.6.4-1.1.5-1.6.5z" id="XMLID_713_"/></g><g id="XMLID_710_"><path class="st5" d="M105.3 95.3c.2.5.7.7 1 .6s.5-.7.3-1.1c-.2-.5-.7-.7-1-.6-.3.1-.5.6-.3 1.1z" id="XMLID_711_"/></g><g id="XMLID_708_"><path class="st5" d="M95.1 99.4c.2.5.7.7 1 .6.4-.2.5-.7.3-1.1-.2-.5-.7-.7-1-.6-.3.1-.5.6-.3 1.1z" id="XMLID_709_"/></g><g id="XMLID_706_"><path class="st7" d="M86.5 91.4c.5 1.2 1.8 1.8 3 1.3l15.5-6.2c3.7-1.5 5.8-5.6 4.4-9.4 0-.1-.1-.2-.1-.3 0 0-4.1 1.6-5.7 2.3 1.4-2.1 1.3-4.6.6-6.3l-13.8 5.5-4.3 1.7c-2.1.8-3.1 3.2-2.2 5.2l-1.2-3.1c-4.4 1.8-6.6 6.8-4.8 11.2.7 1.8 5.5 6.4 7.3 7.3l.9-.4c1.5-1.4 2.5-3.9.4-8.8z" id="XMLID_707_"/></g><g id="XMLID_701_"><g id="XMLID_704_"><path class="st5" d="M103.2 92.3l5.6-2.2c-.3-.9-1.3-1.3-2.2-.9l-4 1.6c-.4.2-.6.7-.5 1.1.2.4.7.6 1.1.4z" id="XMLID_705_"/></g><g id="XMLID_702_"><path class="st5" d="M89.9 97.6l5.6-2.2c.4-.2.6-.7.5-1.1-.2-.4-.7-.6-1.1-.5l-4 1.6c-1 .4-1.4 1.4-1 2.2z" id="XMLID_703_"/></g></g><g id="XMLID_699_"><path class="st5" d="M102.3 102.5l-.4-1c.3-.1.6-.4.7-.7.1-.3.1-.7 0-1-.3-.7-1-1-1.7-.7l-.4-1c.6-.2 1.2-.2 1.8 0 .6.2 1 .7 1.2 1.3.2.6.2 1.2 0 1.8-.2.6-.6 1.1-1.2 1.3z" id="XMLID_700_"/></g><g id="XMLID_697_"><path class="st7" d="M87.9 83c.5-.2 1-.4 1.5-.5l-1.2 1.2-3.4 11L86 100l-1.6.7c-1.7.7-2.5 2.6-1.8 4.3.7 1.7 2.5 2.5 4.6 1.7l.8 6.9c-3.3-1.5-5.7-4.3-6.8-7.3l-1.5-3.9c-3.1-7.7.6-16.3 8.2-19.4z" id="XMLID_698_"/></g><g id="XMLID_695_"><path class="st5" d="M85.6 107.5c-.5 0-1-.1-1.5-.3-.9-.4-1.7-1.1-2-2.1-.4-.9-.4-2 0-2.9.4-.9 1.1-1.7 2.1-2l2.8-1 .4 1-2.8 1c-.7.3-1.2.8-1.5 1.5-.3.7-.3 1.4 0 2.1.3.7.8 1.2 1.5 1.5.7.3 1.4.3 2.1 0l.7-.3.4 1-.7.3c-.6.1-1.1.2-1.5.2z" id="XMLID_696_"/></g><g id="XMLID_693_"><path class="st8" d="M83.4 100.6c-.2-.6 0-1 .2-1.2.4-.5 1.1-.6 1.2-.6l6 .2v1.1l-5.9-.2c-.1 0-.3.1-.4.1v.3l-1.1.3z" id="XMLID_694_"/></g><g id="XMLID_684_"><g id="XMLID_689_"><path class="st8" d="M95.1 104.1c-2 0-3.8-1.2-4.6-3.1-.5-1.2-.4-2.5.1-3.7.5-1.2 1.5-2.1 2.7-2.6 2.5-1 5.3.3 6.3 2.8s-.3 5.3-2.8 6.3c-.6.2-1.2.3-1.7.3zm-.1-8.6c-.5 0-.9.1-1.4.3-.9.4-1.7 1.1-2.1 2-.4.9-.4 2-.1 2.9.8 2 3 2.9 4.9 2.2 2-.8 2.9-3 2.2-4.9-.5-1.6-1.9-2.5-3.5-2.5z" id="XMLID_690_"/></g><g id="XMLID_685_"><path class="st8" d="M105.8 99.8c-2 0-3.8-1.2-4.6-3.1-1-2.5.3-5.3 2.8-6.3s5.3.3 6.3 2.8-.3 5.3-2.8 6.3c-.6.2-1.2.3-1.7.3zm-.1-8.7c-.5 0-.9.1-1.4.3-2 .8-2.9 3-2.2 4.9.8 2 3 2.9 4.9 2.2 2-.8 2.9-3 2.2-4.9-.5-1.5-1.9-2.5-3.5-2.5z" id="XMLID_686_"/></g></g><g id="XMLID_682_"><path transform="rotate(-24.615 100.401 97.1)" class="st8" d="M99 96.6h2.9v1.1H99z" id="XMLID_683_"/></g><g id="XMLID_680_"><path class="st5" d="M86.1 86.4l-.5-1.2c-.7-1.9.2-4 2.1-4.7l16-6.3.4 1-16 6.3c-.6.2-1.3.8-1.4 1.5.4-.5.9-.8 1.5-1l13.8-5.4.4 1L88.6 83c-.6.2-1.2.5-1.5 1.2-.3.6-.2 1.2 0 1.8l-1 .4z" id="XMLID_681_"/></g><g id="XMLID_678_"><path transform="rotate(-21.372 104.344 79.649)" class="st5" d="M101.8 79.1h5v1.1h-5z" id="XMLID_679_"/></g><g id="XMLID_676_"><path class="st2" d="M90.9 117.7l-1.4-8.5 9.4 2.4-.8 6.6z" id="XMLID_677_"/></g><g id="XMLID_719_"><path class="st7" d="M107.4 84l-1.1 5s-.7-1.1-1.2-1.6c-.3-.4-1.3-1.4-1.3-1.4l3.6-2z" id="XMLID_720_"/></g></g><g id="XMLID_666_"><g id="XMLID_673_"><path class="st9" d="M98.8 137.3c-1.9.8-2.9 3-2.1 4.9.8 1.9 3.1 2.8 5 1.9 1.2-.5 2-1.6 2.2-2.9l-1.3-.2c-.1.8-.7 1.5-1.4 1.9-1.2.5-2.7 0-3.2-1.3-.5-1.2 0-2.7 1.3-3.2.6-.3 1.3-.3 1.8 0l-.5 1.3 2.6-1.1-1.1-2.6-.5 1.3c-.9-.4-1.9-.4-2.8 0z" id="XMLID_674_"/></g><g id="XMLID_671_"><path class="st9" d="M114.9 138.5c1.2-.5 2-1.6 2.2-2.9l-1.3-.2c-.1.8-.7 1.5-1.4 1.9-1.2.5-2.7 0-3.2-1.3-.5-1.2 0-2.7 1.3-3.2.8-.3 1.7-.2 2.3.2l.7-1.1c-1-.7-2.4-.9-3.6-.4-1.9.8-2.9 3-2.1 4.9.9 2.1 3.1 3 5.1 2.1z" id="XMLID_672_"/></g><g id="XMLID_669_"><path class="st9" d="M112.3 135.5c.2.6.9.8 1.5.6s.8-.9.6-1.5c-.2-.6-.9-.8-1.5-.6s-.8 1-.6 1.5z" id="XMLID_670_"/></g><g id="XMLID_667_"><path class="st9" d="M103.6 137.4c.4.9 1.3 1.3 2.4 1.1l1.2-.2c1.5-.2 1.5 1.3.3 1.9-.7.3-1.4.3-2 .1l-.3 1.3c.9.3 1.9.2 2.8-.2 1.4-.6 2.1-2 1.6-3.1s-1.6-1.4-2.7-1.2l-1.2.2c-1.3.2-1.2-1.1-.2-1.5.6-.3 1.2-.3 1.8-.1l.3-1.3c-.8-.2-1.7-.1-2.6.2-1.1.4-1.8 1.8-1.4 2.8z" id="XMLID_668_"/></g></g><g id="XMLID_664_"><path class="st7" d="M112.5 80.6l-1.1-.2c.2-1.2.1-2.4-.3-3.6l-.6-1.3 1-.4.6 1.3c.5 1.4.7 2.8.4 4.2z" id="XMLID_665_"/></g><g id="XMLID_660_"><path class="st7" d="M82.2 112.9c-1.5-1.4-2.7-3.2-3.4-5.1l-1.5-3.9 1-.4 1.5 3.9c.7 1.8 1.8 3.4 3.2 4.7l-.8.8z" id="XMLID_661_"/></g><g id="XMLID_657_"><path class="st0" d="M78.1 125.3l-17.9 22.8 12.6 12.7 6.7-6.5 1.9-4.8" id="XMLID_659_"/><path class="st3" d="M72.8 161.6l-13.3-13.5 18.1-23.2.9.7-17.6 22.5 11.9 12 6.3-6.1 1.8-4.7 1 .4-1.9 4.9z" id="XMLID_658_"/></g></g></g><g id="XMLID_646_"><path class="st2" d="M106.6 159.5s-5.2 0-7.1-.2c-1.9-.2-1.7-2.4-1.7-2.4.5 0 13.5.2 13.5.2l-4.7 2.4z" id="XMLID_650_"/><path class="st3" d="M105.9 160.1c-1.5 0-5 0-6.5-.2-1.9-.2-2.3-2.1-2.2-3v-.5l16.2.2-6.7 3.5H105.9zm-7.6-2.6c.1.5.3 1.3 1.2 1.4 1.7.2 6.1.2 6.9.2l2.7-1.4-10.8-.2z" id="XMLID_647_"/></g><g id="XMLID_641_"><path class="st2" d="M123.7 153.6l-.6.1s-20.9 2.7-24.9 2.8c-.4 0-1-.4-.9 0 .1.7.5 1.6 1.7 1.8 1.9.2 8.5.6 8.5.6s-2.7 1.1-1.8 2.4c.8 1.1 3.7-.1 5 .1 2.7.4 4.5 1.1 7.8 1 3.2-.1 5.5-1.5 5.5-1.5l2.9-.1c-.7-2.7-1.7-5.2-3.2-7.2z" id="XMLID_645_"/><path class="st3" d="M117.8 162.8c-1.8 0-3.2-.3-4.6-.6-.8-.2-1.6-.3-2.5-.4-.4 0-1 .1-1.7.2-1.4.3-3 .5-3.7-.5-.3-.4-.3-.8-.2-1.2.1-.4.4-.8.8-1.1-2.1-.1-5.6-.4-6.9-.5-1.2-.1-2-.9-2.2-2.2 0-.2 0-.5.2-.6.3-.3.7-.2.9-.1.1 0 .2.1.3.1 3.9-.1 24.6-2.8 24.8-2.8l.9-.2.2.3c1.4 1.9 2.5 4.3 3.2 7.3l.2.6-3.4.1c-.5.3-2.7 1.4-5.6 1.5-.2.1-.5.1-.7.1zm-7.4-2.1h.3c.9.1 1.8.3 2.6.5 1.6.3 3 .6 5.1.5 3-.1 5.2-1.4 5.2-1.5l.1-.1 2.4-.1c-.6-2.4-1.6-4.4-2.7-6l-.3.1c-.9.1-21 2.7-25 2.8h-.2c.3.6.8.7 1.1.7 1.9.2 8.5.6 8.5.6l2.2.1-2 .9c-.6.3-1.5.8-1.6 1.3 0 .1 0 .2.1.3.3.4 1.6.2 2.6 0 .6.1 1.2-.1 1.6-.1z" id="XMLID_642_"/></g><g id="XMLID_638_"><path class="st2" d="M64.6 155.5c13.7 0 30.7.7 30.7.7 1.3-.3 5.1-1 6.1-1.1 1.7-.3 3.8-.2 5.8-.1 1.6.1 2.5-.5 2.6.2.1.6-1.4 1.7-3.8 1.5-1.5-.1-2.9.1-2.9.1s4.7.1 7.8.5c2.1.3 1.5 2.6-.2 2.7-.6 0-.9.1-.9.1s.5 1.2-.4 1.7c-.1.1-1.4.5-1.4.5-.7.3.3.3-.1 1-.2.4-.8.5-1.1.7-.2.2-.2.4-.3.6-.3.6-1.7.5-2.4.7-1.7.4-6.5.8-6.5.8L58.8 169c-3.7.2-6.9-2.6-7.1-6.4-.1-2.4 1-5.1 2.8-6.7" id="XMLID_640_"/><path class="st3" d="M58.4 169.6c-3.8 0-7.1-3-7.3-6.9-.1-2.5 1-5.4 2.9-7.1.2-.2.6-.2.8 0 .2.2.2.6 0 .8-1.7 1.6-2.7 4.1-2.6 6.3.2 3.4 3.2 6.6 6.6 6.4l38.8-3.7s4.8-.4 6.4-.8c.3-.1.6-.1.9-.1.4 0 1.1-.1 1.2-.3v-.1c0-.2.1-.5.4-.7.2-.1.4-.2.5-.3.1-.1.4-.2.4-.2v-.1c-.1-.1-.3-.3-.2-.6.1-.3.4-.5.6-.5.6-.2 1.3-.4 1.4-.4.4-.2.1-1 .1-1-.1-.1-.1-.3 0-.5.1-.1.2-.2.4-.3 0 0 .4-.1 1-.1s1-.5 1-.9-.3-.6-.9-.7c-3-.4-7.7-.5-7.7-.5-.3 0-.5-.2-.5-.5s.2-.5.5-.6c.1 0 1.5-.2 3-.1 1.8.1 2.8-.4 3.2-.8h-.4c-.4.1-.9.1-1.6.1-1.9-.1-4-.2-5.7.1-1 .2-4.8.9-6.1 1.1h-.1c-.2 0-16.8-.7-30.3-.7h-.3c-.3 0-.5-.2-.5-.5s.2-.5.5-.5h.3c13.1 0 29.1.7 30.3.7 1.4-.3 5.1-1 6.1-1.1 1.9-.3 4-.2 5.9-.1.6 0 1 0 1.4-.1.6-.1 1.5-.2 1.7.7 0 .2 0 .6-.3 1-.1.2-.3.3-.6.5.5.1 1.1.1 1.6.2 1.4.2 1.8 1.1 1.8 1.8 0 .9-.8 1.9-2 1.9h-.3c.1.6 0 1.4-.8 1.7-.1.1-.6.2-1.1.4.1.2.1.5-.1.8-.2.4-.6.6-.9.7-.1 0-.3.1-.3.2v.1c0 .1-.1.3-.1.4-.4.6-1.2.7-2 .8-.3 0-.5.1-.7.1-1.7.4-6.4.8-6.6.8l-38.9 3.1c-.5.1-.6.1-.8.1z" id="XMLID_639_"/></g><g id="XMLID_635_"><path class="st0" d="M123.3 128.4l.5 3.3" id="XMLID_637_"/><path transform="rotate(-8.959 123.62 130.077)" class="st3" d="M123 128.4h1.1v3.3H123z" id="XMLID_636_"/></g></g><g id="XMLID_617_"><g id="XMLID_629_"><path transform="rotate(-70.944 109.03 34.646)" class="st11" d="M93.7 16.5h30.6v36.3H93.7z" id="XMLID_633_"/><path class="st5" d="M121.5 55.7L86.2 43.5l10.3-29.9 35.3 12.2-10.3 29.9zm-34-12.9l33.3 11.5 9.6-27.9-33.2-11.5-9.7 27.9z" id="XMLID_630_"/></g><g id="XMLID_627_"><path transform="rotate(-70.944 108.103 38.628)" class="st12" d="M99.9 29.1h16.4v19H99.9z" id="XMLID_628_"/></g><g id="XMLID_622_"><ellipse transform="rotate(-70.944 105.434 46.36)" class="st13" cx="105.4" cy="46.4" rx="9.6" ry="9.5" id="XMLID_626_"/><path class="st3" d="M105.4 56.5c-1.1 0-2.2-.2-3.2-.5-5.2-1.8-8-7.6-6.2-12.8 1.8-5.3 7.6-8.1 12.8-6.3 2.5.9 4.6 2.7 5.7 5.1 1.2 2.4 1.3 5.2.4 7.7-1.5 4.1-5.4 6.8-9.5 6.8zm.1-19.2c-3.7 0-7.2 2.4-8.5 6.1-1.6 4.7.8 9.9 5.5 11.5 4.7 1.6 9.8-.9 11.4-5.6.8-2.3.7-4.7-.4-6.9-1-2.2-2.9-3.8-5.1-4.6-1-.3-1.9-.5-2.9-.5z" id="XMLID_623_"/></g><g id="XMLID_620_"><path class="st12" d="M77.9 51.4l-.2-.7c.1 0 7.7-1.9 9.8-7.8l.7.2c-2.2 6.3-10 8.2-10.3 8.3z" id="XMLID_621_"/></g><g id="XMLID_618_"><path class="st12" d="M79.7 53.4l-.6-.4 1.9-3.2-3.7-1.4.3-.7 4.5 1.7z" id="XMLID_619_"/></g></g><g id="XMLID_600_"><g id="XMLID_612_"><path transform="rotate(160.7 204.67 51.397)" class="st11" d="M189.4 33.2H220v36.3h-30.6z" id="XMLID_616_"/><path class="st5" d="M195.9 74.3L183.5 39l29.9-10.5 12.4 35.3-29.9 10.5zm-11-34.7l11.7 33.3 27.9-9.8-11.7-33.3-27.9 9.8z" id="XMLID_613_"/></g><g id="XMLID_610_"><path transform="rotate(160.7 208.648 50.453)" class="st12" d="M200.5 41h16.4v19h-16.4z" id="XMLID_611_"/></g><g id="XMLID_605_"><ellipse transform="rotate(-19.3 216.369 47.754)" class="st13" cx="216.4" cy="47.8" rx="8.6" ry="9.5" id="XMLID_609_"/><path class="st3" d="M216.9 57.7c-3.9 0-7.7-2.7-9.2-6.9-1.8-5.2.6-10.8 5.3-12.5 4.8-1.7 10.1 1.2 11.9 6.4 1.8 5.2-.6 10.8-5.3 12.5-.8.3-1.8.5-2.7.5zm-8.2-7.3c1.6 4.7 6.4 7.2 10.6 5.8 4.2-1.5 6.3-6.5 4.7-11.1-1.6-4.7-6.4-7.2-10.6-5.8-4.2 1.5-6.3 6.5-4.7 11.1z" id="XMLID_606_"/></g><g id="XMLID_603_"><path class="st12" d="M213 30.6l-.2-.7c5.9-2.1 7.8-9.8 7.8-9.8l.7.2c-.1.3-2 8.1-8.3 10.3z" id="XMLID_604_"/></g><g id="XMLID_601_"><path class="st12" d="M219.3 24.5l-1.7-4.5.7-.3 1.4 3.7 3.2-1.9.3.6z" id="XMLID_602_"/></g></g><g id="XMLID_349_"><g id="XMLID_545_"><g id="XMLID_553_"><g id="XMLID_593_"><g id="XMLID_598_"><path class="st2" d="M215.1 307.4l.6 13.8c.1 1.3.3 2.3 1.1 3.4l13.1-21s-6.8-5-8.1-5.4l-6.7 9.2z" id="XMLID_599_"/></g><g id="XMLID_594_"><path class="st3" d="M216.9 325.6l-.5-.6c-.8-1.1-1.2-2.2-1.2-3.6l-.6-14 7-9.7.4.1c1.3.4 7.5 4.9 8.2 5.5l.4.3-13.7 22zm-1.2-18l.6 13.6c0 .9.2 1.7.6 2.4l12.3-19.9c-2.4-1.7-5.9-4.2-7.2-4.9l-6.3 8.8z" id="XMLID_595_"/></g></g><g id="XMLID_588_"><g id="XMLID_591_"><path class="st2" d="M215.6 317.9s2.8.6 3.1-2.3c.3-2.8-.8-8.8-.8-8.8l7.5-1.9" id="XMLID_592_"/></g><g id="XMLID_589_"><path class="st3" d="M216.1 318.5c-.4 0-.6-.1-.7-.1l.2-1s1.1.2 1.8-.3c.4-.3.6-.8.7-1.5.3-2.7-.8-8.6-.8-8.6l-.1-.5 8-2 .3 1-7.1 1.8c.3 1.5 1 6 .8 8.5-.1 1-.5 1.7-1.2 2.2-.6.4-1.3.5-1.9.5z" id="XMLID_590_"/></g></g><g id="XMLID_583_"><g id="XMLID_586_"><path class="st2" d="M225.3 300.3s-1.5 3.4 1.9 7.5" id="XMLID_587_"/></g><g id="XMLID_584_"><path class="st3" d="M226.8 308.2c-3.5-4.3-2.1-7.9-2-8l1 .4c-.1.1-1.3 3.2 1.8 7l-.8.6z" id="XMLID_585_"/></g></g><g id="XMLID_578_"><g id="XMLID_581_"><path class="st2" d="M222.4 315.6s-.9-1.7-3.7 0" id="XMLID_582_"/></g><g id="XMLID_579_"><path class="st3" d="M219 316.1l-.6-.9c1.2-.7 2.2-1 3.1-.7.9.2 1.3.9 1.3 1l-.9.5.5-.3-.5.3s-.2-.3-.7-.5c-.5-.2-1.3 0-2.2.6z" id="XMLID_580_"/></g></g><g id="XMLID_573_"><g id="XMLID_576_"><path class="st2" d="M215 313l3.6-.4" id="XMLID_577_"/></g><g id="XMLID_574_"><path transform="rotate(-7.406 216.88 312.848)" class="st3" d="M215 312.3h3.6v1.1H215z" id="XMLID_575_"/></g></g><g id="XMLID_568_"><g id="XMLID_571_"><path class="st2" d="M214.8 310.4l3.5-.6" id="XMLID_572_"/></g><g id="XMLID_569_"><path transform="rotate(-9.445 216.54 310.06)" class="st3" d="M214.8 309.6h3.6v1.1h-3.6z" id="XMLID_570_"/></g></g><g id="XMLID_561_"><g id="XMLID_566_"><circle class="st2" cx="221.5" cy="305.9" r="2.3" id="XMLID_567_"/></g><g id="XMLID_562_"><path class="st3" d="M221.5 308.7c-.3 0-.7-.1-1-.2-.7-.3-1.2-.8-1.6-1.5-.3-.7-.3-1.4-.1-2.1.3-.7.8-1.2 1.5-1.6.7-.3 1.4-.3 2.1-.1.7.3 1.2.8 1.6 1.5.3.7.3 1.4.1 2.1s-.8 1.2-1.5 1.6c-.3.2-.7.3-1.1.3zm0-4.5c-.2 0-.5.1-.7.2-.4.2-.7.5-.9 1-.2.4-.1.9 0 1.3.2.4.5.7 1 .9.4.2.9.1 1.3 0 .4-.2.7-.5.9-1 .2-.4.1-.9 0-1.3-.2-.4-.5-.7-1-.9-.2-.2-.4-.2-.6-.2z" id="XMLID_563_"/></g></g><g id="XMLID_554_"><g id="XMLID_559_"><path class="st2" d="M217.5 325.4l.1.1c.4.3 1.1.2 1.4-.3l13-19.2c.3-.4.2-1-.2-1.3l-.9-.7c-.5-.4-1.1-.3-1.5.2L217.1 324c-.2.5-.1 1.1.4 1.4z" id="XMLID_560_"/></g><g id="XMLID_555_"><path class="st3" d="M218.1 326.2c-.3 0-.6-.1-.8-.3l-.1-.1c-.7-.5-.9-1.4-.4-2.1L229 304c.2-.4.6-.6 1-.7.4-.1.9 0 1.2.3l.9.7c.6.5.7 1.4.3 2l-13 19.2c-.3.5-.8.7-1.3.7zm-.3-1.2l.1.1c.2.1.5.1.6-.1l13-19.2c.1-.2.1-.5-.1-.6l-.9-.7c-.1-.1-.2-.1-.4-.1-.1 0-.2.1-.3.2l-12.3 19.8c0 .2.1.4.3.6z" id="XMLID_556_"/></g></g></g><g id="XMLID_548_"><path class="st0" d="M194.1 251.8l5.2-45.4c1-5.4.3-10.9-1.9-15.9l-2.9-6.5-23 .7-.4 55.2c0 .4.3 6.7.4 11.6.1 3.5 1.4 6.9 3.7 9.7l38.3 46.7 12.3-10-30.6-45.5-1.1-.6z" id="XMLID_552_"/><path class="st3" d="M213.4 308.5l-38.7-47.1c-2.3-2.8-3.6-6.3-3.8-10-.3-6.9-.4-11.3-.4-11.6l.4-55.7 23.9-.7 3.1 6.9c2.3 5.1 2.9 10.7 1.9 16.2l-5.2 44.9.9.3 30.9 46.1-13 10.7zM172 185.2l-.4 54.6c0 .4.3 8.2.4 11.5.1 3.4 1.4 6.7 3.5 9.3l38 46.3 11.5-9.4-30.2-45-1.4-.4 5.3-45.8c1-5.3.3-10.7-1.9-15.6l-2.8-6.2-22 .7z" id="XMLID_549_"/></g></g><g id="XMLID_542_"><path class="st1" d="M183 144.1c.9-2.2 1.1-4.7.1-7.1-1.9-4.7-7.2-7.1-12-5.2L152 143.7c-2.5 1.5-5.3 2.5-8.2 2.8l-17 1.6c-1.5.6-2.3 2.3-1.7 3.9l2.9 14c.6 1.5 2.3 2.3 3.9 1.7l20.6-3.8c1.4-.2 2.7-.7 3.8-1.5l15.1-9.6" id="XMLID_544_"/><path class="st3" d="M130.7 168.4c-.5 0-1-.1-1.4-.3-.9-.4-1.5-1.1-1.9-1.9v-.1l-2.7-14c-.3-.9-.3-1.8.1-2.6.4-.9 1.1-1.5 1.9-1.9h.1l17-1.6c2.8-.3 5.6-1.2 8-2.7l19.2-12c5-2 10.7.5 12.7 5.5 1 2.4.9 5.1-.1 7.5l-1-.4c.9-2.1 1-4.5.1-6.7-1.7-4.4-6.8-6.6-11.2-4.9l-19.1 11.9c-2.5 1.6-5.4 2.6-8.4 2.8l-16.9 1.6c-.6.2-1 .7-1.3 1.3-.3.6-.3 1.3 0 1.9v.1l2.7 14c.2.6.7 1.1 1.3 1.3.6.3 1.3.3 1.9 0h.1l20.6-3.8c1.3-.2 2.6-.7 3.6-1.4l15.1-9.6.6.9-15.1 9.6c-1.2.8-2.6 1.4-4 1.6l-20.5 3.8c-.5 0-1 .1-1.4.1z" id="XMLID_543_"/></g><g id="XMLID_535_"><ellipse transform="rotate(-9.752 119.638 159.252)" class="st15" cx="119.7" cy="159.3" rx="1.8" ry="7.6" id="XMLID_539_"/><path class="st3" d="M120.9 167.3c-.7 0-1.4-.8-2-2.3-.6-1.4-1.1-3.3-1.5-5.3-.5-3-.9-8.1.9-8.4 1.8-.3 3.1 4.6 3.7 7.6.3 2 .5 4 .4 5.5-.1 1.8-.5 2.8-1.3 2.9h-.2zm-2.5-15c-.4.3-.7 2.9 0 7.2.7 4.2 1.9 6.5 2.4 6.7.4-.4.8-3 0-7.2-.6-4.2-1.9-6.6-2.4-6.7z" id="XMLID_536_"/></g><g id="XMLID_532_"><path class="st2" d="M111.3 155.2c5.5-.5 11.8-1.4 11.8-1.4l.6-.1c1.5 2 2.5 4.5 3.1 7.1l-2.9.1s-2.2 1.4-5.5 1.5c-3.2.1-5-.6-7.8-1-1.3-.2-4.3 1.1-5-.1-1.2-2.2 4.2-3 4.2-3s2.9-.5 3.9-1.3" id="XMLID_534_"/><path class="st3" d="M117.8 162.8c-1.8 0-3.2-.3-4.6-.6-.8-.2-1.6-.3-2.5-.4-.4 0-1 .1-1.7.2-1.4.3-3.1.6-3.7-.5-.4-.7-.3-1.2-.1-1.6.8-1.6 4.3-2.2 4.7-2.2.8-.1 2.9-.6 3.7-1.2l.7.8c-1.1.9-3.8 1.4-4.2 1.4-1.4.2-3.5.9-3.9 1.6-.1.1-.1.3.1.6.3.4 1.7.2 2.6 0 .8-.1 1.5-.3 2-.2.9.1 1.8.3 2.6.5 1.6.3 3 .6 5.1.5 3-.1 5.2-1.4 5.2-1.5l.1-.1 2.4-.1c-.6-2.4-1.6-4.4-2.7-6l-.3.1c-.1 0-6.4 1-11.9 1.5l-.1-1.1c5.4-.5 11.7-1.4 11.8-1.4l.9-.2.2.3c1.4 1.9 2.5 4.3 3.2 7.3l.2.6-3.4.1c-.5.3-2.7 1.4-5.6 1.5-.3.1-.6.1-.8.1z" id="XMLID_533_"/></g><g id="XMLID_527_"><path class="st1" d="M121.4 159c-.7-4.1-2.1-7.3-3-7.2l6.9-1.2c1-.2 2.3 3 3 7.2.7 4.1.5 7.6-.5 7.8l-6.9 1.2c1-.2 1.2-3.7.5-7.8z" id="XMLID_531_"/><path class="st3" d="M121 167.3l-.2-1.1c.4-.3.8-2.9 0-7.2-.7-4.3-2-6.6-2.5-6.7l-.2-1.1 6.9-1.2c.8-.1 1.5.6 2.2 2.3.6 1.4 1.1 3.3 1.5 5.3.5 3 .9 8.1-.9 8.4l-6.8 1.3zm-1.3-15.2c1.1 1.5 1.9 4.6 2.2 6.8.3 2 .5 4 .4 5.5 0 .7-.1 1.2-.2 1.6l5.7-1c.4-.3.8-2.9 0-7.2-.7-4.3-2-6.6-2.5-6.7l-5.6 1z" id="XMLID_528_"/></g><g id="XMLID_524_"><g id="XMLID_525_"><path class="st16" d="M216.3 251.3l-.1.1.1-.1z" id="XMLID_526_"/></g></g><g id="XMLID_470_"><g id="XMLID_521_"><path class="st0" d="M178.5 183l25.2 1.3 4.1 5.9c3.1 4.5 4.9 9.8 4.9 15.3l-.2 38.4 1-2.2 28.2-12.6 7.7 14-39.1 22.2c-3.5 2-7 1.4-8.8 1.1-6.6-1.4-6.5-5.9-11-23.7l-7.7-38-2.2-1.2" id="XMLID_523_"/><path class="st3" d="M204.8 267.1c-1.1 0-2.2-.1-3.3-.4-5.9-1.3-6.8-4.9-9.6-16.8-.5-2.1-1.1-4.6-1.8-7.3l-7.6-37.8-2-1.1.5-.9 2.4 1.3v.2l7.7 38c.7 2.7 1.3 5.1 1.8 7.3 2.8 11.7 3.6 14.9 8.8 16 3.2.7 6 .4 8.4-1l38.6-22-7.2-13.1L214 242l-1.9 4.3.2-40.9c-.1-5.4-1.7-10.5-4.8-14.9l-4-5.7-25-1.3.1-1.1 25.5 1.3 4.3 6.1c3.2 4.6 4.9 10 5 15.6l-.2 35.9v-.1l28.9-12.9 8.1 14.9-39.5 22.5c-1.8.9-3.7 1.4-5.9 1.4z" id="XMLID_522_"/></g><g id="XMLID_474_"><g id="XMLID_514_"><g id="XMLID_519_"><path class="st2" d="M247.8 239.4l12.7 5.4c1.2.5 2.2.7 3.5.4l-13.4-20.8s-7.5 4-8.3 5l5.5 10z" id="XMLID_520_"/></g><g id="XMLID_515_"><path class="st3" d="M262.9 245.9c-.9 0-1.7-.2-2.6-.6l-12.9-5.5-.1-.2-5.7-10.4.3-.3c.9-1 7.7-4.7 8.5-5.1l.4-.2 14.1 21.9-.8.1c-.4.3-.8.3-1.2.3zm-14.7-6.9l12.5 5.3c.9.4 1.6.5 2.4.5l-12.6-19.7c-2.6 1.4-6.4 3.5-7.5 4.4l5.2 9.5z" id="XMLID_516_"/></g></g><g id="XMLID_509_"><g id="XMLID_512_"><path class="st2" d="M257.4 243.5s1.7-2.3-.7-3.8-8.3-3-8.3-3l1.5-7.6" id="XMLID_513_"/></g><g id="XMLID_510_"><path class="st3" d="M257.9 243.9l-.9-.6.4.3-.4-.3s.6-.9.5-1.8c-.1-.5-.4-.9-1-1.3-2.3-1.4-8.1-2.9-8.2-3l-.5-.1 1.6-8.1 1 .2-1.4 7.1c1.5.4 5.9 1.7 8 3 .8.5 1.4 1.2 1.5 2 .3 1.3-.6 2.5-.6 2.6z" id="XMLID_511_"/></g></g><g id="XMLID_504_"><g id="XMLID_507_"><path class="st2" d="M245.8 227.2s2.4 2.8 7.6 1.5" id="XMLID_508_"/></g><g id="XMLID_505_"><path class="st3" d="M250.7 229.5c-3.6 0-5.3-1.9-5.4-2l.8-.7-.4.4.4-.4c.1.1 2.3 2.5 7.1 1.3l.3 1c-1 .3-1.9.4-2.8.4z" id="XMLID_506_"/></g></g><g id="XMLID_499_"><g id="XMLID_502_"><path class="st2" d="M258.3 236.4s-1.9.1-1.6 3.3" id="XMLID_503_"/></g><g id="XMLID_500_"><path class="st3" d="M256.2 239.8c-.1-1.4.1-2.4.7-3.1.6-.7 1.3-.8 1.4-.8l.1 1.1v-.5.5s-.4 0-.7.4c-.4.5-.5 1.3-.4 2.3l-1.1.1z" id="XMLID_501_"/></g></g><g id="XMLID_494_"><g id="XMLID_497_"><path class="st2" d="M252.8 241.9l1.2-3.4" id="XMLID_498_"/></g><g id="XMLID_495_"><path transform="rotate(-71.906 253.38 240.172)" class="st3" d="M251.6 239.7h3.6v1.1h-3.6z" id="XMLID_496_"/></g></g><g id="XMLID_489_"><g id="XMLID_492_"><path class="st2" d="M250.3 241l1-3.5" id="XMLID_493_"/></g><g id="XMLID_490_"><path transform="rotate(-73.901 250.826 239.26)" class="st3" d="M249 238.7h3.6v1.1H249z" id="XMLID_491_"/></g></g><g id="XMLID_482_"><g id="XMLID_487_"><circle class="st2" cx="249.2" cy="233" r="2.3" id="XMLID_488_"/></g><g id="XMLID_483_"><path class="st3" d="M249.2 235.8c-.1 0-.1 0 0 0-1.6 0-2.8-1.3-2.8-2.8 0-1.5 1.3-2.7 2.8-2.7h.1c.7 0 1.4.3 2 .9.5.5.8 1.2.8 2-.2 1.4-1.4 2.6-2.9 2.6zm0-4.5c-.9 0-1.7.7-1.7 1.7 0 .9.7 1.7 1.7 1.8.9 0 1.7-.7 1.7-1.7 0-.5-.2-.9-.5-1.2-.3-.4-.7-.6-1.2-.6z" id="XMLID_484_"/></g></g><g id="XMLID_475_"><g id="XMLID_480_"><path class="st2" d="M265.1 245.1l.2-.1c.5-.3.6-.9.3-1.3l-11.8-20c-.3-.4-.8-.6-1.3-.4l-1 .5c-.5.3-.7.9-.4 1.4l12.6 19.6c.3.4.9.5 1.4.3z" id="XMLID_481_"/></g><g id="XMLID_476_"><path class="st3" d="M264.5 245.7c-.5 0-1-.2-1.3-.7l-12.6-19.6c-.2-.4-.3-.8-.2-1.2.1-.4.4-.8.8-1l1-.5c.7-.3 1.6-.1 2 .6l11.8 20c.4.7.2 1.6-.5 2.1l-.2.1c-.2.2-.5.2-.8.2zm-11.6-22h-.2l-1 .5c-.1.1-.2.2-.2.3 0 .1 0 .3.1.4l12.6 19.6c.1.2.4.3.6.1l.2-.1c.2-.1.3-.4.2-.6l-11.8-20c-.2-.1-.3-.2-.5-.2z" id="XMLID_477_"/></g></g></g><g id="XMLID_471_"><path class="st0" d="M212.6 243.8l-1.3 2.8" id="XMLID_473_"/><path transform="rotate(-66.355 211.949 245.217)" class="st3" d="M210.4 244.7h3.1v1.1h-3.1z" id="XMLID_472_"/></g></g><g id="XMLID_467_"><path class="st1" d="M172.7 142.6s-2.9 13.3-3.6 22.1c-1.1 13.1-1.2 21.2-1.2 21.2l41.6 3.7s1.2-37.7 2.2-40.7c1.1-3.5-.8-7.2-4.2-8.4l-25.2-8.3c-1.5-.5-3.1-.4-4.5.2" id="XMLID_469_"/><path class="st3" d="M210.1 190.1l-42.7-3.8v-.5c0-.1 0-8.3 1.2-21.2.7-8.7 3.6-22 3.6-22.1l1 .2c0 .1-2.9 13.4-3.6 22-1 11.1-1.1 18.7-1.1 20.6l40.6 3.6c.2-4.9 1.3-37.4 2.2-40.3.5-1.5.4-3.2-.4-4.7-.7-1.5-2-2.5-3.5-3l-25.2-8.3c-1.4-.4-2.8-.4-4.2.1l-.4-1c1.6-.6 3.3-.7 4.9-.2l25.2 8.3c1.8.6 3.3 1.9 4.2 3.6.9 1.7 1 3.6.4 5.5-.7 2.3-1.7 27.5-2.2 40.5v.7z" id="XMLID_468_"/></g><g id="XMLID_465_"><path class="st15" d="M193.3 139.5s5.7 3.3 9 1-4-5.9-4-5.9l-5 4.9z" id="XMLID_466_"/></g><g id="XMLID_460_"><ellipse transform="rotate(-80.589 245.458 104.67)" class="st15" cx="245.5" cy="104.7" rx="1.8" ry="7.6" id="XMLID_464_"/><path class="st3" d="M249.5 107.3c-1.5 0-3.2-.2-4.5-.4-2-.3-3.9-.8-5.3-1.4-1.7-.7-2.4-1.4-2.3-2.2.3-1.8 5.4-1.4 8.4-1 2 .3 3.9.8 5.3 1.4 1.7.7 2.4 1.4 2.3 2.2-.1 1.1-1.8 1.4-3.9 1.4zm-11-3.8c.2.5 2.6 1.7 6.7 2.4 4.3.7 6.9.3 7.2-.1-.1-.4-2.5-1.6-6.8-2.4-4.1-.7-6.7-.3-7.1.1z" id="XMLID_461_"/></g><g id="XMLID_453_"><g id="XMLID_457_"><path class="st2" d="M241.7 98.1s.4-3.6.9-4.9c.5-1.2 1.7-9.6 2-10.9.5-2.2 2.2-2.9 2-.2-.1 1.9-.6 8.4-.6 8.4s.4.5.7-.5c.4-1.2 1.3-5.7 1.7-7.2s.9-5.4 2.1-5.2c1.7.3.4 4.4-.1 7-.5 2.8-1 4.9-1.1 5.5-.1.5.8.9 1.1 0s2.3-9.6 3.3-9.9c1.4-.4 1.3 1.5.8 3.5s-2 7.4-2 7.4.9.7 1.2-.9c.2-1.3 1.7-6.2 2.8-5.8 1.1.4-.8 4.5-1.4 9.1-.6 4.6-2.6 9.1-2.6 9.1" id="XMLID_458_"/><path class="st3" d="M252.8 102.8l-1-.4s2-4.5 2.6-9c.3-1.9.7-3.7 1.1-5.2.3-1.2.7-2.8.6-3.3-.6.5-1.8 3.7-2 5.3-.1.8-.4 1.3-.9 1.4-.6.2-1.1-.2-1.2-.2l-.3-.2.1-.3s1.5-5.4 2-7.4c.5-1.8.3-2.6.1-2.8 0 0-.1-.1-.2 0-.5.5-1.4 3.2-2.7 8.2-.2.7-.3 1.2-.4 1.3-.2.7-.8 1-1.3.9-.5-.1-.9-.6-.8-1.1 0-.4.2-1.4.6-2.9.2-.8.3-1.7.5-2.6l.3-1.5c.4-1.7.9-4 .4-4.7l-.2-.2c-.3.1-.7.8-1.3 4.1-.1.3-.1.5-.1.7-.4 1.8-1.3 6-1.7 7.2-.1.2-.3.9-.8 1-.4.1-.6-.1-.8-.3l-.1-.2v-.2c0-.1.5-6.5.6-8.4.1-.8-.1-1.1-.2-1.2-.1 0-.6.5-.8 1.5-.1.4-.3 1.7-.5 3.2-.6 3.9-1.1 7-1.5 7.8-.4 1-.7 3.7-.8 4.7l-1.1-.1c0-.2.4-3.7.9-5 .3-.8 1-4.8 1.4-7.5.3-1.6.5-2.9.6-3.3.3-1.5 1.2-2.5 2-2.3.4.1 1.1.4 1 2.3-.1 1.1-.3 3.5-.4 5.5.4-1.8.9-4 1.1-4.9 0-.2.1-.4.1-.7.4-2.2 1-5.2 2.6-4.9.4.1.7.3.9.6.7 1.1.2 3.4-.3 5.5-.1.5-.2 1-.3 1.4-.2 1-.4 1.9-.5 2.6-.2 1.1-.4 2-.5 2.5.1-.2.2-.6.3-1.2 1.9-7.3 2.6-8.8 3.4-9 .7-.2 1.1.1 1.3.3.8.8.5 2.5.1 3.8-.1.6-.4 1.4-.6 2.3.4-1 .9-1.8 1.4-2.1.3-.2.6-.2.8-.1 1.1.4.7 2 0 4.6-.4 1.4-.8 3.2-1.1 5.1-.3 4.8-2.3 9.2-2.4 9.4z" id="XMLID_459_"/></g><g id="XMLID_454_"><path class="st2" d="M252.3 102.6c-1.2 3.6-8.7 33.8-8.7 33.8-.7 2-2.2 3.4-4.1 4l-.9.3-25.4 11c-3.4.9-1-4.7-1.9-8-.9-3.4-6.8-5.4-3.5-6.3l22.5-9c2-.7 3.6-2.3 4.2-4.4 2-7.6 5.7-21.9 6.5-27 .2-1.4-.8-4.9-1.6-5.9-.7-1-2.6-1.8-2.7-2.4-.1-.6 1.4-1.3 3.3-.6 2.5 1 2.8 3.7 4 4.5 1.2.7 4.2 1.9 4.4 4.7" id="XMLID_456_"/><path class="st3" d="M212.6 152.5c-.4 0-.8-.1-1.1-.3-.9-.7-.8-2.3-.6-4.1.1-1.4.2-2.9-.1-4.1-.4-1.4-1.7-2.6-2.8-3.5-1.1-.9-1.9-1.6-1.7-2.4.1-.6.9-.9 1.4-1.1l22.5-9c1.9-.6 3.3-2.1 3.8-4 2.1-7.8 5.7-22 6.5-27 .2-1.3-.8-4.6-1.5-5.5-.3-.4-.9-.8-1.4-1.2-.8-.5-1.3-.9-1.4-1.5 0-.4.1-.7.5-1 .6-.5 1.9-.8 3.5-.1 1.7.7 2.5 2.1 3.1 3.2.3.6.6 1.1 1 1.3.2.1.4.2.7.4 1.4.8 3.8 2.1 4 4.8l-1.1.1c-.1-2.1-2.1-3.2-3.4-3.9-.3-.2-.5-.3-.7-.4-.6-.4-.9-1-1.3-1.7-.6-1-1.2-2.2-2.6-2.7-1.3-.5-2.3-.2-2.5 0 .2.2.6.5.9.7.6.4 1.3.9 1.7 1.4.8 1.1 1.9 4.6 1.7 6.3-.8 5.1-4.3 19-6.5 27.1-.6 2.3-2.3 4-4.5 4.7l-22.5 9c-.6.2-.7.3-.7.3 0 .2.8.9 1.3 1.4 1.2 1 2.7 2.3 3.1 4 .4 1.3.2 3 .1 4.4-.1 1.3-.2 2.9.2 3.2.2.2.6.1.9 0l25.4-11c.2-.1.5-.2.8-.3 1.8-.6 3.2-2 3.8-3.7.3-1.2 8.1-30.5 9.4-34.1l.3.6c-1.2 3.5-8.6 33.5-8.7 33.8-.7 2.1-2.3 3.7-4.4 4.4l-.9.3-25.4 11c-.3.1-.5.2-.8.2z" id="XMLID_455_"/></g></g><g id="XMLID_450_"><path class="st1" d="M204.3 136.9l18.9-7.6c4.2-1.7 7.3-5.4 8.2-9.8l1.4-6.8c.4-2.1 2.5-3.4 4.6-3l13.1 2.8c2.1.4 3.4 2.5 3 4.6l-6.4 17.5c-1.3 3.6-4.1 6.5-7.6 8l-30.6 14.8" id="XMLID_452_"/><path class="st3" d="M209.2 157.7l-.5-1 30.6-14.8c3.4-1.4 6.1-4.2 7.4-7.7l6.4-17.5c.4-1.8-.8-3.5-2.6-3.9l-13.1-2.8c-.9-.2-1.8 0-2.5.5s-1.3 1.2-1.4 2.1l-1.4 6.8c-1 4.6-4.2 8.5-8.6 10.2l-18.9 7.6-.4-1 18.9-7.6c4.1-1.6 7-5.2 7.9-9.5l1.4-6.8c.2-1.1.9-2.1 1.9-2.8 1-.6 2.2-.9 3.3-.6l13.1 2.8c2.4.5 3.9 2.8 3.4 5.2v.1l-6.4 17.5c-1.4 3.7-4.3 6.8-7.9 8.3l-30.6 14.9z" id="XMLID_451_"/></g><g id="XMLID_448_"><path class="st15" d="M235.8 110.2c-1.1 1.6 2.1 3.5 8 4.5s7.7.3 8.4-.8l-.5-.9-15-3.2-.9.4z" id="XMLID_449_"/></g><g id="XMLID_443_"><path class="st1" d="M245.2 106.4c4.1.7 7.6.5 7.8-.5l-1.2 7c-.2 1-3.6 1.2-7.8.5s-7.4-2-7.2-3l1.2-7c-.2 1 3 2.3 7.2 3z" id="XMLID_447_"/><path class="st3" d="M248.4 114.3c-1.5 0-3.2-.2-4.5-.4-2-.3-3.9-.8-5.3-1.4-1.7-.7-2.4-1.4-2.3-2.2l1.2-7 1.1.2c.1.5 2.5 1.7 6.8 2.4s6.9.3 7.2-.1l1 .2-1.2 7c-.3 1-2 1.3-4 1.3zm-10.1-9.5l-.9 5.7c.1.5 2.5 1.7 6.8 2.4s6.9.3 7.2-.1l.9-5.7c-1.8.5-5 .3-7.1-.1-2-.3-3.9-.8-5.3-1.4-.8-.3-1.2-.6-1.6-.8z" id="XMLID_444_"/></g><g id="XMLID_439_"><path class="st0" d="M213.8 124.9c-.4-.9-.5-1.9-.3-2.9 1.4-6.4-1.4-13.2-7.3-16.8-1.8-1.1-3.7-1.8-5.7-2.1-.5-.5-1-.9-1.6-1.3-3.8-2.3-8.8-1.3-12.6 2.1l2.3 1.4c.1 0 .2-.1.3-.1.1 0 .2-.1.4-.1.1 0 .2-.1.4-.1.1 0 .3-.1.4-.1.1 0 .2-.1.4-.1.1 0 .3-.1.4-.1.1 0 .2-.1.4-.1.1 0 .3-.1.4-.1.1 0 .2 0 .4-.1.1 0 .3 0 .4-.1h.5l-2.4 5.7-2.3 8.9s.7 5 2.6 9.8c-.2 5.7 3.7 11.1 9.8 12.3 5.3 1 10.8-1.8 13-6.7 1.2-3.2 1.2-6.5.1-9.4z" id="XMLID_440_"/></g><g id="XMLID_437_"><path class="st16" d="M198.7 132.5l-8.1-3.8c-.2 5.7 3.7 11.1 9.8 12.2.3.1.5.1.8.1-4.8-3.2-2.5-8.5-2.5-8.5z" id="XMLID_438_"/></g><g id="XMLID_432_"><path class="st2" d="M189.6 131.5c1.4.5 2.8.7 4.2.9l.1 3.4c0 1.6-1.3 2.9-2.9 2.8-1.6 0-2.9-1.3-2.8-2.9l-.2-4.8c.5.2 1 .4 1.6.6z" id="XMLID_436_"/><path class="st3" d="M191.1 139.2c-.1 0-.1 0 0 0-1.9 0-3.4-1.6-3.4-3.5l-.2-5.6.8.3c.5.2 1.1.4 1.6.6 1.4.4 2.7.7 4.1.8h.5l.2 3.9c-.3 1.9-1.8 3.5-3.6 3.5zm-2.6-7.5l.2 4c0 1.3 1 2.4 2.3 2.4 1.3 0 2.3-1 2.4-2.3l-.1-2.9c-1.3-.1-2.6-.4-3.8-.8-.4-.2-.7-.3-1-.4z" id="XMLID_433_"/></g><g id="XMLID_427_"><path class="st2" d="M180.6 111.7c-4.5 7.5-1.5 15 5.4 19.2 6.9 4.1 15 3.3 19.5-4.1 4.5-7.5 2.6-16.9-4.3-21.1-6.9-4.2-16.1-1.5-20.6 6z" id="XMLID_431_"/><path class="st3" d="M194.3 133.9c-2.9 0-5.9-.9-8.6-2.6-7.7-4.7-10-12.7-5.6-19.9 4.7-7.7 14.2-10.5 21.3-6.2 7.1 4.3 9.1 14.1 4.4 21.8-2.2 3.7-5.4 6-9.2 6.7-.7.1-1.5.2-2.3.2zm-.2-29.7c-5 0-10.1 2.8-13.1 7.7-4.7 7.7-.7 14.8 5.2 18.4 3.3 2 7 2.8 10.2 2.2 3.5-.6 6.4-2.8 8.5-6.2 4.4-7.2 2.5-16.3-4.1-20.3-2-1.2-4.3-1.8-6.7-1.8z" id="XMLID_428_"/></g><g id="XMLID_425_"><path class="st2" d="M202.8 126.6l1 .6c.9.5 1.2 1.7.6 2.6-.5.9-1.7 1.2-2.6.6l-.3-.2 1.3-3.6z" id="XMLID_426_"/></g><g id="XMLID_423_"><path class="st0" d="M201.1 104.2c-5.2 7.1-14.4 10-22.6 7.4.2-.4.4-.8.7-1.2 4.5-7.6 14.2-10.3 21.9-6.2z" id="XMLID_424_"/></g><g id="XMLID_421_"><path class="st0" d="M194.6 102.3c2.4.2 5 .9 7.2 2.3 7.9 4.7 10.3 15.1 5.6 22.9-.2.4-1.1 1.9-1.4 2.3-1-1.3-1.7-2.2-2.8-2.9-8.5-5.1-12-15.6-8.6-24.6z" id="XMLID_422_"/></g><g id="XMLID_419_"><ellipse transform="rotate(-57.966 191.125 121.224)" class="st0" cx="191.1" cy="121.2" rx="1.1" ry="1" id="XMLID_420_"/></g><g id="XMLID_417_"><ellipse transform="rotate(-58.908 182.534 115.367)" class="st0" cx="182.5" cy="115.4" rx="1.1" ry="1" id="XMLID_418_"/></g><g id="XMLID_412_"><g id="XMLID_415_"><path class="st3" d="M195.4 120.1l-3.3-2.6c-.1-.1-.4-.1-.5.1-.1.1-.1.4.1.5l3.9 3c.2-.3.1-.7-.2-1z" id="XMLID_416_"/></g><g id="XMLID_413_"><path class="st3" d="M182.4 111.5l3.7 2.1c.2.1.2.3.1.5s-.3.2-.5.1l-4.2-2.5c.2-.3.6-.4.9-.2z" id="XMLID_414_"/></g></g><g id="XMLID_410_"><path class="st3" d="M185 120.7c-.7-.4-1-1.4-.5-2.1.4-.7 1.4-1 2.1-.5l-.6.9c-.2-.1-.5-.1-.6.2-.1.2-.1.5.2.6l-.6.9z" id="XMLID_411_"/></g><g id="XMLID_408_"><path class="st3" d="M202.8 131.2c-.4 0-.8-.1-1.2-.3l-.3-.2.6-.9.3.2c.6.4 1.4.2 1.8-.4.2-.3.2-.7.2-1-.1-.3-.3-.6-.6-.8l-1-.6.6-.9 1 .6c.5.3.9.9 1.1 1.5.2.6.1 1.3-.3 1.8-.6.6-1.4 1-2.2 1z" id="XMLID_409_"/></g><g id="XMLID_395_"><g id="XMLID_402_"><path class="st1" d="M191.4 125.9c-.6 0-1.3-.1-1.9-.4-1-.5-1.8-1.4-2.2-2.5-.4-1.1-.3-2.2.2-3.3.5-1 1.4-1.8 2.5-2.2 1.1-.4 2.2-.3 3.3.2 2.1 1.1 3 3.6 1.9 5.8-.7 1.6-2.2 2.4-3.8 2.4zm0-7.5c-.3 0-.7.1-1 .2-.8.3-1.5.9-1.9 1.6-.4.8-.4 1.6-.2 2.5.3.8.9 1.5 1.6 1.9 1.6.8 3.5.1 4.3-1.5.8-1.6.1-3.5-1.5-4.3-.3-.3-.8-.4-1.3-.4z" id="XMLID_403_"/></g><g id="XMLID_398_"><path class="st1" d="M182.2 119.5c-.6 0-1.3-.1-1.9-.4-1-.5-1.8-1.4-2.2-2.5-.4-1.1-.3-2.2.2-3.3.5-1 1.4-1.8 2.5-2.2 1.1-.4 2.2-.3 3.3.2 2.1 1.1 3 3.6 1.9 5.8-.7 1.6-2.2 2.4-3.8 2.4zm0-7.5c-.3 0-.7.1-1 .2-.8.3-1.5.9-1.9 1.6-.4.8-.4 1.6-.2 2.5s.9 1.5 1.6 1.9c1.6.8 3.5.1 4.3-1.5.8-1.6.1-3.5-1.5-4.3-.3-.3-.8-.4-1.3-.4z" id="XMLID_399_"/></g><g id="XMLID_396_"><path transform="rotate(-51.888 186.97 118.286)" class="st1" d="M186.4 116.4h1.1v3.7h-1.1z" id="XMLID_397_"/></g></g><g id="XMLID_393_"><path class="st2" d="M190.5 131.8l-.7 3.7 2.8.9 1-2.9.1-1.5z" id="XMLID_394_"/></g><g id="XMLID_391_"><path transform="rotate(-59.76 198.971 124.398)" class="st1" d="M198.4 120h1.1v8.8h-1.1z" id="XMLID_392_"/></g><g id="XMLID_373_"><g id="XMLID_386_"><path transform="rotate(-21.69 180.02 148.248)" class="st2" d="M177.5 147h5.1v2.5h-5.1z" id="XMLID_390_"/><path class="st3" d="M178.1 150.9c-.2 0-.4-.1-.5-.3l-.9-2.3c-.1-.3 0-.6.3-.7l4.7-1.9c.1-.1.3 0 .4 0l.3.3.9 2.3c.1.3 0 .6-.3.7l-4.7 1.9h-.2zm-.2-2.6l.5 1.3 3.7-1.5-.5-1.3-3.7 1.5z" id="XMLID_387_"/></g><g id="XMLID_381_"><path class="st0" d="M185 146.3l-2.2 2.2-.9-2.3z" id="XMLID_385_"/><path class="st3" d="M182.8 149h-.1c-.2 0-.3-.2-.4-.3l-.9-2.3c-.1-.2 0-.4.1-.5.1-.1.3-.2.5-.2l3.1.1c.2 0 .4.1.5.3.1.2 0 .4-.1.6l-2.2 2.2c-.2 0-.4.1-.5.1zm-.1-2.3l.3.8.7-.8h-1z" id="XMLID_382_"/></g><g id="XMLID_379_"><circle class="st1" cx="180.9" cy="147.9" r=".7" id="XMLID_380_"/></g><g id="XMLID_374_"><path class="st1" d="M177.2 148l-2.8.4 1.8.7-1.9 1.4 2.2-.1-.7 1.6 2.3-1.7z" id="XMLID_378_"/><path class="st3" d="M175.8 152.6c-.1 0-.2 0-.3-.1-.2-.2-.2-.4-.1-.6l.4-.8h-1.3c-.2 0-.4-.1-.5-.4-.1-.2 0-.5.2-.6l1.1-.8-.9-.4c-.2-.1-.4-.3-.3-.6 0-.2.2-.4.5-.5l2.8-.4c.2 0 .5.1.6.3l.9 2.3c.1.2 0 .5-.2.6l-2.3 1.7c-.4.2-.5.3-.6.3zm.7-2.7c.2 0 .3.1.4.2.1.1.1.2.1.3l.5-.3-.6-1.5-.4.1c.2.1.3.2.3.4s-.1.4-.2.5l-.5.4.4-.1z" id="XMLID_375_"/></g></g><g id="XMLID_371_"><path class="st3" d="M185.1 110.6c-1.8 0-3.7-.3-5.4-.8l.3-1c5.2 1.7 10.9.7 15.2-2.6l.6.9c-3 2.3-6.8 3.5-10.7 3.5z" id="XMLID_372_"/></g><g id="XMLID_369_"><path class="st3" d="M185.5 108.3c-1 0-2-.1-3-.3l.2-1c3.6.7 7.4 0 10.4-1.9l.6.9c-2.4 1.5-5.3 2.3-8.2 2.3z" id="XMLID_370_"/></g><g id="XMLID_367_"><path class="st3" d="M203.9 125.7c-7.7-4.6-11-14-7.9-22.4l1 .4c-2.9 7.8.2 16.7 7.4 21.1l-.5.9z" id="XMLID_368_"/></g><g id="XMLID_365_"><path class="st3" d="M212.7 134l-1-.4c1.3-2.8 1.4-6 .3-8.9l1-.4c1.2 3.2 1.1 6.6-.3 9.7z" id="XMLID_366_"/></g><g id="XMLID_363_"><path class="st0" d="M212.2 107.5c-1.1-1.4-2.5-2.6-4-3.5l.6-.9c1.7 1 3.1 2.3 4.3 3.8l-.9.6z" id="XMLID_364_"/></g><g id="XMLID_361_"><path class="st0" d="M216.3 120.5l-1-.2c.7-3.5.2-7.1-1.4-10.3l.9-.5c1.7 3.4 2.3 7.3 1.5 11z" id="XMLID_362_"/></g><g id="XMLID_359_"><ellipse transform="rotate(-49.511 191.129 121.226)" class="st3" cx="191.1" cy="121.2" rx=".7" ry=".6" id="XMLID_360_"/></g><g id="XMLID_357_"><ellipse transform="rotate(-49.511 182.532 115.37)" class="st3" cx="182.5" cy="115.4" rx=".7" ry=".6" id="XMLID_358_"/></g><g id="XMLID_352_"><path class="st2" d="M244.9 91.1s5.6-1.8 9.3.8" id="XMLID_354_"/><path class="st3" d="M253.9 92.3c-3.4-2.5-8.8-.8-8.8-.8l-.3-1c.2-.1 5.9-1.9 9.8.9l-.7.9z" id="XMLID_353_"/></g><g id="XMLID_350_"><path class="st5" d="M185.6 123.3c-.4 0-.8-.1-1.2-.3-.8-.4-1.4-1.2-1.5-2l1.1-.2c.1.5.4 1 .9 1.2.5.2 1.1.2 1.5 0l.5.9c-.4.3-.8.4-1.3.4z" id="XMLID_351_"/></g></g><g id="XMLID_317_"><path class="st1" d="M51.9 152.7l-.2-.3 30.5-15.5-6.9-21.1.4-.1 6.9 21.4z" id="XMLID_318_"/></g><g id="XMLID_315_"><path class="st1" d="M175.7 262.5L152.3 334l.3.1 23.3-71.2c0-.2-.1-.3-.2-.4z" id="XMLID_168_"/></g><g id="XMLID_66_"><g id="XMLID_324_"><path class="st2" d="M28 133.4c-.6 1-.8 2.2-.5 3.3.1.3.1.5.2.7.3.8.9 1.5 1.7 2 2 1.3 4.7.6 6-1.4l16.1-25.9c-.2.1-.5.2-.8.2-1.4.3-2.9.1-4.1-.7-1.5-.9-2.4-2.5-2.5-4.2l-16.1 26z"/><path class="st18" d="M31.7 140.5c-.9 0-1.8-.2-2.6-.7-.8-.5-1.5-1.3-1.9-2.2-.1-.3-.2-.5-.3-.8-.3-1.3-.1-2.6.6-3.7l17-27.1.1 1.5c.1 1.5 1 3 2.3 3.8 1.1.7 2.4.9 3.7.6.2-.1.5-.1.7-.2l1.4-.6-16.9 27.2c-.9 1.4-2.5 2.2-4.1 2.2zm12.2-31.7l-15.4 24.8c-.5.9-.7 1.9-.5 2.9.1.2.1.4.2.7.3.7.8 1.3 1.5 1.7 1.8 1.1 4.2.6 5.3-1.2l15.4-24.8c-1.4.2-2.8-.1-4-.8-1.2-.8-2.1-1.9-2.5-3.3z"/></g><g id="XMLID_71_"><path class="st0" d="M54.9 125.2c.3.7.3 1.2.3 1.3h-.7c0-.1-.2-2.3-3.2-4-2.8-1.6-4.9 0-6.2 1.7-2.1 2.7-5.5 3.5-8.1 1.9-1.3-.8-2.3-2.1-2.6-3.7-.4-1.5-.1-3.1.7-4.4l.6.4c-.7 1.2-1 2.6-.6 3.9.3 1.3 1.1 2.5 2.3 3.2 2.3 1.4 5.3.7 7.1-1.7 1.2-1.6 3.7-3.9 7.1-1.9 2 1 2.9 2.3 3.3 3.3z" id="XMLID_72_"/></g><g id="XMLID_67_"><path class="st0" d="M50.7 126.4c.9 2.2.1 4.4 0 4.5l-.7-.3s.9-2.2-.2-4.2c-.7-1.4-2.2-2.4-4.3-3l.2-.7c2.4.6 4 1.8 4.8 3.4.2.1.2.2.2.3z" id="XMLID_68_"/></g></g><g id="XMLID_154_"><g id="XMLID_295_"><path class="st2" d="M256.7 46.4l17.4 25c.7 1 1.7 1.6 2.8 1.8.3 0 .5.1.8.1.9 0 1.7-.3 2.5-.8 2-1.4 2.5-4.1 1.1-6.1l-17.4-25c0 .3 0 .5-.1.8-.3 1.4-1 2.7-2.2 3.5-1.5 1.1-3.3 1.3-4.9.7z"/><path class="st18" d="M277.7 73.8c-.3 0-.6 0-.9-.1-1.3-.2-2.4-.9-3.1-2l-18.3-26.3 1.4.5c1.5.5 3.1.3 4.4-.6 1.1-.8 1.8-1.9 2-3.2 0-.2.1-.5.1-.7v-1.5l18.3 26.3c.7 1.1 1 2.3.8 3.6s-.9 2.4-2 3.1c-.7.6-1.7.9-2.7.9zm-19.8-26.6l16.7 24c.6.8 1.5 1.4 2.5 1.6.2 0 .5.1.7.1.8 0 1.5-.2 2.2-.7.8-.6 1.4-1.5 1.6-2.5.2-1 0-2-.6-2.9l-16.7-24c-.4 1.4-1.2 2.5-2.3 3.4-1.3.8-2.7 1.1-4.1 1z"/></g><g id="XMLID_339_"><path class="st0" d="M277.2 43.5c.8 0 1.2.2 1.3.2l-.3.7c-.1 0-2.1-.7-5 1.3-2.6 1.9-1.9 4.5-.9 6.4 1.7 3 1 6.4-1.5 8.1-1.3.9-2.8 1.2-4.4 1-1.5-.3-2.9-1.1-3.8-2.4l.6-.4c.8 1.1 2 1.9 3.3 2.1 1.4.2 2.7-.1 3.9-.8 2.2-1.5 2.8-4.6 1.3-7.2-1-1.7-2.1-4.9 1.1-7.3 1.9-1.4 3.4-1.7 4.4-1.7z" id="XMLID_340_"/></g><g id="XMLID_337_"><path class="st0" d="M276.7 47.8c2.4 0 4.1 1.7 4.2 1.7l-.5.5s-1.7-1.7-4-1.5c-1.6.1-3.1 1-4.4 2.8l-.6-.4c1.5-1.9 3.2-2.9 5-3.1h.3z" id="XMLID_338_"/></g><ellipse transform="rotate(-30 259.89 43.507)" class="st2" cx="259.9" cy="43.5" rx="4.3" ry="2.9"/><path class="st18" d="M258.6 47.3h-.3c-1.2-.1-2.1-.6-2.5-1.4-.5-.8-.5-1.9 0-2.9s1.3-1.9 2.4-2.5c2.4-1.4 5-1.1 5.9.6 1 1.6-.2 4.1-2.5 5.4-1 .5-2 .8-3 .8zm2.6-6.7c-.8 0-1.7.2-2.5.7-.9.5-1.6 1.3-2 2.1-.4.7-.4 1.4-.1 2 .3.5.9.9 1.7.9.9.1 1.9-.2 2.8-.7 1.8-1 2.8-2.9 2.1-4-.3-.6-1.1-1-2-1z"/><g><ellipse transform="rotate(-30 259.813 44.736)" class="st2" cx="259.8" cy="44.7" rx="2.7" ry="1.8"/><path class="st18" d="M259 47.3c-.8 0-1.6-.3-1.9-1-.3-.6-.3-1.3 0-2 .3-.6.9-1.2 1.6-1.6 1.5-.9 3.2-.7 3.9.4.3.6.3 1.3 0 2-.3.6-.9 1.2-1.6 1.6-.7.4-1.4.6-2 .6zm1.6-4.1c-.5 0-1 .1-1.5.4-.5.3-.9.7-1.2 1.2-.1.2-.3.7-.1 1 .4.6 1.5.6 2.5 0 .5-.3.9-.7 1.2-1.2.1-.2.3-.7.1-1-.1-.3-.5-.4-1-.4z"/></g></g></g><ellipse transform="rotate(-52.569 48.296 109.058)" class="st2" cx="48.3" cy="109.1" rx="2.9" ry="4.3"/><path class="st18" d="M49.7 113.1h-.3c-1.1-.1-2.2-.5-3.2-1.3s-1.7-1.8-2.1-2.8c-.4-1.1-.2-2.1.3-2.9.6-.8 1.5-1.1 2.7-1.1 1.1.1 2.2.5 3.2 1.3s1.7 1.8 2.1 2.8c.4 1.1.2 2.1-.3 2.9-.5.7-1.4 1.1-2.4 1.1zm-2.8-7.1c-.7 0-1.3.2-1.7.7-.4.5-.4 1.2-.2 2 .3.8.9 1.7 1.7 2.3.8.6 1.8 1 2.7 1.1.8 0 1.5-.2 1.9-.7.4-.5.4-1.2.2-2-.3-.8-.9-1.7-1.7-2.3s-1.8-1-2.7-1.1h-.2z"/><g><ellipse transform="rotate(-52.569 47.131 109.457)" class="st2" cx="47.1" cy="109.5" rx="1.8" ry="2.7"/><path class="st18" d="M48 112.1h-.2c-.7 0-1.4-.3-2.1-.8-.6-.5-1.1-1.1-1.3-1.8-.2-.7-.2-1.4.2-2 .8-1 2.5-1 3.9.1.6.5 1.1 1.1 1.3 1.8.2.7.2 1.4-.2 2-.3.5-.9.7-1.6.7zm-1.7-4.3c-.4 0-.7.1-.9.4-.3.3-.2.8-.1 1 .2.5.5 1 1 1.3.5.4 1 .6 1.5.6.3 0 .7 0 1-.3.3-.3.2-.8.1-1-.2-.5-.5-1-1-1.3-.5-.5-1.1-.7-1.6-.7z"/></g></svg>