<svg version="1.1" id="Layer_1" xmlns="http://www.w3.org/2000/svg" x="0" y="0" viewBox="0 0 757.6 748.3" xml:space="preserve"><style>.st0{fill:#086936}.st1{fill:#fff}.st2{fill:#39444a}.st3{fill:#088844}.st4{fill:#3b434b}.st5{fill:#f49b23}.st6{fill:none}.st7{fill:#ca2128}.st8{fill:#2d6fb0}.st9{opacity:.5}.st10{opacity:.3}.st11{fill:#3a434a}.st12{fill:#781b18}.st13{fill:none;stroke:#2d82b2;stroke-width:3;stroke-linecap:round;stroke-miterlimit:10}.st14{fill:#2ab598}.st15{fill:#ffd141}.st16{fill:#34b393}.st19{fill:none;stroke:#fff;stroke-miterlimit:10}.st20{opacity:.3;fill:#fff}.st22{fill:none;stroke-width:3}.st22,.st23{stroke:#3a434a}.st23,.st25{fill:#ca2128;stroke-width:3;stroke-miterlimit:10}.st25,.st26,.st27{stroke:#3b434b}.st26{stroke-width:3;stroke-miterlimit:10;fill:#ffd141}.st27{fill:#088844}.st27,.st28,.st30{stroke-width:3;stroke-miterlimit:10}.st28{stroke-linejoin:round;fill:none;stroke:#3a434a}.st30{fill:#fff;stroke:#39444a}</style><g id="XMLID_2271_"><g id="XMLID_2272_"><path class="st0" d="M552.4 394.8h-89c-2 0-3.6-1.6-3.6-3.6v-33.1c0-2 1.6-3.6 3.6-3.6h89c2 0 3.6 1.6 3.6 3.6v33.1c0 2-1.6 3.6-3.6 3.6z" id="XMLID_2310_"/><g id="XMLID_2305_"><path class="st1" d="M507.4 357.9c-15.5 0-30-4.1-42.5-11.3v31.7c2.2 21.6 20.4 38.4 42.5 38.4s40.3-16.8 42.5-38.4v-31.7c-12.5 7.2-27 11.3-42.5 11.3z" id="XMLID_2309_"/><path class="st2" d="M507.4 418.1c-22.8 0-41.7-17.1-44-39.7V344.1l2.2 1.2c12.7 7.3 27.1 11.1 41.8 11.1 14.7 0 29.1-3.9 41.8-11.1l2.2-1.2v34.4c-2.3 22.6-21.2 39.6-44 39.6zm-41.1-39.9c2.2 21.1 19.8 37 41.1 37s38.9-15.9 41.1-37V349c-12.6 6.8-26.7 10.3-41.1 10.3-14.3 0-28.5-3.6-41.1-10.3v29.2z" id="XMLID_2306_"/></g><g id="XMLID_2304_"><path class="st3" d="M454.2 366.1l.1.1h-48.4c-37.7 0-63.7 21.1-80.5 65.8l-26.2 165.9-2.7 1.5 356-1.5 38-165.9c-16.8-44.7-42.8-65.8-80.5-65.8h-48.4v3.5c0-4.8-2.3-9-5.9-11.6-10.9 14.8-28.3 24.2-47.5 24.2s-36.7-9.5-47.5-24.3c-3.7 2.6-6.1 6.9-6.1 11.8v-3.5l-.4-.2z"/><path class="st4" d="M296.4 600.8c-.7 0-1.3-.5-1.4-1.1-.2-.7.1-1.3.7-1.7l2.1-1.2 26.1-165.2c0-.1 0-.2.1-.3 8.6-22.8 19.3-39.2 32.9-50.3 13.6-11.1 29.6-16.5 49-16.5h47.9c1.1-3.2 3.1-6 5.9-8 .7-.5 1.6-.3 2.1.3 10.9 14.8 28.2 23.7 46.3 23.7 18.1 0 35.4-8.8 46.3-23.6.2-.3.6-.5 1-.6.4-.1.8 0 1.1.3 2.7 2 4.7 4.7 5.7 7.8h47.7c19.4 0 35.5 5.4 49 16.5s24.3 27.5 32.9 50.3c.1.3.1.6.1.9l-38 165.9c-.2.7-.8 1.2-1.4 1.2l-356.1 1.6zm30.4-168.5l-26.2 165.5 350.6-1.5L688.9 432c-16.6-43.9-41.7-64.4-79-64.4H563v2c0 .8-.7 1.5-1.5 1.5s-1.5-.7-1.5-1.5c0-3.6-1.5-7-4.2-9.5-11.5 14.8-29.2 23.5-47.7 23.5-18.6 0-36.3-8.8-47.8-23.7-2.7 2.5-4.3 6-4.3 9.6 0 .8-.7 1.5-1.5 1.5s-1.5-.7-1.5-1.5v-2h-47.1c-37.3.1-62.5 20.6-79.1 64.8z"/></g><g id="XMLID_2273_"><path class="st1" d="M592.6 398.3l-13.8-5.9-13.8 5.9-14.1-5.9.4-1 13.7 5.8 13.8-5.8 13.8 5.8 13.8-5.8 13.8 5.8 13.8-5.8 13.9 5.8 13.6-5.8.4 1-14 5.9-13.9-5.9-13.8 5.9-13.8-5.9z" id="XMLID_2303_"/><path class="st1" d="M396.3 398.3l-13.8-5.9-13.8 5.9-14-5.9.4-1 13.6 5.8 13.8-5.8 13.8 5.8 13.8-5.8 13.8 5.8 13.9-5.8 13.8 5.8 13.6-5.8.4 1-14 5.9-13.8-5.9-13.9 5.9-13.8-5.9z" id="XMLID_2302_"/><g id="XMLID_2293_"><path class="st1" d="M507.7 467.4l-22.3-22.2v-23.7l22.3 22.2z" id="XMLID_2301_"/><path class="st1" d="M510 467.4l22.2-22.2v-23.7l-22.3 22.2z" id="XMLID_2300_"/><path class="st1" d="M510 474.1l22.2 22.2V520l-22.3-22.2z" id="XMLID_2299_"/><path class="st1" d="M507.7 474.1l-22.3 22.2V520l22.3-22.2z" id="XMLID_2298_"/><path class="st1" d="M512.1 469.6l22.3-22.3 23.6.1-22.2 22.3z" id="XMLID_2297_"/><path class="st1" d="M512.1 471.9l22.3 22.3 23.6-.1-22.2-22.3z" id="XMLID_2296_"/><path class="st1" d="M505.5 471.9l-22.2 22.3-23.7-.1 22.2-22.3z" id="XMLID_2295_"/><path class="st1" d="M505.5 469.6l-22.2-22.3-23.7.1 22.2 22.3z" id="XMLID_2294_"/></g><g id="XMLID_2284_"><path class="st1" d="M616.3 467.4l-22.2-22.2v-23.7l22.3 22.2z" id="XMLID_2292_"/><path class="st1" d="M618.6 467.4l22.3-22.2v-23.7l-22.3 22.2z" id="XMLID_2291_"/><path class="st1" d="M618.6 474.1l22.3 22.2V520l-22.3-22.2z" id="XMLID_2290_"/><path class="st1" d="M616.3 474.1l-22.2 22.2V520l22.3-22.2z" id="XMLID_2289_"/><path class="st1" d="M620.8 469.6l22.3-22.3 23.6.1-22.2 22.3z" id="XMLID_2288_"/><path class="st1" d="M620.8 471.9l22.3 22.3 23.6-.1-22.2-22.3z" id="XMLID_2287_"/><path class="st1" d="M614.2 471.9l-22.3 22.3-23.6-.1 22.2-22.3z" id="XMLID_2286_"/><path class="st1" d="M614.2 469.6l-22.3-22.3-23.6.1 22.2 22.3z" id="XMLID_2285_"/></g><g id="XMLID_2275_"><path class="st1" d="M399 467.4l-22.3-22.2.1-23.7 22.3 22.2z" id="XMLID_2283_"/><path class="st1" d="M401.3 467.4l22.3-22.2-.1-23.7-22.3 22.2z" id="XMLID_2282_"/><path class="st1" d="M401.3 474.1l22.3 22.2-.1 23.7-22.3-22.2z" id="XMLID_2281_"/><path class="st1" d="M399 474.1l-22.3 22.2.1 23.7 22.3-22.2z" id="XMLID_2280_"/><path class="st1" d="M403.5 469.6l22.2-22.3 23.7.1-22.2 22.3z" id="XMLID_2279_"/><path class="st1" d="M403.5 471.9l22.2 22.3 23.7-.1-22.2-22.3z" id="XMLID_2278_"/><path class="st1" d="M396.8 471.9l-22.2 22.3-23.7-.1 22.2-22.3z" id="XMLID_2277_"/><path class="st1" d="M396.8 469.6l-22.2-22.3-23.7.1 22.2 22.3z" id="XMLID_2276_"/></g><path class="st0" d="M452.5 369.8c0 .1 0 .3.1.4 5.6 25.9 29 44.7 55.5 44.7 26.6 0 49.9-18.9 55.5-44.9v-.2h-3.7c-5.4 24.1-27.1 41.5-51.8 41.5-24.7 0-46.4-17.4-51.9-41.5h-3.7z" id="XMLID_2274_"/></g></g></g><g id="Page-1_2_"><g id="Group-50_2_"><g id="Group_4_" transform="translate(69 12)"><path class="st5" d="M.2 446.4C-50 262.8 58.2 73.3 241.8 23.2c183.7-50.2 373.1 58 423.3 241.6C715.2 448.4 607 637.9 423.4 688 239.8 738.2 50.3 630 .2 446.4m109.4-29.9c33.6 123.2 160.7 195.7 283.9 162.1C516.7 545 589.3 417.9 555.6 294.7 522 171.6 394.9 99 271.7 132.6 148.6 166.3 76 293.4 109.6 416.5" id="Fill-1_2_"/><path class="st6" d="M241.8 23.2c183.7-50.2 373.1 58 423.3 241.6C715.2 448.4 607 637.9 423.4 688 239.8 738.2 50.3 630 .2 446.4-50 262.8 58.2 73.3 241.8 23.2zm151.7 555.4C516.7 545 589.3 417.9 555.6 294.7 522 171.6 394.9 99 271.7 132.6 148.6 166.3 76 293.4 109.6 416.5c33.7 123.2 160.8 195.8 283.9 162.1z" id="Stroke-3_2_"/><path class="st7" d="M440.3 555.2c82.8-44.6 129-135.8 116.4-228.4l-.8-6 124.2-17 .8 6c19.4 142.4-50.4 282.5-176.1 352.9l-5.3 2.8-5.3 2.8c-60.3 31.1-127 43.8-193.3 37.6l-3.2-.3-1.5-2.8 10.5-62.3 5.2-59.5c44.2 4.4 88.6-4.3 128.4-25.8z" id="Fill-5_2_"/><path class="st6" d="M440.3 555.2c82.8-44.6 129-135.8 116.4-228.4l-.8-6 124.2-17 .8 6c19.4 142.4-50.4 282.5-176.1 352.9l-5.3 2.8-5.3 2.8c-60.3 31.1-127 43.8-193.3 37.6l-3.2-.3-1.5-2.8 10.5-62.3 5.2-59.5c44.2 4.4 88.6-4.3 128.4-25.8z" id="Stroke-7_2_"/><path class="st8" d="M-42.8 483.2c-7.9-18.2-14.9-54.6-14.9-54.6C-94 242.1 16.7 55.9 201.3.8l27.2-8.1 48.6 163-27.2 8.1C144.7 195.2 83.7 305.1 112.6 411.3c22.3 81.8 93 140.8 176.9 148.5l28.2 2.6-15.5 169.4-28.3-2.6C129.1 715.9 7.4 618.8-42.8 483.2" id="Fill-9_4_"/><path class="st6" d="M-57.8 428.5C-94 242.1 16.7 55.9 201.3.8l27.2-8.1 48.6 163-27.2 8.1C144.7 195.2 83.7 305.1 112.6 411.3c22.3 81.8 93 140.8 176.9 148.5l28.2 2.6-15.5 169.4-28.3-2.6C129.1 715.9 7.4 618.8-42.8 483.2c-7.9-18.2-15-54.7-15-54.7z" id="Stroke-11_4_"/></g></g></g><g id="XMLID_2250_" class="st9"><g id="XMLID_2266_" class="st10"><path class="st1" d="M163.2 64.6L8.5 314.9c-3 20.1-4.4 40.6-4 61.2L216.1 33.7c-18.6 8.9-36.3 19.3-52.9 30.9z"/></g><g id="XMLID_2265_" class="st10"><path class="st1" d="M297.5 4.7l-12.6 3.7-272 440.1c2.1 9.5 5.8 25.7 10.1 38.3L305.2 30.5l-7.7-25.8z"/></g><g id="XMLID_2264_" class="st10"><path class="st1" d="M297.6 183.5L396.9 23c-11.7.2-23.5.9-35.3 2.3L241.9 218.9c16.2-14.5 34.9-26.6 55.7-35.4z"/></g><g id="XMLID_2263_" class="st10"><path class="st1" d="M181.7 316.3L44.9 537.7c5 9.8 10.4 19.3 16.2 28.5l113.8-184.1c-1.4-22.5 1-44.7 6.8-65.8z"/></g><g id="XMLID_2262_" class="st10"><path class="st1" d="M413.6 136.7l65-105.1c-10-2.3-20.2-4.2-30.4-5.6l-68.9 111.5c11.5-1.1 22.9-1.4 34.3-.8z"/></g><g id="XMLID_2261_" class="st10"><path class="st1" d="M189 445.3L89.7 606c6.4 7.8 13 15.2 20 22.4l94.5-152.9c-5.9-9.5-11-19.6-15.2-30.2z"/></g><g id="XMLID_2260_" class="st10"><path class="st1" d="M489.9 154l60.2-97.4c-8.7-4.2-17.7-8-26.8-11.4L462 144.5c9.5 2.5 18.9 5.7 27.9 9.5z"/></g><g id="XMLID_2259_" class="st10"><path class="st1" d="M234 513.4l-90.4 146.3c7.5 6.1 15.2 11.9 23.1 17.3L256 532.5c-7.8-5.9-15.2-12.2-22-19.1z"/></g><g id="XMLID_2258_" class="st10"><path class="st1" d="M553 192.9l60.2-97.3c-7.6-5.9-15.4-11.5-23.5-16.7L530 175.4c8 5.3 15.7 11.1 23 17.5z"/></g><g id="XMLID_2257_" class="st10"><path class="st1" d="M295.1 555.3l-89.7 145.1c8.5 4.5 17.2 8.6 26.1 12.5l91.3-147.6c-9.6-2.7-18.8-6-27.7-10z"/></g><g id="XMLID_2256_" class="st10"><path class="st1" d="M602.6 253.3l64.9-105c-6.4-7.7-13.1-15.2-20.1-22.3L585 226.9c6.5 8.4 12.4 17.2 17.6 26.4z"/></g><g id="XMLID_2255_" class="st10"><path class="st1" d="M385 593.5l1.7-19-15.6-1.4L275 728.6c9.7 2.8 19.5 5.2 29.4 7.1L392 594c-2.2-.2-4.6-.4-7-.5z"/></g><g id="XMLID_2254_" class="st10"><path class="st1" d="M448 589.5l-94.4 152.7 17.6 1.6 2.3-25.5c9.3.8 18.6 1.2 27.9 1.2l88.4-143c-13.5 5.8-27.5 10.1-41.8 13z"/></g><g id="XMLID_2253_" class="st10"><path class="st1" d="M624.6 306.7c2.3 8.5 4.1 16.9 5.4 25.4l-5.1.7.8 6c.7 5.2 1.2 10.3 1.6 15.5l84.6-136.8c-4.8-10-10.1-19.7-15.8-29.1l-72 116.4c.2.6.4 1.3.5 1.9z"/></g><g id="XMLID_2252_" class="st10"><path class="st1" d="M734.1 276.8l-1.8-6.3-274.9 444.7c13.2-2.1 26.2-4.9 39.1-8.5l245-396.3c-1.9-11.2-4.4-22.4-7.4-33.6z"/></g><g id="XMLID_2251_" class="st10"><path class="st1" d="M753.1 377.7L567.2 678.4l1.5-.8 5.3-2.8c18.1-10.2 35.1-21.8 50.8-34.6l119.9-193.9c4.9-22.4 7.8-45.4 8.4-68.6z"/></g></g><path class="st11" d="M372.6 745.4l-29.7-2.7c-71-6.5-138.3-33.3-194.7-77.5-55.9-43.7-98.5-102.3-123.4-169.5-7.8-18.1-14.7-53.4-15-54.9-17.6-90.8-1-184.7 46.9-264.2C104.8 96.7 180.5 38.1 269.9 11.4l28.6-8.5L348 168.7l-28.6 8.5c-50.5 15.1-92.5 48.8-118.1 95-25.6 46.2-32.1 99.7-18.2 150.7 10.9 39.8 33.3 74.8 64.9 101.3 31.5 26.4 69.8 42.4 110.7 46.1l29.7 2.7-.1 1.5-15.7 170.9zM296.5 6.6l-25.8 7.7C182.1 40.7 107 98.9 59.2 178.2c-47.5 78.9-64 172-46.6 262.1.1.4 7.1 36.5 14.8 54.3v.1c24.7 66.7 67 124.9 122.4 168.2 56 43.8 122.8 70.4 193.2 76.9l26.8 2.5L385 575.9l-26.7-2.5c-41.5-3.8-80.4-20-112.3-46.8-32-26.9-54.8-62.4-65.8-102.8-14.1-51.8-7.6-106.1 18.4-152.9 26-46.9 68.6-81.1 119.9-96.4l25.8-7.7L296.5 6.6z" id="Fill-9_3_"/><path class="st11" d="M402.8 721c-9.7 0-19.5-.4-29.3-1.2l-1.5-.1 11.7-127.8 1.5.1c42.8 3.4 85.5-5.6 123.4-26 40.4-21.7 72.7-54.8 93.4-95.6 20.7-40.7 28.4-86.2 22.3-131.4l-1-7.4 127.2-17.4 1 7.4c9.5 70.2-2.1 140.8-33.8 204.3-31.5 63.1-80.5 114.7-141.8 149.4l-1.3.7-11.9 6.4v-.1C513 707.8 458.2 721 402.8 721zm-27.6-4.1c64.8 5.1 129.5-7.9 187.4-37.8l1.3-.7 8.3-4.5.8-.5c61.6-34.4 110.6-85.8 142-148.8 31.4-62.9 43-133 33.5-202.6l-.6-4.5-121.3 16.6.6 4.5c6.2 45.8-1.6 91.9-22.6 133.1-21 41.3-53.8 74.8-94.6 96.8-38.1 20.5-80.8 29.6-123.6 26.5l-11.2 121.9z" id="XMLID_2249_"/><path class="st11" d="M628.8 333.8l-.2-1.4c-1.3-8.6-3.2-17-5.4-25.3-16.2-59.2-54.4-108.5-107.7-138.9-53.3-30.4-115.2-38.3-174.4-22.1-.3.1-.5.1-.8.2l-2.1.6L305 35.3l1.4-.4c1.3-.4 2.6-.7 4-1.1C399.6 9.4 493 21.2 573.3 67.1c80.3 45.8 137.9 120.2 162.3 209.4 3.6 13.2 6.4 26.7 8.5 40.1l.2 1.5-115.5 15.7zM402 134.9c39.9 0 79.4 10.4 115 30.7 54 30.8 92.7 80.8 109.1 140.7 2.1 7.8 3.9 16 5.2 24.1l109.5-15c-2-12.9-4.7-25.7-8.2-38.3-24.1-88.4-81.3-162.1-160.9-207.6-79.6-45.4-172.1-57.2-260.5-33-.8.2-1.7.5-2.5.7l31.6 105.9c20.4-5.5 41.1-8.2 61.7-8.2z" id="XMLID_2248_"/><g id="XMLID_1872_"><g id="XMLID_2215_"><path class="st12" d="M299.7 443.1h-46.6c-2 0-3.6-1.6-3.6-3.6v-9.3c0-2 1.6-3.6 3.6-3.6h46.6c2 0 3.6 1.6 3.6 3.6v9.3c0 2-1.6 3.6-3.6 3.6z" id="XMLID_2247_"/><g id="XMLID_2242_"><path class="st1" d="M275.9 418.6c-6.4 0-12.6-.4-18.7-1.2v25.7c0 10.3 8.4 18.7 18.7 18.7 10.3 0 18.7-8.4 18.7-18.7v-25.7c-6.1.7-12.3 1.2-18.7 1.2z" id="XMLID_2246_"/><path class="st2" d="M275.9 463.2c-11.1 0-20.2-9-20.2-20.2v-27.4l1.6.2c12.2 1.6 24.8 1.6 37.1 0l1.6-.2V443c0 11.2-9 20.2-20.1 20.2zM258.6 419v24.1c0 9.5 7.7 17.3 17.3 17.3 9.5 0 17.3-7.7 17.3-17.3V419c-11.5 1.3-23.2 1.3-34.6 0z" id="XMLID_2243_"/></g><g id="XMLID_2241_"><path class="st7" d="M224.9 442.6c-19 0-32.1 10.6-40.6 33.2l-13.2 83.7L170 590l211.7 3.5-13.2-117.7c-8.5-22.5-21.6-33.2-40.6-33.2h-24.4V434c0-2.4-1.2-4.5-3-5.9-5.5 7.4-14.3 12.2-23.9 12.2-9.7 0-18.5-4.8-24-12.3a7.16 7.16 0 00-3.1 5.9v8.6h-24.6z"/><path class="st11" d="M383.3 595l-215-3.6 1.2-32.2 13.2-83.8.1-.1c8.6-23 22.4-34.2 42-34.2h23V434c0-2.8 1.4-5.5 3.7-7.1l1.2-.9.9 1.2c5.3 7.3 13.9 11.7 22.8 11.7s17.4-4.3 22.7-11.6l.9-1.2 1.2.9c2.3 1.7 3.6 4.3 3.6 7.1v7.1h22.9c19.6 0 33.4 11.2 42 34.2l.1.4L383.3 595zm-211.8-6.4L380 592l-13-115.9c-8.3-21.9-20.7-32-39.2-32h-25.9V434c0-1.4-.5-2.6-1.3-3.7-5.9 7.2-14.8 11.5-24.1 11.5s-18.2-4.3-24.2-11.6c-.9 1-1.4 2.4-1.4 3.7V444h-26c-18.4 0-30.9 10.2-39.2 32.1l-13.2 83.4-1 29.1z"/></g><g id="XMLID_2218_"><path class="st1" d="M319.1 459.1l-7-3-6.9 3-7.2-3 .4-.9 6.8 2.8 6.9-2.9 7 2.9 7-2.9 6.9 2.9 7-2.9 7 2.9 6.8-2.8.3.9-7.1 3-7-3-7 3-6.9-3z" id="XMLID_2240_"/><path class="st1" d="M220.1 459.1l-7-3-6.9 3-7.2-3 .4-.9 6.8 2.8 6.9-2.9 7 2.9 7-2.9 6.9 2.9 7-2.9 7 2.9 6.8-2.8.3.9-7.1 3-7-3-7 3-6.9-3z" id="XMLID_2239_"/><g id="XMLID_2230_"><path class="st1" d="M276.3 493.7L265 482.5v-12l11.3 11.3z" id="XMLID_2238_"/><path class="st1" d="M277.4 493.7l11.3-11.2-.1-12-11.2 11.3z" id="XMLID_2237_"/><path class="st1" d="M277.4 497.1l11.3 11.2-.1 11.9-11.2-11.2z" id="XMLID_2236_"/><path class="st1" d="M276.3 497.1L265 508.3v11.9l11.3-11.2z" id="XMLID_2235_"/><path class="st1" d="M278.5 494.8l11.2-11.2h12l-11.2 11.2z" id="XMLID_2234_"/><path class="st1" d="M278.5 496l11.2 11.2h12l-11.2-11.3z" id="XMLID_2233_"/><path class="st1" d="M275.2 496l-11.3 11.2H252l11.2-11.3z" id="XMLID_2232_"/><path class="st1" d="M275.2 494.8l-11.3-11.2H252l11.2 11.2z" id="XMLID_2231_"/></g><g id="XMLID_2220_"><path class="st1" d="M331.1 493.7l-11.3-11.2.1-12 11.2 11.3z" id="XMLID_2229_"/><path class="st1" d="M332.2 493.7l11.3-11.2-.1-12-11.2 11.3z" id="XMLID_2228_"/><path class="st1" d="M332.2 497.1l11.3 11.2-.1 11.9-11.2-11.2z" id="XMLID_2226_"/><path class="st1" d="M331.1 497.1l-11.3 11.2.1 11.9 11.2-11.2z" id="XMLID_2225_"/><path class="st1" d="M333.3 494.8l11.3-11.2h11.9l-11.2 11.2z" id="XMLID_2224_"/><path class="st1" d="M333.3 496l11.3 11.2h11.9l-11.2-11.3z" id="XMLID_2223_"/><path class="st1" d="M330 496l-11.2 11.2h-12l11.2-11.3z" id="XMLID_2222_"/><path class="st1" d="M330 494.8l-11.2-11.2h-12l11.2 11.2z" id="XMLID_2221_"/></g><path class="st11" d="M247.4 442.6v.2c2.9 13.5 15.1 23.4 29 23.4s26.1-9.9 29-23.5v-.1h-1.9c-2.8 12.6-14.2 21.7-27.1 21.7-12.9 0-24.3-9.1-27.1-21.7h-1.9z" id="XMLID_2219_"/></g></g><g id="XMLID_2213_"><g id="XMLID_2214_"><path class="st14" d="M392.8 309.9c-6.8-12.8-12.9-26-16.9-39.9-9.4-32.2-34.2-55.2-63.4-55.2-4.5 0-8.9.6-13.2 1.6-11.9-4.9-25-7.6-38.7-7.6-48.2 0-88.6 33.2-99.6 78.1-2.4 9.8-5.5 19.4-9.5 28.7-4.1 9.5-6.4 20-6.4 31.1 0 43.3 35.1 78.4 78.4 78.4 3.9 0 7.7-.3 11.5-.8 10.3-2.1 17.1-4.5 21-7.2-47.1-6.6-82.6-37.1-82.6-86.9v-.4-.4c0-.8.1-1.5.1-2.3 0-.8 0-1.7.1-2.5 0-.7.1-1.4.2-2.1.1-1.1.2-2.1.3-3.2 0-.3.1-.5.1-.8 4.9-43.5 37.1-78.8 79.1-88.3.2 0 .3-.1.5-.1 1.3-.3 2.6-.5 3.9-.8.5-.1.9-.2 1.4-.2 1.1-.2 2.2-.3 3.2-.5l2.1-.3c.9-.1 1.8-.2 2.8-.3.8-.1 1.7-.1 2.5-.2s1.7-.1 2.5-.1c.5 0 .9-.1 1.4-.1h4c.9 0 1.7 0 2.6.1.9 0 1.8.1 2.7.1.9.1 1.7.1 2.6.2l2.7.3c.8.1 1.7.2 2.5.3.9.1 1.7.3 2.6.4.8.1 1.7.3 2.5.4.9.2 1.7.4 2.6.5l2.4.6c.8.2 1.7.4 2.5.7.8.2 1.6.4 2.4.7.8.3 1.7.5 2.5.8.8.3 1.6.5 2.3.8l2.4.9c.8.3 1.5.6 2.3.9.8.3 1.6.7 2.4 1 .7.3 1.5.7 2.2 1 .8.4 1.5.7 2.3 1.1.7.4 1.5.7 2.2 1.1.8.4 1.5.8 2.2 1.2l2.1 1.2c.7.4 1.5.9 2.2 1.4.7.4 1.4.9 2 1.3l2.1 1.5c.7.5 1.3.9 2 1.4.7.5 1.4 1 2 1.6.6.5 1.3 1 1.9 1.5.7.5 1.3 1.1 2 1.7.6.5 1.2 1 1.8 1.6.6.6 1.3 1.2 1.9 1.7.6.5 1.2 1.1 1.7 1.7l1.8 1.8 1.7 1.7c.6.6 1.1 1.3 1.7 1.9.5.6 1.1 1.2 1.6 1.8.5.7 1.1 1.3 1.6 2 .5.6 1 1.2 1.5 1.9l1.5 2.1c.5.6.9 1.3 1.4 1.9.5.7 1 1.4 1.4 2.2.4.7.9 1.3 1.3 2 .5.7.9 1.5 1.3 2.3l1.2 2.1c.4.8.8 1.6 1.2 2.3.4.7.7 1.4 1.1 2.1.4.8.7 1.6 1.1 2.4.3.7.7 1.4 1 2.2.4.8.7 1.7 1 2.5.3.7.6 1.5.9 2.2.3.9.6 1.7.9 2.6.3.7.5 1.5.8 2.2.3.9.5 1.8.8 2.7.2.7.4 1.5.6 2.2.2.9.4 1.8.6 2.8.2.7.4 1.5.5 2.2.2 1 .4 1.9.5 2.9.1.7.3 1.5.4 2.2.2 1 .3 2.1.4 3.1l.3 2.1c.1 1.2.2 2.3.3 3.5 0 .6.1 1.2.1 1.8.1 1.8.1 3.5.1 5.3 0 49.5-35.1 79.9-81.7 86.8 7.5 6.6 22.2 8.1 26.8 8.1 43.3 0 78.4-35.1 78.4-78.4-.3-13.3-3.7-25.9-9.5-36.9z"/><path class="st11" d="M323.5 426.7c-4.7 0-19.9-1.6-27.8-8.5l-2.4-2.1 3.2-.5c49.6-7.3 80.5-40 80.5-85.3 0-1.7 0-3.5-.1-5.2 0-.3 0-.7-.1-1 0-.2 0-.5-.1-.7v-.5c-.1-1-.1-2-.2-2.9 0-.4-.1-.8-.2-1.2l-.2-1.5-.3-2.4c-.1-.5-.2-.9-.2-1.4l-.3-1.5c-.1-.7-.2-1.4-.4-2.1-.1-.5-.2-.9-.3-1.4l-.4-1.5c-.2-.7-.3-1.3-.5-2-.1-.5-.3-1-.4-1.4l-.4-1.5c-.2-.6-.4-1.3-.6-1.9-.2-.5-.3-1-.5-1.4l-.5-1.5-.6-1.8-.6-1.5-.5-1.3c-.2-.6-.5-1.2-.7-1.8-.2-.5-.4-1-.7-1.5l-.6-1.3c-.3-.6-.5-1.2-.8-1.8-.2-.5-.5-1-.8-1.5l-.6-1.2c-.3-.6-.6-1.2-.9-1.7-.3-.5-.5-1-.8-1.4l-.7-1.1c-.3-.6-.6-1.1-1-1.7-.3-.5-.6-.9-.9-1.4l-.7-1c-.4-.6-.7-1.1-1.1-1.7-.3-.5-.7-.9-1-1.4l-.7-1c-.4-.5-.8-1.1-1.2-1.6-.3-.5-.7-.9-1.1-1.4l-.7-.9-1.2-1.5c-.4-.4-.7-.9-1.1-1.3l-.8-.9c-.4-.5-.9-1-1.3-1.5s-.8-.9-1.3-1.3l-.6-.7-1.5-1.5-1.3-1.3-.6-.6c-.5-.5-1-1-1.6-1.4-.5-.4-.9-.8-1.4-1.2l-.7-.6c-.5-.5-1.1-.9-1.6-1.4l-1.5-1.2-.6-.5c-.6-.4-1.2-.9-1.7-1.3s-1.1-.8-1.6-1.2l-.4-.3c-.6-.4-1.3-.9-1.9-1.3-.6-.4-1.2-.7-1.7-1.1l-.4-.3c-.7-.4-1.3-.8-2-1.2-.7-.4-1.3-.8-2-1.1-.8-.5-1.5-.9-2.3-1.3-.7-.4-1.3-.7-2-1l-.1-.1c-.8-.4-1.5-.8-2.3-1.1-.7-.3-1.4-.6-2.1-1h-.1c-.8-.3-1.5-.7-2.3-1-.7-.3-1.5-.6-2.3-.9l-2.4-.9c-.8-.3-1.5-.5-2.3-.8-.8-.3-1.6-.5-2.4-.8-.8-.2-1.6-.5-2.4-.7-.8-.2-1.7-.4-2.5-.7l-2.4-.6c-.8-.2-1.7-.4-2.5-.5-.8-.2-1.6-.3-2.5-.4-.9-.1-1.7-.3-2.6-.4-.8-.1-1.7-.2-2.5-.3-.9-.1-1.7-.2-2.6-.3-.8-.1-1.7-.1-2.5-.2-.9-.1-1.8-.1-2.7-.1-.9 0-1.7-.1-2.6-.1H272c-.8 0-1.7.1-2.5.1-.8.1-1.7.1-2.5.2l-2.7.3c-.7.1-1.4.2-2 .3-1.1.1-2.1.3-3.2.5-.5.1-.9.2-1.4.2-1.3.2-2.6.5-3.9.8l-.5.1c-41.8 9.5-73.1 44.5-77.9 87v.8c-.1.9-.2 1.8-.2 2.6l-.1 1.2c0 .5-.1.9-.1 1.4 0 .6 0 1.2-.1 1.8l-.1 1.5v2.3c0 45.6 31.1 78.3 81.3 85.4l3.8.5-3.2 2.2c-4.2 2.9-11.3 5.3-21.5 7.4-4 .6-7.9.9-11.8.9-44.1 0-79.9-35.8-79.9-79.9 0-11 2.2-21.7 6.5-31.7 3.8-8.7 7-18.3 9.5-28.5 11.4-46.6 53-79.2 101.1-79.2 13.4 0 26.5 2.5 38.8 7.5 4.3-1 8.7-1.5 13-1.5 29 0 55.1 22.6 64.9 56.2 3.6 12.2 8.9 24.8 16.8 39.6 6.1 11.5 9.4 24.5 9.4 37.5-.1 43.9-35.9 79.8-80 79.8zm-23-8.8c7.2 4.3 18.2 5.8 23 5.8 42.4 0 76.9-34.5 76.9-76.9 0-12.6-3.1-25.1-9-36.1-8-15-13.4-27.8-17-40.2-9.4-32.4-34.3-54.1-62-54.1-4.3 0-8.6.5-12.8 1.6l-.5.1-.4-.2c-12.2-5-25-7.5-38.2-7.5-46.7 0-87.1 31.6-98.2 76.9-2.5 10.3-5.8 20.1-9.6 29-4.2 9.6-6.3 19.9-6.3 30.5 0 42.4 34.5 76.9 76.9 76.9 3.7 0 7.5-.3 11.2-.8 7.1-1.4 12.7-3.1 16.7-4.9-49.2-8.5-79.5-41.8-79.5-87.7v-.6-.3-3c0-.6 0-1.2.1-1.9 0-.5.1-1 .1-1.5l.1-1.1c.1-.9.1-1.8.2-2.7 0-.2 0-.3.1-.5v-.3c5-43.8 37.2-79.8 80.2-89.6l.5-.1c1.3-.3 2.6-.5 4-.8.5-.1.9-.2 1.4-.3 1.1-.2 2.2-.3 3.3-.5l2.1-.3c.9-.1 1.9-.2 2.8-.3.9-.1 1.7-.1 2.6-.2.9-.1 1.7-.1 2.6-.1h5.4c.9 0 1.8 0 2.6.1.9 0 1.8.1 2.7.1.9.1 1.7.1 2.6.2l2.7.3c.9.1 1.7.2 2.6.3.9.1 1.8.3 2.7.4.8.1 1.7.3 2.5.5.9.2 1.7.4 2.6.5.8.2 1.7.4 2.5.6.9.2 1.7.4 2.6.7.8.2 1.6.4 2.4.7.8.3 1.7.5 2.5.8.8.3 1.6.5 2.4.8.8.3 1.6.6 2.5.9.8.3 1.6.6 2.3.9.8.3 1.6.7 2.4 1h.1c.7.3 1.5.6 2.2 1 .8.4 1.6.8 2.3 1.2l.1.1c.7.3 1.4.7 2.1 1.1.8.4 1.5.8 2.3 1.3.8.4 1.5.8 2.1 1.2.7.4 1.4.9 2.1 1.3l.4.3 1.8 1.2c.7.4 1.3.9 2 1.4l.4.3c.6.4 1.1.8 1.7 1.2.6.4 1.2.9 1.8 1.4l.6.5c.5.4 1.1.8 1.6 1.2.6.5 1.1.9 1.7 1.4l.7.6c.5.4 1 .8 1.5 1.3s1.1 1 1.6 1.5l.6.6c.5.4.9.9 1.4 1.3.5.5 1 1 1.5 1.6l.6.6c.4.5.9.9 1.3 1.4.5.5.9 1 1.4 1.5l.8.9c.4.5.8.9 1.2 1.4.4.5.9 1.1 1.3 1.6l.7.9c.4.5.7.9 1.1 1.4.4.5.8 1.1 1.2 1.7l.7 1c.4.5.7 1 1 1.5.4.6.8 1.2 1.1 1.7l.7 1 .9 1.5c.4.6.7 1.2 1 1.7l.6 1.1.9 1.5.9 1.8.6 1.2c.3.5.5 1 .8 1.5l.9 1.8.6 1.2c.2.5.5 1 .7 1.5.3.6.5 1.3.8 1.9l.5 1.3.6 1.5c.2.6.5 1.3.7 1.9l.5 1.4c.2.5.3 1 .5 1.5.2.7.4 1.3.6 2l.4 1.5c.1.5.3 1 .4 1.5.2.7.3 1.4.5 2.1l.3 1.5.3 1.5c.2.7.3 1.5.4 2.2l.3 1.5.3 1.5c.1.8.2 1.7.3 2.5l.2 1.4c.1.4.1.9.2 1.3.1 1 .2 2 .2 3v.5c0 .2 0 .5.1.7 0 .4.1.7.1 1.1.1 1.8.1 3.6.1 5.4.3 46-30.1 79.3-79.2 87.8z"/></g></g><g id="XMLID_2192_"><path class="st1" d="M378.5 330.3c0 56.7-45.9 88.3-102.6 88.3S173.3 387 173.3 330.3s45.9-102.6 102.6-102.6 102.6 45.9 102.6 102.6z" id="XMLID_2212_"/><path class="st2" d="M275.9 420c-28.8 0-54.9-8.2-73.5-23.2-20-16.1-30.6-39.1-30.6-66.5 0-57.4 46.7-104 104-104s104 46.7 104 104c0 27.4-10.6 50.4-30.6 66.5-18.4 15-44.5 23.2-73.3 23.2zm0-190.9c-55.8 0-101.2 45.4-101.2 101.2 0 26.5 10.2 48.7 29.5 64.3 18 14.5 43.5 22.6 71.6 22.6s53.6-8 71.6-22.6c19.3-15.6 29.5-37.8 29.5-64.3.1-55.8-45.3-101.2-101-101.2z" id="XMLID_2193_"/></g><g id="XMLID_2190_"><ellipse class="st14" cx="316.6" cy="352.8" rx="8.4" ry="9.3" id="XMLID_2191_"/></g><g id="XMLID_2188_"><path class="st14" d="M282.5 222.6c5 57.1 46.4 103.7 100.8 116.6.2-2.9.4-5.9.4-8.9 0-57.3-44.7-104.2-101.2-107.7z" id="XMLID_2189_"/></g><g id="XMLID_2186_"><path class="st14" d="M324.9 234.2c-14.2-6.8-30.9-11.6-47.7-11.6-59.6 0-107.8 49.1-107.8 108.7 0 2.7.1 5.5.3 8.1 8 1.5 16.3 2.3 24.7 2.3 64.7.1 119.2-46.2 130.5-107.5z" id="XMLID_2187_"/></g><g id="XMLID_2184_"><ellipse class="st2" cx="318" cy="355.8" rx="4.4" ry="4.9" id="XMLID_2185_"/></g><g id="XMLID_2169_"><path class="st2" d="M273.5 370.8v-2.9c2.8 0 5.1-2.3 5.1-5.1s-2.3-5.1-5.1-5.1v-2.9c4.4 0 7.9 3.6 7.9 7.9 0 4.5-3.5 8.1-7.9 8.1z" id="XMLID_2170_"/></g><g id="XMLID_2167_"><ellipse transform="rotate(-30.93 324.321 351.738)" class="st1" cx="324.3" cy="351.7" rx="5.4" ry="2.2" id="XMLID_2168_"/></g><g id="XMLID_2165_"><ellipse class="st14" cx="232.6" cy="352.8" rx="8.4" ry="9.3" id="XMLID_2166_"/></g><g id="XMLID_2163_"><ellipse class="st2" cx="234.1" cy="355.8" rx="4.4" ry="4.9" id="XMLID_2164_"/></g><g id="XMLID_2161_"><ellipse transform="rotate(-30.93 240.374 351.74)" class="st1" cx="240.3" cy="351.7" rx="5.4" ry="2.2" id="XMLID_2162_"/></g><g id="XMLID_2158_"><g id="XMLID_2159_"><path class="st2" d="M275.8 388c-6 0-11.1-3.1-13.2-7.9l2.7-1.1c2 4.7 7.2 6.2 11 6.1 3.7-.1 8.1-1.8 9.6-6l2.7 1c-1.7 4.7-6.4 7.8-12.2 8-.2-.1-.4-.1-.6-.1z" id="XMLID_2160_"/></g></g><g id="XMLID_2156_"><path class="st2" d="M195.4 330.3v-2.9c27.4 0 54.1-9.7 75.2-27.2 20.9-17.4 35.1-41.4 40-67.8l2.8.5c-5 27-19.5 51.6-40.9 69.4-21.7 18.1-49 28-77.1 28z" id="XMLID_2157_"/></g><g id="XMLID_2152_"><path class="st2" d="M195.4 321.1v-2.9c24.8 0 48.9-8.7 67.9-24.6 18.9-15.7 31.7-37.4 36.1-61.2l2.8.5c-4.5 24.4-17.7 46.8-37.1 62.9-19.5 16.3-44.3 25.3-69.7 25.3z" id="XMLID_2153_"/></g><g id="XMLID_2150_"><path class="st2" d="M383.9 334.9c-36.8-8.7-67.6-33.2-84.4-67.2l2.6-1.3c16.5 33.2 46.5 57.2 82.5 65.7l-.7 2.8z" id="XMLID_2151_"/></g><g id="XMLID_2147_"><g id="XMLID_2148_"><path class="st2" d="M217 343.9c-1.5-1.9-.9-4.7 1.1-5.8 5.3-3 15.8-7.3 27.4-3.8 1.2.4 1.9 1.7 1.4 2.8-.4 1-1.5 1.6-2.6 1.3-14.4-4.3-27.2 5.4-27.3 5.5z" id="XMLID_2149_"/></g></g><g id="XMLID_2144_"><g id="XMLID_2145_"><path class="st2" d="M335.7 338.3c1.4-1.9.9-4.7-1.2-5.8-5.4-2.9-15.9-7.1-27.5-3.3-1.2.4-1.8 1.7-1.4 2.9.4 1 1.6 1.6 2.6 1.2 14.4-4.6 27.3 4.9 27.5 5z" id="XMLID_2146_"/></g></g><g id="XMLID_2139_"><g id="XMLID_2143_"><path class="st7" d="M291.7 116.9H304c11.8 0 22.8 6.2 28.9 16.2l12.4 20.4-22.4-8.8c-4.5-1.8-9.7-.8-13.3 2.4-4 3.6-5.3 9.3-3.3 14.2l29.4 74.3H220.6l39.8-97.8c5.2-12.6 17.5-20.9 31.3-20.9z"/><path class="st4" d="M337.9 237.2H218.4l40.6-99.8c5.4-13.4 18.3-22 32.7-22H304c12.2 0 23.8 6.5 30.2 17l14.7 24.2-26.5-10.4c-4-1.6-8.5-.8-11.7 2.2-3.5 3.2-4.7 8.2-2.9 12.6l30.1 76.2zm-115.1-3h110.7L304.9 162c-2.2-5.5-.7-11.9 3.7-15.9 4.1-3.7 9.7-4.7 14.8-2.7l18.3 7.2-10.1-16.6c-5.8-9.6-16.4-15.5-27.6-15.5h-12.4c-13.2 0-24.9 7.9-29.9 20.1l-38.9 95.6z"/></g><g id="XMLID_2142_"><circle class="st15" cx="345.3" cy="153.5" r="18.5"/><path class="st4" d="M345.3 173.5c-11 0-20-9-20-20s9-20 20-20 20 9 20 20-9 20-20 20zm0-37c-9.4 0-17 7.6-17 17s7.6 17 17 17 17-7.6 17-17-7.6-17-17-17z"/></g><circle class="st1" cx="352.5" cy="145.2" r="2.8" id="XMLID_2141_"/><g id="XMLID_2140_"><path class="st3" d="M222.6 251.7h112.3c4.9 0 8.8-3.9 8.8-8.8v-38.6c0-1-1.2-1.5-1.9-.9l-19 16.8c-.4.4-1.1.4-1.5 0l-20.1-17.8c-.4-.4-1.1-.4-1.5 0l-20.1 17.8c-.4.4-1.1.4-1.5 0L258 202.4c-.4-.4-1.1-.4-1.5 0l-20.1 17.8c-.4.4-1.1.4-1.5 0l-19-16.8c-.7-.7-1.9-.1-1.9.9v38.6c-.3 4.8 3.7 8.8 8.6 8.8z"/><path class="st4" d="M334.9 253.2H222.6c-5.7 0-10.3-4.6-10.3-10.3v-38.6c0-1.1.6-2 1.6-2.4 1-.4 2-.3 2.8.4l18.8 16.6 19.9-17.6c1-.9 2.5-.9 3.5 0l19.9 17.6 19.9-17.6c1-.9 2.5-.9 3.5 0l19.9 17.6 18.8-16.6c.8-.7 1.9-.9 2.8-.4 1 .4 1.6 1.4 1.6 2.4v38.6c-.1 5.6-4.7 10.3-10.4 10.3zM215.2 205v37.9c0 4 3.3 7.3 7.3 7.3h112.3c4 0 7.3-3.3 7.3-7.3V205l-18.4 16.3c-1 .9-2.5.9-3.5 0l-19.9-17.6-19.9 17.6c-1 .9-2.5.9-3.5 0L257 203.7l-19.9 17.6c-1 .9-2.5.9-3.5 0L215.2 205z"/></g></g><g id="XMLID_2138_"><path class="st7" d="M192.1 460.3l-53.2 87c-5.3 7.6-6.6 17.4-3.4 26.1 4.1 11.1 14.7 18.5 26.6 18.5l135.4 5.6c4.8 0 8.5-4.2 8-8.9l-4.6-40c-.5-4.2-4.2-7.4-8.5-7.1"/><path class="st11" d="M297.5 599L162 593.4c-12.4 0-23.6-7.8-27.9-19.5-3.4-9.2-2.1-19.4 3.6-27.4l53.1-86.9 2.5 1.6-53.2 87c-5.1 7.3-6.3 16.5-3.2 24.8 3.9 10.5 14 17.6 25.2 17.6l135.5 5.6c1.8 0 3.6-.8 4.8-2.2 1.2-1.4 1.8-3.2 1.6-5.1l-4.6-40c-.4-3.5-3.4-6-6.9-5.8l-.2-3c5-.3 9.5 3.4 10 8.4l4.6 40c.3 2.7-.5 5.4-2.3 7.4-1.8 2-4.4 3.1-7.1 3.1z"/></g><g id="XMLID_1885_"><g id="XMLID_1891_"><g id="XMLID_2133_"><path class="st1" d="M181.7 586.4l199.5-23.7 91.2 17.5-199.6 23.7z" id="XMLID_2137_"/><path class="st11" d="M272.5 605.1l-91.1-17.5c-.6-.1-1-.6-1-1.2s.5-1.1 1.1-1.1l199.6-23.7h.4l91.1 17.5c.6.1 1 .6 1 1.2s-.5 1.1-1.1 1.1l-199.6 23.7h-.4zm108.7-41.2l-191.8 22.8 83.4 16 191.8-22.8-83.4-16z" id="XMLID_2134_"/></g><g id="XMLID_2128_"><path class="st5" d="M472.4 580.2l-202 24 27.1-124.1c1-4.7 4.9-8.2 9.7-8.8l183-21.7c5.4-.6 9.8 4.2 8.7 9.6l-26.5 121z" id="XMLID_2132_"/><path class="st11" d="M296.3 479.9c1.1-5.2 5.5-9.1 10.7-9.7l183-21.7c3-.4 5.8.7 7.8 2.9s2.8 5.2 2.2 8.1l-26.7 121.9-202.9 24.1-1.7.2 27.6-125.8zm201.4-21c.5-2.2-.1-4.3-1.6-6-1.5-1.6-3.6-2.4-5.8-2.2l-183 21.7c-4.3.5-7.8 3.7-8.7 7.9l-26.8 122.5 199.5-23.7 26.4-120.2z" id="XMLID_2129_"/></g><g id="XMLID_2000_"><path class="st16" d="M181.7 586.4l88.6 17.8.8 6.3-88.7-17.8z" id="XMLID_2004_"/><path class="st11" d="M270.9 611.7l-88.7-17.8c-.5-.1-.9-.5-1-1l-.7-6.3c0-.4.1-.8.4-1 .3-.3.7-.4 1-.3l88.7 17.8c.5.1.9.5 1 1l.7 6.3c0 .4-.1.8-.4 1-.2.2-.5.3-.8.3h-.2zM183 587.9l.4 3.8 86.2 17.3-.4-3.8-86.2-17.3z" id="XMLID_2001_"/></g><g id="XMLID_1892_"><path transform="rotate(-6.771 371.633 595.228)" class="st16" d="M270 592.2h203.4v6.3H270z" id="XMLID_1999_"/><path class="st11" d="M269.9 610.6l-.7-6.3c0-.3.1-.6.2-.9.2-.2.5-.4.8-.4l202-24c.7-.1 1.3.4 1.3 1l.7 6.3c0 .3-.1.6-.2.9-.2.3-.5.4-.8.5l-202 24h-.1c-.6 0-1.1-.5-1.2-1.1zm201.4-29l-199.6 23.7.5 3.9 199.6-23.7-.5-3.9z" id="XMLID_1893_"/></g></g><g id="XMLID_1886_"><path class="st1" d="M371.8 533.7l14.5-21.7-5.2.4 10.7-15.9 10.1 14.3-5.2.4 13.7 19.4-9.7.8 9.4 13.3-15.2 1.2-.2 8.6-8.2.7.2-8.6-15.2 1.2 9.9-14.9z" id="XMLID_1890_"/><path class="st11" d="M386.5 556.3c-.3 0-.5-.1-.7-.3-.2-.2-.4-.5-.3-.8l.1-7.4-14 1.1c-.4 0-.8-.2-1-.5-.2-.4-.2-.8 0-1.2l8.7-12.9-7.4.6c-.4 0-.8-.2-1-.5-.2-.4-.2-.8 0-1.2l13.2-19.8-2.9.2c-.4 0-.8-.2-1-.5-.2-.4-.2-.8 0-1.2l10.7-16c.2-.3.5-.5.9-.5s.7.2.9.5l10.1 14.3c.2.3.3.7.1 1.1-.2.4-.5.6-.9.6l-3.3.3 12.6 17.8c.2.3.3.7.1 1.1s-.5.6-.9.6l-7.7.6L411 544c.2.3.3.7.1 1.1-.2.4-.5.6-.9.6l-14.2 1.1-.2 7.6c0 .6-.5 1-1 1.1l-8.2.7c0 .1-.1.1-.1.1zm.2-10.8c.3 0 .5.1.7.3.2.2.4.5.3.8l-.1 7.4 6-.5.2-7.6c0-.6.5-1 1-1.1l13.2-1.1-8.2-11.7c-.2-.3-.3-.7-.1-1.1.2-.4.5-.6.9-.6l7.7-.6-12.6-17.8c-.2-.3-.3-.7-.1-1.1.2-.4.5-.6.9-.6l3.3-.3-8-11.4-8.5 12.8 2.9-.2c.4 0 .8.2 1 .5.2.4.2.8 0 1.2L374 532.4l7.4-.6c.4 0 .8.2 1 .5.2.4.2.8 0 1.2l-8.7 12.9 12.9-1c0 .1.1.1.1.1z" id="XMLID_1887_"/></g></g><path class="st11" d="M181.5 551.7l-2.1-2.1 18.7-19.2c.3-.3.7-.5 1.1-.4.4 0 .8.2 1.1.5l3.6 4.1c.4.5.5 1.1.2 1.6l-7.4 15.1-2.7-1.3 6.9-14.2-1.9-2.1-17.5 18z" id="XMLID_1884_"/><path transform="matrix(.0671 -.9977 .9977 .0671 -310.02 745.119)" class="st11" d="M242 497.6h3v81.6h-3z" id="XMLID_1883_"/><path transform="rotate(-57.907 203.653 529.768)" class="st11" d="M199 528.3h9.4v3H199z" id="XMLID_1882_"/><g id="XMLID_1873_"><path class="st1" d="M221.4 493.7l-11.2-11.2v-12l11.3 11.3z" id="XMLID_1881_"/><path class="st1" d="M222.6 493.7l11.3-11.2-.1-12-11.2 11.3z" id="XMLID_1880_"/><path class="st1" d="M222.6 497.1l11.3 11.2-.1 11.9-11.2-11.2z" id="XMLID_1879_"/><path class="st1" d="M221.4 497.1l-11.2 11.2v11.9l11.3-11.2z" id="XMLID_1878_"/><path class="st1" d="M223.7 494.8l11.2-11.2h12l-11.2 11.2z" id="XMLID_1877_"/><path class="st1" d="M223.7 496l11.2 11.2h12l-11.2-11.3z" id="XMLID_1876_"/><path class="st1" d="M220.3 496l-11.2 11.2h-11.9l11.2-11.3z" id="XMLID_1875_"/><path class="st1" d="M220.3 494.8l-11.2-11.2h-11.9l11.2 11.2z" id="XMLID_1874_"/></g><g id="XMLID_2171_"><g id="XMLID_2175_"><g id="XMLID_2180_"><path class="st5" d="M228.9 385.1c-18.5 0-33.5-15-33.5-33.5s15-33.5 33.5-33.5 33.5 15 33.5 33.5-15 33.5-33.5 33.5zm0-64.2c-16.9 0-30.6 13.7-30.6 30.6s13.7 30.6 30.6 30.6c16.9 0 30.6-13.7 30.6-30.6s-13.7-30.6-30.6-30.6z" id="XMLID_2181_"/></g><g id="XMLID_2176_"><path class="st5" d="M322.8 385.1c-18.5 0-33.5-15-33.5-33.5s15-33.5 33.5-33.5 33.5 15 33.5 33.5-15 33.5-33.5 33.5zm0-64.2c-16.9 0-30.6 13.7-30.6 30.6s13.7 30.6 30.6 30.6 30.6-13.7 30.6-30.6-13.7-30.6-30.6-30.6z" id="XMLID_2177_"/></g></g><g id="XMLID_2172_"><path class="st5" d="M261 350.1h29.2v2.9H261z" id="XMLID_2173_"/></g></g></g><g id="XMLID_1289_"><g id="XMLID_1626_"><path class="st1" d="M415.8 241.2c0-50.3 40.8-91.1 91.1-91.1s91.1 40.8 91.1 91.1v25.5c0 50.3-40.8 91.1-91.1 91.1s-91.1-40.8-91.1-91.1v-25.5z" id="XMLID_1871_"/><path class="st2" d="M506.8 359.4c-51.1 0-92.6-41.6-92.6-92.6v-25.5c0-51.1 41.6-92.6 92.6-92.6 51.1 0 92.6 41.6 92.6 92.6v25.5c.1 51-41.5 92.6-92.6 92.6zm0-207.7c-49.4 0-89.5 40.2-89.5 89.5v25.5c0 49.4 40.2 89.5 89.5 89.5 49.4 0 89.5-40.2 89.5-89.5v-25.5c.1-49.3-40.1-89.5-89.5-89.5z" id="XMLID_1627_"/></g><g id="XMLID_1624_"><circle class="st14" cx="465.6" cy="257.7" r="9.5" id="XMLID_1625_"/></g><g id="XMLID_1622_"><circle class="st2" cx="464.2" cy="258.9" r="4.4" id="XMLID_1623_"/></g><g id="XMLID_1621_"><path d="M622.3 159.9v-2.2s-27.1 0-37.4.1c12.8-8.9 17.6-23.2 17.6-34.6H483.1c-13.6 0-24.7 11-24.7 24.7v-20.2c-29.2 0-52.9 23.8-52.9 53.1 0 7.6 1.7 15.4 4.9 22.4-3.5 9.3-5.8 19.2-6.4 29.6 3.4-3 7.9-4.8 12.8-5-.2 1.2-.3 2.4-.5 3.7.6-6 1.9-11.8 3.6-17.4l8.3-3.1c11.8-4.5 22.3-11.8 30.6-21.4 0 7.8 6.3 14.1 14.1 14.1h102.7c4.6 0 9.1-.7 13.3-1.9 4.4 9.2 7.4 19.2 8.5 29.7-.1-1.2-.3-2.4-.5-3.6 4.9.3 9.4 2.4 12.8 5.6-.8-13.1-4-25.5-9.3-36.8 12.5-7.9 21.2-21.3 21.9-36.8z" fill="#f59d1f"/><path class="st11" d="M611.4 236.9l-2.7-2.6c-2.8-2.6-6.3-4.3-10.1-5 0 .3.1.7.1 1.1 0 .2.1.5.1.7l-3 .3c0-.2-.1-.5-.1-.7-1.1-9.5-3.7-18.7-7.8-27.4-4.1 1.1-8.3 1.6-12.5 1.6H472.7c-7.4 0-13.6-5.2-15.2-12.1-8 8.5-18 15.2-29 19.3l-7.6 2.9c-1.6 5.2-2.7 10.6-3.3 16 0 .2 0 .3-.1.5l-3-.3c0-.2 0-.3.1-.5.1-.5.1-.9.2-1.4-3.7.5-7.2 2-10.1 4.5l-2.7 2.3.2-3.6c.7-10.1 2.8-20 6.3-29.4-3.1-7-4.8-14.7-4.8-22.5 0-30.1 24.4-54.6 54.3-54.6h1.5v9.6c4.4-8.3 13.1-14 23.2-14h121v1.5c0 5-1.1 21.3-14.8 33.1 12.1 0 33.1-.1 33.1-.1h1.5v1.5c0 .8 0 1.5-.1 2.3-.7 15-8.6 28.7-21.4 37.1 5.1 11.4 8.1 23.6 8.9 36.2l.5 3.7zm-13.2-10.5c3.5.4 6.9 1.7 9.8 3.6-1.1-11.4-4.1-22.5-8.9-32.9l-.6-1.2 1.1-.7c12.6-7.8 20.5-21 21.1-35.4v-.7c-5.8 0-27 0-35.9.1H580l3.9-2.7c11.9-8.4 16.6-21.6 17-31.9h-118c-12.8 0-23.2 10.4-23.2 23.2h-3v-18.7c-27.6.8-49.9 23.6-49.9 51.6 0 7.5 1.7 15.1 4.8 21.8l.3.6-.2.6c-3.2 8.3-5.2 17-6.1 25.9 2.9-1.8 6.3-3 9.7-3.3.7-4.3 1.7-8.6 3-12.8l.2-.7 8.9-3.4c11.5-4.4 21.9-11.6 30-21l2.6-3v4c0 7 5.7 12.6 12.6 12.6h102.7c4.4 0 8.7-.6 12.9-1.8l1.2-.4.5 1.1c4.2 8.2 6.9 16.7 8.3 25.5z"/></g><g id="XMLID_1619_"><path class="st2" d="M478.8 235.7l-36.9-.5c.1-5.6 4.7-10.1 10.3-10.1l26.7.3a5 5 0 015 5.2c.1 2.9-2.2 5.2-5.1 5.1z" id="XMLID_1620_"/></g><g id="XMLID_1617_"><path class="st14" d="M493.6 256.4h26.1v3.1h-26.1z" id="XMLID_1618_"/></g><g id="XMLID_1615_"><path class="st1" d="M463.4 258.9l-6-9.4-3.2 6.9z" id="XMLID_1616_"/></g><g id="XMLID_1613_"><circle class="st14" cx="546.8" cy="257.7" r="9.5" id="XMLID_1614_"/></g><g id="XMLID_1611_"><circle class="st2" cx="545.4" cy="258.9" r="4.4" id="XMLID_1612_"/></g><g id="XMLID_1609_"><path class="st2" d="M533.1 235.6l36.9-.1c0-5.6-4.6-10.2-10.2-10.2l-26.7.1c-2.8 0-5.1 2.3-5.1 5.1s2.3 5.1 5.1 5.1z" id="XMLID_1610_"/></g><g id="XMLID_1607_"><path class="st1" d="M544.6 258.9l-6-9.4-3.2 6.9z" id="XMLID_1608_"/></g><g id="XMLID_1605_"><path class="st2" d="M509.5 287c-7 0-12.7-5.7-12.7-12.7s5.7-12.7 12.7-12.7v3.1c-5.3 0-9.5 4.3-9.5 9.5 0 5.3 4.3 9.5 9.5 9.5v3.3z" id="XMLID_1606_"/></g><g id="XMLID_1604_"><path class="st1" d="M415.3 266.7v-25.5c0-4.1.3-8.2.8-12.2.3-2.3-.7-4.7-2.6-6-6.9-4.9-16.3.7-15.3 9.1l2 15.9v.6c.1 9.3 6.5 17.1 15 19.5.1-.5.1-.9.1-1.4z"/><path class="st2" d="M416.8 270l-1.9-.5c-9.4-2.6-16-11.2-16.1-20.9v-.4l-2-15.9c-.6-4.5 1.5-8.7 5.4-11 3.9-2.3 8.6-2.1 12.2.5 2.4 1.7 3.6 4.5 3.2 7.5-.5 4-.8 8.1-.8 12V270zm-8.9-47.4c-1.4 0-2.9.4-4.2 1.2-2.8 1.7-4.4 4.8-3.9 8.1l2 15.9c0 .3 0 .5.1.8.1 7.7 5 14.6 12 17.4v-24.7c0-4.1.3-8.3.9-12.4.2-1.8-.5-3.6-2-4.6-1.6-1.1-3.3-1.7-4.9-1.7z"/></g><g id="XMLID_1595_"><path class="st2" d="M413.2 252.4c-.6-.2-1-.7-1-1.4 0-.1-.2-2.7-2.5-3.7-.8-.4-1.1-1.3-.8-2.1.4-.8 1.3-1.1 2.1-.8.5.2.9.5 1.3.8l-.3-.6c-1.1-2-3.4-2.6-3.4-2.6-.8-.2-1.4-1-1.2-1.9.2-.8 1-1.4 1.9-1.2.1 0 3.6.8 5.4 4 1.3 2.2 1.5 5 .5 8.3-.2.7-.9 1.2-1.7 1.1-.1.1-.2.1-.3.1z" id="XMLID_1596_"/></g><g id="XMLID_1586_"><g id="XMLID_1591_"><path class="st14" d="M464.9 288.2c-16.7 0-30.2-13.6-30.2-30.2s13.6-30.2 30.2-30.2 30.2 13.6 30.2 30.2-13.6 30.2-30.2 30.2zm0-57.3c-15 0-27.1 12.2-27.1 27.1 0 15 12.2 27.1 27.1 27.1 15 0 27.1-12.2 27.1-27.1 0-15-12.2-27.1-27.1-27.1z" id="XMLID_1592_"/></g><g id="XMLID_1587_"><path class="st14" d="M548.8 288.2c-16.7 0-30.2-13.6-30.2-30.2s13.6-30.2 30.2-30.2S579 241.4 579 258s-13.5 30.2-30.2 30.2zm0-57.3c-15 0-27.1 12.2-27.1 27.1 0 15 12.2 27.1 27.1 27.1 15 0 27.1-12.2 27.1-27.1 0-15-12.1-27.1-27.1-27.1z" id="XMLID_1588_"/></g></g><g id="XMLID_1582_"><g id="XMLID_1585_"><path class="st1" d="M598.1 266.7v-25.5c0-4.1-.3-8.2-.8-12.2-.3-2.3.7-4.7 2.6-6 6.9-4.9 16.3.7 15.3 9.1l-2 15.9v.6c-.1 9.3-6.5 17.1-15 19.5-.1-.5-.1-.9-.1-1.4z"/><path class="st2" d="M596.6 270v-2-.6-26.2c0-4-.3-8-.8-12-.4-2.9.8-5.8 3.2-7.5 3.7-2.6 8.4-2.8 12.2-.5 3.9 2.3 5.9 6.5 5.4 11l-2 15.9v.4c-.1 9.7-6.8 18.3-16.1 20.9l-1.9.6zm8.9-47.4c-1.7 0-3.3.5-4.8 1.5s-2.2 2.8-2 4.6c.6 4.1.9 8.3.9 12.4V266c7.1-2.8 11.9-9.7 12-17.4 0-.3 0-.5.1-.8l2-15.9c.4-3.3-1.1-6.4-3.9-8.1-1.4-.8-2.9-1.2-4.3-1.2z"/></g><g id="XMLID_1583_"><path class="st2" d="M600.7 252.4c.6-.2 1-.7 1-1.4 0-.1.2-2.7 2.5-3.7.8-.4 1.1-1.3.8-2.1-.4-.8-1.3-1.1-2.1-.8-.5.2-.9.5-1.3.8l.3-.6c1.1-2 3.4-2.6 3.4-2.6.8-.2 1.4-1 1.2-1.9-.2-.8-1-1.4-1.9-1.2-.1 0-3.6.8-5.4 4-1.3 2.2-1.5 5-.5 8.3.2.7.9 1.2 1.7 1.1 0 .1.1.1.3.1z" id="XMLID_1584_"/></g></g><path class="st2" d="M524.7 298.7l-2.3-2.1c-3.5 3.9-8.2 6.2-13.2 6.6-5-.4-9.7-2.7-13.2-6.6l-2.3 2.1c4.1 4.6 9.6 7.2 15.5 7.7 5.9-.5 11.4-3.1 15.5-7.7z" id="XMLID_1581_"/><g id="XMLID_1576_"><g id="XMLID_1580_"><path class="st7" d="M501.4 26.4h-11.6c-11.1 0-21.3 5.8-27.1 15.2l-11.6 19.1 21-8.2c4.2-1.7 9.1-.8 12.5 2.3 3.7 3.4 5 8.7 3.1 13.4l-27.6 69.6H568l-37.3-91.6c-4.8-12-16.4-19.8-29.3-19.8z"/><path class="st4" d="M570.2 139.3H457.9l28.4-71.6c1.6-4.1.5-8.8-2.7-11.7-3-2.7-7.2-3.5-10.9-2l-25.1 9.8 13.9-22.9c6-9.8 16.8-15.9 28.3-15.9h11.6c13.5 0 25.6 8.1 30.7 20.7l38.1 93.6zm-107.9-3h103.5l-36.5-89.6c-4.6-11.4-15.6-18.8-27.9-18.8h-11.6c-10.5 0-20.4 5.6-25.8 14.5l-9.3 15.4 16.9-6.6c4.8-1.9 10.2-.9 14 2.6 4.2 3.8 5.6 9.8 3.5 15l-26.8 67.5z"/></g><g id="XMLID_1579_"><circle class="st15" cx="451.1" cy="60.8" r="17.3"/><path class="st4" d="M451.1 79.6c-10.4 0-18.8-8.4-18.8-18.8S440.7 42 451.1 42 470 50.4 470 60.8s-8.5 18.8-18.9 18.8zm0-34.7c-8.7 0-15.8 7.1-15.8 15.8s7.1 15.8 15.8 15.8 15.9-7 15.9-15.7-7.1-15.9-15.9-15.9z"/></g><circle class="st1" cx="444.4" cy="58.9" r="2.7" id="XMLID_1578_"/><g id="XMLID_1577_"><path class="st3" d="M566.2 152.7H460.9c-4.6 0-8.3-3.7-8.3-8.3v-36.2c0-.9 1.1-1.4 1.8-.8l17.8 15.8c.4.4 1 .4 1.4 0l18.9-16.7c.4-.4 1-.4 1.4 0l18.9 16.7c.4.4 1 .4 1.4 0l18.9-16.7c.4-.4 1-.4 1.4 0l18.9 16.7c.4.4 1 .4 1.4 0l17.8-15.8c.7-.6 1.8-.1 1.8.8v36.2c0 4.6-3.7 8.3-8.2 8.3z"/><path class="st4" d="M566.2 154.2H460.9c-5.4 0-9.7-4.4-9.7-9.7v-36.2c0-1 .6-1.9 1.5-2.3.9-.4 2-.3 2.8.4l17.5 15.5 18.6-16.5c1-.9 2.4-.9 3.4 0l18.6 16.5 18.6-16.5c1-.9 2.4-.9 3.4 0l18.6 16.5 17.5-15.5c.8-.7 1.8-.8 2.8-.4.9.4 1.5 1.3 1.5 2.3v36.2c-.1 5.4-4.5 9.7-9.8 9.7zm-112.1-45v35.3c0 3.7 3 6.8 6.8 6.8h105.3c3.7 0 6.8-3 6.8-6.8v-35.3l-17.1 15.1c-1 .9-2.4.9-3.4 0l-18.6-16.5-18.6 16.5c-1 .9-2.4.9-3.4 0l-18.6-16.5-18.6 16.5c-1 .9-2.4.9-3.4 0l-17.2-15.1z"/></g></g></g><g id="XMLID_203_"><g id="XMLID_204_"><path id="XMLID_242_" class="st0" d="M-2178.2 395h-89.8c-2 0-3.6-1.6-3.6-3.6V358c0-2 1.6-3.6 3.6-3.6h89.8c2 0 3.6 1.6 3.6 3.6v33.4c0 2-1.6 3.6-3.6 3.6z"/><g id="XMLID_237_"><path id="XMLID_241_" class="st1" d="M-2223.6 357.8c-15.6 0-30.2-4.2-42.9-11.4v32c2.2 21.7 20.5 38.7 42.9 38.7 22.3 0 40.7-17 42.9-38.7v-32c-12.7 7.2-27.3 11.4-42.9 11.4z"/><path id="XMLID_238_" class="st2" d="M-2223.6 418.5c-23 0-42-17.2-44.3-40v-34.6l2.2 1.3c12.8 7.3 27.4 11.2 42.1 11.2 14.8 0 29.3-3.9 42.1-11.2l2.2-1.3v34.7c-2.3 22.7-21.4 39.9-44.3 39.9zm-41.4-40.2c2.2 21.3 20 37.3 41.4 37.3s39.2-16 41.4-37.3v-29.4c-12.7 6.8-26.9 10.4-41.4 10.4s-28.7-3.6-41.4-10.4v29.4z"/></g><path id="XMLID_236_" d="M-2277.2 366l.1.1h-48.8c-38 0-64.2 21.3-81.1 66.3l-26.4 167.2-2.8 1.6 358.8-1.6 38.3-167.2c-16.9-45-43.1-66.3-81.1-66.3h-48.8v3.5c0-4.8-2.4-9.1-6-11.7-10.9 14.9-28.6 24.4-47.8 24.4-19.3 0-37-9.6-47.9-24.5-3.7 2.6-6.1 7-6.1 11.8V366h-.4z" fill="#088844" stroke="#3b434b" stroke-width="3" stroke-linejoin="round" stroke-miterlimit="10"/><g id="XMLID_205_"><path id="XMLID_235_" class="st19" d="M-2179.5 392l13.9 5.9 13.9-5.9 13.9 5.9 13.9-5.9 14 5.9 13.9-5.9 13.9 5.9 14-5.9"/><path id="XMLID_234_" class="st19" d="M-2377.3 392l13.9 5.9 13.9-5.9 14 5.9 13.9-5.9 13.9 5.9 13.9-5.9 14 5.9 13.9-5.9"/><g id="XMLID_225_"><path id="XMLID_233_" class="st1" d="M-2223.3 468.1l-22.5-22.4.1-23.8 22.4 22.4z"/><path id="XMLID_232_" class="st1" d="M-2221 468.1l22.4-22.4v-23.8l-22.5 22.4z"/><path id="XMLID_231_" class="st1" d="M-2221 474.9l22.4 22.4v23.8l-22.5-22.4z"/><path id="XMLID_230_" class="st1" d="M-2223.3 474.9l-22.5 22.4.1 23.8 22.4-22.4z"/><path id="XMLID_229_" class="st1" d="M-2218.8 470.3l22.4-22.4 23.8.1-22.4 22.4z"/><path id="XMLID_228_" class="st1" d="M-2218.8 472.7l22.4 22.4h23.8l-22.4-22.5z"/><path id="XMLID_227_" class="st1" d="M-2225.5 472.7l-22.4 22.4h-23.9l22.4-22.5z"/><path id="XMLID_226_" class="st1" d="M-2225.5 470.3l-22.4-22.4-23.9.1 22.4 22.4z"/></g><g id="XMLID_216_"><path id="XMLID_224_" class="st1" d="M-2113.8 468.1l-22.5-22.4.1-23.8 22.5 22.4z"/><path id="XMLID_223_" class="st1" d="M-2111.5 468.1l22.5-22.4-.1-23.8-22.5 22.4z"/><path id="XMLID_222_" class="st1" d="M-2111.5 474.9l22.5 22.4-.1 23.8-22.5-22.4z"/><path id="XMLID_221_" class="st1" d="M-2113.8 474.9l-22.5 22.4.1 23.8 22.5-22.4z"/><path id="XMLID_220_" class="st1" d="M-2109.3 470.3l22.4-22.4 23.9.1-22.4 22.4z"/><path id="XMLID_219_" class="st1" d="M-2109.3 472.7l22.4 22.4h23.9l-22.4-22.5z"/><path id="XMLID_218_" class="st1" d="M-2116 472.7l-22.4 22.4h-23.9l22.4-22.5z"/><path id="XMLID_217_" class="st1" d="M-2116 470.3l-22.4-22.4-23.9.1 22.4 22.4z"/></g><g id="XMLID_207_"><path id="XMLID_215_" class="st1" d="M-2332.8 468.1l-22.5-22.4.1-23.8 22.4 22.4z"/><path id="XMLID_214_" class="st1" d="M-2330.5 468.1l22.4-22.4v-23.8l-22.5 22.4z"/><path id="XMLID_213_" class="st1" d="M-2330.5 474.9l22.4 22.4v23.8l-22.5-22.4z"/><path id="XMLID_212_" class="st1" d="M-2332.8 474.9l-22.5 22.4.1 23.8 22.4-22.4z"/><path id="XMLID_211_" class="st1" d="M-2328.3 470.3l22.4-22.4 23.8.1-22.3 22.4z"/><path id="XMLID_210_" class="st1" d="M-2328.3 472.7l22.4 22.4h23.8l-22.3-22.5z"/><path id="XMLID_209_" class="st1" d="M-2335 472.7l-22.4 22.4h-23.9l22.4-22.5z"/><path id="XMLID_208_" class="st1" d="M-2335 470.3l-22.4-22.4-23.9.1 22.4 22.4z"/></g><path id="XMLID_206_" class="st0" d="M-2278.9 369.7c0 .1 0 .3.1.4 5.7 26.1 29.2 45 55.9 45 26.8 0 50.3-19 55.9-45.2v-.2h-3.7c-5.5 24.3-27.3 41.8-52.2 41.8-24.9 0-46.8-17.6-52.3-41.8h-3.7z"/></g></g></g><g id="Page-1_1_"><g id="Group-50_1_"><g id="Group_1_" transform="translate(69 12)"><path id="Fill-1_1_" class="st5" d="M-2734.2 447.1c-50.5-185 58.5-376 243.5-426.5s376 58.5 426.5 243.5-58.5 376-243.5 426.5-376-58.5-426.5-243.5m110.3-30.2c33.9 124.1 162 197.3 286.1 163.4 124.1-33.9 197.3-162 163.4-286.1-33.9-124.1-162-197.3-286.1-163.4-124.2 33.9-197.3 162-163.4 286.1"/><path id="Stroke-3_1_" class="st6" d="M-2490.7 20.6c185-50.5 376 58.5 426.5 243.5s-58.5 376-243.5 426.5-376-58.5-426.5-243.5c-50.5-185.1 58.5-376 243.5-426.5zm152.9 559.7c124.1-33.9 197.3-162 163.4-286.1-33.9-124.1-162-197.3-286.1-163.4-124.1 33.9-197.3 162-163.4 286.1 33.9 124.2 162 197.3 286.1 163.4z"/><path id="Fill-5_1_" class="st7" d="M-2290.7 556.7c83.5-44.9 130-136.8 117.3-230.2l-.8-6 125.2-17.1.8 6c19.5 143.5-50.8 284.7-177.5 355.6l-5.3 2.9-5.3 2.9c-60.7 31.4-128 44.1-194.8 37.9l-3.2-.3-1.6-2.8 10.6-62.8 5.3-60c44.5 4.3 89.2-4.5 129.3-26.1z"/><path id="Stroke-7_1_" class="st6" d="M-2290.7 556.7c83.5-44.9 130-136.8 117.3-230.2l-.8-6 125.2-17.1.8 6c19.5 143.5-50.8 284.7-177.5 355.6l-5.3 2.9-5.3 2.9c-60.7 31.4-128 44.1-194.8 37.9l-3.2-.3-1.6-2.8 10.6-62.8 5.3-60c44.5 4.3 89.2-4.5 129.3-26.1z"/><path id="Fill-9_2_" class="st8" d="M-2777.6 484.1c-7.9-18.3-15.1-55.1-15.1-55.1-36.5-187.9 75-375.5 261.1-431l27.4-8.2 49 164.3-27.4 8.2c-106.1 31.6-167.6 142.4-138.3 249.4 22.5 82.4 93.7 141.9 178.3 149.6l28.4 2.6-15.6 170.7-28.5-2.6c-146-13.4-268.7-111.2-319.3-247.9"/><path id="Stroke-11_1_" class="st6" d="M-2792.6 429.1c-36.5-187.9 75-375.5 261.1-431l27.4-8.2 49 164.3-27.4 8.2c-106.1 31.6-167.6 142.4-138.3 249.4 22.5 82.4 93.7 141.9 178.3 149.6l28.4 2.6-15.6 170.7-28.5-2.6c-146.1-13.4-268.7-111.3-319.3-247.9-8-18.4-15.1-55.1-15.1-55.1z"/></g></g></g><g id="XMLID_182_" class="st9"><path id="XMLID_198_" class="st20" d="M-2570.5 62.2l-155.9 252.2c-3 20.3-4.4 40.9-4.1 61.7l213.3-345c-18.8 8.9-36.6 19.4-53.3 31.1z"/><path id="XMLID_197_" class="st20" d="M-2435.1 1.9l-12.7 3.8-274.1 443.5c2.1 9.6 5.9 25.9 10.2 38.6l284.3-460-7.7-25.9z"/><path id="XMLID_196_" class="st20" d="M-2435 182l100-161.8c-11.8.2-23.7 1-35.6 2.4l-120.6 195.1c16.4-14.6 35.2-26.8 56.2-35.7z"/><path id="XMLID_195_" class="st20" d="M-2551.9 315.9l-137.9 223c5.1 9.8 10.5 19.4 16.3 28.7l114.7-185.5c-1.3-22.6 1.1-45 6.9-66.2z"/><path id="XMLID_194_" class="st20" d="M-2318.2 134.9l65.5-105.9c-10.1-2.3-20.3-4.2-30.6-5.6l-69.4 112.3c11.6-1.2 23.1-1.4 34.5-.8z"/><path id="XMLID_193_" class="st20" d="M-2544.5 445.8l-100.1 162c6.4 7.8 13.1 15.4 20.1 22.6l95.3-154.1c-5.9-9.6-11-19.8-15.3-30.5z"/><path id="XMLID_192_" class="st20" d="M-2241.2 152.3l60.7-98.1c-8.8-4.2-17.8-8.1-27-11.5l-61.8 100c9.6 2.6 19 5.8 28.1 9.6z"/><path id="XMLID_191_" class="st20" d="M-2499.2 514.5l-91.1 147.4c7.5 6.1 15.3 12 23.3 17.5l90-145.6c-7.8-6-15.2-12.4-22.2-19.3z"/><path id="XMLID_190_" class="st20" d="M-2177.7 191.5l60.6-98.1c-7.7-5.9-15.6-11.6-23.7-16.8l-60.1 97.3c8.1 5.3 15.8 11.2 23.2 17.6z"/><path id="XMLID_189_" class="st20" d="M-2437.6 556.7L-2528 703c8.6 4.5 17.4 8.7 26.3 12.6l92-148.8c-9.6-2.7-18.9-6.1-27.9-10.1z"/><path id="XMLID_188_" class="st20" d="M-2127.6 252.4l65.4-105.9c-6.4-7.8-13.2-15.3-20.2-22.4l-62.9 101.7c6.5 8.4 12.4 17.3 17.7 26.6z"/><path id="XMLID_187_" class="st20" d="M-2346.9 595.2l1.8-19.2-15.7-1.4-96.8 156.7c9.7 2.8 19.6 5.2 29.6 7.2l88.3-142.8c-2.5-.2-4.8-.4-7.2-.5z"/><path id="XMLID_186_" class="st20" d="M-2283.4 591.2l-95.1 153.8 17.8 1.6 2.4-25.7c9.4.8 18.8 1.2 28.1 1.2l89.1-144.1c-13.8 5.9-28 10.2-42.3 13.2z"/><path id="XMLID_185_" class="st20" d="M-2105.5 306.2c2.3 8.5 4.1 17.1 5.5 25.6l-5.2.7.8 6c.7 5.2 1.2 10.4 1.6 15.6l85.2-137.9c-4.9-10.1-10.2-19.9-16-29.3l-72.5 117.3c.3.7.5 1.3.6 2z"/><path id="XMLID_184_" class="st20" d="M-1995.2 276.1c-.6-2.1-1.2-4.3-1.8-6.4l-277 448.2c13.3-2.1 26.4-5 39.4-8.6l246.9-399.4c-1.9-11.3-4.4-22.6-7.5-33.8z"/><path id="XMLID_183_" class="st20" d="M-1976 377.7l-187.3 303 1.5-.8 5.3-2.9c18.3-10.2 35.4-21.9 51.2-34.9l120.8-195.4c5-22.5 7.9-45.6 8.5-69z"/></g><path id="Fill-9_1_" d="M-2708.6 496.1c-7.9-18.3-15.1-55.1-15.1-55.1-36.5-187.9 75-375.5 261.1-431l27.4-8.2 49 164.3-27.4 8.2c-106.1 31.6-167.6 142.4-138.3 249.4h0c22.5 82.4 93.7 141.9 178.3 149.6l28.4 2.6-15.6 170.7-28.5-2.6c-146-13.4-268.7-111.2-319.3-247.9" fill="none" stroke="#3a434a" stroke-width="3" stroke-miterlimit="10"/><path id="XMLID_181_" class="st22" d="M-2105.2 332.5l.8 6c12.7 93.4-33.9 185.3-117.3 230.2-38.9 20.9-82.1 29.8-125.2 26.4l-11.5 125.8c65.6 5.5 131.6-7.4 191.2-38.2l5.3-2.9 5.3-2.9c126.7-71 197-212.1 177.5-355.6l-.8-6-125.3 17.2z"/><path id="XMLID_180_" class="st22" d="M-1995.2 276.1c-50.5-185-241.5-294.1-426.5-243.5-1.3.4-2.7.7-4 1.1l32.7 109.6c.5-.1.9-.3 1.4-.4 124.1-33.9 252.2 39.2 286.1 163.4 2.3 8.5 4.1 17.1 5.5 25.6l113.3-15.5c-2-13.5-4.8-26.9-8.5-40.3z"/><g id="XMLID_50_"><g id="XMLID_148_"><path id="XMLID_179_" class="st12" d="M-2432.9 443.6h-47c-2 0-3.6-1.6-3.6-3.6v-9.4c0-2 1.6-3.6 3.6-3.6h47c2 0 3.6 1.6 3.6 3.6v9.4c0 2-1.6 3.6-3.6 3.6z"/><g id="XMLID_174_"><path id="XMLID_178_" class="st1" d="M-2456.9 418.9c-6.4 0-12.7-.4-18.9-1.2v25.9c0 10.4 8.4 18.9 18.9 18.9 10.4 0 18.9-8.4 18.9-18.9v-25.9c-6.2.8-12.5 1.2-18.9 1.2z"/><path id="XMLID_175_" class="st2" d="M-2456.9 463.9c-11.2 0-20.3-9.1-20.3-20.3V416l1.6.2c12.3 1.6 25 1.6 37.3 0l1.6-.2v27.6c.1 11.2-9 20.3-20.2 20.3zm-17.4-44.6v24.3c0 9.6 7.8 17.4 17.4 17.4s17.4-7.8 17.4-17.4v-24.3c-11.5 1.4-23.3 1.4-34.8 0z"/></g><path id="XMLID_173_" class="st23" d="M-2508.3 443.1c-19.2 0-32.4 10.7-40.9 33.4l-13.3 84.3-1.2 30.8 213.4 3.5-13.3-118.6c-8.5-22.7-21.8-33.4-40.9-33.4h-24.6v-8.7c0-2.4-1.2-4.6-3-5.9-5.5 7.5-14.4 12.3-24.1 12.3-9.7 0-18.7-4.8-24.2-12.4-1.9 1.3-3.1 3.5-3.1 6v8.7h-24.8z"/><g id="XMLID_151_"><path id="XMLID_172_" class="st19" d="M-2434.4 456.2l7 3 7-3 7 3 7-3 7.1 3 7-3 7 3 7.1-3"/><path id="XMLID_171_" class="st19" d="M-2534.2 456.2l7 3 7-3 7.1 3 7-3 7 3 7-3 7.1 3 7-3"/><g id="XMLID_162_"><path id="XMLID_170_" class="st1" d="M-2456.5 494.6l-11.4-11.3.1-12 11.3 11.3z"/><path id="XMLID_169_" class="st1" d="M-2455.4 494.6l11.4-11.3-.1-12-11.3 11.3z"/><path id="XMLID_168_" class="st1" d="M-2455.4 498l11.4 11.3-.1 12.1-11.3-11.3z"/><path id="XMLID_167_" class="st1" d="M-2456.5 498l-11.4 11.3.1 12.1 11.3-11.3z"/><path id="XMLID_166_" class="st1" d="M-2454.3 495.7l11.3-11.3h12.1l-11.3 11.4z"/><path id="XMLID_165_" class="st1" d="M-2454.3 496.9l11.3 11.3h12.1l-11.3-11.3z"/><path id="XMLID_164_" class="st1" d="M-2457.7 496.9l-11.2 11.3h-12.1l11.3-11.3z"/><path id="XMLID_163_" class="st1" d="M-2457.7 495.7l-11.2-11.3h-12.1l11.3 11.4z"/></g><g id="XMLID_153_"><path id="XMLID_161_" class="st1" d="M-2401.3 494.6l-11.3-11.3v-12l11.3 11.3z"/><path id="XMLID_160_" class="st1" d="M-2400.1 494.6l11.3-11.3v-12l-11.4 11.3z"/><path id="XMLID_159_" class="st1" d="M-2400.1 498l11.3 11.3v12.1l-11.4-11.3z"/><path id="XMLID_158_" class="st1" d="M-2401.3 498l-11.3 11.3v12.1l11.3-11.3z"/><path id="XMLID_157_" class="st1" d="M-2399 495.7l11.3-11.3h12l-11.3 11.4z"/><path id="XMLID_156_" class="st1" d="M-2399 496.9l11.3 11.3h12l-11.3-11.3z"/><path id="XMLID_155_" class="st1" d="M-2402.4 496.9l-11.3 11.3h-12l11.3-11.3z"/><path id="XMLID_154_" class="st1" d="M-2402.4 495.7l-11.3-11.3h-12l11.3 11.4z"/></g><path id="XMLID_152_" class="st11" d="M-2485.6 443.1v.2c3 13.6 15.3 23.5 29.2 23.5 14 0 26.3-9.9 29.3-23.6v-.1h-1.9c-2.9 12.7-14.3 21.9-27.3 21.9s-24.5-9.2-27.3-21.9h-2z"/></g></g><g id="XMLID_146_"><path id="XMLID_147_" d="M-2339.1 309.4c-6.9-12.9-13-26.2-17-40.2-9.4-32.4-34.5-55.6-63.9-55.6-4.5 0-9 .6-13.3 1.6-12-4.9-25.2-7.6-39-7.6-48.6 0-89.3 33.5-100.4 78.7-2.4 9.9-5.6 19.6-9.6 29-4.2 9.6-6.5 20.2-6.5 31.3 0 43.6 35.4 79 79 79 3.9 0 7.8-.3 11.5-.8 10.4-2.1 17.2-4.5 21.1-7.2-47.4-6.7-83.2-37.4-83.2-87.5v-.4-.4c0-.8.1-1.5.1-2.3 0-.8 0-1.7.1-2.5 0-.7.1-1.4.2-2.1.1-1.1.2-2.1.3-3.2 0-.3.1-.5.1-.8 5-43.9 37.4-79.4 79.7-89 .2 0 .3-.1.5-.1 1.3-.3 2.6-.6 4-.8.5-.1.9-.2 1.4-.2 1.1-.2 2.2-.3 3.3-.5l2.1-.3c.9-.1 1.9-.2 2.8-.3.8-.1 1.7-.1 2.5-.2.9-.1 1.7-.1 2.6-.1.5 0 1-.1 1.4-.1h4c.9 0 1.8 0 2.6.1.9 0 1.8.1 2.7.1.9.1 1.7.1 2.6.2l2.7.3c.9.1 1.7.2 2.5.3.9.1 1.8.3 2.6.4.8.1 1.7.3 2.5.4.9.2 1.7.4 2.6.5.8.2 1.6.4 2.5.6.9.2 1.7.4 2.5.7.8.2 1.6.4 2.4.7.8.3 1.7.5 2.5.8.8.3 1.6.5 2.4.8l2.4.9c.8.3 1.5.6 2.3.9.8.3 1.6.7 2.4 1 .8.3 1.5.7 2.3 1 .8.4 1.6.8 2.3 1.1.7.4 1.5.7 2.2 1.1.8.4 1.5.8 2.3 1.3l2.1 1.2c.7.4 1.5.9 2.2 1.4.7.4 1.4.9 2.1 1.3l2.1 1.5c.7.5 1.3.9 2 1.4.7.5 1.4 1 2 1.6.6.5 1.3 1 1.9 1.5.7.5 1.3 1.1 2 1.7.6.5 1.2 1 1.8 1.6.6.6 1.3 1.2 1.9 1.8.6.6 1.2 1.1 1.7 1.7l1.8 1.8c.6.6 1.1 1.2 1.7 1.7.6.6 1.1 1.3 1.7 1.9.5.6 1.1 1.2 1.6 1.8.6.7 1.1 1.3 1.6 2 .5.6 1 1.3 1.5 1.9l1.5 2.1c.5.7.9 1.3 1.4 2 .5.7 1 1.5 1.4 2.2.4.7.9 1.3 1.3 2 .5.7.9 1.5 1.3 2.3l1.2 2.1 1.2 2.4c.4.7.7 1.4 1.1 2.1.4.8.7 1.6 1.1 2.4.3.7.7 1.4 1 2.2.4.8.7 1.7 1 2.5.3.7.6 1.5.9 2.2.3.9.6 1.7.9 2.6.3.7.5 1.5.8 2.2.3.9.5 1.8.8 2.7.2.8.4 1.5.6 2.3.2.9.4 1.9.7 2.8.2.8.4 1.5.5 2.2.2 1 .4 1.9.5 2.9.1.7.3 1.5.4 2.2.2 1 .3 2.1.4 3.1l.3 2.1c.1 1.2.2 2.3.3 3.5 0 .6.1 1.2.1 1.8.1 1.8.1 3.6.1 5.4 0 49.9-35.3 80.5-82.4 87.4 7.5 6.6 22.4 8.2 27 8.2h0c43.6 0 79-35.4 79-79 0-13.6-3.3-26.2-9.2-37.3z" fill="#2ab598" stroke="#3a434a" stroke-width="3" stroke-miterlimit="10"/></g><g id="XMLID_141_"><path id="XMLID_145_" class="st1" d="M-2353.5 330c0 57.1-46.3 88.9-103.4 88.9-57.1 0-103.4-31.8-103.4-88.9s46.3-103.4 103.4-103.4c57.1-.1 103.4 46.2 103.4 103.4z"/><path id="XMLID_142_" class="st2" d="M-2456.9 420.3c-29.1 0-55.3-8.3-74-23.4-20.2-16.3-30.8-39.4-30.8-67 0-57.8 47-104.9 104.9-104.9s104.9 47 104.9 104.9c0 27.6-10.7 50.7-30.8 67-18.9 15.1-45.2 23.4-74.2 23.4zm0-192.3c-56.2 0-101.9 45.7-101.9 101.9 0 26.7 10.3 49.1 29.7 64.8 18.2 14.7 43.8 22.7 72.2 22.7s54-8.1 72.2-22.7c19.5-15.7 29.7-38.1 29.7-64.8 0-56.2-45.7-101.9-101.9-101.9z"/></g><g id="XMLID_139_"><ellipse id="XMLID_140_" class="st14" cx="-2415.9" cy="352.7" rx="8.4" ry="9.4"/></g><g id="XMLID_137_"><path id="XMLID_138_" class="st14" d="M-2450.2 221.5c5.1 57.5 46.8 104.5 101.6 117.5.2-3 .4-6 .4-9 0-57.8-45.1-105.1-102-108.5z"/></g><g id="XMLID_135_"><path id="XMLID_136_" class="st14" d="M-2407.5 233.1c-14.3-6.9-31.2-11.7-48.1-11.7-60 0-108.6 49.5-108.6 109.5 0 2.8.1 5.5.3 8.2 8.1 1.5 16.4 2.3 24.9 2.3 65.1.1 120.1-46.5 131.5-108.3z"/></g><g id="XMLID_133_"><ellipse id="XMLID_134_" class="st2" cx="-2414.4" cy="355.6" rx="4.4" ry="4.9"/></g><g id="XMLID_131_"><path id="XMLID_132_" class="st2" d="M-2459.3 370.8v-2.9c2.8 0 5.1-2.3 5.1-5.1s-2.3-5.1-5.1-5.1v-2.9c4.4 0 8 3.6 8 8s-3.6 8-8 8z"/></g><g id="XMLID_129_"><ellipse id="XMLID_130_" transform="rotate(-30.93 -2408.273 351.656)" class="st1" cx="-2408.1" cy="351.6" rx="5.5" ry="2.2"/></g><g id="XMLID_127_"><ellipse id="XMLID_128_" class="st14" cx="-2500.5" cy="352.7" rx="8.4" ry="9.4"/></g><g id="XMLID_125_"><ellipse id="XMLID_126_" class="st2" cx="-2499" cy="355.6" rx="4.4" ry="4.9"/></g><g id="XMLID_123_"><ellipse id="XMLID_124_" transform="rotate(-30.93 -2492.872 351.659)" class="st1" cx="-2492.7" cy="351.6" rx="5.5" ry="2.2"/></g><g id="XMLID_120_"><g id="XMLID_121_"><path id="XMLID_122_" class="st2" d="M-2457 388.1c-6 0-11.2-3.1-13.3-8l2.7-1.1c2 4.7 7.2 6.3 11.1 6.2 3.7-.1 8.2-1.8 9.7-6.1l2.7 1c-1.7 4.8-6.4 7.9-12.3 8h-.6z"/></g></g><g id="XMLID_118_"><path id="XMLID_119_" class="st2" d="M-2538 330v-2.9c27.6 0 54.5-9.7 75.8-27.4 21.1-17.5 35.4-41.8 40.3-68.3l2.9.5c-5 27.2-19.7 52-41.3 70-21.9 18.1-49.4 28.1-77.7 28.1z"/></g><g id="XMLID_116_"><path id="XMLID_117_" class="st2" d="M-2538 320.7v-2.9c25 0 49.3-8.8 68.4-24.8 19-15.8 31.9-37.7 36.4-61.7l2.9.5c-4.6 24.6-17.8 47.1-37.4 63.4-19.7 16.5-44.7 25.5-70.3 25.5z"/></g><g id="XMLID_114_"><path id="XMLID_115_" class="st2" d="M-2348 334.6c-37.1-8.8-68.1-33.5-85.1-67.7l2.6-1.3c16.6 33.5 46.9 57.6 83.1 66.2l-.6 2.8z"/></g><g id="XMLID_111_"><g id="XMLID_112_"><path id="XMLID_113_" class="st2" d="M-2516.3 343.7c-1.5-1.9-1-4.7 1.1-5.9 5.4-3 15.9-7.4 27.7-3.8 1.2.4 1.9 1.7 1.4 2.9-.4 1.1-1.6 1.6-2.6 1.3-14.6-4.4-27.5 5.4-27.6 5.5z"/></g></g><g id="XMLID_108_"><g id="XMLID_109_"><path id="XMLID_110_" class="st2" d="M-2396.7 338c1.5-1.9.9-4.7-1.2-5.9-5.4-3-16-7.1-27.7-3.4-1.2.4-1.8 1.7-1.4 2.9.4 1 1.6 1.6 2.6 1.3 14.5-4.6 27.6 5 27.7 5.1z"/></g></g><g id="XMLID_103_"><path id="XMLID_107_" class="st25" d="M-2441 114.9h12.5c11.9 0 22.9 6.2 29.1 16.4l12.5 20.6-22.6-8.8c-4.6-1.8-9.8-.8-13.4 2.5-4 3.6-5.3 9.3-3.3 14.4l29.6 74.8h-116l40.1-98.5c5.2-13.1 17.6-21.4 31.5-21.4z"/><circle id="XMLID_106_" class="st26" cx="-2387" cy="151.8" r="18.6"/><circle id="XMLID_105_" class="st1" cx="-2379.7" cy="143.4" r="2.9"/><path id="XMLID_104_" class="st27" d="M-2510.6 250.7h113.2c4.9 0 8.9-4 8.9-8.9v-38.9c0-1-1.2-1.5-1.9-.9l-19.1 16.9c-.4.4-1.1.4-1.5 0l-20.3-18c-.4-.4-1.1-.4-1.5 0l-20.3 18c-.4.4-1.1.4-1.5 0l-20.3-18c-.4-.4-1.1-.4-1.5 0l-20.3 18c-.4.4-1.1.4-1.5 0l-19.1-16.9c-.7-.7-1.9-.1-1.9.9v38.9c-.3 4.9 3.6 8.9 8.6 8.9z"/></g><path id="XMLID_102_" class="st23" d="M-2541.4 461l-53.6 87.7c-5.4 7.7-6.6 17.5-3.4 26.3 4.1 11.2 14.8 18.7 26.8 18.7l136.5 5.7c4.8 0 8.6-4.2 8-9l-4.6-40.3c-.5-4.3-4.2-7.4-8.5-7.1"/><g id="XMLID_75_"><g id="XMLID_81_"><g id="XMLID_97_"><path id="XMLID_101_" class="st1" d="M-2551.9 588l201.2-23.8 91.8 17.6-201.1 23.9z"/><path id="XMLID_98_" class="st11" d="M-2460.3 606.9l-91.8-17.7c-.6-.1-1-.6-1-1.2s.5-1.1 1.1-1.2l201.1-23.9h.4l91.8 17.7c.6.1 1 .6 1 1.2s-.5 1.1-1.1 1.2l-201.1 23.9h-.4zm109.5-41.5l-193.2 22.9 84 16.2 193.2-22.9-84-16.2z"/></g><g id="XMLID_92_"><path id="XMLID_96_" class="st5" d="M-2258.9 581.8l-203.6 24.2 27.3-125.1c1-4.7 5-8.3 9.8-8.9l184.4-21.9c5.4-.6 9.9 4.3 8.7 9.6l-26.6 122.1z"/><path id="XMLID_93_" class="st11" d="M-2436.3 480.7c1.1-5.2 5.5-9.2 10.8-9.8l184.4-21.9c3-.4 5.9.7 7.9 2.9s2.8 5.2 2.2 8.1l-26.9 122.9-204.4 24.3-1.7.2 27.7-126.7zm202.9-21.2c.5-2.2-.1-4.4-1.6-6-1.5-1.6-3.6-2.4-5.8-2.2l-184.4 21.9c-4.3.5-7.8 3.7-8.8 7.9l-27 123.4 201.1-23.9 26.5-121.1z"/></g><g id="XMLID_87_"><path id="XMLID_91_" class="st16" d="M-2551.9 588l89.4 18 .8 6.3-89.4-17.9z"/><path id="XMLID_88_" class="st11" d="M-2462 613.5l-89.4-18c-.5-.1-.9-.5-1-1l-.8-6.3c0-.4.1-.8.4-1 .3-.3.7-.4 1.1-.3l89.4 18c.5.1.9.5 1 1l.8 6.3c0 .4-.1.8-.4 1-.2.2-.5.3-.8.3h-.3zm-88.5-23.9l.5 3.8 86.9 17.5-.5-3.8-86.9-17.5z"/></g><g id="XMLID_82_"><path id="XMLID_86_" transform="rotate(-6.771 -2359.814 596.902)" class="st16" d="M-2462.8 593.9h205v6.4h-205z"/><path id="XMLID_83_" class="st11" d="M-2462.9 612.5l-.8-6.3c0-.3.1-.6.3-.9.2-.3.5-.4.8-.5l203.6-24.2c.7-.1 1.3.4 1.3 1.1l.8 6.3c0 .3-.1.6-.3.9-.2.3-.5.4-.8.5l-203.6 24.2h-.1c-.7-.1-1.2-.5-1.2-1.1zm202.9-29.3l-201.2 23.9.5 3.9 201.2-23.9-.5-3.9z"/></g></g><g id="XMLID_76_"><path id="XMLID_80_" class="st1" d="M-2360.3 534.9l14.6-21.8-5.2.4 10.8-16.1 10.2 14.4-5.3.5 13.8 19.5-9.7.8 9.4 13.4-15.3 1.2-.2 8.7-8.2.7.1-8.7-15.3 1.2 10-14.9z"/><path id="XMLID_77_" class="st11" d="M-2345.5 557.7c-.3 0-.5-.1-.7-.3-.2-.2-.4-.5-.4-.8l.1-7.4-14.1 1.1c-.4 0-.8-.2-1-.5-.2-.4-.2-.8 0-1.2l8.7-13-7.4.6c-.4 0-.8-.2-1-.5-.2-.4-.2-.8 0-1.2l13.3-19.9-2.9.2c-.4 0-.8-.2-1-.5-.2-.4-.2-.8 0-1.2l10.8-16.1c.2-.3.5-.5.9-.5s.7.2.9.5l10.2 14.4c.2.3.3.8.1 1.1-.2.4-.5.6-.9.6l-3.3.3 12.7 18c.2.3.3.8.1 1.1-.2.4-.5.6-.9.6l-7.8.6 8.3 11.8c.2.3.3.8.1 1.1-.2.4-.5.6-.9.6l-14.3 1.1-.2 7.7c0 .6-.5 1-1 1.1l-8.3.7c0-.1 0-.1-.1-.1zm.3-10.9c.3 0 .5.1.7.3.2.2.4.5.4.8l-.1 7.4 6-.5.2-7.7c0-.6.5-1 1-1.1l13.4-1.1-8.3-11.8c-.2-.3-.3-.8-.1-1.1.2-.4.5-.6.9-.6l7.8-.6-12.7-18c-.2-.3-.3-.8-.1-1.1.2-.4.5-.6.9-.6l3.3-.3-8.1-11.5-8.6 12.9 2.9-.2c.4 0 .8.2 1 .5.2.4.2.8 0 1.2l-13.3 19.9 7.4-.6c.4 0 .8.2 1 .5.2.4.2.8 0 1.2l-8.7 13 13-1c0 .1 0 .1.1.1z"/></g></g><path id="XMLID_74_" class="st28" d="M-2553.1 552l18.9-19.3 3.6 4.2-7.4 15.1"/><path id="XMLID_73_" class="st28" d="M-2448.6 542.4l-82-5.5"/><path id="XMLID_72_" class="st28" d="M-2532.2 535l5-8"/><g id="XMLID_63_"><path id="XMLID_71_" class="st1" d="M-2511.8 494.6l-11.3-11.3v-12l11.4 11.3z"/><path id="XMLID_70_" class="st1" d="M-2510.6 494.6l11.3-11.3v-12l-11.3 11.3z"/><path id="XMLID_69_" class="st1" d="M-2510.6 498l11.3 11.3v12.1l-11.3-11.3z"/><path id="XMLID_68_" class="st1" d="M-2511.8 498l-11.3 11.3v12.1l11.4-11.3z"/><path id="XMLID_67_" class="st1" d="M-2509.5 495.7l11.3-11.3h12l-11.3 11.4z"/><path id="XMLID_66_" class="st1" d="M-2509.5 496.9l11.3 11.3h12l-11.3-11.3z"/><path id="XMLID_65_" class="st1" d="M-2512.9 496.9l-11.3 11.3h-12l11.3-11.3z"/><path id="XMLID_64_" class="st1" d="M-2512.9 495.7l-11.3-11.3h-12l11.3 11.4z"/></g><g id="XMLID_51_"><g id="XMLID_54_"><g id="XMLID_59_"><path id="XMLID_60_" class="st5" d="M-2504.3 385.2c-18.6 0-33.8-15.2-33.8-33.8 0-18.6 15.2-33.8 33.8-33.8 18.6 0 33.8 15.2 33.8 33.8 0 18.6-15.1 33.8-33.8 33.8zm0-64.7c-17 0-30.9 13.9-30.9 30.9s13.9 30.9 30.9 30.9 30.9-13.9 30.9-30.9-13.8-30.9-30.9-30.9z"/></g><g id="XMLID_55_"><path id="XMLID_56_" class="st5" d="M-2409.6 385.2c-18.6 0-33.8-15.2-33.8-33.8 0-18.6 15.2-33.8 33.8-33.8 18.6 0 33.8 15.2 33.8 33.8 0 18.6-15.2 33.8-33.8 33.8zm0-64.7c-17 0-30.9 13.9-30.9 30.9s13.9 30.9 30.9 30.9 30.9-13.9 30.9-30.9-13.9-30.9-30.9-30.9z"/></g></g><g id="XMLID_52_"><path id="XMLID_53_" class="st5" d="M-2471.9 349.9h29.4v2.9h-29.4z"/></g></g></g><g id="XMLID_1_"><g id="XMLID_45_"><path id="XMLID_49_" class="st1" d="M-2315.9 240.2c0-50.7 41.1-91.8 91.8-91.8s91.8 41.1 91.8 91.8v25.7c0 50.7-41.1 91.8-91.8 91.8s-91.8-41.1-91.8-91.8v-25.7z"/><path id="XMLID_46_" class="st2" d="M-2224.2 359.2c-51.5 0-93.4-41.9-93.4-93.4v-25.7c0-51.5 41.9-93.4 93.4-93.4 51.5 0 93.4 41.9 93.4 93.4v25.7c0 51.6-41.9 93.4-93.4 93.4zm0-209.2c-49.7 0-90.2 40.5-90.2 90.2v25.7c0 49.7 40.5 90.2 90.2 90.2s90.2-40.5 90.2-90.2v-25.7c.1-49.7-40.4-90.2-90.2-90.2z"/></g><g id="XMLID_43_"><circle id="XMLID_44_" class="st14" cx="-2265.7" cy="256.8" r="9.6"/></g><g id="XMLID_41_"><circle id="XMLID_42_" class="st2" cx="-2267.1" cy="258" r="4.5"/></g><path id="XMLID_40_" d="M-2107.9 158.2V156s-27.3 0-37.7.1c12.9-9 17.8-23.4 17.8-34.8h-120.4c-13.7 0-24.9 11.1-24.9 24.9v-20.4c-29.4 0-53.3 24-53.3 53.5 0 7.6 1.7 15.5 5 22.6-3.6 9.4-5.8 19.4-6.5 29.8 3.5-3 8-4.9 12.9-5-.2 1.2-.3 2.5-.5 3.7.7-6.1 1.9-11.9 3.7-17.6l8.3-3.2c11.9-4.5 22.5-11.9 30.8-21.5 0 7.8 6.4 14.2 14.2 14.2h103.4c4.6 0 9.1-.7 13.4-1.9 4.5 9.2 7.4 19.3 8.6 30-.1-1.2-.3-2.5-.5-3.7 5 .3 9.5 2.4 12.9 5.6-.8-13.2-4.1-25.7-9.4-37.1 12.9-7.9 21.6-21.3 22.2-37z" fill="#f59d1f" stroke="#3a434a" stroke-width="3" stroke-miterlimit="10"/><g id="XMLID_38_"><path id="XMLID_39_" class="st2" d="M-2252.4 234.7l-37.2-.5c.1-5.7 4.7-10.2 10.4-10.1l26.9.3c2.8 0 5.1 2.4 5.1 5.2 0 2.8-2.3 5.1-5.2 5.1z"/></g><g id="XMLID_36_"><path id="XMLID_37_" class="st14" d="M-2237.6 255.5h26.3v3.1h-26.3z"/></g><g id="XMLID_34_"><path id="XMLID_35_" class="st1" d="M-2267.9 258l-6-9.5-3.3 7z"/></g><g id="XMLID_32_"><circle id="XMLID_33_" class="st14" cx="-2183.9" cy="256.8" r="9.6"/></g><g id="XMLID_30_"><circle id="XMLID_31_" class="st2" cx="-2185.3" cy="258" r="4.5"/></g><g id="XMLID_28_"><path id="XMLID_29_" class="st2" d="M-2197.7 234.5l37.2-.1c0-5.7-4.6-10.3-10.3-10.2l-26.9.1c-2.8 0-5.1 2.3-5.1 5.1s2.3 5.1 5.1 5.1z"/></g><g id="XMLID_26_"><path id="XMLID_27_" class="st1" d="M-2186.1 258l-6-9.5-3.3 7z"/></g><g id="XMLID_24_"><path id="XMLID_25_" class="st2" d="M-2221.5 286.3c-7 0-12.8-5.7-12.8-12.8 0-7 5.7-12.8 12.8-12.8v3.1c-5.3 0-9.6 4.3-9.6 9.6s4.3 9.6 9.6 9.6v3.3z"/></g><path id="XMLID_23_" class="st30" d="M-2316.5 265.9v-25.7c0-4.2.3-8.3.8-12.3.3-2.4-.7-4.7-2.6-6.1-6.9-4.9-16.4.7-15.4 9.2l2 16v.6c.1 9.4 6.5 17.2 15.2 19.7.1-.5 0-1 0-1.4z"/><g id="XMLID_21_"><path id="XMLID_22_" class="st2" d="M-2318.5 251.4c-.6-.2-1-.8-1-1.4 0-.1-.2-2.7-2.5-3.7-.8-.4-1.1-1.3-.8-2.1.4-.8 1.3-1.1 2.1-.8.5.2.9.5 1.3.8l-.3-.6c-1.2-2-3.4-2.6-3.5-2.6-.8-.2-1.4-1-1.2-1.9.2-.8 1-1.4 1.9-1.2.1 0 3.6.8 5.5 4 1.3 2.3 1.5 5.1.5 8.3-.2.7-.9 1.2-1.7 1.1-.1.2-.2.2-.3.1z"/></g><g id="XMLID_12_"><g id="XMLID_17_"><path id="XMLID_18_" class="st14" d="M-2266.5 287.6c-16.8 0-30.5-13.7-30.5-30.5s13.7-30.5 30.5-30.5 30.5 13.7 30.5 30.5-13.7 30.5-30.5 30.5zm0-57.8c-15.1 0-27.3 12.3-27.3 27.3s12.3 27.3 27.3 27.3c15.1 0 27.3-12.3 27.3-27.3s-12.2-27.3-27.3-27.3z"/></g><g id="XMLID_13_"><path id="XMLID_14_" class="st14" d="M-2181.9 287.6c-16.8 0-30.5-13.7-30.5-30.5s13.7-30.5 30.5-30.5 30.5 13.7 30.5 30.5-13.7 30.5-30.5 30.5zm0-57.8c-15.1 0-27.3 12.3-27.3 27.3s12.3 27.3 27.3 27.3 27.3-12.3 27.3-27.3-12.2-27.3-27.3-27.3z"/></g></g><g id="XMLID_8_"><path id="XMLID_11_" class="st30" d="M-2132.2 265.9v-25.7c0-4.2-.3-8.3-.8-12.3-.3-2.4.7-4.7 2.6-6.1 6.9-4.9 16.4.7 15.4 9.2l-2 16v.6c-.1 9.4-6.5 17.2-15.2 19.7v-1.4z"/><g id="XMLID_9_"><path id="XMLID_10_" class="st2" d="M-2129.6 251.4c.6-.2 1-.8 1-1.4 0-.1.2-2.7 2.5-3.7.8-.4 1.1-1.3.8-2.1-.4-.8-1.3-1.1-2.1-.8-.5.2-.9.5-1.3.8l.3-.6c1.2-2 3.4-2.6 3.5-2.6.8-.2 1.4-1 1.2-1.9-.2-.8-1-1.4-1.9-1.2-.1 0-3.6.8-5.5 4-1.3 2.3-1.5 5.1-.5 8.3.2.7.9 1.2 1.7 1.1.1.2.2.2.3.1z"/></g></g><path id="XMLID_7_" class="st2" d="M-2206.2 298.1l-2.3-2.1c-3.5 3.9-8.2 6.2-13.3 6.7-5.1-.4-9.8-2.7-13.3-6.7l-2.3 2.1c4.1 4.6 9.7 7.3 15.6 7.7h.2c5.7-.4 11.3-3.1 15.4-7.7z"/><g id="XMLID_2_"><path id="XMLID_6_" class="st25" d="M-2229.6 23.7h-11.7c-11.1 0-21.5 5.8-27.3 15.3l-11.7 19.3 21.1-8.3c4.3-1.7 9.1-.8 12.5 2.3 3.7 3.4 5 8.8 3.1 13.5l-27.8 70.1h108.7l-37.6-92.3c-4.7-12-16.4-19.9-29.3-19.9z"/><circle id="XMLID_5_" class="st26" cx="-2280.3" cy="58.3" r="17.5"/><circle id="XMLID_4_" class="st1" cx="-2287.1" cy="56.5" r="2.7"/><path id="XMLID_3_" class="st27" d="M-2164.4 151h-106.1c-4.6 0-8.3-3.7-8.3-8.3v-36.5c0-.9 1.1-1.4 1.8-.8l17.9 15.9c.4.4 1 .4 1.4 0l19-16.8c.4-.4 1-.4 1.4 0l19 16.8c.4.4 1 .4 1.4 0l19-16.8c.4-.4 1-.4 1.4 0l19 16.8c.4.4 1 .4 1.4 0l17.9-15.9c.7-.6 1.8-.1 1.8.8v36.5c.3 4.6-3.4 8.3-8 8.3z"/></g></g></svg>