<svg version="1.1" id="Layer_1" xmlns="http://www.w3.org/2000/svg" x="0" y="0" viewBox="0 0 758.6 749.5" xml:space="preserve"><style>.st0{fill:#086936}.st1{fill:#fff}.st2{fill:#39444a}.st3{fill:#088844}.st4{fill:none;stroke:#fff;stroke-miterlimit:10}.st5{fill:#f49b23}.st6{fill:none}.st7{fill:#ca2128}.st10{opacity:.3;fill:#fff}.st12,.st14{fill:none;stroke:#3a434a;stroke-width:4}.st14{fill:#ca2128;stroke-width:2;stroke-miterlimit:10}.st15{fill:#3a434a}.st16{fill:none;stroke:#2d82b2;stroke-width:3;stroke-linecap:round;stroke-miterlimit:10}.st18{fill:#2ab598}.st19{fill:#ffd141}.st20{fill:#34b393}.st21,.st23{stroke-width:2;stroke-miterlimit:10}.st21{stroke-linejoin:round;fill:none;stroke:#3a434a}.st23{fill:#fff;stroke:#39444a}</style><g id="XMLID_2271_"><g id="XMLID_2272_"><path id="XMLID_2310_" class="st0" d="M554.3 395.6h-89.8c-2 0-3.6-1.6-3.6-3.6v-33.4c0-2 1.6-3.6 3.6-3.6h89.8c2 0 3.6 1.6 3.6 3.6V392c0 2-1.6 3.6-3.6 3.6z"/><g id="XMLID_2305_"><path id="XMLID_2309_" class="st1" d="M508.9 358.4c-15.6 0-30.2-4.2-42.9-11.4v32c2.2 21.7 20.5 38.7 42.9 38.7 22.3 0 40.7-17 42.9-38.7v-32c-12.7 7.2-27.3 11.4-42.9 11.4z"/><path id="XMLID_2306_" class="st2" d="M508.9 419.1c-23 0-42-17.2-44.3-40v-34.6l2.2 1.3c12.8 7.3 27.4 11.2 42.1 11.2 14.8 0 29.3-3.9 42.1-11.2l2.2-1.3v34.7c-2.3 22.7-21.4 39.9-44.3 39.9zm-41.4-40.2c2.2 21.3 20 37.3 41.4 37.3s39.2-16 41.4-37.3v-29.4c-12.7 6.8-26.9 10.4-41.4 10.4s-28.7-3.6-41.4-10.4v29.4z"/></g><path id="XMLID_2304_" class="st3" d="M455.3 366.6l.1.1h-48.8c-38 0-64.2 21.3-81.1 66.3L299 600.1l-2.8 1.6 358.8-1.6L693.3 433c-16.9-45-43.1-66.3-81.1-66.3h-48.8v3.5c0-4.8-2.4-9.1-6-11.7-10.9 14.9-28.6 24.4-47.8 24.4-19.3 0-37-9.6-47.9-24.5-3.7 2.6-6.1 7-6.1 11.8v-3.5l-.3-.1z"/><g id="XMLID_2273_"><path id="XMLID_2303_" class="st4" d="M553 392.7l13.9 5.8 13.9-5.8 13.9 5.8 14-5.8 13.9 5.8 13.9-5.8 13.9 5.8 14-5.8"/><path id="XMLID_2302_" class="st4" d="M355.2 392.7l13.9 5.8 13.9-5.8 14 5.8 13.9-5.8 13.9 5.8 13.9-5.8 14 5.8 13.9-5.8"/><g id="XMLID_2293_"><path id="XMLID_2301_" class="st1" d="M509.2 468.8l-22.5-22.4.1-23.9 22.4 22.4z"/><path id="XMLID_2300_" class="st1" d="M511.5 468.8l22.4-22.4v-23.9l-22.5 22.4z"/><path id="XMLID_2299_" class="st1" d="M511.5 475.5l22.4 22.4v23.8l-22.5-22.3z"/><path id="XMLID_2298_" class="st1" d="M509.2 475.5l-22.5 22.4.1 23.8 22.4-22.3z"/><path id="XMLID_2297_" class="st1" d="M513.7 471l22.4-22.5 23.8.1-22.3 22.4z"/><path id="XMLID_2296_" class="st1" d="M513.7 473.3l22.4 22.4h23.8l-22.3-22.5z"/><path id="XMLID_2295_" class="st1" d="M507 473.3l-22.4 22.4h-23.9l22.4-22.5z"/><path id="XMLID_2294_" class="st1" d="M507 471l-22.4-22.5-23.9.1 22.4 22.4z"/></g><g id="XMLID_2284_"><path id="XMLID_2292_" class="st1" d="M618.7 468.8l-22.5-22.4.1-23.9 22.5 22.4z"/><path id="XMLID_2291_" class="st1" d="M621 468.8l22.5-22.4-.1-23.9-22.5 22.4z"/><path id="XMLID_2290_" class="st1" d="M621 475.5l22.5 22.4-.1 23.8-22.5-22.3z"/><path id="XMLID_2289_" class="st1" d="M618.7 475.5l-22.5 22.4.1 23.8 22.5-22.3z"/><path id="XMLID_2288_" class="st1" d="M623.2 471l22.4-22.5 23.9.1-22.4 22.4z"/><path id="XMLID_2287_" class="st1" d="M623.2 473.3l22.4 22.4h23.9l-22.4-22.5z"/><path id="XMLID_2286_" class="st1" d="M616.5 473.3l-22.4 22.4h-23.9l22.4-22.5z"/><path id="XMLID_2285_" class="st1" d="M616.5 471l-22.4-22.5-23.9.1 22.4 22.4z"/></g><g id="XMLID_2275_"><path id="XMLID_2283_" class="st1" d="M399.7 468.8l-22.5-22.4.1-23.9 22.4 22.4z"/><path id="XMLID_2282_" class="st1" d="M402 468.8l22.5-22.4-.1-23.9-22.5 22.4z"/><path id="XMLID_2281_" class="st1" d="M402 475.5l22.5 22.4-.1 23.8-22.5-22.3z"/><path id="XMLID_2280_" class="st1" d="M399.7 475.5l-22.5 22.4.1 23.8 22.4-22.3z"/><path id="XMLID_2279_" class="st1" d="M404.2 471l22.4-22.5 23.9.1-22.4 22.4z"/><path id="XMLID_2278_" class="st1" d="M404.2 473.3l22.4 22.4h23.9l-22.4-22.5z"/><path id="XMLID_2277_" class="st1" d="M397.5 473.3l-22.4 22.4h-23.9l22.4-22.5z"/><path id="XMLID_2276_" class="st1" d="M397.5 471l-22.4-22.5-23.9.1 22.4 22.4z"/></g><path id="XMLID_2274_" class="st0" d="M451.6 366.7c0 .1 0 .3.1.4 5.9 27 30.3 46.7 57.9 46.7 27.8 0 52.2-19.7 58-46.9v-.2h-3.9c-5.7 25.1-28.3 43.4-54.2 43.4-25.8 0-48.5-18.2-54.2-43.4h-3.7z"/></g></g></g><g id="Page-1_2_"><g id="Group-50_2_"><g id="Group_4_" transform="translate(69 12)"><path id="Fill-1_2_" class="st5" d="M-1.7 447.7c-50.5-185 58.5-376 243.5-426.5s376 58.5 426.5 243.5-58.5 376-243.5 426.5-376-58.5-426.5-243.5m110.3-30.1c33.9 124.1 162 197.3 286.1 163.4C518.8 547 591.9 418.9 558 294.8 524.1 170.7 396 97.5 271.9 131.4c-124.1 34-197.2 162.1-163.3 286.2"/><path id="Stroke-3_2_" class="st6" d="M241.8 21.2c185-50.5 376 58.5 426.5 243.5s-58.5 376-243.5 426.5-376-58.5-426.5-243.5 58.5-376 243.5-426.5zm152.9 559.7C518.8 547 591.9 418.9 558 294.8 524.1 170.7 396 97.5 271.9 131.4c-124.1 33.9-197.3 162-163.4 286.1 34 124.2 162.1 197.3 286.2 163.4z"/><path id="Fill-5_2_" class="st7" d="M441.8 557.4c83.5-44.9 130-136.8 117.3-230.2l-.8-6 125.2-17.1.8 6c19.5 143.5-50.7 284.7-177.5 355.6l-5.3 2.9-5.3 2.9c-60.7 31.4-128 44.1-194.8 37.9l-3.2-.3-1.6-2.8 10.6-62.8 5.3-60c44.5 4.2 89.2-4.6 129.3-26.1z"/><path id="Stroke-7_2_" class="st6" d="M441.8 557.4c83.5-44.9 130-136.8 117.3-230.2l-.8-6 125.2-17.1.8 6c19.5 143.5-50.7 284.7-177.5 355.6l-5.3 2.9-5.3 2.9c-60.7 31.4-128 44.1-194.8 37.9l-3.2-.3-1.6-2.8 10.6-62.8 5.3-60c44.5 4.2 89.2-4.6 129.3-26.1z"/><path id="Fill-9_4_" d="M-45.1 484.7c-7.9-18.3-15.1-55.1-15.1-55.1C-96.6 241.8 14.9 54.1 201-1.3l27.4-8.2 49 164.3L250 163C143.9 194.5 82.4 305.3 111.6 412.3c22.5 82.4 93.7 141.9 178.3 149.6l28.4 2.6-15.6 170.7-28.5-2.6C128.2 719.2 5.5 621.4-45.1 484.7" fill="#2d6fb0"/><path id="Stroke-11_4_" class="st6" d="M-60.1 429.7C-96.6 241.8 14.9 54.1 201-1.3l27.4-8.2 49 164.3L250 163C143.9 194.5 82.4 305.3 111.6 412.3c22.5 82.4 93.7 141.9 178.3 149.6l28.4 2.6-15.6 170.7-28.5-2.6C128.2 719.2 5.5 621.4-45.1 484.7c-7.9-18.3-15-55-15-55z"/></g></g></g><g id="XMLID_2250_" opacity=".5"><path id="XMLID_2266_" class="st10" d="M162.1 62.8L6.1 315c-3 20.3-4.4 40.9-4.1 61.7l213.3-345c-18.7 9-36.5 19.4-53.2 31.1z"/><path id="XMLID_2265_" class="st10" d="M297.4 2.5l-12.7 3.8L10.6 449.8c2.1 9.6 5.9 25.9 10.2 38.6l284.3-460-7.7-25.9z"/><path id="XMLID_2264_" class="st10" d="M297.5 182.7l100-161.8c-11.8.2-23.7 1-35.6 2.4l-120.5 195c16.3-14.6 35.1-26.7 56.1-35.6z"/><path id="XMLID_2263_" class="st10" d="M180.6 316.5l-137.9 223c5.1 9.8 10.5 19.4 16.3 28.7l114.7-185.5c-1.3-22.6 1.1-44.9 6.9-66.2z"/><path id="XMLID_2262_" class="st10" d="M414.4 135.5l65.5-105.9c-10.1-2.3-20.3-4.2-30.6-5.6l-69.4 112.3c11.5-1.1 23-1.4 34.5-.8z"/><path id="XMLID_2261_" class="st10" d="M188 446.5l-100.1 162c6.4 7.8 13.1 15.4 20.1 22.6L203.3 477c-5.9-9.7-11-19.9-15.3-30.5z"/><path id="XMLID_2260_" class="st10" d="M491.3 152.9L552 54.8c-8.8-4.2-17.8-8.1-27-11.5l-61.8 100c9.6 2.6 19 5.8 28.1 9.6z"/><path id="XMLID_2259_" class="st10" d="M233.3 515.1l-91.1 147.4c7.5 6.1 15.3 12 23.3 17.5l90-145.6c-7.8-5.9-15.2-12.4-22.2-19.3z"/><path id="XMLID_2258_" class="st10" d="M554.8 192.1L615.5 94c-7.7-5.9-15.6-11.6-23.7-16.8l-60.1 97.3c8 5.3 15.8 11.2 23.1 17.6z"/><path id="XMLID_2257_" class="st10" d="M294.9 557.4l-90.4 146.2c8.6 4.5 17.4 8.7 26.3 12.6l92-148.8c-9.6-2.7-18.9-6-27.9-10z"/><path id="XMLID_2256_" class="st10" d="M604.9 253l65.4-105.9c-6.4-7.8-13.2-15.3-20.2-22.4l-62.9 101.7c6.5 8.4 12.4 17.3 17.7 26.6z"/><path id="XMLID_2255_" class="st10" d="M385.6 595.8l1.8-19.2-15.7-1.4-96.8 156.7c9.7 2.8 19.6 5.2 29.6 7.2l88.3-142.8c-2.5-.2-4.8-.3-7.2-.5z"/><path id="XMLID_2254_" class="st10" d="M449.1 591.8L354 745.7l17.8 1.6 2.4-25.7c9.4.8 18.8 1.2 28.1 1.2l89.1-144.1c-13.8 5.8-28 10.2-42.3 13.1z"/><path id="XMLID_2253_" class="st10" d="M627 306.8c2.3 8.5 4.1 17.1 5.5 25.6l-5.2.7.8 6c.7 5.2 1.2 10.4 1.6 15.6L715 216.8c-4.9-10.1-10.2-19.9-16-29.3l-72.5 117.3c.2.7.4 1.4.5 2z"/><path id="XMLID_2252_" class="st10" d="M737.3 276.7c-.6-2.1-1.2-4.3-1.8-6.4l-277 448.2c13.3-2.1 26.4-5 39.4-8.6l246.9-399.4c-1.9-11.3-4.4-22.5-7.5-33.8z"/><path id="XMLID_2251_" class="st10" d="M756.5 378.4l-187.3 303 1.5-.8 5.3-2.9c18.3-10.2 35.4-21.9 51.2-34.9L748 447.4c5-22.5 7.9-45.6 8.5-69z"/></g><g id="Group_3_" transform="translate(69 12)"><path id="Fill-9_3_" d="M-45.1 484.7c-7.9-18.3-15.1-55.1-15.1-55.1C-96.6 241.8 14.9 54.1 201-1.3l27.4-8.2 49 164.3L250 163C143.9 194.5 82.4 305.3 111.6 412.3h0c22.5 82.4 93.7 141.9 178.3 149.6l28.4 2.6-15.6 170.7-28.5-2.6C128.2 719.2 5.5 621.4-45.1 484.7" fill="none" stroke="#3a434a" stroke-width="4" stroke-miterlimit="10"/><path id="Stroke-11_3_" class="st12" d="M-60.1 429.7C-96.6 241.8 14.9 54.1 201-1.3l27.4-8.2 49 164.3L250 163C143.9 194.5 82.4 305.3 111.6 412.3c22.5 82.4 93.7 141.9 178.3 149.6l28.4 2.6-15.6 170.7-28.5-2.6C128.2 719.2 5.5 621.4-45.1 484.7c-7.9-18.3-15-55-15-55z"/><path id="XMLID_2249_" class="st12" d="M558.3 321.1l.8 6c12.7 93.4-33.9 185.3-117.3 230.2-38.9 20.9-82.1 29.8-125.2 26.4l-11.5 125.8c65.6 5.5 131.6-7.4 191.2-38.2l5.3-2.9 5.3-2.9c126.7-71 197-212.1 177.5-355.6l-.8-6-125.3 17.2z"/><path id="XMLID_2248_" class="st12" d="M668.3 264.7C617.8 79.7 426.9-29.4 241.8 21.2c-1.3.4-2.7.7-4 1.1l32.7 109.6c.5-.1.9-.3 1.4-.4C396.1 97.6 524.2 170.7 558 294.8c2.3 8.5 4.1 17.1 5.5 25.6L676.8 305c-2-13.4-4.8-26.9-8.5-40.3z"/></g><g id="XMLID_1872_"><g id="XMLID_2215_"><path id="XMLID_2247_" d="M299.6 444.2h-47c-2 0-3.6-1.6-3.6-3.6v-9.4c0-2 1.6-3.6 3.6-3.6h47c2 0 3.6 1.6 3.6 3.6v9.4c0 2-1.6 3.6-3.6 3.6z" fill="#781b18"/><g id="XMLID_2242_"><path id="XMLID_2246_" class="st1" d="M275.6 419.5c-6.4 0-12.7-.4-18.9-1.2v25.9c0 10.4 8.4 18.9 18.9 18.9 10.4 0 18.9-8.4 18.9-18.9v-25.9c-6.2.8-12.5 1.2-18.9 1.2z"/><path id="XMLID_2243_" class="st2" d="M275.6 464.5c-11.2 0-20.3-9.1-20.3-20.3v-27.6l1.6.2c12.3 1.6 25 1.6 37.3 0l1.6-.2v27.6c.1 11.2-9 20.3-20.2 20.3zm-17.4-44.6v24.3c0 9.6 7.8 17.4 17.4 17.4s17.4-7.8 17.4-17.4v-24.3c-11.5 1.4-23.3 1.4-34.8 0z"/></g><path id="XMLID_2241_" class="st14" d="M224.2 443.7c-19.2 0-32.4 10.7-40.9 33.4L170 561.5l-1.2 30.8 213.4 3.5-13.3-118.6c-8.5-22.7-21.8-33.4-40.9-33.4h-24.6v-8.7c0-2.4-1.2-4.6-3-5.9-5.5 7.5-14.4 12.3-24.1 12.3-9.7 0-18.7-4.8-24.2-12.4-1.9 1.3-3.1 3.5-3.1 6v8.7h-24.8z"/><g id="XMLID_2218_"><path id="XMLID_2240_" class="st4" d="M298.1 456.9l7 2.9 7-2.9 7 2.9 7.1-2.9 7 2.9 7-2.9 7 2.9 7.1-2.9"/><path id="XMLID_2239_" class="st4" d="M198.3 456.9l7 2.9 7-2.9 7.1 2.9 7-2.9 7 2.9 7-2.9 7.1 2.9 7-2.9"/><g id="XMLID_2230_"><path id="XMLID_2238_" class="st1" d="M276 495.2L264.6 484l.1-12.1 11.3 11.3z"/><path id="XMLID_2237_" class="st1" d="M277.1 495.2l11.4-11.2-.1-12.1-11.3 11.3z"/><path id="XMLID_2236_" class="st1" d="M277.1 498.6l11.4 11.3-.1 12.1-11.3-11.3z"/><path id="XMLID_2235_" class="st1" d="M276 498.6l-11.4 11.3.1 12.1 11.3-11.3z"/><path id="XMLID_2234_" class="st1" d="M278.3 496.4l11.2-11.4 12.1.1-11.3 11.3z"/><path id="XMLID_2233_" class="st1" d="M278.3 497.5l11.2 11.4 12.1-.1-11.3-11.3z"/><path id="XMLID_2232_" class="st1" d="M274.9 497.5l-11.3 11.4-12.1-.1 11.3-11.3z"/><path id="XMLID_2231_" class="st1" d="M274.9 496.4L263.6 485l-12.1.1 11.3 11.3z"/></g><g id="XMLID_2220_"><path id="XMLID_2229_" class="st1" d="M331.2 495.2L319.9 484v-12.1l11.4 11.3z"/><path id="XMLID_2228_" class="st1" d="M332.4 495.2l11.3-11.2v-12.1l-11.3 11.3z"/><path id="XMLID_2226_" class="st1" d="M332.4 498.6l11.3 11.3V522l-11.3-11.3z"/><path id="XMLID_2225_" class="st1" d="M331.2 498.6l-11.3 11.3V522l11.4-11.3z"/><path id="XMLID_2224_" class="st1" d="M333.5 496.4l11.3-11.4 12 .1-11.3 11.3z"/><path id="XMLID_2223_" class="st1" d="M333.5 497.5l11.3 11.4 12-.1-11.3-11.3z"/><path id="XMLID_2222_" class="st1" d="M330.1 497.5l-11.3 11.4-12-.1 11.3-11.3z"/><path id="XMLID_2221_" class="st1" d="M330.1 496.4L318.8 485l-12 .1 11.3 11.3z"/></g><path id="XMLID_2219_" class="st15" d="M246.9 443.7v.2c3 13.6 15.3 23.5 29.2 23.5 14 0 26.3-9.9 29.3-23.6v-.1h-1.9c-2.9 12.7-14.3 21.9-27.3 21.9s-24.5-9.2-27.3-21.9h-2z"/></g></g><g id="XMLID_2213_"><path id="XMLID_2214_" d="M393.4 310.1c-6.9-12.9-13-26.2-17-40.2-9.4-32.4-34.5-55.6-63.9-55.6-4.5 0-9 .6-13.3 1.6-12-4.9-25.2-7.6-39-7.6-48.6 0-89.3 33.5-100.4 78.7-2.4 9.9-5.6 19.6-9.6 29-4.2 9.6-6.5 20.2-6.5 31.3 0 43.6 35.4 79 79 79 3.9 0 7.8-.3 11.5-.8 10.4-2.1 17.2-4.5 21.1-7.2-47.4-6.7-83.2-37.4-83.2-87.5v-.4-.4c0-.8.1-1.5.1-2.3 0-.8 0-1.7.1-2.5 0-.7.1-1.4.2-2.1.1-1.1.2-2.1.3-3.2 0-.3.1-.5.1-.8 5-43.9 37.4-79.4 79.7-89 .2 0 .3-.1.5-.1 1.3-.3 2.6-.6 4-.8.5-.1.9-.2 1.4-.2 1.1-.2 2.2-.3 3.3-.5l2.1-.3c.9-.1 1.9-.2 2.8-.3.8-.1 1.7-.1 2.5-.2.9-.1 1.7-.1 2.6-.1.5 0 1-.1 1.4-.1h4c.9 0 1.8 0 2.6.1.9 0 1.8.1 2.7.1.9.1 1.7.1 2.6.2l2.7.3c.9.1 1.7.2 2.5.3.9.1 1.8.3 2.6.4.8.1 1.7.3 2.5.4.9.2 1.7.4 2.6.5.8.2 1.6.4 2.5.6.9.2 1.7.4 2.5.7.8.2 1.6.4 2.4.7.8.3 1.7.5 2.5.8.8.3 1.6.5 2.4.8l2.4.9c.8.3 1.5.6 2.3.9.8.3 1.6.7 2.4 1 .8.3 1.5.7 2.3 1 .8.4 1.6.8 2.3 1.1.7.4 1.5.7 2.2 1.1.8.4 1.5.8 2.3 1.3l2.1 1.2c.7.4 1.5.9 2.2 1.4.7.4 1.4.9 2.1 1.3l2.1 1.5c.7.5 1.3.9 2 1.4.7.5 1.4 1 2 1.6.6.5 1.3 1 1.9 1.5.7.5 1.3 1.1 2 1.7.6.5 1.2 1 1.8 1.6.6.6 1.3 1.2 1.9 1.8.6.6 1.2 1.1 1.7 1.7l1.8 1.8c.6.6 1.1 1.2 1.7 1.7.6.6 1.1 1.3 1.7 1.9.5.6 1.1 1.2 1.6 1.8.6.7 1.1 1.3 1.6 2 .5.6 1 1.3 1.5 1.9l1.5 2.1c.5.7.9 1.3 1.4 2 .5.7 1 1.5 1.4 2.2.4.7.9 1.3 1.3 2 .5.7.9 1.5 1.3 2.3l1.2 2.1 1.2 2.4c.4.7.7 1.4 1.1 2.1.4.8.7 1.6 1.1 2.4.3.7.7 1.4 1 2.2.4.8.7 1.7 1 2.5.3.7.6 1.5.9 2.2.3.9.6 1.7.9 2.6.3.7.5 1.5.8 2.2.3.9.5 1.8.8 2.7.2.8.4 1.5.6 2.3.2.9.4 1.9.7 2.8.2.8.4 1.5.5 2.2.2 1 .4 1.9.5 2.9.1.7.3 1.5.4 2.2.2 1 .3 2.1.4 3.1l.3 2.1c.1 1.2.2 2.3.3 3.5 0 .6.1 1.2.1 1.8.1 1.8.1 3.6.1 5.4 0 49.9-35.3 80.5-82.4 87.4 7.5 6.6 22.4 8.2 27 8.2h0c43.6 0 79-35.4 79-79 0-13.6-3.3-26.3-9.2-37.3z" fill="#2ab598" stroke="#3a434a" stroke-width="2" stroke-miterlimit="10"/></g><g id="XMLID_2192_"><path id="XMLID_2212_" class="st1" d="M379 330.6c0 57.1-46.3 88.9-103.4 88.9s-103.4-31.8-103.4-88.9 46.3-103.4 103.4-103.4S379 273.5 379 330.6z"/><path id="XMLID_2193_" class="st2" d="M275.6 421c-29.1 0-55.3-8.3-74-23.4-20.2-16.3-30.8-39.4-30.8-67 0-57.8 47-104.9 104.9-104.9s104.9 47 104.9 104.9c0 27.6-10.7 50.7-30.8 67-18.9 15.1-45.2 23.4-74.2 23.4zm0-192.4c-56.2 0-101.9 45.7-101.9 101.9 0 26.7 10.3 49.1 29.7 64.8 18.2 14.7 43.8 22.7 72.2 22.7 28.4 0 54-8.1 72.2-22.7 19.5-15.7 29.7-38.1 29.7-64.8 0-56.1-45.7-101.9-101.9-101.9z"/></g><g id="XMLID_2190_"><ellipse id="XMLID_2191_" class="st18" cx="316.6" cy="353.3" rx="8.4" ry="9.4"/></g><g id="XMLID_2188_"><path id="XMLID_2189_" class="st18" d="M282.3 222.1c5.1 57.5 46.8 104.5 101.6 117.5.2-3 .4-6 .4-9 0-57.8-45.1-105-102-108.5z"/></g><g id="XMLID_2186_"><path id="XMLID_2187_" class="st18" d="M325 233.7c-14.3-6.9-31.2-11.7-48.1-11.7-60 0-108.6 49.5-108.6 109.5 0 2.8.1 5.5.3 8.2 8.1 1.5 16.4 2.3 24.9 2.3 65.1.1 120.1-46.5 131.5-108.3z"/></g><g id="XMLID_2184_"><ellipse id="XMLID_2185_" class="st2" cx="318.1" cy="356.2" rx="4.4" ry="4.9"/></g><g id="XMLID_2171_"><g id="XMLID_2175_"><g id="XMLID_2180_"><path id="XMLID_2181_" class="st7" d="M228.2 385.8c-18.6 0-33.8-15.2-33.8-33.8 0-18.6 15.2-33.8 33.8-33.8 18.6 0 33.8 15.2 33.8 33.8 0 18.6-15.1 33.8-33.8 33.8zm0-64.7c-17 0-30.9 13.9-30.9 30.9s13.9 30.9 30.9 30.9 30.9-13.9 30.9-30.9-13.8-30.9-30.9-30.9z"/></g><g id="XMLID_2176_"><path id="XMLID_2177_" class="st7" d="M322.9 385.8c-18.6 0-33.8-15.2-33.8-33.8 0-18.6 15.2-33.8 33.8-33.8 18.6 0 33.8 15.2 33.8 33.8 0 18.6-15.2 33.8-33.8 33.8zm0-64.7c-17 0-30.9 13.9-30.9 30.9s13.9 30.9 30.9 30.9 30.9-13.9 30.9-30.9-13.9-30.9-30.9-30.9z"/></g></g><g id="XMLID_2172_"><path id="XMLID_2173_" class="st7" d="M260.6 350.6H290v2.9h-29.4z"/></g></g><g id="XMLID_2169_"><path id="XMLID_2170_" class="st2" d="M273.2 371.4v-2.9c2.8 0 5.1-2.3 5.1-5.1s-2.3-5.1-5.1-5.1v-2.9c4.4 0 8 3.6 8 8s-3.6 8-8 8z"/></g><g id="XMLID_2167_"><ellipse id="XMLID_2168_" transform="rotate(-30.93 324.407 352.186)" class="st1" cx="324.4" cy="352.2" rx="5.5" ry="2.2"/></g><g id="XMLID_2165_"><ellipse id="XMLID_2166_" class="st18" cx="232" cy="353.3" rx="8.4" ry="9.4"/></g><g id="XMLID_2163_"><ellipse id="XMLID_2164_" class="st2" cx="233.5" cy="356.2" rx="4.4" ry="4.9"/></g><g id="XMLID_2161_"><ellipse id="XMLID_2162_" transform="rotate(-30.93 239.809 352.188)" class="st1" cx="239.8" cy="352.2" rx="5.5" ry="2.2"/></g><g id="XMLID_2158_"><g id="XMLID_2159_"><path id="XMLID_2160_" class="st2" d="M275.5 388.8c-6 0-11.2-3.1-13.3-8l2.7-1.1c2 4.7 7.2 6.3 11.1 6.2 3.7-.1 8.2-1.8 9.7-6.1l2.7 1c-1.7 4.8-6.4 7.9-12.3 8h-.6z"/></g></g><g id="XMLID_2156_"><path id="XMLID_2157_" class="st2" d="M194.5 330.6v-2.9c27.6 0 54.5-9.7 75.8-27.4 21.1-17.5 35.4-41.8 40.3-68.3l2.9.5c-5 27.2-19.7 52-41.3 70-21.8 18.1-49.4 28.1-77.7 28.1z"/></g><g id="XMLID_2152_"><path id="XMLID_2153_" class="st2" d="M194.5 321.3v-2.9c25 0 49.3-8.8 68.4-24.8 19-15.8 31.9-37.7 36.4-61.7l2.9.5c-4.6 24.6-17.8 47.1-37.4 63.4-19.7 16.5-44.7 25.5-70.3 25.5z"/></g><g id="XMLID_2150_"><path id="XMLID_2151_" class="st2" d="M384.5 335.2c-37.1-8.8-68.1-33.5-85.1-67.7l2.6-1.3c16.6 33.5 46.9 57.6 83.1 66.2l-.6 2.8z"/></g><g id="XMLID_2147_"><g id="XMLID_2148_"><path id="XMLID_2149_" class="st2" d="M216.2 344.3c-1.5-1.9-1-4.7 1.1-5.9 5.4-3 15.9-7.4 27.7-3.8 1.2.4 1.9 1.7 1.4 2.9-.4 1.1-1.6 1.6-2.6 1.3-14.5-4.4-27.4 5.4-27.6 5.5z"/></g></g><g id="XMLID_2144_"><g id="XMLID_2145_"><path id="XMLID_2146_" class="st2" d="M335.8 338.7c1.5-1.9.9-4.7-1.2-5.9-5.4-3-16-7.1-27.7-3.4-1.2.4-1.8 1.7-1.4 2.9.4 1 1.6 1.6 2.6 1.3 14.5-4.6 27.6 5 27.7 5.1z"/></g></g><g id="XMLID_2139_"><path id="XMLID_2143_" class="st7" d="M273.6 141.7h-8.3c-8 0-15.4 4.2-19.5 11l-8.4 13.8 15.1-5.9c3.1-1.2 6.5-.6 9 1.6 2.7 2.4 3.6 6.3 2.2 9.6l-19.9 50.1h77.7l-26.9-66c-3.4-8.6-11.8-14.2-21-14.2z"/><circle id="XMLID_2142_" class="st19" cx="237.4" cy="166.4" r="12.5"/><circle id="XMLID_2141_" class="st1" cx="232.5" cy="160.8" r="1.9"/><path id="XMLID_2140_" class="st3" d="M320.2 232.7h-75.8c-3.3 0-5.9-2.7-5.9-5.9v-26.1c0-.7.8-1 1.3-.6l12.8 11.3c.3.3.7.3 1 0l13.6-12c.3-.3.7-.3 1 0l13.6 12c.3.3.7.3 1 0l13.6-12c.3-.3.7-.3 1 0l13.6 12c.3.3.7.3 1 0l12.8-11.3c.5-.4 1.3-.1 1.3.6v26.1c.1 3.2-2.6 5.9-5.9 5.9z"/></g><path id="XMLID_2138_" class="st14" d="M191.1 461.6l-53.6 87.7c-5.4 7.7-6.6 17.5-3.4 26.3 4.1 11.2 14.8 18.7 26.8 18.7l136.5 5.7c4.8 0 8.6-4.2 8-9l-4.6-40.3c-.5-4.3-4.2-7.4-8.5-7.1"/><g id="XMLID_1885_"><g id="XMLID_1891_"><g id="XMLID_2133_"><path id="XMLID_2137_" class="st1" d="M180.6 588.7l201.2-23.9 91.8 17.6-201.1 23.9z"/><path id="XMLID_2134_" class="st15" d="M272.2 607.5l-91.8-17.7c-.6-.1-1-.6-1-1.2s.5-1.1 1.1-1.2l201.1-23.9h.4l91.8 17.7c.6.1 1 .6 1 1.2s-.5 1.1-1.1 1.2l-201.1 23.9h-.4zM381.7 566l-193.2 22.9 84 16.2 193.2-22.9-84-16.2z"/></g><g id="XMLID_2128_"><path id="XMLID_2132_" class="st5" d="M473.6 582.4L270 606.6l27.3-125.1c1-4.7 5-8.3 9.8-8.9l184.4-21.9c5.4-.6 9.9 4.3 8.7 9.6l-26.6 122.1z"/><path id="XMLID_2129_" class="st15" d="M296.2 481.3c1.1-5.2 5.5-9.2 10.8-9.8l184.4-21.9c3-.4 5.9.7 7.9 2.9s2.8 5.2 2.2 8.1l-26.9 122.9-204.4 24.3-1.7.2 27.7-126.7zm202.9-21.2c.5-2.2-.1-4.4-1.6-6-1.5-1.6-3.6-2.4-5.8-2.2l-184.4 21.9c-4.3.5-7.8 3.7-8.8 7.9l-27 123.4 201.1-23.9 26.5-121.1z"/></g><g id="XMLID_2000_"><path id="XMLID_2004_" class="st20" d="M180.6 588.7l89.4 17.9.8 6.3-89.4-17.9z"/><path id="XMLID_2001_" class="st15" d="M270.5 614.1l-89.4-18c-.5-.1-.9-.5-1-1l-.8-6.3c0-.4.1-.8.4-1 .3-.3.7-.4 1.1-.3l89.4 18c.5.1.9.5 1 1l.8 6.3c0 .4-.1.8-.4 1-.2.2-.5.3-.8.3h-.3zM182 590.2l.5 3.8 86.9 17.5-.5-3.8-86.9-17.5z"/></g><g id="XMLID_1892_"><path id="XMLID_1999_" transform="rotate(-6.771 372.086 597.565)" class="st20" d="M269.7 594.5h205v6.4h-205z"/><path id="XMLID_1893_" class="st15" d="M269.6 613.1l-.8-6.3c0-.3.1-.6.3-.9s.5-.4.8-.5l203.6-24.2c.7-.1 1.3.4 1.3 1.1l.8 6.3c0 .3-.1.6-.3.9-.2.3-.5.4-.8.5l-203.6 24.2h-.1c-.6-.1-1.2-.5-1.2-1.1zm202.9-29.3l-201.2 23.9.5 3.9L473 587.7l-.5-3.9z"/></g></g><g id="XMLID_1886_"><path id="XMLID_1890_" class="st18" d="M372.2 535.6l14.7-21.9-5.3.4 10.8-16.1 10.2 14.5-5.3.4 13.8 19.5-9.7.8 9.4 13.4-15.3 1.3-.1 8.6-8.3.7.2-8.7-15.3 1.2 10-14.9z"/><path id="XMLID_1887_" class="st15" d="M387.1 558.3c-.3 0-.5-.1-.7-.3-.2-.2-.4-.5-.4-.8l.1-7.4-14.1 1.1c-.4 0-.8-.2-1-.5-.2-.4-.2-.8 0-1.2l8.7-13-7.4.6c-.4 0-.8-.2-1-.5-.2-.4-.2-.8 0-1.2l13.3-19.9-2.9.2c-.4 0-.8-.2-1-.5-.2-.4-.2-.8 0-1.2l10.8-16.1c.2-.3.5-.5.9-.5s.7.2.9.5l10.2 14.4c.2.3.3.8.1 1.1-.2.4-.5.6-.9.6l-3.3.3 12.7 18c.2.3.3.8.1 1.1-.2.4-.5.6-.9.6l-7.8.6 8.3 11.8c.2.3.3.8.1 1.1-.2.4-.5.6-.9.6l-14.3 1.1-.2 7.7c0 .6-.5 1-1 1.1l-8.3.7-.1-.1zm.2-10.9c.3 0 .5.1.7.3.2.2.4.5.4.8l-.1 7.4 6-.5.2-7.7c0-.6.5-1 1-1.1l13.4-1.1-8.3-11.8c-.2-.3-.3-.8-.1-1.1.2-.4.5-.6.9-.6l7.8-.6-12.7-18c-.2-.3-.3-.8-.1-1.1.2-.4.5-.6.9-.6l3.3-.3-8.1-11.5-8.6 12.9 2.9-.2c.4 0 .8.2 1 .5.2.4.2.8 0 1.2l-13.3 19.9 7.4-.6c.4 0 .8.2 1 .5.2.4.2.8 0 1.2l-8.7 13 13-1c0 .1 0 .1.1.1z"/></g></g><path id="XMLID_1884_" class="st21" d="M179.4 552.7l18.9-19.4 3.6 4.2-7.4 15.2"/><path id="XMLID_1883_" class="st21" d="M283.9 543l-82-5.5"/><path id="XMLID_1882_" class="st21" d="M200.3 535.6l5-8"/><g id="XMLID_1873_"><path id="XMLID_1881_" class="st1" d="M220.7 495.2L209.4 484v-12.1l11.4 11.3z"/><path id="XMLID_1880_" class="st1" d="M221.9 495.2l11.3-11.2v-12.1l-11.3 11.3z"/><path id="XMLID_1879_" class="st1" d="M221.9 498.6l11.3 11.3V522l-11.3-11.3z"/><path id="XMLID_1878_" class="st1" d="M220.7 498.6l-11.3 11.3V522l11.4-11.3z"/><path id="XMLID_1877_" class="st1" d="M223 496.4l11.3-11.4 12 .1-11.2 11.3z"/><path id="XMLID_1876_" class="st1" d="M223 497.5l11.3 11.4 12-.1-11.2-11.3z"/><path id="XMLID_1875_" class="st1" d="M219.6 497.5l-11.3 11.4-12-.1 11.3-11.3z"/><path id="XMLID_1874_" class="st1" d="M219.6 496.4L208.3 485l-12 .1 11.3 11.3z"/></g></g><g id="XMLID_1289_"><g id="XMLID_1626_"><path id="XMLID_1871_" class="st1" d="M416.6 240.8c0-50.7 41.1-91.8 91.8-91.8s91.8 41.1 91.8 91.8v25.7c0 50.7-41.1 91.8-91.8 91.8s-91.8-41.1-91.8-91.8v-25.7z"/><path id="XMLID_1627_" class="st2" d="M508.3 359.9c-51.5 0-93.4-41.9-93.4-93.4v-25.7c0-51.5 41.9-93.4 93.4-93.4s93.4 41.9 93.4 93.4v25.7c0 51.5-41.9 93.4-93.4 93.4zm0-209.3c-49.7 0-90.2 40.5-90.2 90.2v25.7c0 49.7 40.5 90.2 90.2 90.2s90.2-40.5 90.2-90.2v-25.7c.1-49.7-40.4-90.2-90.2-90.2z"/></g><g id="XMLID_1624_"><circle id="XMLID_1625_" class="st18" cx="466.8" cy="257.5" r="9.6"/></g><g id="XMLID_1622_"><circle id="XMLID_1623_" class="st2" cx="465.4" cy="258.7" r="4.5"/></g><path id="XMLID_1621_" d="M624.7 158.8v-2.2s-27.3 0-37.7.1c12.9-9 17.8-23.4 17.8-34.8H484.4c-13.7 0-24.9 11.1-24.9 24.9v-20.4c-29.4 0-53.3 24-53.3 53.5 0 7.6 1.7 15.5 5 22.6-3.6 9.4-5.8 19.4-6.5 29.8 3.5-3 8-4.9 12.9-5-.2 1.2-.3 2.5-.5 3.7.7-6.1 1.9-11.9 3.7-17.6l8.3-3.2c11.9-4.5 22.5-11.9 30.8-21.5 0 7.8 6.4 14.2 14.2 14.2h103.4c4.6 0 9.1-.7 13.4-1.9 4.5 9.2 7.4 19.3 8.6 30-.1-1.2-.3-2.5-.5-3.7 5 .3 9.5 2.4 12.9 5.6-.8-13.2-4.1-25.7-9.4-37.1 12.8-7.8 21.5-21.3 22.2-37z" fill="#f59d1f" stroke="#3a434a" stroke-width="2" stroke-miterlimit="10"/><g id="XMLID_1619_"><path id="XMLID_1620_" class="st2" d="M480.1 235.3l-37.2-.5c.1-5.7 4.7-10.2 10.4-10.1l26.9.3c2.8 0 5.1 2.4 5.1 5.2 0 2.9-2.3 5.1-5.2 5.1z"/></g><g id="XMLID_1617_"><path id="XMLID_1618_" class="st7" d="M495 256.1h26.3v3.1H495z"/></g><g id="XMLID_1615_"><path id="XMLID_1616_" class="st1" d="M464.6 258.7l-6-9.6-3.3 7z"/></g><g id="XMLID_1613_"><circle id="XMLID_1614_" class="st18" cx="548.6" cy="257.5" r="9.6"/></g><g id="XMLID_1611_"><circle id="XMLID_1612_" class="st2" cx="547.2" cy="258.7" r="4.5"/></g><g id="XMLID_1609_"><path id="XMLID_1610_" class="st2" d="M534.8 235.1l37.2-.1c0-5.7-4.6-10.3-10.3-10.2l-26.9.1c-2.8 0-5.1 2.3-5.1 5.1 0 2.9 2.3 5.1 5.1 5.1z"/></g><g id="XMLID_1607_"><path id="XMLID_1608_" class="st1" d="M546.4 258.7l-6-9.6-3.2 7z"/></g><g id="XMLID_1605_"><path id="XMLID_1606_" class="st2" d="M511.1 286.9c-7 0-12.8-5.7-12.8-12.8 0-7 5.7-12.8 12.8-12.8v3.1c-5.3 0-9.6 4.3-9.6 9.6s4.3 9.6 9.6 9.6v3.3z"/></g><path id="XMLID_1604_" class="st23" d="M416 266.5v-25.7c0-5.5.5-10.9 1.4-16.1l-15-10.7c-2.4-1.7-5.7.3-5.3 3.2l3.8 30.7c0 9.5 6.4 17.5 15.2 20 0-.5-.1-.9-.1-1.4z"/><g id="XMLID_1601_"><path id="XMLID_1603_" class="st2" d="M466.1 173.6H463v-7.1c0-10.3 8.4-18.7 18.7-18.7h95.9v3.1h-95.9c-7.2 0-13.3 4.9-15 11.5 3.4-4.6 8.9-7.6 15-7.6H564v3.1h-82.3c-8.7.1-15.6 7.1-15.6 15.7z"/></g><g id="XMLID_1599_"><path id="XMLID_1600_" class="st2" d="M562.6 171.1h47.8v3.1h-47.8z"/></g><g id="XMLID_1597_"><path id="XMLID_1598_" class="st2" d="M580.7 209.5h-46.5v-3.1h46.5c6.7 0 13.5-1.6 19.5-4.5l1.4 2.8c-6.5 3.1-13.7 4.8-20.9 4.8z"/></g><g id="XMLID_1595_"><path id="XMLID_1596_" class="st2" d="M414 252.1c-.6-.2-1-.8-1-1.4 0-.1-.2-2.7-2.5-3.7-.8-.4-1.1-1.3-.8-2.1.4-.8 1.3-1.1 2.1-.8.5.2.9.5 1.3.8l-.3-.6c-1.2-2-3.4-2.6-3.5-2.6-.8-.2-1.4-1-1.2-1.9.2-.8 1-1.4 1.9-1.2.1 0 3.6.8 5.5 4 1.3 2.3 1.5 5.1.5 8.3-.2.7-.9 1.2-1.7 1.1-.1.1-.2.1-.3.1z"/></g><g id="XMLID_1586_"><g id="XMLID_1591_"><path id="XMLID_1592_" class="st7" d="M466.1 288.2c-16.8 0-30.5-13.7-30.5-30.5s13.7-30.5 30.5-30.5 30.5 13.7 30.5 30.5c-.1 16.8-13.7 30.5-30.5 30.5zm0-57.8c-15.1 0-27.3 12.3-27.3 27.3 0 15.1 12.3 27.3 27.3 27.3s27.3-12.3 27.3-27.3c0-15.1-12.3-27.3-27.3-27.3z"/></g><g id="XMLID_1587_"><path id="XMLID_1588_" class="st7" d="M550.6 288.2c-16.8 0-30.5-13.7-30.5-30.5s13.7-30.5 30.5-30.5 30.5 13.7 30.5 30.5-13.7 30.5-30.5 30.5zm0-57.8c-15.1 0-27.3 12.3-27.3 27.3 0 15.1 12.3 27.3 27.3 27.3s27.3-12.3 27.3-27.3c.1-15.1-12.2-27.3-27.3-27.3z"/></g></g><g id="XMLID_1582_"><path id="XMLID_1585_" class="st23" d="M600.3 266.5v-25.7c0-5.5-.5-10.9-1.4-16.1L614 214c2.4-1.7 5.7.3 5.3 3.2l-3.8 30.7c0 9.5-6.4 17.5-15.2 20v-1.4z"/><g id="XMLID_1583_"><path id="XMLID_1584_" class="st2" d="M602.9 252.1c.6-.2 1-.8 1-1.4 0-.1.2-2.7 2.5-3.7.8-.4 1.1-1.3.8-2.1-.4-.8-1.3-1.1-2.1-.8-.5.2-.9.5-1.3.8l.3-.6c1.2-2 3.4-2.6 3.5-2.6.8-.2 1.4-1 1.2-1.9-.2-.8-1-1.4-1.9-1.2-.1 0-3.6.8-5.5 4-1.3 2.3-1.5 5.1-.5 8.3.2.7.9 1.2 1.7 1.1.1.1.2.1.3.1z"/></g></g><path id="XMLID_1581_" class="st2" d="M526.3 298.7l-2.3-2.1c-3.5 3.9-8.2 6.2-13.3 6.7-5.1-.4-9.8-2.7-13.3-6.7l-2.3 2.1c4.1 4.6 9.7 7.3 15.6 7.7h.2c5.7-.4 11.3-3.1 15.4-7.7z"/><g id="XMLID_1576_"><path id="XMLID_1580_" class="st7" d="M503.6 48.8h-8.7c-8.3 0-15.9 4.3-20.2 11.4L466 74.5l15.7-6.1c3.2-1.2 6.8-.6 9.3 1.7 2.8 2.5 3.7 6.5 2.3 10l-20.6 52h80.6l-27.9-68.5c-3.5-9-12.2-14.8-21.8-14.8z"/><circle id="XMLID_1579_" class="st19" cx="466" cy="74.5" r="12.9"/><circle id="XMLID_1578_" class="st1" cx="461" cy="68.6" r="2"/><path id="XMLID_1577_" class="st3" d="M552 143.2h-78.6c-3.4 0-6.2-2.8-6.2-6.2v-27c0-.7.8-1.1 1.3-.6l13.3 11.8c.3.3.8.3 1.1 0l14.1-12.5c.3-.3.8-.3 1.1 0l14.1 12.5c.3.3.8.3 1.1 0l14.1-12.5c.3-.3.8-.3 1.1 0l14.1 12.5c.3.3.8.3 1.1 0l13.3-11.8c.5-.5 1.3-.1 1.3.6v27c-.2 3.4-2.9 6.2-6.3 6.2z"/></g></g></svg>