<svg  viewBox="0 0 753 744" xmlns="http://www.w3.org/2000/svg"><g fill="none" fill-rule="evenodd"><g fill-rule="nonzero"><path d="M550.4 392.8h-89c-2 0-3.6-1.6-3.6-3.6v-33.1c0-2 1.6-3.6 3.6-3.6h89c2 0 3.6 1.6 3.6 3.6v33.1c0 2-1.6 3.6-3.6 3.6z" fill="#086936"/><path d="M505.4 355.9c-15.5 0-30-4.1-42.5-11.3v31.7c2.2 21.6 20.4 38.4 42.5 38.4s40.3-16.8 42.5-38.4v-31.7c-12.5 7.2-27 11.3-42.5 11.3z" fill="#FFF"/><path d="M505.4 416.1c-22.8 0-41.7-17.1-44-39.7v-34.3l2.2 1.2c12.7 7.3 27.1 11.1 41.8 11.1 14.7 0 29.1-3.9 41.8-11.1l2.2-1.2v34.4c-2.3 22.6-21.2 39.6-44 39.6zm-41.1-39.9c2.2 21.1 19.8 37 41.1 37s38.9-15.9 41.1-37V347c-12.6 6.8-26.7 10.3-41.1 10.3-14.3 0-28.5-3.6-41.1-10.3v29.2z" fill="#39444A"/><path d="M452.2 364.1l.1.1h-48.4c-37.7 0-63.7 21.1-80.5 65.8l-26.2 165.9-2.7 1.5 356-1.5 38-165.9c-16.8-44.7-42.8-65.8-80.5-65.8h-48.4v3.5c0-4.8-2.3-9-5.9-11.6-10.9 14.8-28.3 24.2-47.5 24.2s-36.7-9.5-47.5-24.3c-3.7 2.6-6.1 6.9-6.1 11.8v-3.5l-.4-.2z" fill="#088844"/><path d="M294.4 598.8c-.7 0-1.3-.5-1.4-1.1-.2-.7.1-1.3.7-1.7l2.1-1.2 26.1-165.2c0-.1 0-.2.1-.3 8.6-22.8 19.3-39.2 32.9-50.3 13.6-11.1 29.6-16.5 49-16.5h47.9c1.1-3.2 3.1-6 5.9-8 .7-.5 1.6-.3 2.1.3 10.9 14.8 28.2 23.7 46.3 23.7 18.1 0 35.4-8.8 46.3-23.6.2-.3.6-.5 1-.6.4-.1.8 0 1.1.3 2.7 2 4.7 4.7 5.7 7.8h47.7c19.4 0 35.5 5.4 49 16.5s24.3 27.5 32.9 50.3c.1.3.1.6.1.9l-38 165.9c-.2.7-.8 1.2-1.4 1.2l-356.1 1.6zm30.4-168.5l-26.2 165.5 350.6-1.5L686.9 430c-16.6-43.9-41.7-64.4-79-64.4H561v2c0 .8-.7 1.5-1.5 1.5s-1.5-.7-1.5-1.5c0-3.6-1.5-7-4.2-9.5-11.5 14.8-29.2 23.5-47.7 23.5-18.6 0-36.3-8.8-47.8-23.7-2.7 2.5-4.3 6-4.3 9.6 0 .8-.7 1.5-1.5 1.5s-1.5-.7-1.5-1.5v-2h-47.1c-37.3.1-62.5 20.6-79.1 64.8z" fill="#3B434B"/><g><path fill="#FFF" d="M590.6 396.3l-13.8-5.9-13.8 5.9-14.1-5.9.4-1 13.7 5.8 13.8-5.8 13.8 5.8 13.8-5.8 13.8 5.8 13.8-5.8 13.9 5.8 13.6-5.8.4 1-14 5.9-13.9-5.9-13.8 5.9-13.8-5.9zM394.3 396.3l-13.8-5.9-13.8 5.9-14-5.9.4-1 13.6 5.8 13.8-5.8 13.8 5.8 13.8-5.8 13.8 5.8 13.9-5.8 13.8 5.8 13.6-5.8.4 1-14 5.9-13.8-5.9-13.9 5.9-13.8-5.9z"/><g fill="#FFF"><path d="M505.7 465.4l-22.3-22.2v-23.7l22.3 22.2zM508 465.4l22.2-22.2v-23.7l-22.3 22.2zM508 472.1l22.2 22.2V518l-22.3-22.2zM505.7 472.1l-22.3 22.2V518l22.3-22.2zM510.1 467.6l22.3-22.3 23.6.1-22.2 22.3zM510.1 469.9l22.3 22.3 23.6-.1-22.2-22.3zM503.5 469.9l-22.2 22.3-23.7-.1 22.2-22.3zM503.5 467.6l-22.2-22.3-23.7.1 22.2 22.3z"/></g><g fill="#FFF"><path d="M614.3 465.4l-22.2-22.2v-23.7l22.3 22.2zM616.6 465.4l22.3-22.2v-23.7l-22.3 22.2zM616.6 472.1l22.3 22.2V518l-22.3-22.2zM614.3 472.1l-22.2 22.2V518l22.3-22.2zM618.8 467.6l22.3-22.3 23.6.1-22.2 22.3zM618.8 469.9l22.3 22.3 23.6-.1-22.2-22.3zM612.2 469.9l-22.3 22.3-23.6-.1 22.2-22.3zM612.2 467.6l-22.3-22.3-23.6.1 22.2 22.3z"/></g><g fill="#FFF"><path d="M397 465.4l-22.3-22.2.1-23.7 22.3 22.2zM399.3 465.4l22.3-22.2-.1-23.7-22.3 22.2zM399.3 472.1l22.3 22.2-.1 23.7-22.3-22.2zM397 472.1l-22.3 22.2.1 23.7 22.3-22.2zM401.5 467.6l22.2-22.3 23.7.1-22.2 22.3zM401.5 469.9l22.2 22.3 23.7-.1-22.2-22.3zM394.8 469.9l-22.2 22.3-23.7-.1 22.2-22.3zM394.8 467.6l-22.2-22.3-23.7.1 22.2 22.3z"/></g><path d="M450.5 367.8c0 .1 0 .3.1.4 5.6 25.9 29 44.7 55.5 44.7 26.6 0 49.9-18.9 55.5-44.9v-.2h-3.7c-5.4 24.1-27.1 41.5-51.8 41.5-24.7 0-46.4-17.4-51.9-41.5h-3.7z" fill="#086936"/></g></g><path d="M67.2 456.4C17 272.8 125.2 83.3 308.8 33.2c183.7-50.2 373.1 58 423.3 241.6C782.2 458.4 674 647.9 490.4 698c-183.6 50.2-373.1-58-423.2-241.6m109.4-29.9c33.6 123.2 160.7 195.7 283.9 162.1C583.7 555 656.3 427.9 622.6 304.7 589 181.6 461.9 109 338.7 142.6 215.6 176.3 143 303.4 176.6 426.5" fill="#F49B23" fill-rule="nonzero"/><path d="M308.8 33.2c183.7-50.2 373.1 58 423.3 241.6C782.2 458.4 674 647.9 490.4 698c-183.6 50.2-373.1-58-423.2-241.6C17 272.8 125.2 83.3 308.8 33.2zm151.7 555.4C583.7 555 656.3 427.9 622.6 304.7 589 181.6 461.9 109 338.7 142.6 215.6 176.3 143 303.4 176.6 426.5c33.7 123.2 160.8 195.8 283.9 162.1z"/><path d="M507.3 565.2c82.8-44.6 129-135.8 116.4-228.4l-.8-6 124.2-17 .8 6c19.4 142.4-50.4 282.5-176.1 352.9l-5.3 2.8-5.3 2.8c-60.3 31.1-127 43.8-193.3 37.6l-3.2-.3-1.5-2.8 10.5-62.3 5.2-59.5c44.2 4.4 88.6-4.3 128.4-25.8z" fill="#CA2128" fill-rule="nonzero"/><path d="M507.3 565.2c82.8-44.6 129-135.8 116.4-228.4l-.8-6 124.2-17 .8 6c19.4 142.4-50.4 282.5-176.1 352.9l-5.3 2.8-5.3 2.8c-60.3 31.1-127 43.8-193.3 37.6l-3.2-.3-1.5-2.8 10.5-62.3 5.2-59.5c44.2 4.4 88.6-4.3 128.4-25.8z"/><path d="M24.2 493.2C16.3 475 9.3 438.6 9.3 438.6-27 252.1 83.7 65.9 268.3 10.8l27.2-8.1 48.6 163-27.2 8.1c-105.2 31.4-166.2 141.3-137.3 247.5 22.3 81.8 93 140.8 176.9 148.5l28.2 2.6-15.5 169.4-28.3-2.6c-144.8-13.3-266.5-110.4-316.7-246" fill="#2D6FB0" fill-rule="nonzero"/><path d="M9.2 438.5C-27 252.1 83.7 65.9 268.3 10.8l27.2-8.1 48.6 163-27.2 8.1c-105.2 31.4-166.2 141.3-137.3 247.5 22.3 81.8 93 140.8 176.9 148.5l28.2 2.6-15.5 169.4-28.3-2.6c-144.8-13.3-266.5-110.4-316.7-246-7.9-18.2-15-54.7-15-54.7z"/><g opacity=".5" fill="#FFF" fill-rule="nonzero"><path d="M161.2 62.6L6.5 312.9c-3 20.1-4.4 40.6-4 61.2L214.1 31.7c-18.6 8.9-36.3 19.3-52.9 30.9zM295.5 2.7l-12.6 3.7-272 440.1c2.1 9.5 5.8 25.7 10.1 38.3L303.2 28.5l-7.7-25.8zM295.6 181.5L394.9 21c-11.7.2-23.5.9-35.3 2.3L239.9 216.9c16.2-14.5 34.9-26.6 55.7-35.4zM179.7 314.3L42.9 535.7c5 9.8 10.4 19.3 16.2 28.5l113.8-184.1c-1.4-22.5 1-44.7 6.8-65.8zM411.6 134.7l65-105.1c-10-2.3-20.2-4.2-30.4-5.6l-68.9 111.5c11.5-1.1 22.9-1.4 34.3-.8zM187 443.3L87.7 604c6.4 7.8 13 15.2 20 22.4l94.5-152.9c-5.9-9.5-11-19.6-15.2-30.2zM487.9 152l60.2-97.4c-8.7-4.2-17.7-8-26.8-11.4L460 142.5c9.5 2.5 18.9 5.7 27.9 9.5zM232 511.4l-90.4 146.3c7.5 6.1 15.2 11.9 23.1 17.3L254 530.5c-7.8-5.9-15.2-12.2-22-19.1zM551 190.9l60.2-97.3c-7.6-5.9-15.4-11.5-23.5-16.7L528 173.4c8 5.3 15.7 11.1 23 17.5zM293.1 553.3l-89.7 145.1c8.5 4.5 17.2 8.6 26.1 12.5l91.3-147.6c-9.6-2.7-18.8-6-27.7-10zM600.6 251.3l64.9-105c-6.4-7.7-13.1-15.2-20.1-22.3L583 224.9c6.5 8.4 12.4 17.2 17.6 26.4zM383 591.5l1.7-19-15.6-1.4L273 726.6c9.7 2.8 19.5 5.2 29.4 7.1L390 592c-2.2-.2-4.6-.4-7-.5zM446 587.5l-94.4 152.7 17.6 1.6 2.3-25.5c9.3.8 18.6 1.2 27.9 1.2l88.4-143c-13.5 5.8-27.5 10.1-41.8 13zM622.6 304.7c2.3 8.5 4.1 16.9 5.4 25.4l-5.1.7.8 6c.7 5.2 1.2 10.3 1.6 15.5l84.6-136.8c-4.8-10-10.1-19.7-15.8-29.1l-72 116.4c.2.6.4 1.3.5 1.9zM732.1 274.8l-1.8-6.3-274.9 444.7c13.2-2.1 26.2-4.9 39.1-8.5l245-396.3c-1.9-11.2-4.4-22.4-7.4-33.6zM751.1 375.7L565.2 676.4l1.5-.8 5.3-2.8c18.1-10.2 35.1-21.8 50.8-34.6l119.9-193.9c4.9-22.4 7.8-45.4 8.4-68.6z" opacity=".3"/></g><path d="M370.6 743.4l-29.7-2.7c-71-6.5-138.3-33.3-194.7-77.5-55.9-43.7-98.5-102.3-123.4-169.5-7.8-18.1-14.7-53.4-15-54.9-17.6-90.8-1-184.7 46.9-264.2C102.8 94.7 178.5 36.1 267.9 9.4L296.5.9 346 166.7l-28.6 8.5c-50.5 15.1-92.5 48.8-118.1 95-25.6 46.2-32.1 99.7-18.2 150.7 10.9 39.8 33.3 74.8 64.9 101.3 31.5 26.4 69.8 42.4 110.7 46.1l29.7 2.7-.1 1.5-15.7 170.9zM294.5 4.6l-25.8 7.7C180.1 38.7 105 96.9 57.2 176.2c-47.5 78.9-64 172-46.6 262.1.1.4 7.1 36.5 14.8 54.3v.1c24.7 66.7 67 124.9 122.4 168.2 56 43.8 122.8 70.4 193.2 76.9l26.8 2.5L383 573.9l-26.7-2.5c-41.5-3.8-80.4-20-112.3-46.8-32-26.9-54.8-62.4-65.8-102.8-14.1-51.8-7.6-106.1 18.4-152.9 26-46.9 68.6-81.1 119.9-96.4l25.8-7.7L294.5 4.6z" fill="#3A434A" fill-rule="nonzero"/><path d="M400.8 719c-9.7 0-19.5-.4-29.3-1.2l-1.5-.1 11.7-127.8 1.5.1c42.8 3.4 85.5-5.6 123.4-26 40.4-21.7 72.7-54.8 93.4-95.6 20.7-40.7 28.4-86.2 22.3-131.4l-1-7.4 127.2-17.4 1 7.4c9.5 70.2-2.1 140.8-33.8 204.3-31.5 63.1-80.5 114.7-141.8 149.4l-1.3.7-11.9 6.4v-.1C511 705.8 456.2 719 400.8 719zm-27.6-4.1c64.8 5.1 129.5-7.9 187.4-37.8l1.3-.7 8.3-4.5.8-.5c61.6-34.4 110.6-85.8 142-148.8 31.4-62.9 43-133 33.5-202.6l-.6-4.5-121.3 16.6.6 4.5c6.2 45.8-1.6 91.9-22.6 133.1-21 41.3-53.8 74.8-94.6 96.8-38.1 20.5-80.8 29.6-123.6 26.5l-11.2 121.9z" fill="#3A434A" fill-rule="nonzero"/><path d="M626.8 331.8l-.2-1.4c-1.3-8.6-3.2-17-5.4-25.3-16.2-59.2-54.4-108.5-107.7-138.9-53.3-30.4-115.2-38.3-174.4-22.1-.3.1-.5.1-.8.2l-2.1.6L303 33.3l1.4-.4c1.3-.4 2.6-.7 4-1.1C397.6 7.4 491 19.2 571.3 65.1c80.3 45.8 137.9 120.2 162.3 209.4 3.6 13.2 6.4 26.7 8.5 40.1l.2 1.5-115.5 15.7zM400 132.9c39.9 0 79.4 10.4 115 30.7 54 30.8 92.7 80.8 109.1 140.7 2.1 7.8 3.9 16 5.2 24.1l109.5-15c-2-12.9-4.7-25.7-8.2-38.3-24.1-88.4-81.3-162.1-160.9-207.6-79.6-45.4-172.1-57.2-260.5-33-.8.2-1.7.5-2.5.7l31.6 105.9c20.4-5.5 41.1-8.2 61.7-8.2z" fill="#3A434A" fill-rule="nonzero"/><g fill-rule="nonzero"><path d="M297.7 441.1h-46.6c-2 0-3.6-1.6-3.6-3.6v-9.3c0-2 1.6-3.6 3.6-3.6h46.6c2 0 3.6 1.6 3.6 3.6v9.3c0 2-1.6 3.6-3.6 3.6z" fill="#781B18"/><path d="M273.9 416.6c-6.4 0-12.6-.4-18.7-1.2v25.7c0 10.3 8.4 18.7 18.7 18.7 10.3 0 18.7-8.4 18.7-18.7v-25.7c-6.1.7-12.3 1.2-18.7 1.2z" fill="#FFF"/><path d="M273.9 461.2c-11.1 0-20.2-9-20.2-20.2v-27.4l1.6.2c12.2 1.6 24.8 1.6 37.1 0l1.6-.2V441c0 11.2-9 20.2-20.1 20.2zM256.6 417v24.1c0 9.5 7.7 17.3 17.3 17.3 9.5 0 17.3-7.7 17.3-17.3V417c-11.5 1.3-23.2 1.3-34.6 0z" fill="#39444A"/><path d="M222.9 440.6c-19 0-32.1 10.6-40.6 33.2l-13.2 83.7L168 588l211.7 3.5-13.2-117.7c-8.5-22.5-21.6-33.2-40.6-33.2h-24.4V432c0-2.4-1.2-4.5-3-5.9-5.5 7.4-14.3 12.2-23.9 12.2-9.7 0-18.5-4.8-24-12.3a7.16 7.16 0 015.9 0v8.6h-24.6l-9 6z" fill="#CA2128"/><path d="M381.3 593l-215-3.6 1.2-32.2 13.2-83.8.1-.1c8.6-23 22.4-34.2 42-34.2h23V432c0-2.8 1.4-5.5 3.7-7.1l1.2-.9.9 1.2c5.3 7.3 13.9 11.7 22.8 11.7s17.4-4.3 22.7-11.6l.9-1.2 1.2.9c2.3 1.7 3.6 4.3 3.6 7.1v7.1h22.9c19.6 0 33.4 11.2 42 34.2l.1.4L381.3 593zm-211.8-6.4L378 590l-13-115.9c-8.3-21.9-20.7-32-39.2-32h-25.9V432c0-1.4-.5-2.6-1.3-3.7-5.9 7.2-14.8 11.5-24.1 11.5s-18.2-4.3-24.2-11.6c-.9 1-1.4 2.4-1.4 3.7V442h-26c-18.4 0-30.9 10.2-39.2 32.1l-13.2 83.4-1 29.1z" fill="#3A434A"/><path fill="#FFF" d="M317.1 457.1l-7-3-6.9 3-7.2-3 .4-.9 6.8 2.8 6.9-2.9 7 2.9 7-2.9 6.9 2.9 7-2.9 7 2.9 6.8-2.8.3.9-7.1 3-7-3-7 3-6.9-3zM218.1 457.1l-7-3-6.9 3-7.2-3 .4-.9 6.8 2.8 6.9-2.9 7 2.9 7-2.9 6.9 2.9 7-2.9 7 2.9 6.8-2.8.3.9-7.1 3-7-3-7 3-6.9-3z"/><g fill="#FFF"><path d="M274.3 491.7L263 480.5v-12l11.3 11.3zM275.4 491.7l11.3-11.2-.1-12-11.2 11.3zM275.4 495.1l11.3 11.2-.1 11.9-11.2-11.2zM274.3 495.1L263 506.3v11.9l11.3-11.2zM276.5 492.8l11.2-11.2h12l-11.2 11.2zM276.5 494l11.2 11.2h12l-11.2-11.3zM273.2 494l-11.3 11.2H250l11.2-11.3zM273.2 492.8l-11.3-11.2H250l11.2 11.2z"/></g><g fill="#FFF"><path d="M329.1 491.7l-11.3-11.2.1-12 11.2 11.3zM330.2 491.7l11.3-11.2-.1-12-11.2 11.3zM330.2 495.1l11.3 11.2-.1 11.9-11.2-11.2zM329.1 495.1l-11.3 11.2.1 11.9 11.2-11.2zM331.3 492.8l11.3-11.2h11.9l-11.2 11.2zM331.3 494l11.3 11.2h11.9l-11.2-11.3zM328 494l-11.2 11.2h-12l11.2-11.3zM328 492.8l-11.2-11.2h-12l11.2 11.2z"/></g><path d="M245.4 440.6v.2c2.9 13.5 15.1 23.4 29 23.4s26.1-9.9 29-23.5v-.1h-1.9c-2.8 12.6-14.2 21.7-27.1 21.7-12.9 0-24.3-9.1-27.1-21.7h-1.9z" fill="#3A434A"/><path d="M390.8 307.9c-6.8-12.8-12.9-26-16.9-39.9-9.4-32.2-34.2-55.2-63.4-55.2-4.5 0-8.9.6-13.2 1.6-11.9-4.9-25-7.6-38.7-7.6-48.2 0-88.6 33.2-99.6 78.1-2.4 9.8-5.5 19.4-9.5 28.7-4.1 9.5-6.4 20-6.4 31.1 0 43.3 35.1 78.4 78.4 78.4 3.9 0 7.7-.3 11.5-.8 10.3-2.1 17.1-4.5 21-7.2-47.1-6.6-82.6-37.1-82.6-86.9v-.8c0-.8.1-1.5.1-2.3 0-.8 0-1.7.1-2.5 0-.7.1-1.4.2-2.1.1-1.1.2-2.1.3-3.2 0-.3.1-.5.1-.8 4.9-43.5 37.1-78.8 79.1-88.3.2 0 .3-.1.5-.1 1.3-.3 2.6-.5 3.9-.8.5-.1.9-.2 1.4-.2 1.1-.2 2.2-.3 3.2-.5l2.1-.3c.9-.1 1.8-.2 2.8-.3.8-.1 1.7-.1 2.5-.2s1.7-.1 2.5-.1c.5 0 .9-.1 1.4-.1h4c.9 0 1.7 0 2.6.1.9 0 1.8.1 2.7.1.9.1 1.7.1 2.6.2l2.7.3c.8.1 1.7.2 2.5.3.9.1 1.7.3 2.6.4.8.1 1.7.3 2.5.4.9.2 1.7.4 2.6.5l2.4.6c.8.2 1.7.4 2.5.7.8.2 1.6.4 2.4.7.8.3 1.7.5 2.5.8.8.3 1.6.5 2.3.8l2.4.9c.8.3 1.5.6 2.3.9.8.3 1.6.7 2.4 1 .7.3 1.5.7 2.2 1 .8.4 1.5.7 2.3 1.1.7.4 1.5.7 2.2 1.1.8.4 1.5.8 2.2 1.2l2.1 1.2c.7.4 1.5.9 2.2 1.4.7.4 1.4.9 2 1.3l2.1 1.5c.7.5 1.3.9 2 1.4.7.5 1.4 1 2 1.6.6.5 1.3 1 1.9 1.5.7.5 1.3 1.1 2 1.7.6.5 1.2 1 1.8 1.6.6.6 1.3 1.2 1.9 1.7.6.5 1.2 1.1 1.7 1.7l1.8 1.8 1.7 1.7c.6.6 1.1 1.3 1.7 1.9.5.6 1.1 1.2 1.6 1.8.5.7 1.1 1.3 1.6 2 .5.6 1 1.2 1.5 1.9l1.5 2.1c.5.6.9 1.3 1.4 1.9.5.7 1 1.4 1.4 2.2.4.7.9 1.3 1.3 2 .5.7.9 1.5 1.3 2.3l1.2 2.1c.4.8.8 1.6 1.2 2.3.4.7.7 1.4 1.1 2.1.4.8.7 1.6 1.1 2.4.3.7.7 1.4 1 2.2.4.8.7 1.7 1 2.5.3.7.6 1.5.9 2.2.3.9.6 1.7.9 2.6.3.7.5 1.5.8 2.2.3.9.5 1.8.8 2.7.2.7.4 1.5.6 2.2.2.9.4 1.8.6 2.8.2.7.4 1.5.5 2.2.2 1 .4 1.9.5 2.9.1.7.3 1.5.4 2.2.2 1 .3 2.1.4 3.1l.3 2.1c.1 1.2.2 2.3.3 3.5 0 .6.1 1.2.1 1.8.1 1.8.1 3.5.1 5.3 0 49.5-35.1 79.9-81.7 86.8 7.5 6.6 22.2 8.1 26.8 8.1 43.3 0 78.4-35.1 78.4-78.4-.3-13.3-3.7-25.9-9.5-36.9z" fill="#2AB598"/><path d="M321.5 424.7c-4.7 0-19.9-1.6-27.8-8.5l-2.4-2.1 3.2-.5c49.6-7.3 80.5-40 80.5-85.3 0-1.7 0-3.5-.1-5.2 0-.3 0-.7-.1-1 0-.2 0-.5-.1-.7v-.5c-.1-1-.1-2-.2-2.9 0-.4-.1-.8-.2-1.2l-.2-1.5-.3-2.4c-.1-.5-.2-.9-.2-1.4l-.3-1.5c-.1-.7-.2-1.4-.4-2.1-.1-.5-.2-.9-.3-1.4l-.4-1.5c-.2-.7-.3-1.3-.5-2-.1-.5-.3-1-.4-1.4l-.4-1.5c-.2-.6-.4-1.3-.6-1.9-.2-.5-.3-1-.5-1.4l-.5-1.5-.6-1.8-.6-1.5-.5-1.3c-.2-.6-.5-1.2-.7-1.8-.2-.5-.4-1-.7-1.5l-.6-1.3c-.3-.6-.5-1.2-.8-1.8-.2-.5-.5-1-.8-1.5l-.6-1.2c-.3-.6-.6-1.2-.9-1.7-.3-.5-.5-1-.8-1.4l-.7-1.1c-.3-.6-.6-1.1-1-1.7-.3-.5-.6-.9-.9-1.4l-.7-1c-.4-.6-.7-1.1-1.1-1.7-.3-.5-.7-.9-1-1.4l-.7-1c-.4-.5-.8-1.1-1.2-1.6-.3-.5-.7-.9-1.1-1.4l-.7-.9-1.2-1.5c-.4-.4-.7-.9-1.1-1.3l-.8-.9c-.4-.5-.9-1-1.3-1.5s-.8-.9-1.3-1.3l-.6-.7-1.5-1.5-1.3-1.3-.6-.6c-.5-.5-1-1-1.6-1.4-.5-.4-.9-.8-1.4-1.2l-.7-.6c-.5-.5-1.1-.9-1.6-1.4l-1.5-1.2-.6-.5c-.6-.4-1.2-.9-1.7-1.3s-1.1-.8-1.6-1.2l-.4-.3c-.6-.4-1.3-.9-1.9-1.3-.6-.4-1.2-.7-1.7-1.1l-.4-.3c-.7-.4-1.3-.8-2-1.2-.7-.4-1.3-.8-2-1.1-.8-.5-1.5-.9-2.3-1.3-.7-.4-1.3-.7-2-1l-.1-.1c-.8-.4-1.5-.8-2.3-1.1-.7-.3-1.4-.6-2.1-1h-.1c-.8-.3-1.5-.7-2.3-1-.7-.3-1.5-.6-2.3-.9l-2.4-.9c-.8-.3-1.5-.5-2.3-.8-.8-.3-1.6-.5-2.4-.8-.8-.2-1.6-.5-2.4-.7-.8-.2-1.7-.4-2.5-.7l-2.4-.6c-.8-.2-1.7-.4-2.5-.5-.8-.2-1.6-.3-2.5-.4-.9-.1-1.7-.3-2.6-.4-.8-.1-1.7-.2-2.5-.3-.9-.1-1.7-.2-2.6-.3-.8-.1-1.7-.1-2.5-.2-.9-.1-1.8-.1-2.7-.1-.9 0-1.7-.1-2.6-.1H270c-.8 0-1.7.1-2.5.1-.8.1-1.7.1-2.5.2l-2.7.3c-.7.1-1.4.2-2 .3-1.1.1-2.1.3-3.2.5-.5.1-.9.2-1.4.2-1.3.2-2.6.5-3.9.8l-.5.1c-41.8 9.5-73.1 44.5-77.9 87v.8c-.1.9-.2 1.8-.2 2.6l-.1 1.2c0 .5-.1.9-.1 1.4 0 .6 0 1.2-.1 1.8l-.1 1.5v2.3c0 45.6 31.1 78.3 81.3 85.4l3.8.5-3.2 2.2c-4.2 2.9-11.3 5.3-21.5 7.4-4 .6-7.9.9-11.8.9-44.1 0-79.9-35.8-79.9-79.9 0-11 2.2-21.7 6.5-31.7 3.8-8.7 7-18.3 9.5-28.5 11.4-46.6 53-79.2 101.1-79.2 13.4 0 26.5 2.5 38.8 7.5 4.3-1 8.7-1.5 13-1.5 29 0 55.1 22.6 64.9 56.2 3.6 12.2 8.9 24.8 16.8 39.6 6.1 11.5 9.4 24.5 9.4 37.5-.1 43.9-35.9 79.8-80 79.8zm-23-8.8c7.2 4.3 18.2 5.8 23 5.8 42.4 0 76.9-34.5 76.9-76.9 0-12.6-3.1-25.1-9-36.1-8-15-13.4-27.8-17-40.2-9.4-32.4-34.3-54.1-62-54.1-4.3 0-8.6.5-12.8 1.6l-.5.1-.4-.2c-12.2-5-25-7.5-38.2-7.5-46.7 0-87.1 31.6-98.2 76.9-2.5 10.3-5.8 20.1-9.6 29-4.2 9.6-6.3 19.9-6.3 30.5 0 42.4 34.5 76.9 76.9 76.9 3.7 0 7.5-.3 11.2-.8 7.1-1.4 12.7-3.1 16.7-4.9-49.2-8.5-79.5-41.8-79.5-87.7v-3.9c0-.6 0-1.2.1-1.9 0-.5.1-1 .1-1.5l.1-1.1c.1-.9.1-1.8.2-2.7 0-.2 0-.3.1-.5v-.3c5-43.8 37.2-79.8 80.2-89.6l.5-.1c1.3-.3 2.6-.5 4-.8.5-.1.9-.2 1.4-.3 1.1-.2 2.2-.3 3.3-.5l2.1-.3c.9-.1 1.9-.2 2.8-.3.9-.1 1.7-.1 2.6-.2.9-.1 1.7-.1 2.6-.1h5.4c.9 0 1.8 0 2.6.1.9 0 1.8.1 2.7.1.9.1 1.7.1 2.6.2l2.7.3c.9.1 1.7.2 2.6.3.9.1 1.8.3 2.7.4.8.1 1.7.3 2.5.5.9.2 1.7.4 2.6.5.8.2 1.7.4 2.5.6.9.2 1.7.4 2.6.7.8.2 1.6.4 2.4.7.8.3 1.7.5 2.5.8.8.3 1.6.5 2.4.8.8.3 1.6.6 2.5.9.8.3 1.6.6 2.3.9.8.3 1.6.7 2.4 1h.1c.7.3 1.5.6 2.2 1 .8.4 1.6.8 2.3 1.2l.1.1c.7.3 1.4.7 2.1 1.1.8.4 1.5.8 2.3 1.3.8.4 1.5.8 2.1 1.2.7.4 1.4.9 2.1 1.3l.4.3 1.8 1.2c.7.4 1.3.9 2 1.4l.4.3c.6.4 1.1.8 1.7 1.2.6.4 1.2.9 1.8 1.4l.6.5c.5.4 1.1.8 1.6 1.2.6.5 1.1.9 1.7 1.4l.7.6c.5.4 1 .8 1.5 1.3s1.1 1 1.6 1.5l.6.6c.5.4.9.9 1.4 1.3.5.5 1 1 1.5 1.6l.6.6c.4.5.9.9 1.3 1.4.5.5.9 1 1.4 1.5l.8.9c.4.5.8.9 1.2 1.4.4.5.9 1.1 1.3 1.6l.7.9c.4.5.7.9 1.1 1.4.4.5.8 1.1 1.2 1.7l.7 1c.4.5.7 1 1 1.5.4.6.8 1.2 1.1 1.7l.7 1 .9 1.5c.4.6.7 1.2 1 1.7l.6 1.1.9 1.5.9 1.8.6 1.2c.3.5.5 1 .8 1.5l.9 1.8.6 1.2c.2.5.5 1 .7 1.5.3.6.5 1.3.8 1.9l.5 1.3.6 1.5c.2.6.5 1.3.7 1.9l.5 1.4c.2.5.3 1 .5 1.5.2.7.4 1.3.6 2l.4 1.5c.1.5.3 1 .4 1.5.2.7.3 1.4.5 2.1l.3 1.5.3 1.5c.2.7.3 1.5.4 2.2l.3 1.5.3 1.5c.1.8.2 1.7.3 2.5l.2 1.4c.1.4.1.9.2 1.3.1 1 .2 2 .2 3v.5c0 .2 0 .5.1.7 0 .4.1.7.1 1.1.1 1.8.1 3.6.1 5.4.3 46-30.1 79.3-79.2 87.8z" fill="#3A434A"/><path d="M376.5 328.3c0 56.7-45.9 88.3-102.6 88.3-56.7 0-102.6-31.6-102.6-88.3 0-56.7 45.9-102.6 102.6-102.6 56.7 0 102.6 45.9 102.6 102.6z" fill="#FFF"/><path d="M273.9 418c-28.8 0-54.9-8.2-73.5-23.2-20-16.1-30.6-39.1-30.6-66.5 0-57.4 46.7-104 104-104s104 46.7 104 104c0 27.4-10.6 50.4-30.6 66.5-18.4 15-44.5 23.2-73.3 23.2zm0-190.9c-55.8 0-101.2 45.4-101.2 101.2 0 26.5 10.2 48.7 29.5 64.3 18 14.5 43.5 22.6 71.6 22.6 28.1 0 53.6-8 71.6-22.6 19.3-15.6 29.5-37.8 29.5-64.3.1-55.8-45.3-101.2-101-101.2z" fill="#39444A"/><ellipse cx="8.6" cy="9.8" rx="8.4" ry="9.3" transform="translate(306 341)" fill="#2AB598"/><path d="M280.5 220.6c5 57.1 46.4 103.7 100.8 116.6.2-2.9.4-5.9.4-8.9 0-57.3-44.7-104.2-101.2-107.7z" fill="#2AB598"/><path d="M322.9 232.2c-14.2-6.8-30.9-11.6-47.7-11.6-59.6 0-107.8 49.1-107.8 108.7 0 2.7.1 5.5.3 8.1 8 1.5 16.3 2.3 24.7 2.3 64.7.1 119.2-46.2 130.5-107.5z" fill="#2AB598"/><ellipse cx="5" cy="5.8" rx="4.4" ry="4.9" transform="translate(311 348)" fill="#39444A"/><path d="M271.5 368.8v-2.9c2.8 0 5.1-2.3 5.1-5.1s-2.3-5.1-5.1-5.1v-2.9c4.4 0 7.9 3.6 7.9 7.9 0 4.5-3.5 8.1-7.9 8.1z" fill="#39444A"/><ellipse transform="rotate(-30.93 787.777 -393.868)" cx="6.283" cy="4.716" rx="5.4" ry="2.2" fill="#FFF"/><ellipse cx="8.6" cy="9.8" rx="8.4" ry="9.3" transform="translate(222 341)" fill="#2AB598"/><ellipse cx="5.1" cy="5.8" rx="4.4" ry="4.9" transform="translate(227 348)" fill="#39444A"/><ellipse transform="rotate(-30.93 745.784 -242.033)" cx="6.29" cy="4.744" rx="5.4" ry="2.2" fill="#FFF"/><path d="M273.8 386c-6 0-11.1-3.1-13.2-7.9l2.7-1.1c2 4.7 7.2 6.2 11 6.1 3.7-.1 8.1-1.8 9.6-6l2.7 1c-1.7 4.7-6.4 7.8-12.2 8-.2-.1-.4-.1-.6-.1zM193.4 328.3v-2.9c27.4 0 54.1-9.7 75.2-27.2 20.9-17.4 35.1-41.4 40-67.8l2.8.5c-5 27-19.5 51.6-40.9 69.4-21.7 18.1-49 28-77.1 28z" fill="#39444A"/><path d="M193.4 319.1v-2.9c24.8 0 48.9-8.7 67.9-24.6 18.9-15.7 31.7-37.4 36.1-61.2l2.8.5c-4.5 24.4-17.7 46.8-37.1 62.9-19.5 16.3-44.3 25.3-69.7 25.3z" fill="#39444A"/><g fill="#39444A"><path d="M381.9 332.9c-36.8-8.7-67.6-33.2-84.4-67.2l2.6-1.3c16.5 33.2 46.5 57.2 82.5 65.7l-.7 2.8z"/></g><g fill="#39444A"><path d="M215 341.9c-1.5-1.9-.9-4.7 1.1-5.8 5.3-3 15.8-7.3 27.4-3.8 1.2.4 1.9 1.7 1.4 2.8-.4 1-1.5 1.6-2.6 1.3-14.4-4.3-27.2 5.4-27.3 5.5z"/></g><g fill="#39444A"><path d="M333.7 336.3c1.4-1.9.9-4.7-1.2-5.8-5.4-2.9-15.9-7.1-27.5-3.3-1.2.4-1.8 1.7-1.4 2.9.4 1 1.6 1.6 2.6 1.2 14.4-4.6 27.3 4.9 27.5 5z"/></g><g transform="translate(210 113)"><path d="M79.7 1.9H92c11.8 0 22.8 6.2 28.9 16.2l12.4 20.4-22.4-8.8c-4.5-1.8-9.7-.8-13.3 2.4-4 3.6-5.3 9.3-3.3 14.2l29.4 74.3H8.6l39.8-97.8C53.6 10.2 65.9 1.9 79.7 1.9z" fill="#CA2128"/><path d="M125.9 122.2H6.4L47 22.4C52.4 9 65.3.4 79.7.4H92c12.2 0 23.8 6.5 30.2 17l14.7 24.2-26.5-10.4c-4-1.6-8.5-.8-11.7 2.2-3.5 3.2-4.7 8.2-2.9 12.6l30.1 76.2zm-115.1-3h110.7L92.9 47c-2.2-5.5-.7-11.9 3.7-15.9 4.1-3.7 9.7-4.7 14.8-2.7l18.3 7.2L119.6 19C113.8 9.4 103.2 3.5 92 3.5H79.6c-13.2 0-24.9 7.9-29.9 20.1l-38.9 95.6z" fill="#3B434B"/><g transform="translate(113 18)"><circle fill="#FFD141" cx="20.3" cy="20.5" r="18.5"/><path d="M20.3 40.5c-11 0-20-9-20-20s9-20 20-20 20 9 20 20-9 20-20 20zm0-37c-9.4 0-17 7.6-17 17s7.6 17 17 17 17-7.6 17-17-7.6-17-17-17z" fill="#3B434B"/></g><circle fill="#FFF" cx="140.5" cy="30.2" r="2.8"/><g><path d="M10.6 136.7h112.3c4.9 0 8.8-3.9 8.8-8.8V89.3c0-1-1.2-1.5-1.9-.9l-19 16.8c-.4.4-1.1.4-1.5 0L89.2 87.4c-.4-.4-1.1-.4-1.5 0l-20.1 17.8c-.4.4-1.1.4-1.5 0L46 87.4c-.4-.4-1.1-.4-1.5 0l-20.1 17.8c-.4.4-1.1.4-1.5 0l-19-16.8c-.7-.7-1.9-.1-1.9.9v38.6c-.3 4.8 3.7 8.8 8.6 8.8z" fill="#088844"/><path d="M122.9 138.2H10.6c-5.7 0-10.3-4.6-10.3-10.3V89.3c0-1.1.6-2 1.6-2.4 1-.4 2-.3 2.8.4l18.8 16.6 19.9-17.6c1-.9 2.5-.9 3.5 0l19.9 17.6 19.9-17.6c1-.9 2.5-.9 3.5 0l19.9 17.6 18.8-16.6c.8-.7 1.9-.9 2.8-.4 1 .4 1.6 1.4 1.6 2.4v38.6c-.1 5.6-4.7 10.3-10.4 10.3zM3.2 90v37.9c0 4 3.3 7.3 7.3 7.3h112.3c4 0 7.3-3.3 7.3-7.3V90l-18.4 16.3c-1 .9-2.5.9-3.5 0L88.3 88.7l-19.9 17.6c-1 .9-2.5.9-3.5 0L45 88.7l-19.9 17.6c-1 .9-2.5.9-3.5 0L3.2 90z" fill="#3B434B"/></g></g><g><path d="M190.1 458.3l-53.2 87c-5.3 7.6-6.6 17.4-3.4 26.1 4.1 11.1 14.7 18.5 26.6 18.5l135.4 5.6c4.8 0 8.5-4.2 8-8.9l-4.6-40c-.5-4.2-4.2-7.4-8.5-7.1" fill="#CA2128"/><path d="M295.5 597L160 591.4c-12.4 0-23.6-7.8-27.9-19.5-3.4-9.2-2.1-19.4 3.6-27.4l53.1-86.9 2.5 1.6-53.2 87c-5.1 7.3-6.3 16.5-3.2 24.8 3.9 10.5 14 17.6 25.2 17.6l135.5 5.6c1.8 0 3.6-.8 4.8-2.2 1.2-1.4 1.8-3.2 1.6-5.1l-4.6-40c-.4-3.5-3.4-6-6.9-5.8l-.2-3c5-.3 9.5 3.4 10 8.4l4.6 40c.3 2.7-.5 5.4-2.3 7.4-1.8 2-4.4 3.1-7.1 3.1z" fill="#3A434A"/></g><g><path fill="#FFF" d="M179.7 584.4l199.5-23.7 91.2 17.5-199.6 23.7z"/><path d="M270.5 603.1l-91.1-17.5c-.6-.1-1-.6-1-1.2s.5-1.1 1.1-1.1l199.6-23.7h.4l91.1 17.5c.6.1 1 .6 1 1.2s-.5 1.1-1.1 1.1l-199.6 23.7h-.4zm108.7-41.2l-191.8 22.8 83.4 16 191.8-22.8-83.4-16z" fill="#3A434A"/><path d="M470.4 578.2l-202 24 27.1-124.1c1-4.7 4.9-8.2 9.7-8.8l183-21.7c5.4-.6 9.8 4.2 8.7 9.6l-26.5 121z" fill="#F49B23"/><path d="M294.3 477.9c1.1-5.2 5.5-9.1 10.7-9.7l183-21.7c3-.4 5.8.7 7.8 2.9s2.8 5.2 2.2 8.1l-26.7 121.9-202.9 24.1-1.7.2 27.6-125.8zm201.4-21c.5-2.2-.1-4.3-1.6-6-1.5-1.6-3.6-2.4-5.8-2.2l-183 21.7c-4.3.5-7.8 3.7-8.7 7.9l-26.8 122.5 199.5-23.7 26.4-120.2z" fill="#3A434A"/><g><path fill="#34B393" d="M179.7 584.4l88.6 17.8.8 6.3-88.7-17.8z"/><path d="M268.9 609.7l-88.7-17.8c-.5-.1-.9-.5-1-1l-.7-6.3c0-.4.1-.8.4-1 .3-.3.7-.4 1-.3l88.7 17.8c.5.1.9.5 1 1l.7 6.3c0 .4-.1.8-.4 1-.2.2-.5.3-.8.3h-.2zM181 585.9l.4 3.8 86.2 17.3-.4-3.8-86.2-17.3z" fill="#3A434A"/></g><g><path fill="#34B393" d="M268.352 602.204l201.981-23.981.743 6.256-201.981 23.98z"/><path d="M267.9 608.6l-.7-6.3c0-.3.1-.6.2-.9.2-.2.5-.4.8-.4l202-24c.7-.1 1.3.4 1.3 1l.7 6.3c0 .3-.1.6-.2.9-.2.3-.5.4-.8.5l-202 24h-.1c-.6 0-1.1-.5-1.2-1.1zm201.4-29l-199.6 23.7.5 3.9 199.6-23.7-.5-3.9z" fill="#3A434A"/></g><g><path fill="#FFF" d="M369.8 531.7l14.5-21.7-5.2.4 10.7-15.9 10.1 14.3-5.2.4 13.7 19.4-9.7.8 9.4 13.3-15.2 1.2-.2 8.6-8.2.7.2-8.6-15.2 1.2 9.9-14.9z"/><path d="M384.5 554.3c-.3 0-.5-.1-.7-.3-.2-.2-.4-.5-.3-.8l.1-7.4-14 1.1c-.4 0-.8-.2-1-.5-.2-.4-.2-.8 0-1.2l8.7-12.9-7.4.6c-.4 0-.8-.2-1-.5-.2-.4-.2-.8 0-1.2l13.2-19.8-2.9.2c-.4 0-.8-.2-1-.5-.2-.4-.2-.8 0-1.2l10.7-16c.2-.3.5-.5.9-.5s.7.2.9.5l10.1 14.3c.2.3.3.7.1 1.1-.2.4-.5.6-.9.6l-3.3.3 12.6 17.8c.2.3.3.7.1 1.1-.2.4-.5.6-.9.6l-7.7.6L409 542c.2.3.3.7.1 1.1-.2.4-.5.6-.9.6l-14.2 1.1-.2 7.6c0 .6-.5 1-1 1.1l-8.2.7c0 .1-.1.1-.1.1zm.2-10.8c.3 0 .5.1.7.3.2.2.4.5.3.8l-.1 7.4 6-.5.2-7.6c0-.6.5-1 1-1.1l13.2-1.1-8.2-11.7c-.2-.3-.3-.7-.1-1.1.2-.4.5-.6.9-.6l7.7-.6-12.6-17.8c-.2-.3-.3-.7-.1-1.1.2-.4.5-.6.9-.6l3.3-.3-8-11.4-8.5 12.8 2.9-.2c.4 0 .8.2 1 .5.2.4.2.8 0 1.2L372 530.4l7.4-.6c.4 0 .8.2 1 .5.2.4.2.8 0 1.2l-8.7 12.9 12.9-1c0 .1.1.1.1.1z" fill="#3A434A"/></g></g><path d="M179.5 549.7l-2.1-2.1 18.7-19.2c.3-.3.7-.5 1.1-.4.4 0 .8.2 1.1.5l3.6 4.1c.4.5.5 1.1.2 1.6l-7.4 15.1-2.7-1.3 6.9-14.2-1.9-2.1-17.5 18z" fill="#3A434A"/><path fill="#3A434A" d="M200.674 535.065l.201-2.994 81.412 5.476-.201 2.993zM197.937 530.93l4.994-7.964 2.542 1.594-4.994 7.964z"/><g fill="#FFF"><path d="M219.4 491.7l-11.2-11.2v-12l11.3 11.3zM220.6 491.7l11.3-11.2-.1-12-11.2 11.3zM220.6 495.1l11.3 11.2-.1 11.9-11.2-11.2zM219.4 495.1l-11.2 11.2v11.9l11.3-11.2zM221.7 492.8l11.2-11.2h12l-11.2 11.2zM221.7 494l11.2 11.2h12l-11.2-11.3zM218.3 494l-11.2 11.2h-11.9l11.2-11.3zM218.3 492.8l-11.2-11.2h-11.9l11.2 11.2z"/></g><g fill="#F49B23"><path d="M226.9 383.1c-18.5 0-33.5-15-33.5-33.5s15-33.5 33.5-33.5 33.5 15 33.5 33.5-15 33.5-33.5 33.5zm0-64.2c-16.9 0-30.6 13.7-30.6 30.6 0 16.9 13.7 30.6 30.6 30.6 16.9 0 30.6-13.7 30.6-30.6 0-16.9-13.7-30.6-30.6-30.6zM320.8 383.1c-18.5 0-33.5-15-33.5-33.5s15-33.5 33.5-33.5 33.5 15 33.5 33.5-15 33.5-33.5 33.5zm0-64.2c-16.9 0-30.6 13.7-30.6 30.6 0 16.9 13.7 30.6 30.6 30.6 16.9 0 30.6-13.7 30.6-30.6 0-16.9-13.7-30.6-30.6-30.6z"/><g><path d="M259 348.1h29.2v2.9H259z"/></g></g></g><g fill-rule="nonzero"><path d="M413.8 239.2c0-50.3 40.8-91.1 91.1-91.1s91.1 40.8 91.1 91.1v25.5c0 50.3-40.8 91.1-91.1 91.1s-91.1-40.8-91.1-91.1v-25.5z" fill="#FFF"/><path d="M504.8 357.4c-51.1 0-92.6-41.6-92.6-92.6v-25.5c0-51.1 41.6-92.6 92.6-92.6 51.1 0 92.6 41.6 92.6 92.6v25.5c.1 51-41.5 92.6-92.6 92.6zm0-207.7c-49.4 0-89.5 40.2-89.5 89.5v25.5c0 49.4 40.2 89.5 89.5 89.5 49.4 0 89.5-40.2 89.5-89.5v-25.5c.1-49.3-40.1-89.5-89.5-89.5z" fill="#39444A"/><circle cx="9.6" cy="9.7" r="9.5" transform="translate(454 246)" fill="#2AB598"/><circle cx="5.2" cy="4.9" r="4.4" transform="translate(457 252)" fill="#39444A"/><path d="M620.3 157.9v-2.2s-27.1 0-37.4.1c12.8-8.9 17.6-23.2 17.6-34.6H481.1c-13.6 0-24.7 11-24.7 24.7v-20.2c-29.2 0-52.9 23.8-52.9 53.1 0 7.6 1.7 15.4 4.9 22.4-3.5 9.3-5.8 19.2-6.4 29.6 3.4-3 7.9-4.8 12.8-5-.2 1.2-.3 2.4-.5 3.7.6-6 1.9-11.8 3.6-17.4l8.3-3.1c11.8-4.5 22.3-11.8 30.6-21.4 0 7.8 6.3 14.1 14.1 14.1h102.7c4.6 0 9.1-.7 13.3-1.9 4.4 9.2 7.4 19.2 8.5 29.7-.1-1.2-.3-2.4-.5-3.6 4.9.3 9.4 2.4 12.8 5.6-.8-13.1-4-25.5-9.3-36.8 12.5-7.9 21.2-21.3 21.9-36.8z" fill="#F59D1F"/><path d="M609.4 234.9l-2.7-2.6c-2.8-2.6-6.3-4.3-10.1-5 0 .3.1.7.1 1.1 0 .2.1.5.1.7l-3 .3c0-.2-.1-.5-.1-.7-1.1-9.5-3.7-18.7-7.8-27.4-4.1 1.1-8.3 1.6-12.5 1.6H470.7c-7.4 0-13.6-5.2-15.2-12.1-8 8.5-18 15.2-29 19.3l-7.6 2.9c-1.6 5.2-2.7 10.6-3.3 16 0 .2 0 .3-.1.5l-3-.3c0-.2 0-.3.1-.5.1-.5.1-.9.2-1.4-3.7.5-7.2 2-10.1 4.5l-2.7 2.3.2-3.6c.7-10.1 2.8-20 6.3-29.4-3.1-7-4.8-14.7-4.8-22.5 0-30.1 24.4-54.6 54.3-54.6h1.5v9.6c4.4-8.3 13.1-14 23.2-14h121v1.5c0 5-1.1 21.3-14.8 33.1 12.1 0 33.1-.1 33.1-.1h1.5v1.5c0 .8 0 1.5-.1 2.3-.7 15-8.6 28.7-21.4 37.1 5.1 11.4 8.1 23.6 8.9 36.2l.5 3.7zm-13.2-10.5c3.5.4 6.9 1.7 9.8 3.6-1.1-11.4-4.1-22.5-8.9-32.9l-.6-1.2 1.1-.7c12.6-7.8 20.5-21 21.1-35.4v-.7c-5.8 0-27 0-35.9.1H578l3.9-2.7c11.9-8.4 16.6-21.6 17-31.9h-118c-12.8 0-23.2 10.4-23.2 23.2h-3v-18.7c-27.6.8-49.9 23.6-49.9 51.6 0 7.5 1.7 15.1 4.8 21.8l.3.6-.2.6c-3.2 8.3-5.2 17-6.1 25.9 2.9-1.8 6.3-3 9.7-3.3.7-4.3 1.7-8.6 3-12.8l.2-.7 8.9-3.4c11.5-4.4 21.9-11.6 30-21l2.6-3v4c0 7 5.7 12.6 12.6 12.6h102.7c4.4 0 8.7-.6 12.9-1.8l1.2-.4.5 1.1c4.2 8.2 6.9 16.7 8.3 25.5z" fill="#3A434A"/><path d="M476.8 233.7l-36.9-.5c.1-5.6 4.7-10.1 10.3-10.1l26.7.3c.1 2.9-2.2 5.2-5.1 5.1l5 5.2z" fill="#39444A"/><path d="M491.6 254.4h26.1v3.1h-26.1z" fill="#2AB598"/><path d="M461.4 256.9l-6-9.4-3.2 6.9z" fill="#FFF"/><circle cx="9.8" cy="9.7" r="9.5" transform="translate(535 246)" fill="#2AB598"/><circle cx="4.4" cy="4.9" r="4.4" transform="translate(539 252)" fill="#39444A"/><path d="M531.1 233.6l36.9-.1c0-5.6-4.6-10.2-10.2-10.2l-26.7.1c-2.8 0-5.1 2.3-5.1 5.1s2.3 5.1 5.1 5.1z" fill="#39444A"/><path d="M542.6 256.9l-6-9.4-3.2 6.9z" fill="#FFF"/><path d="M507.5 285c-7 0-12.7-5.7-12.7-12.7 0-7 5.7-12.7 12.7-12.7v3.1c-5.3 0-9.5 4.3-9.5 9.5 0 5.3 4.3 9.5 9.5 9.5v3.3z" fill="#39444A"/><path d="M413.3 264.7v-25.5c0-4.1.3-8.2.8-12.2.3-2.3-.7-4.7-2.6-6-6.9-4.9-16.3.7-15.3 9.1l2 15.9v.6c.1 9.3 6.5 17.1 15 19.5.1-.5.1-.9.1-1.4z" fill="#FFF"/><path d="M414.8 268l-1.9-.5c-9.4-2.6-16-11.2-16.1-20.9v-.4l-2-15.9c-.6-4.5 1.5-8.7 5.4-11 3.9-2.3 8.6-2.1 12.2.5 2.4 1.7 3.6 4.5 3.2 7.5-.5 4-.8 8.1-.8 12V268zm-8.9-47.4c-1.4 0-2.9.4-4.2 1.2-2.8 1.7-4.4 4.8-3.9 8.1l2 15.9c0 .3 0 .5.1.8.1 7.7 5 14.6 12 17.4v-24.7c0-4.1.3-8.3.9-12.4.2-1.8-.5-3.6-2-4.6-1.6-1.1-3.3-1.7-4.9-1.7z" fill="#39444A"/><path d="M411.2 250.4c-.6-.2-1-.7-1-1.4 0-.1-.2-2.7-2.5-3.7-.8-.4-1.1-1.3-.8-2.1.4-.8 1.3-1.1 2.1-.8.5.2.9.5 1.3.8l-.3-.6c-1.1-2-3.4-2.6-3.4-2.6-.8-.2-1.4-1-1.2-1.9.2-.8 1-1.4 1.9-1.2.1 0 3.6.8 5.4 4 1.3 2.2 1.5 5 .5 8.3-.2.7-.9 1.2-1.7 1.1-.1.1-.2.1-.3.1z" fill="#39444A"/><g fill="#2AB598"><path d="M462.9 286.2c-16.7 0-30.2-13.6-30.2-30.2s13.6-30.2 30.2-30.2 30.2 13.6 30.2 30.2-13.6 30.2-30.2 30.2zm0-57.3c-15 0-27.1 12.2-27.1 27.1 0 15 12.2 27.1 27.1 27.1 15 0 27.1-12.2 27.1-27.1 0-15-12.2-27.1-27.1-27.1zM546.8 286.2c-16.7 0-30.2-13.6-30.2-30.2s13.6-30.2 30.2-30.2S577 239.4 577 256s-13.5 30.2-30.2 30.2zm0-57.3c-15 0-27.1 12.2-27.1 27.1 0 15 12.2 27.1 27.1 27.1 15 0 27.1-12.2 27.1-27.1 0-15-12.1-27.1-27.1-27.1z"/></g><g><path d="M596.1 264.7v-25.5c0-4.1-.3-8.2-.8-12.2-.3-2.3.7-4.7 2.6-6 6.9-4.9 16.3.7 15.3 9.1l-2 15.9v.6c-.1 9.3-6.5 17.1-15 19.5-.1-.5-.1-.9-.1-1.4z" fill="#FFF"/><path d="M594.6 268v-28.8c0-4-.3-8-.8-12-.4-2.9.8-5.8 3.2-7.5 3.7-2.6 8.4-2.8 12.2-.5 3.9 2.3 5.9 6.5 5.4 11l-2 15.9v.4c-.1 9.7-6.8 18.3-16.1 20.9l-1.9.6zm8.9-47.4c-1.7 0-3.3.5-4.8 1.5s-2.2 2.8-2 4.6c.6 4.1.9 8.3.9 12.4V264c7.1-2.8 11.9-9.7 12-17.4 0-.3 0-.5.1-.8l2-15.9c.4-3.3-1.1-6.4-3.9-8.1-1.4-.8-2.9-1.2-4.3-1.2z" fill="#39444A"/><g fill="#39444A"><path d="M598.7 250.4c.6-.2 1-.7 1-1.4 0-.1.2-2.7 2.5-3.7.8-.4 1.1-1.3.8-2.1-.4-.8-1.3-1.1-2.1-.8-.5.2-.9.5-1.3.8l.3-.6c1.1-2 3.4-2.6 3.4-2.6.8-.2 1.4-1 1.2-1.9-.2-.8-1-1.4-1.9-1.2-.1 0-3.6.8-5.4 4-1.3 2.2-1.5 5-.5 8.3.2.7.9 1.2 1.7 1.1 0 .1.1.1.3.1z"/></g></g><path d="M522.7 296.7l-2.3-2.1c-3.5 3.9-8.2 6.2-13.2 6.6-5-.4-9.7-2.7-13.2-6.6l-2.3 2.1c4.1 4.6 9.6 7.2 15.5 7.7 5.9-.5 11.4-3.1 15.5-7.7z" fill="#39444A"/><g transform="translate(430 23)"><path d="M69.4 1.4H57.8c-11.1 0-21.3 5.8-27.1 15.2L19.1 35.7l21-8.2c4.2-1.7 9.1-.8 12.5 2.3 3.7 3.4 5 8.7 3.1 13.4l-27.6 69.6H136L98.7 21.2C93.9 9.2 82.3 1.4 69.4 1.4z" fill="#CA2128"/><path d="M138.2 114.3H25.9l28.4-71.6c1.6-4.1.5-8.8-2.7-11.7-3-2.7-7.2-3.5-10.9-2l-25.1 9.8 13.9-22.9C35.5 6.1 46.3 0 57.8 0h11.6C82.9 0 95 8.1 100.1 20.7l38.1 93.6zm-107.9-3h103.5L97.3 21.7C92.7 10.3 81.7 2.9 69.4 2.9H57.8C47.3 2.9 37.4 8.5 32 17.4l-9.3 15.4 16.9-6.6c4.8-1.9 10.2-.9 14 2.6 4.2 3.8 5.6 9.8 3.5 15l-26.8 67.5z" fill="#3B434B"/><g transform="translate(0 17)"><circle fill="#FFD141" cx="19.1" cy="18.8" r="17.3"/><path d="M19.1 37.6C8.7 37.6.3 29.2.3 18.8S8.7 0 19.1 0 38 8.4 38 18.8s-8.5 18.8-18.9 18.8zm0-34.7C10.4 2.9 3.3 10 3.3 18.7c0 8.7 7.1 15.8 15.8 15.8 8.7 0 15.9-7 15.9-15.7S27.9 2.9 19.1 2.9z" fill="#3B434B"/></g><circle fill="#FFF" cx="12.4" cy="33.9" r="2.7"/><g><path d="M134.2 127.7H28.9c-4.6 0-8.3-3.7-8.3-8.3V83.2c0-.9 1.1-1.4 1.8-.8l17.8 15.8c.4.4 1 .4 1.4 0l18.9-16.7c.4-.4 1-.4 1.4 0l18.9 16.7c.4.4 1 .4 1.4 0l18.9-16.7c.4-.4 1-.4 1.4 0l18.9 16.7c.4.4 1 .4 1.4 0l17.8-15.8c.7-.6 1.8-.1 1.8.8v36.2c0 4.6-3.7 8.3-8.2 8.3z" fill="#088844"/><path d="M134.2 129.2H28.9c-5.4 0-9.7-4.4-9.7-9.7V83.3c0-1 .6-1.9 1.5-2.3.9-.4 2-.3 2.8.4L41 96.9l18.6-16.5c1-.9 2.4-.9 3.4 0l18.6 16.5 18.6-16.5c1-.9 2.4-.9 3.4 0l18.6 16.5 17.5-15.5c.8-.7 1.8-.8 2.8-.4.9.4 1.5 1.3 1.5 2.3v36.2c-.1 5.4-4.5 9.7-9.8 9.7zm-112.1-45v35.3c0 3.7 3 6.8 6.8 6.8h105.3c3.7 0 6.8-3 6.8-6.8V84.2l-17.1 15.1c-1 .9-2.4.9-3.4 0l-18.6-16.5-18.6 16.5c-1 .9-2.4.9-3.4 0L61.3 82.8 42.7 99.3c-1 .9-2.4.9-3.4 0L22.1 84.2z" fill="#3B434B"/></g></g></g></g></svg>
