<?xml version="1.0" encoding="UTF-8"?>
<svg width="1608px" height="1004px" viewBox="0 0 1608 1004" version="1.1" xmlns="http://www.w3.org/2000/svg" xmlns:xlink="http://www.w3.org/1999/xlink">
    <title>result-bg</title>
    <g id="result-bg" stroke="none" stroke-width="1" fill="none" fill-rule="evenodd">
        <g transform="translate(-57.000000, -37.000000)" fill-rule="nonzero">
            <path d="M1719.7,1078.4 L5.3,1078.4 C2.5,1078.4 0.3,1076.2 0.3,1073.4 L0.3,5.6 C0.3,2.8 2.5,0.6 5.3,0.6 L1719.7,0.6 C1722.5,0.6 1724.7,2.8 1724.7,5.6 L1724.7,1073.4 C1724.7,1076.1 1722.5,1078.4 1719.7,1078.4 L1719.7,1078.4 Z" id="XMLID_3509_" fill="#30A349"></path>
            <g id="XMLID_2795_" transform="translate(61.000000, 39.000000)">
                <g id="XMLID_3487_" transform="translate(0.000000, 889.000000)">
                    <g id="XMLID_3506_">
                        <polygon id="XMLID_3508_" fill="#58B147" points="228.8 111.5 171.6 0.4 114.4 111.5"></polygon>
                        <polygon id="XMLID_3507_" fill="#088443" points="114.4 111.5 57.2 0.4 0 111.5"></polygon>
                    </g>
                    <g id="XMLID_3503_" transform="translate(228.000000, 0.000000)">
                        <polygon id="XMLID_3505_" fill="#58B147" points="229.5 111.5 172.3 0.4 115.2 111.5"></polygon>
                        <polygon id="XMLID_3504_" fill="#088443" points="115.2 111.5 58 0.4 0.8 111.5"></polygon>
                    </g>
                    <g id="XMLID_3500_" transform="translate(457.000000, 0.000000)">
                        <polygon id="XMLID_3502_" fill="#58B147" points="229.3 111.5 172.1 0.4 114.9 111.5"></polygon>
                        <polygon id="XMLID_3501_" fill="#088443" points="114.9 111.5 57.7 0.4 0.5 111.5"></polygon>
                    </g>
                    <g id="XMLID_3497_" transform="translate(686.000000, 0.000000)">
                        <polygon id="XMLID_3499_" fill="#58B147" points="229 111.5 171.8 0.4 114.7 111.5"></polygon>
                        <polygon id="XMLID_3498_" fill="#088443" points="114.7 111.5 57.5 0.4 0.3 111.5"></polygon>
                    </g>
                    <g id="XMLID_3494_" transform="translate(915.000000, 0.000000)">
                        <polygon id="XMLID_3496_" fill="#58B147" points="228.8 111.5 171.6 0.4 114.4 111.5"></polygon>
                        <polygon id="XMLID_3495_" fill="#088443" points="114.4 111.5 57.2 0.4 0 111.5"></polygon>
                    </g>
                    <g id="XMLID_3491_" transform="translate(1143.000000, 0.000000)">
                        <polygon id="XMLID_3493_" fill="#58B147" points="229.5 111.5 172.3 0.4 115.1 111.5"></polygon>
                        <polygon id="XMLID_3492_" fill="#088443" points="115.1 111.5 58 0.4 0.8 111.5"></polygon>
                    </g>
                    <g id="XMLID_3488_" transform="translate(1372.000000, 0.000000)">
                        <polygon id="XMLID_3490_" fill="#58B147" points="229.3 111.5 172.1 0.4 114.9 111.5"></polygon>
                        <polygon id="XMLID_3489_" fill="#088443" points="114.9 111.5 57.7 0.4 0.5 111.5"></polygon>
                    </g>
                </g>
                <g id="XMLID_3416_" transform="translate(0.000000, 778.000000)">
                    <g id="XMLID_3435_" transform="translate(1372.000000, 0.000000)">
                        <polygon id="XMLID_3486_" fill="#58B147" points="0.5 111.4 57.7 0.3 114.9 111.4"></polygon>
                        <polygon id="XMLID_3485_" fill="#088443" points="114.9 111.4 172.1 0.3 229.3 111.4"></polygon>
                    </g>
                    <g id="XMLID_3432_" transform="translate(1143.000000, 0.000000)">
                        <polygon id="XMLID_3434_" fill="#58B147" points="0.8 111.4 58 0.3 115.1 111.4"></polygon>
                        <polygon id="XMLID_3433_" fill="#088443" points="115.1 111.4 172.3 0.3 229.5 111.4"></polygon>
                    </g>
                    <g id="XMLID_3429_" transform="translate(915.000000, 0.000000)">
                        <polygon id="XMLID_3431_" fill="#58B147" points="0 111.4 57.2 0.3 114.4 111.4"></polygon>
                        <polygon id="XMLID_3430_" fill="#088443" points="114.4 111.4 171.6 0.3 228.8 111.4"></polygon>
                    </g>
                    <g id="XMLID_3426_" transform="translate(686.000000, 0.000000)">
                        <polygon id="XMLID_3428_" fill="#58B147" points="0.3 111.4 57.5 0.3 114.7 111.4"></polygon>
                        <polygon id="XMLID_3427_" fill="#088443" points="114.7 111.4 171.8 0.3 229 111.4"></polygon>
                    </g>
                    <g id="XMLID_3423_" transform="translate(457.000000, 0.000000)">
                        <polygon id="XMLID_3425_" fill="#58B147" points="0.5 111.4 57.7 0.3 114.9 111.4"></polygon>
                        <polygon id="XMLID_3424_" fill="#088443" points="114.9 111.4 172.1 0.3 229.3 111.4"></polygon>
                    </g>
                    <g id="XMLID_3420_" transform="translate(228.000000, 0.000000)">
                        <polygon id="XMLID_3422_" fill="#58B147" points="0.8 111.4 58 0.3 115.2 111.4"></polygon>
                        <polygon id="XMLID_3421_" fill="#088443" points="115.2 111.4 172.3 0.3 229.5 111.4"></polygon>
                    </g>
                    <g id="XMLID_3417_">
                        <polygon id="XMLID_3419_" fill="#58B147" points="0 111.4 57.2 0.3 114.4 111.4"></polygon>
                        <polygon id="XMLID_3418_" fill="#088443" points="114.4 111.4 171.6 0.3 228.8 111.4"></polygon>
                    </g>
                </g>
                <g id="XMLID_3394_" transform="translate(0.000000, 667.000000)">
                    <g id="XMLID_3413_">
                        <polygon id="XMLID_3415_" fill="#58B147" points="228.8 111.3 171.6 0.2 114.4 111.3"></polygon>
                        <polygon id="XMLID_3414_" fill="#088443" points="114.4 111.3 57.2 0.2 0 111.3"></polygon>
                    </g>
                    <g id="XMLID_3410_" transform="translate(228.000000, 0.000000)">
                        <polygon id="XMLID_3412_" fill="#58B147" points="229.5 111.3 172.3 0.2 115.2 111.3"></polygon>
                        <polygon id="XMLID_3411_" fill="#088443" points="115.2 111.3 58 0.2 0.8 111.3"></polygon>
                    </g>
                    <g id="XMLID_3407_" transform="translate(457.000000, 0.000000)">
                        <polygon id="XMLID_3409_" fill="#58B147" points="229.3 111.3 172.1 0.2 114.9 111.3"></polygon>
                        <polygon id="XMLID_3408_" fill="#088443" points="114.9 111.3 57.7 0.2 0.5 111.3"></polygon>
                    </g>
                    <g id="XMLID_3404_" transform="translate(686.000000, 0.000000)">
                        <polygon id="XMLID_3406_" fill="#58B147" points="229 111.3 171.8 0.2 114.7 111.3"></polygon>
                        <polygon id="XMLID_3405_" fill="#088443" points="114.7 111.3 57.5 0.2 0.3 111.3"></polygon>
                    </g>
                    <g id="XMLID_3401_" transform="translate(915.000000, 0.000000)">
                        <polygon id="XMLID_3403_" fill="#58B147" points="228.8 111.3 171.6 0.2 114.4 111.3"></polygon>
                        <polygon id="XMLID_3402_" fill="#088443" points="114.4 111.3 57.2 0.2 0 111.3"></polygon>
                    </g>
                    <g id="XMLID_3398_" transform="translate(1143.000000, 0.000000)">
                        <polygon id="XMLID_3400_" fill="#58B147" points="229.5 111.3 172.3 0.2 115.1 111.3"></polygon>
                        <polygon id="XMLID_3399_" fill="#088443" points="115.1 111.3 58 0.2 0.8 111.3"></polygon>
                    </g>
                    <g id="XMLID_3395_" transform="translate(1372.000000, 0.000000)">
                        <polygon id="XMLID_3397_" fill="#58B147" points="229.3 111.3 172.1 0.2 114.9 111.3"></polygon>
                        <polygon id="XMLID_3396_" fill="#088443" points="114.9 111.3 57.7 0.2 0.5 111.3"></polygon>
                    </g>
                </g>
                <g id="XMLID_3372_" transform="translate(0.000000, 556.000000)">
                    <g id="XMLID_3391_" transform="translate(1372.000000, 0.000000)">
                        <polygon id="XMLID_3393_" fill="#58B147" points="0.5 111.2 57.7 0.1 114.9 111.2"></polygon>
                        <polygon id="XMLID_3392_" fill="#088443" points="114.9 111.2 172.1 0.1 229.3 111.2"></polygon>
                    </g>
                    <g id="XMLID_3388_" transform="translate(1143.000000, 0.000000)">
                        <polygon id="XMLID_3390_" fill="#58B147" points="0.8 111.2 58 0.1 115.1 111.2"></polygon>
                        <polygon id="XMLID_3389_" fill="#088443" points="115.1 111.2 172.3 0.1 229.5 111.2"></polygon>
                    </g>
                    <g id="XMLID_3385_" transform="translate(915.000000, 0.000000)">
                        <polygon id="XMLID_3387_" fill="#58B147" points="0 111.2 57.2 0.1 114.4 111.2"></polygon>
                        <polygon id="XMLID_3386_" fill="#088443" points="114.4 111.2 171.6 0.1 228.8 111.2"></polygon>
                    </g>
                    <g id="XMLID_3382_" transform="translate(686.000000, 0.000000)">
                        <polygon id="XMLID_3384_" fill="#58B147" points="0.3 111.2 57.5 0.1 114.7 111.2"></polygon>
                        <polygon id="XMLID_3383_" fill="#088443" points="114.7 111.2 171.8 0.1 229 111.2"></polygon>
                    </g>
                    <g id="XMLID_3379_" transform="translate(457.000000, 0.000000)">
                        <polygon id="XMLID_3381_" fill="#58B147" points="0.5 111.2 57.7 0.1 114.9 111.2"></polygon>
                        <polygon id="XMLID_3380_" fill="#088443" points="114.9 111.2 172.1 0.1 229.3 111.2"></polygon>
                    </g>
                    <g id="XMLID_3376_" transform="translate(228.000000, 0.000000)">
                        <polygon id="XMLID_3378_" fill="#58B147" points="0.8 111.2 58 0.1 115.2 111.2"></polygon>
                        <polygon id="XMLID_3377_" fill="#088443" points="115.2 111.2 172.3 0.1 229.5 111.2"></polygon>
                    </g>
                    <g id="XMLID_3373_">
                        <polygon id="XMLID_3375_" fill="#58B147" points="0 111.2 57.2 0.1 114.4 111.2"></polygon>
                        <polygon id="XMLID_3374_" fill="#088443" points="114.4 111.2 171.6 0.1 228.8 111.2"></polygon>
                    </g>
                </g>
                <g id="XMLID_3350_" transform="translate(0.000000, 444.000000)">
                    <g id="XMLID_3369_">
                        <polygon id="XMLID_3371_" fill="#58B147" points="228.8 112.1 171.6 0.9 114.4 112.1"></polygon>
                        <polygon id="XMLID_3370_" fill="#088443" points="114.4 112.1 57.2 0.9 0 112.1"></polygon>
                    </g>
                    <g id="XMLID_3366_" transform="translate(228.000000, 0.000000)">
                        <polygon id="XMLID_3368_" fill="#58B147" points="229.5 112.1 172.3 0.9 115.2 112.1"></polygon>
                        <polygon id="XMLID_3367_" fill="#088443" points="115.2 112.1 58 0.9 0.8 112.1"></polygon>
                    </g>
                    <g id="XMLID_3363_" transform="translate(457.000000, 0.000000)">
                        <polygon id="XMLID_3365_" fill="#58B147" points="229.3 112.1 172.1 0.9 114.9 112.1"></polygon>
                        <polygon id="XMLID_3364_" fill="#088443" points="114.9 112.1 57.7 0.9 0.5 112.1"></polygon>
                    </g>
                    <g id="XMLID_3360_" transform="translate(686.000000, 0.000000)">
                        <polygon id="XMLID_3362_" fill="#58B147" points="229 112.1 171.8 0.9 114.7 112.1"></polygon>
                        <polygon id="XMLID_3361_" fill="#088443" points="114.7 112.1 57.5 0.9 0.3 112.1"></polygon>
                    </g>
                    <g id="XMLID_3357_" transform="translate(915.000000, 0.000000)">
                        <polygon id="XMLID_3359_" fill="#58B147" points="228.8 112.1 171.6 0.9 114.4 112.1"></polygon>
                        <polygon id="XMLID_3358_" fill="#088443" points="114.4 112.1 57.2 0.9 0 112.1"></polygon>
                    </g>
                    <g id="XMLID_3354_" transform="translate(1143.000000, 0.000000)">
                        <polygon id="XMLID_3356_" fill="#58B147" points="229.5 112.1 172.3 0.9 115.1 112.1"></polygon>
                        <polygon id="XMLID_3355_" fill="#088443" points="115.1 112.1 58 0.9 0.8 112.1"></polygon>
                    </g>
                    <g id="XMLID_3351_" transform="translate(1372.000000, 0.000000)">
                        <polygon id="XMLID_3353_" fill="#58B147" points="229.3 112.1 172.1 0.9 114.9 112.1"></polygon>
                        <polygon id="XMLID_3352_" fill="#088443" points="114.9 112.1 57.7 0.9 0.5 112.1"></polygon>
                    </g>
                </g>
                <g id="XMLID_3328_" transform="translate(0.000000, 333.000000)">
                    <g id="XMLID_3347_" transform="translate(1372.000000, 0.000000)">
                        <polygon id="XMLID_3349_" fill="#58B147" points="0.5 111.9 57.7 0.8 114.9 111.9"></polygon>
                        <polygon id="XMLID_3348_" fill="#088443" points="114.9 111.9 172.1 0.8 229.3 111.9"></polygon>
                    </g>
                    <g id="XMLID_3344_" transform="translate(1143.000000, 0.000000)">
                        <polygon id="XMLID_3346_" fill="#58B147" points="0.8 111.9 58 0.8 115.1 111.9"></polygon>
                        <polygon id="XMLID_3345_" fill="#088443" points="115.1 111.9 172.3 0.8 229.5 111.9"></polygon>
                    </g>
                    <g id="XMLID_3341_" transform="translate(915.000000, 0.000000)">
                        <polygon id="XMLID_3343_" fill="#58B147" points="0 111.9 57.2 0.8 114.4 111.9"></polygon>
                        <polygon id="XMLID_3342_" fill="#088443" points="114.4 111.9 171.6 0.8 228.8 111.9"></polygon>
                    </g>
                    <g id="XMLID_3338_" transform="translate(686.000000, 0.000000)">
                        <polygon id="XMLID_3340_" fill="#58B147" points="0.3 111.9 57.5 0.8 114.7 111.9"></polygon>
                        <polygon id="XMLID_3339_" fill="#088443" points="114.7 111.9 171.8 0.8 229 111.9"></polygon>
                    </g>
                    <g id="XMLID_3335_" transform="translate(457.000000, 0.000000)">
                        <polygon id="XMLID_3337_" fill="#58B147" points="0.5 111.9 57.7 0.8 114.9 111.9"></polygon>
                        <polygon id="XMLID_3336_" fill="#088443" points="114.9 111.9 172.1 0.8 229.3 111.9"></polygon>
                    </g>
                    <g id="XMLID_3332_" transform="translate(228.000000, 0.000000)">
                        <polygon id="XMLID_3334_" fill="#58B147" points="0.8 111.9 58 0.8 115.2 111.9"></polygon>
                        <polygon id="XMLID_3333_" fill="#088443" points="115.2 111.9 172.3 0.8 229.5 111.9"></polygon>
                    </g>
                    <g id="XMLID_3329_">
                        <polygon id="XMLID_3331_" fill="#58B147" points="0 111.9 57.2 0.8 114.4 111.9"></polygon>
                        <polygon id="XMLID_3330_" fill="#088443" points="114.4 111.9 171.6 0.8 228.8 111.9"></polygon>
                    </g>
                </g>
                <g id="XMLID_3306_" transform="translate(0.000000, 222.000000)">
                    <g id="XMLID_3325_">
                        <polygon id="XMLID_3327_" fill="#58B147" points="228.8 111.8 171.6 0.7 114.4 111.8"></polygon>
                        <polygon id="XMLID_3326_" fill="#088443" points="114.4 111.8 57.2 0.7 0 111.8"></polygon>
                    </g>
                    <g id="XMLID_3322_" transform="translate(228.000000, 0.000000)">
                        <polygon id="XMLID_3324_" fill="#58B147" points="229.5 111.8 172.3 0.7 115.2 111.8"></polygon>
                        <polygon id="XMLID_3323_" fill="#088443" points="115.2 111.8 58 0.7 0.8 111.8"></polygon>
                    </g>
                    <g id="XMLID_3319_" transform="translate(457.000000, 0.000000)">
                        <polygon id="XMLID_3321_" fill="#58B147" points="229.3 111.8 172.1 0.7 114.9 111.8"></polygon>
                        <polygon id="XMLID_3320_" fill="#088443" points="114.9 111.8 57.7 0.7 0.5 111.8"></polygon>
                    </g>
                    <g id="XMLID_3316_" transform="translate(686.000000, 0.000000)">
                        <polygon id="XMLID_3318_" fill="#58B147" points="229 111.8 171.8 0.7 114.7 111.8"></polygon>
                        <polygon id="XMLID_3317_" fill="#088443" points="114.7 111.8 57.5 0.7 0.3 111.8"></polygon>
                    </g>
                    <g id="XMLID_3313_" transform="translate(915.000000, 0.000000)">
                        <polygon id="XMLID_3315_" fill="#58B147" points="228.8 111.8 171.6 0.7 114.4 111.8"></polygon>
                        <polygon id="XMLID_3314_" fill="#088443" points="114.4 111.8 57.2 0.7 0 111.8"></polygon>
                    </g>
                    <g id="XMLID_3310_" transform="translate(1143.000000, 0.000000)">
                        <polygon id="XMLID_3312_" fill="#58B147" points="229.5 111.8 172.3 0.7 115.1 111.8"></polygon>
                        <polygon id="XMLID_3311_" fill="#088443" points="115.1 111.8 58 0.7 0.8 111.8"></polygon>
                    </g>
                    <g id="XMLID_3307_" transform="translate(1372.000000, 0.000000)">
                        <polygon id="XMLID_3309_" fill="#58B147" points="229.3 111.8 172.1 0.7 114.9 111.8"></polygon>
                        <polygon id="XMLID_3308_" fill="#088443" points="114.9 111.8 57.7 0.7 0.5 111.8"></polygon>
                    </g>
                </g>
                <g id="XMLID_3264_">
                    <g id="XMLID_3303_">
                        <polygon id="XMLID_3305_" fill="#58B147" points="228.8 111.6 171.6 0.5 114.4 111.6"></polygon>
                        <polygon id="XMLID_3304_" fill="#088443" points="114.4 111.6 57.2 0.5 0 111.6"></polygon>
                    </g>
                    <g id="XMLID_3280_" transform="translate(228.000000, 0.000000)">
                        <polygon id="XMLID_3302_" fill="#58B147" points="229.5 111.6 172.3 0.5 115.2 111.6"></polygon>
                        <polygon id="XMLID_3301_" fill="#088443" points="115.2 111.6 58 0.5 0.8 111.6"></polygon>
                    </g>
                    <g id="XMLID_3277_" transform="translate(457.000000, 0.000000)">
                        <polygon id="XMLID_3279_" fill="#58B147" points="229.3 111.6 172.1 0.5 114.9 111.6"></polygon>
                        <polygon id="XMLID_3278_" fill="#088443" points="114.9 111.6 57.7 0.5 0.5 111.6"></polygon>
                    </g>
                    <g id="XMLID_3274_" transform="translate(686.000000, 0.000000)">
                        <polygon id="XMLID_3276_" fill="#58B147" points="229 111.6 171.8 0.5 114.7 111.6"></polygon>
                        <polygon id="XMLID_3275_" fill="#088443" points="114.7 111.6 57.5 0.5 0.3 111.6"></polygon>
                    </g>
                    <g id="XMLID_3271_" transform="translate(915.000000, 0.000000)">
                        <polygon id="XMLID_3273_" fill="#58B147" points="228.8 111.6 171.6 0.5 114.4 111.6"></polygon>
                        <polygon id="XMLID_3272_" fill="#088443" points="114.4 111.6 57.2 0.5 0 111.6"></polygon>
                    </g>
                    <g id="XMLID_3268_" transform="translate(1143.000000, 0.000000)">
                        <polygon id="XMLID_3270_" fill="#58B147" points="229.5 111.6 172.3 0.5 115.1 111.6"></polygon>
                        <polygon id="XMLID_3269_" fill="#088443" points="115.1 111.6 58 0.5 0.8 111.6"></polygon>
                    </g>
                    <g id="XMLID_3265_" transform="translate(1372.000000, 0.000000)">
                        <polygon id="XMLID_3267_" fill="#58B147" points="229.3 111.6 172.1 0.5 114.9 111.6"></polygon>
                        <polygon id="XMLID_3266_" fill="#088443" points="114.9 111.6 57.7 0.5 0.5 111.6"></polygon>
                    </g>
                </g>
                <g id="XMLID_2796_" transform="translate(0.000000, 111.000000)">
                    <g id="XMLID_3261_" transform="translate(1372.000000, 0.000000)">
                        <polygon id="XMLID_3263_" fill="#58B147" points="0.5 111.7 57.7 0.6 114.9 111.7"></polygon>
                        <polygon id="XMLID_3262_" fill="#088443" points="114.9 111.7 172.1 0.6 229.3 111.7"></polygon>
                    </g>
                    <g id="XMLID_3258_" transform="translate(1143.000000, 0.000000)">
                        <polygon id="XMLID_3260_" fill="#58B147" points="0.8 111.7 58 0.6 115.1 111.7"></polygon>
                        <polygon id="XMLID_3259_" fill="#088443" points="115.1 111.7 172.3 0.6 229.5 111.7"></polygon>
                    </g>
                    <g id="XMLID_3255_" transform="translate(915.000000, 0.000000)">
                        <polygon id="XMLID_3257_" fill="#58B147" points="0 111.7 57.2 0.6 114.4 111.7"></polygon>
                        <polygon id="XMLID_3256_" fill="#088443" points="114.4 111.7 171.6 0.6 228.8 111.7"></polygon>
                    </g>
                    <g id="XMLID_2806_" transform="translate(686.000000, 0.000000)">
                        <polygon id="XMLID_3254_" fill="#58B147" points="0.3 111.7 57.5 0.6 114.7 111.7"></polygon>
                        <polygon id="XMLID_2808_" fill="#088443" points="114.7 111.7 171.8 0.6 229 111.7"></polygon>
                    </g>
                    <g id="XMLID_2803_" transform="translate(457.000000, 0.000000)">
                        <polygon id="XMLID_2805_" fill="#58B147" points="0.5 111.7 57.7 0.6 114.9 111.7"></polygon>
                        <polygon id="XMLID_2804_" fill="#088443" points="114.9 111.7 172.1 0.6 229.3 111.7"></polygon>
                    </g>
                    <g id="XMLID_2800_" transform="translate(228.000000, 0.000000)">
                        <polygon id="XMLID_2802_" fill="#58B147" points="0.8 111.7 58 0.6 115.2 111.7"></polygon>
                        <polygon id="XMLID_2801_" fill="#088443" points="115.2 111.7 172.3 0.6 229.5 111.7"></polygon>
                    </g>
                    <g id="XMLID_2797_">
                        <polygon id="XMLID_2799_" fill="#58B147" points="0 111.7 57.2 0.6 114.4 111.7"></polygon>
                        <polygon id="XMLID_2798_" fill="#088443" points="114.4 111.7 171.6 0.6 228.8 111.7"></polygon>
                    </g>
                </g>
            </g>
            <path d="M1719.4,1078.8 L5,1078.8 C2.2,1078.8 0,1076.6 0,1073.8 L0,6 C0,3.2 2.2,1 5,1 L1719.4,1 C1722.2,1 1724.4,3.2 1724.4,6 L1724.4,1073.8 C1724.4,1076.5 1722.2,1078.8 1719.4,1078.8 L1719.4,1078.8 Z" id="XMLID_3509_" fill-opacity="0.5" fill="#133C1C"></path>
        </g>
    </g>
</svg>